<?xml version="1.0" standalone="no"?>
<!DOCTYPE svg PUBLIC "-//W3C//DTD SVG 1.1//EN" "http://www.w3.org/Graphics/SVG/1.1/DTD/svg11.dtd" >
<svg xmlns="http://www.w3.org/2000/svg">
<metadata></metadata>
<defs>
<font id="_.uploaded_file" horiz-adv-x="1370" >
<font-face units-per-em="2048" ascent="1536" descent="-512" />
<missing-glyph horiz-adv-x="491" />
<glyph horiz-adv-x="0" />
<glyph horiz-adv-x="0" />
<glyph unicode="&#xd;" horiz-adv-x="491" />
<glyph unicode=" "  horiz-adv-x="491" />
<glyph unicode="&#x09;" horiz-adv-x="491" />
<glyph unicode="&#xa0;" horiz-adv-x="491" />
<glyph unicode="!" horiz-adv-x="671" d="M147 1182q0 90 48.5 134t138.5 44q92 0 141 -44t49 -134q0 -27 -8 -80t-20.5 -123t-27.5 -147.5t-31.5 -153.5t-31 -141.5t-22.5 -108.5h-98q-8 43 -21.5 108.5t-29 141.5t-31 153.5t-27.5 147.5t-20.5 123t-8.5 80zM150 133q0 84 53 136.5t133 52.5q82 0 136 -54.5 t54 -134.5q0 -39 -15 -70.5t-41 -55t-60.5 -37t-73.5 -13.5q-78 0 -132 49t-54 127z" />
<glyph unicode="&#x22;" horiz-adv-x="856" d="M61 1247q0 51 36 89t122 38q82 0 119 -38t37 -89q0 -16 -12.5 -70.5t-30 -122t-38 -137t-36.5 -114.5h-84q-16 45 -35.5 114.5t-37 137t-29 122t-11.5 70.5zM483 1247q0 51 36 89t122 38q82 0 119 -38t37 -89q0 -16 -12.5 -70.5t-30 -122t-38 -137t-36.5 -114.5h-84 q-16 45 -35.5 114.5t-37 137t-29 122t-11.5 70.5z" />
<glyph unicode="#" horiz-adv-x="1191" d="M74 342v127h215l47 360h-227v127h245l47 342h138l-47 -342h299l47 342h139l-49 -342h190v-127h-207l-47 -360h213v-127h-233l-47 -342h-138l48 342h-299l-50 -342h-137l47 342h-194zM426 469h299l49 360h-301z" />
<glyph unicode="$" horiz-adv-x="1024" d="M76 336l88 8q29 -66 52.5 -113t43.5 -75q23 -35 43 -58q57 -20 131 -24l27 327q-10 4 -21.5 7.5t-21.5 7.5q-92 29 -156.5 60.5t-104.5 70.5t-57.5 87t-17.5 109q0 76 36 139.5t96 110.5t139 75t163 32l21 252h96l-21 -254q84 -4 159 -12.5t134 -24.5q4 -35 10 -80 q4 -39 7.5 -96.5t3.5 -130.5l-86 -9q-29 72 -51.5 115t-38.5 70q-20 29 -35 45q-45 18 -111 22l-26 -331l18 -4q92 -29 158.5 -59t111.5 -66.5t66.5 -87t21.5 -117.5q0 -78 -34.5 -143.5t-93 -113.5t-138.5 -76t-168 -30l-20 -264h-94l20 266q-90 6 -175 22.5t-157 43.5 q-4 45 -8 96q-4 43 -7 96.5t-3 106.5zM360 836q0 -49 28 -80t95 -58l25 295q-63 -12 -105.5 -54t-42.5 -103zM530 78q61 14 102.5 55t41.5 100q0 47 -26.5 77t-94.5 59z" />
<glyph unicode="%" horiz-adv-x="1556" d="M68 805q0 66 29.5 122t78.5 98t111.5 65.5t128.5 23.5q39 0 73.5 -10t65.5 -27q8 -4 32.5 -15t64.5 -23.5t92.5 -21.5t117.5 -9q86 0 155.5 16t123.5 37q61 23 110 53l70 -61l-1114 -1246l-72 66l1016 1131q-49 -33 -122 -57.5t-173 -24.5q-63 0 -113.5 13t-89.5 34 q29 -57 29 -125q0 -66 -20.5 -123t-57.5 -100t-89 -68t-118 -25q-68 0 -127 18.5t-104 53.5t-71.5 87t-26.5 118zM303 811q0 -88 32 -145.5t87 -57.5q33 0 60.5 18.5t46 51.5t28.5 75t10 91q0 86 -35.5 139t-95.5 53q-31 0 -55.5 -18.5t-41.5 -49t-26.5 -71.5t-9.5 -86z M831 176q0 68 30 125t78 99t110.5 65.5t128.5 23.5q63 0 120.5 -18t100.5 -54t67.5 -86.5t24.5 -111.5q0 -72 -26.5 -130t-72.5 -99t-105.5 -64.5t-125.5 -23.5t-126 18.5t-105 53t-72 86t-27 116.5zM1065 186q0 -90 31.5 -147t89.5 -57q66 0 105.5 64.5t39.5 170.5 q0 90 -35.5 141.5t-95.5 51.5q-31 0 -55.5 -17.5t-43 -48.5t-27.5 -72t-9 -86z" />
<glyph unicode="&#x26;" horiz-adv-x="1421" d="M33 322q0 76 30.5 138t82 111.5t115 84t128.5 57.5q-106 143 -106 286q0 68 33.5 128.5t90 107.5t130 74.5t153.5 27.5q92 0 164 -23.5t120 -64.5t73.5 -95t25.5 -116q0 -117 -89 -189.5t-245 -121.5q29 -53 70 -114.5t78 -114.5q43 -63 88 -125l39 63q29 39 47 79t18 63 q0 31 -22 43l-84 12v82h391v-82l-61 -17q-10 -6 -28 -22t-48.5 -52t-77.5 -94.5t-117 -150.5q47 -74 87 -108.5t83 -34.5q27 0 67 12t60 20l31 -71q-57 -61 -143.5 -101.5t-172.5 -40.5q-43 0 -74.5 6.5t-61 23.5t-60.5 45t-68 71q-78 -63 -166 -104.5t-198 -41.5 q-80 0 -149.5 25t-122 70t-82 109.5t-29.5 144.5zM328 440q0 -59 20.5 -112.5t54 -95.5t76.5 -66.5t90 -24.5q37 0 79 16.5t67 37.5q-33 45 -71 100t-76 114.5t-73.5 118t-64.5 111.5q-43 -25 -72.5 -76t-29.5 -123zM563 1098q0 -57 29 -127t98 -172q55 39 97 107.5 t42 154.5q0 88 -39.5 135t-99.5 47q-51 0 -89 -42t-38 -103z" />
<glyph unicode="'" horiz-adv-x="434" d="M61 1247q0 51 36 89t122 38q82 0 119 -38t37 -89q0 -16 -12.5 -70.5t-30 -122t-38 -137t-36.5 -114.5h-84q-16 45 -35.5 114.5t-37 137t-29 122t-11.5 70.5z" />
<glyph unicode="(" horiz-adv-x="700" d="M47 528q0 297 143.5 557.5t427.5 434.5l68 -76q-92 -82 -153.5 -185.5t-97.5 -221t-51 -244.5t-15 -256q0 -133 14 -264.5t51 -251t98.5 -227t155.5 -195.5l-67 -72q-139 86 -246 196.5t-179.5 239.5t-110.5 272.5t-38 292.5z" />
<glyph unicode=")" horiz-adv-x="700" d="M12 -401q94 88 155.5 195.5t98.5 227t51.5 250.5t14.5 265q0 129 -15.5 256t-51.5 244.5t-97.5 221t-153.5 185.5l68 76q285 -174 428 -434.5t143 -557.5q0 -150 -37.5 -293t-110.5 -272t-179.5 -239.5t-245.5 -196.5z" />
<glyph unicode="*" horiz-adv-x="874" d="M59 969q0 57 34 92t83 31q41 -4 92 -33t138 -66q-61 72 -101.5 113t-56.5 80q-16 37 0 84t78 65q55 16 97 -6t54 -69q10 -39 -2 -99.5t-18 -148.5q49 86 76.5 135t56.5 72q33 27 82 26.5t84 -51.5q35 -47 24.5 -95t-49.5 -73q-35 -23 -96.5 -29t-147.5 -28 q84 -23 146.5 -32t93.5 -32q35 -23 48 -67.5t-21 -96.5q-35 -47 -84 -52t-84 24q-33 25 -58.5 81t-72.5 132q4 -84 14 -145.5t0 -102.5q-4 -18 -16.5 -36.5t-32 -31t-45 -15.5t-56.5 7q-53 18 -73.5 63.5t-3.5 88.5q16 37 61 78.5t105 111.5q-82 -35 -139.5 -62.5 t-94.5 -27.5q-47 0 -81 28.5t-34 86.5zM414 946l39 -12l24 35l-24 35l-39 -17v-41z" />
<glyph unicode="+" horiz-adv-x="1015" d="M57 446v134h377v376h148v-376h374v-134h-374v-376h-148v376h-377z" />
<glyph unicode="," horiz-adv-x="540" d="M76 135q0 35 12 69t33.5 61.5t51.5 44t65 16.5q43 0 82.5 -15.5t71.5 -43t51.5 -65.5t19.5 -83q0 -66 -25.5 -125.5t-68.5 -111.5t-100.5 -98t-121.5 -83l-53 84q76 47 117 94t41 86q0 23 -15.5 37t-74.5 37q-37 14 -61.5 35.5t-24.5 60.5z" />
<glyph unicode="-" horiz-adv-x="806" d="M98 412v217h613v-217h-613z" />
<glyph unicode="." horiz-adv-x="536" d="M80 137q0 84 53 136.5t133 52.5q82 0 136.5 -54.5t54.5 -134.5q0 -39 -15.5 -70.5t-41 -55t-60.5 -37t-74 -13.5q-78 0 -132 49t-54 127z" />
<glyph unicode="/" horiz-adv-x="1116" d="M31 -393l817 1917l172 -70l-817 -1919z" />
<glyph unicode="0" horiz-adv-x="1265" d="M98 514q0 131 47.5 232.5t124 171t172 105.5t191.5 36q98 0 194.5 -36t172 -104.5t121.5 -171t46 -233.5q0 -127 -45 -228.5t-119.5 -172t-172 -107.5t-201.5 -37t-199.5 37t-169.5 106.5t-118 171t-44 230.5zM401 514q0 -88 12.5 -169t40 -142.5t71.5 -98t110 -36.5 q63 0 106 35.5t71 97t40 142.5t12 171q0 92 -12 173t-40 142.5t-73 97.5t-110 36q-63 0 -106.5 -38t-70 -100.5t-39 -143.5t-12.5 -167z" />
<glyph unicode="1" horiz-adv-x="845" d="M86 897q45 18 101.5 39.5t117 43t122.5 41t118 36.5l71 -10q-2 -27 -4 -79.5t-3 -110.5t-2 -112.5t-1 -80.5v-324q0 -76 1 -120t4 -67.5t7.5 -31.5t12.5 -12l166 -19v-90h-693v88l189 16q8 4 14 12.5t9 32t4.5 68.5t1.5 125v279q0 25 1 57.5t2 64t3 59t4 42.5 q-18 -2 -48 -5t-64 -6.5t-65.5 -6.5t-54.5 -5z" />
<glyph unicode="2" horiz-adv-x="1103" d="M86 70q20 14 57 43.5t82 64.5t91 74t83 72q63 55 105.5 97t68 76.5t35.5 65.5t10 66q0 92 -59 144t-149 52q-78 0 -151 -33.5t-130 -68.5l-37 65q33 55 77 104.5t100.5 86.5t123 58.5t142.5 21.5q82 0 151.5 -21.5t120.5 -62.5t79.5 -99.5t28.5 -130.5q0 -66 -20.5 -120 t-66.5 -105t-117.5 -103t-171.5 -114l-127 -80h383q16 2 30.5 11.5t31.5 28t39 48t52 76.5l70 -8q-4 -43 -11.5 -97.5t-16.5 -107.5t-18 -100t-18 -74h-598q-86 0 -147.5 -2t-95.5 -6z" />
<glyph unicode="3" horiz-adv-x="1093" d="M37 -272q0 66 24.5 126t59.5 78q43 -8 90 -40.5t93 -71.5t90 -74t81 -43q47 4 90 22.5t77 52.5t53.5 82t19.5 109q0 70 -28 126.5t-73 94t-105 58t-124 20.5q-23 0 -50.5 -3t-47.5 -5l-13 84q193 68 284 134.5t91 154.5q0 92 -65.5 145t-163.5 53q-78 0 -156 -25.5 t-139 -64.5l-35 70q35 51 83 96t107.5 79t129 53.5t145.5 19.5q78 0 148.5 -21.5t124 -61.5t85 -97.5t31.5 -130.5q0 -113 -76.5 -190t-212.5 -128v-10q158 -23 257.5 -106.5t99.5 -233.5q0 -104 -46 -190.5t-125 -147.5t-183.5 -96t-221.5 -35q-74 0 -145.5 7t-128 21.5 t-91 37t-34.5 51.5z" />
<glyph unicode="4" horiz-adv-x="1126" d="M33 78q111 238 214 458t202 386q25 41 48 66.5t50.5 40.5t60.5 20.5t74 5.5q25 0 51.5 -3t51 -7.5t45 -8.5t30.5 -8v-63q-55 -55 -136 -145.5t-174 -201t-190.5 -235.5t-185.5 -252h461v287q51 25 108.5 44t120.5 27l58 -8v-350h159v-113h-159v-372h-287v372h-586z" />
<glyph unicode="5" horiz-adv-x="1099" d="M37 -266q0 27 8 60.5t20.5 64t30 55.5t35.5 35q45 -8 92 -41t91 -73t85 -79t76 -59q109 10 178.5 74.5t69.5 181.5q0 74 -32 129t-83 91t-115.5 54.5t-127.5 18.5t-110.5 -7.5t-76.5 -13.5l-65 25q2 12 7 49t11 82t10 87t6 67l33 501l15 11q66 -8 183.5 -14.5t311.5 -6.5 q92 0 125 6t45 19l49 147l84 -4q-4 -49 -10 -108.5t-13 -119t-15.5 -112.5t-16.5 -90q-121 0 -227.5 1t-192.5 3t-148.5 4t-95.5 4l-20 -221l-12 -63q37 10 93 18t142 8q96 0 187.5 -25.5t163 -78t115.5 -132t44 -186.5q0 -113 -46 -203t-121 -152.5t-170 -96t-193 -33.5 q-80 0 -156 8t-134 23.5t-94 39t-36 52.5z" />
<glyph unicode="6" horiz-adv-x="1159" d="M82 506q0 174 56.5 324.5t165 267t265 197.5t357.5 118l35 -76q-238 -92 -376.5 -228t-183.5 -353q43 27 113 48t148 21q92 0 170.5 -26.5t136 -78.5t90.5 -127t33 -173q0 -104 -39 -188.5t-105.5 -142.5t-156 -89t-189.5 -31q-113 0 -208 36t-164.5 103.5t-108.5 168 t-39 229.5zM379 524q0 -209 60.5 -332.5t168.5 -123.5q94 0 140.5 89t46.5 232q0 147 -58.5 227t-161.5 80q-53 0 -102 -13t-80 -30q-4 -16 -9 -58t-5 -71z" />
<glyph unicode="7" horiz-adv-x="1079" d="M47 592q20 156 42 260t46 197l76 -2l22 -19q14 -2 64.5 -3t132.5 -2t190.5 -2t239.5 -1q41 4 92.5 15.5t81.5 21.5l39 -49q-123 -156 -221 -316t-167 -299t-105.5 -245.5t-36.5 -155.5q4 -33 20.5 -71t35.5 -74.5t35.5 -71.5t18.5 -62q-12 -25 -34.5 -43t-51 -31.5 t-61.5 -20.5t-66 -7q-66 0 -113.5 36t-47.5 101q0 57 22.5 134t61 165t90 184.5t107.5 191.5t116.5 185t116.5 166h-398q-98 0 -142 -7t-63 -26l-61 -155z" />
<glyph unicode="8" horiz-adv-x="1222" d="M102 322q0 63 28 118.5t71 99.5t97 75.5t108 52.5q-70 39 -120 76.5t-83 79.5t-49.5 88t-16.5 104q0 88 40 159.5t107.5 123t157.5 79t189 27.5q92 0 175 -19.5t145.5 -58.5t100.5 -97.5t38 -135.5q0 -66 -25 -116t-64.5 -89t-89 -67.5t-96.5 -49.5q152 -76 225.5 -161 t73.5 -216q0 -102 -41 -181t-111.5 -133t-165 -83t-200.5 -29q-102 0 -192.5 19.5t-157 62.5t-105.5 109.5t-39 161.5zM338 342q0 -61 18.5 -112.5t51 -88.5t77.5 -57.5t99 -20.5q47 0 90 14.5t75.5 41t52 66.5t19.5 91q0 47 -12 88.5t-49 81t-102.5 82.5t-172.5 95 q-66 -51 -106.5 -121t-40.5 -160zM416 1112q0 -39 12 -73.5t46 -68.5t94.5 -71t154.5 -82q23 14 47.5 41t44 60.5t32.5 73.5t13 83q0 115 -59.5 174.5t-161.5 59.5q-100 0 -161.5 -55.5t-61.5 -141.5z" />
<glyph unicode="9" horiz-adv-x="1134" d="M55 606q0 98 41 181t108.5 143.5t156 94.5t184.5 34q113 0 207 -36t161.5 -104.5t105.5 -171t38 -233.5q0 -172 -57.5 -321.5t-167 -266t-267 -198.5t-356.5 -119l-37 76q240 90 383 239.5t184 343.5q-20 -12 -50 -26.5t-64.5 -24.5t-71.5 -17t-70 -7q-96 0 -175 28.5 t-135 82.5t-87 130t-31 172zM352 639q0 -147 57.5 -232t161.5 -85q47 0 94.5 13t82.5 30q2 14 4 36.5l4 45t3 44t1 35.5q0 94 -15.5 175t-44 139.5t-69.5 91.5t-92 33q-47 0 -82 -25t-57.5 -69t-35 -103t-12.5 -129z" />
<glyph unicode=":" horiz-adv-x="618" d="M121 131q0 84 53 136t133 52q82 0 136.5 -54t54.5 -134q0 -39 -15.5 -70.5t-41 -55t-60.5 -37t-74 -13.5q-78 0 -132 49t-54 127zM121 758q0 84 53 136t133 52q82 0 136.5 -54t54.5 -134q0 -39 -15.5 -71t-41 -55.5t-60.5 -36.5t-74 -13q-78 0 -132 49t-54 127z" />
<glyph unicode=";" horiz-adv-x="583" d="M100 135q0 35 12.5 69t34 61.5t51 44t64.5 16.5q43 0 83 -15.5t72 -43t51 -65.5t19 -83q0 -66 -25.5 -125.5t-68.5 -111.5t-100 -98t-121 -83l-53 84q76 47 116.5 94t40.5 86q0 23 -15 37t-75 37q-37 14 -61.5 35.5t-24.5 60.5zM104 758q0 84 53.5 136t133.5 52 q82 0 136 -54t54 -134q0 -39 -15 -71t-41 -55.5t-60.5 -36.5t-73.5 -13q-78 0 -132.5 49t-54.5 127z" />
<glyph unicode="&#x3c;" horiz-adv-x="937" d="M45 432v176l797 361v-164l-652 -283l652 -286v-166z" />
<glyph unicode="=" horiz-adv-x="1165" d="M133 246v143h899v-143h-899zM133 627v143h899v-143h-899z" />
<glyph unicode="&#x3e;" horiz-adv-x="937" d="M96 70v166l652 286l-652 283v164l797 -361v-176z" />
<glyph unicode="?" horiz-adv-x="915" d="M76 1237q0 57 48 90t116 33q100 0 209.5 -39t199.5 -107.5t148.5 -160.5t58.5 -199q0 -150 -86 -224.5t-246 -74.5h-55.5t-48.5 2q-25 0 -49 2l-23 -131h-90q-8 23 -17.5 57.5t-17.5 72.5t-13 75t-5 65q0 37 13 59.5t46 36t87.5 18.5t135.5 9q121 6 177.5 32t56.5 89 q0 41 -24.5 81t-63.5 75t-88 61.5t-96 38.5q-33 -12 -68 -36.5t-72 -49.5t-73.5 -45t-69.5 -25q-20 8 -36.5 31t-29 51.5t-18.5 59t-6 53.5zM143 133q0 84 52.5 136.5t132.5 52.5q82 0 137 -54.5t55 -134.5q0 -39 -15.5 -70.5t-42 -55t-61 -37t-73.5 -13.5q-78 0 -131.5 49 t-53.5 127z" />
<glyph unicode="@" horiz-adv-x="1916" d="M59 383q0 207 80 394.5t213 329.5t308.5 226t365.5 84q178 0 326.5 -51t256 -147.5t167 -232.5t59.5 -308q0 -121 -36 -247t-106.5 -228.5t-178 -169t-248.5 -66.5q-102 0 -166 44t-64 141q0 25 4 62.5t9.5 77.5t10.5 75.5t9 54.5l-6 2q-23 -74 -55.5 -154t-72.5 -147.5 t-87 -111.5t-103 -44q-72 0 -126 30t-90.5 79t-55 113.5t-18.5 136.5q0 131 46 255t118.5 220t165 153.5t184.5 57.5q66 0 116 -37t86 -84q25 23 61 41t71 35q39 18 79 34l52 -10q-10 -37 -21.5 -87t-23 -109.5t-22.5 -124t-19 -129.5l-33 -222q-6 -39 -9 -74.5t-3 -64.5 q0 -37 16 -63.5t57 -26.5q76 0 141.5 53.5t113.5 138.5t76 189t28 207q0 156 -51.5 277.5t-145.5 204.5t-224 126t-288 43q-182 0 -333.5 -79t-260 -210t-170 -302t-61.5 -355q0 -172 47 -307t137 -228.5t224 -142.5t309 -49q117 0 230.5 29.5t207.5 85.5l35 -86 q-104 -59 -225.5 -91t-250.5 -32q-193 0 -350 57t-270 164.5t-174.5 259.5t-61.5 340zM735 342q0 -72 25.5 -115t70.5 -43q39 0 80 52.5t77 127t63.5 155.5t44.5 138l14 105q-31 172 -147 172q-45 0 -86 -60.5t-73 -149.5t-50.5 -192.5t-18.5 -189.5z" />
<glyph unicode="A" d="M-4 0v94l86 10q41 23 88 150l317 844q33 96 56 200l237 52l408 -1059q18 -49 33.5 -82t28 -53.5t21.5 -30.5t17 -16l94 -15v-94h-604v94l109 12q18 8 18 37q0 23 -8 51.5t-29 81.5l-28 76h-500q-6 -25 -15.5 -55.5t-16.5 -59t-12 -52t-5 -31.5q0 -37 22 -45l117 -15v-94 h-434zM375 461h426l-219 598z" />
<glyph unicode="B" horiz-adv-x="1353" d="M80 0v94l110 19q10 6 17.5 17t11.5 35.5t6 69t2 119.5v617q0 76 -2 120t-5 68.5t-8 35.5t-11 17l-121 19v94h584q98 0 196 -12.5t177 -46t127 -94t48 -154.5q0 -127 -80.5 -195.5t-211.5 -91.5v-10q70 -10 135 -31.5t115.5 -61.5t81 -99.5t30.5 -141.5q0 -104 -44 -178 t-119 -120t-177 -67.5t-219 -21.5h-643zM530 301q0 -61 3.5 -99t11.5 -59.5t21.5 -31t33.5 -13.5h102q135 0 198 64t63 203q0 74 -22.5 128t-61.5 87.5t-92.5 50t-114.5 16.5h-142v-346zM530 743h144q106 0 163.5 52.5t57.5 179.5q0 135 -64.5 194.5t-173.5 59.5h-127v-486z " />
<glyph unicode="C" horiz-adv-x="1310" d="M72 649q0 160 56 290t150.5 222t217 141.5t256.5 49.5q154 0 270.5 -16.5t167.5 -26.5l20 -23q-2 -100 -6 -191t-14 -196l-86 -4q-35 92 -67.5 166t-80.5 149q-35 12 -94 21.5t-127 9.5q-84 0 -147.5 -42t-106.5 -114.5t-64.5 -169t-21.5 -206.5q0 -111 23.5 -221.5 t72 -199.5t122 -144.5t171.5 -55.5q41 0 85 4t71 10q57 76 109.5 171.5t99.5 191.5l86 -14q-10 -121 -24.5 -222.5t-30.5 -185.5q-96 -35 -210 -52.5t-225 -17.5q-147 0 -270 48.5t-213 136.5t-140 213t-50 278z" />
<glyph unicode="D" horiz-adv-x="1517" d="M80 0v94l121 19q6 6 11 17t8 35.5t5 69t2 119.5v617q0 76 -2 120t-5 68.5t-8 35.5t-11 17l-121 19v94h614q160 0 298 -40t239.5 -121t159 -200.5t57.5 -279.5q0 -152 -50 -277.5t-142.5 -216t-222.5 -140.5t-290 -50h-663zM530 362q0 -133 21.5 -191t97.5 -65h74 q102 0 177 41t123 117t71.5 179.5t23.5 230.5q0 121 -25.5 221t-78.5 172t-133 112t-191 40h-160v-857z" />
<glyph unicode="E" horiz-adv-x="1308" d="M80 0v94l121 19q6 6 11 17t8 35.5t5 69t2 119.5v617q0 76 -2 120t-5 68.5t-8 35.5t-11 17l-121 19v94h1091l27 -20q0 -43 -5 -93.5t-11 -101.5t-13.5 -98t-13.5 -82h-88q-20 63 -36.5 108t-32 77t-32 53.5t-34.5 39.5q-47 4 -156.5 9.5t-245.5 5.5v-506l158 4q57 4 84 11 t47 36l47 129l95 -4q0 -16 -1.5 -45t-2.5 -61.5t-2 -64.5t-1 -52q0 -23 1 -56.5t2 -68.5t2.5 -68t1.5 -51l-95 -6l-43 139q-20 29 -47.5 37t-87.5 12l-158 4v-258q0 -127 18.5 -185t90.5 -65h170q57 0 96 15.5t75 53.5t73 101.5t88 159.5l90 -14q-8 -104 -19.5 -211 t-27.5 -209h-1104z" />
<glyph unicode="F" horiz-adv-x="1198" d="M86 0v94l115 19q6 6 10 17t7 35.5t5 69t2 119.5v617q0 76 -2 120t-5 68.5t-7 35.5t-10 17l-115 19v94h1053l26 -20q0 -43 -5 -98.5t-11 -111t-12.5 -105.5t-12.5 -85h-88q-41 123 -69.5 192.5t-65.5 108.5q-18 2 -56 5t-87 5.5t-107.5 4.5t-120.5 2v-555l144 4 q63 2 86.5 11t42.5 32l47 133l94 -4q-2 -20 -3 -50t-2 -63t-1 -62.5v-50.5v-57.5t1 -71t2 -72.5t3 -59l-94 -6l-47 160q-23 25 -46.5 34t-82.5 11l-144 4v-217q0 -72 2.5 -115t6.5 -66.5t12 -33.5t18 -18l170 -17v-94h-653z" />
<glyph unicode="G" horiz-adv-x="1382" d="M70 647q0 160 57 290t152.5 222t220.5 142.5t262 50.5q74 0 145.5 -5.5t133 -11.5t106.5 -13t65 -11l21 -21q0 -55 -2 -115.5t-5 -115.5t-7.5 -99.5t-6.5 -66.5l-90 -4q-8 25 -24.5 67.5t-37 90t-44 92.5t-47.5 78q-37 10 -93.5 18t-115.5 8q-86 0 -154.5 -40 t-116 -112.5t-72 -174t-24.5 -226.5q0 -111 22.5 -218t72 -192t125 -138.5t182.5 -53.5q16 0 37.5 1t43 3t40 4t28.5 4q-2 29 -4 81t-2 138q0 49 -1 80t-4 49.5t-6 27.5t-7 16l-125 16v96h536v-96l-82 -16q-4 -4 -6 -13.5t-5 -34t-4 -70.5t-1 -122v-217 q-47 -14 -107.5 -25.5t-124 -19.5t-127 -12.5t-118.5 -4.5q-150 0 -276 48.5t-217 135.5t-142 212t-51 278z" />
<glyph unicode="H" horiz-adv-x="1615" d="M78 0v94l125 19q6 6 11 17t8 35.5t5 69t2 119.5v617q0 76 -2 120t-5 68.5t-8 35.5t-11 17l-125 19v94h606v-94l-125 -19q-6 -6 -11 -17t-8 -35.5t-5.5 -68.5t-2.5 -120v-246h549v246q0 76 -2 120t-5 68.5t-8 35.5t-11 17l-125 19v94h606v-94l-125 -19q-6 -6 -11 -17 t-8 -35.5t-5.5 -68.5t-2.5 -120v-617q0 -76 2.5 -120t5.5 -68.5t8 -35.5t11 -17l125 -19v-94h-606v94l125 19q6 6 11 17t8 35.5t5 69t2 119.5v258h-549v-258q0 -76 2.5 -120t5.5 -68.5t8 -35.5t11 -17l125 -19v-94h-606z" />
<glyph unicode="I" horiz-adv-x="761" d="M78 0v94l125 19q6 6 11 17t8 35.5t5 69t2 119.5v617q0 76 -2 120t-5 68.5t-8 35.5t-11 17l-125 19v94h606v-94l-125 -19q-6 -6 -11 -17t-8 -35.5t-5.5 -68.5t-2.5 -120v-617q0 -76 2.5 -120t5.5 -68.5t8 -35.5t11 -17l125 -19v-94h-606z" />
<glyph unicode="J" horiz-adv-x="722" d="M8 -279q57 53 96 100.5t62.5 100.5t34 118.5t10.5 154.5v776q0 76 -2 120t-5 68.5t-8.5 35.5t-13.5 17l-133 19v94h615v-94l-117 -19q-10 -8 -15.5 -18t-9.5 -34.5t-5 -68.5t-1 -120v-778q0 -109 -35 -194t-96 -150.5t-147 -112.5t-187 -80z" />
<glyph unicode="K" horiz-adv-x="1411" d="M82 0v94l119 19q6 6 11 17t8 35.5t5 69t2 119.5v617q0 76 -2 120t-5 68.5t-8 35.5t-11 17l-119 19v94h602v-94l-127 -19q-6 -6 -11 -17t-8 -35.5t-5.5 -68.5t-2.5 -120v-256l103 28l143 154q68 70 110 116t66.5 76.5t32.5 50t8 38.5q0 31 -22 39l-109 14v94h516v-94 l-135 -25q-39 -20 -82 -61t-104 -107l-226 -237l285 -447q39 -59 66.5 -100t51 -68.5t43 -44t42.5 -28.5l92 -19v-94h-629v94l82 10q20 14 21 39q0 47 -111 217l-178 267l-66 10v-283q0 -76 2.5 -120t5.5 -68.5t8 -35.5t11 -17l109 -19v-94h-584z" />
<glyph unicode="L" horiz-adv-x="1230" d="M78 0v94l115 15q12 6 19 17t11 36.5t5 71t1 120.5v617q0 76 -1 121t-5 69.5t-10 35.5t-16 17l-119 17v94h637v-94l-142 -14q-12 -6 -20 -17.5t-12 -37t-6.5 -70.5t-2.5 -121v-617q0 -72 4.5 -119t14.5 -75.5t30.5 -42t51.5 -15.5h151q45 2 80 23.5t70 69t75 124t95 189.5 l88 -10q-6 -160 -17.5 -290t-21.5 -208h-1075z" />
<glyph unicode="M" horiz-adv-x="1814" d="M51 0v96l103 13q8 6 16 15t15.5 34.5t13.5 71.5t10 124l49 764q-12 29 -31.5 59.5t-31.5 39.5l-103 14v94h430l396 -940l221 580q14 39 32.5 95t36 110.5t28.5 98.5t15 56h467v-96l-106 -17q-18 -10 -27.5 -48t-9.5 -140q0 -23 2 -83t6 -140t8 -169t7.5 -168t6.5 -135.5 t3 -70.5q4 -80 12 -109.5t29 -39.5l104 -13v-96h-579v96l108 13q16 10 20.5 40.5t4.5 122.5q0 18 -2 76t-5.5 133.5t-6.5 160.5t-6 158.5t-6 127t-3 67.5l-393 -993l-105 -16l-426 981l-14 -615q-1 -48 -1 -84v-33q1 -45 5 -70.5t10 -36.5t13 -15l153 -17v-96h-469z" />
<glyph unicode="N" horiz-adv-x="1558" d="M59 0v94l138 15q8 8 15 19t11 32.5t6 56.5t2 90l11 807q-10 16 -25.5 32.5t-31 32t-31 27t-27.5 17.5l-55 6v96h383l792 -950l-24 586q-4 74 -8.5 118.5t-10.5 71.5t-14 40t-21 23l-180 17v94h494v-94l-103 -17q-8 -6 -13 -17t-8 -39t-4 -78t-1 -130v-393 q0 -170 1 -318.5t3 -236.5l-146 -18l-864 1022l25 -699q2 -53 5 -87t8 -55.5t11 -32.5t17 -19l198 -19v-94h-553z" />
<glyph unicode="O" horiz-adv-x="1519" d="M72 657q0 154 51 281t142 219t217 143.5t276 51.5q156 0 283.5 -49.5t218 -138.5t139.5 -212.5t49 -273.5q0 -156 -48 -285t-138.5 -222t-218.5 -145.5t-287 -52.5q-156 0 -283 50.5t-216 141.5t-137 216t-48 276zM395 670q0 -115 21.5 -220.5t66.5 -187.5t115 -130 t166 -48q100 0 168.5 49t111.5 130t61.5 186.5t18.5 220.5q0 119 -22.5 223t-68.5 181t-115.5 121t-163.5 44q-90 0 -158 -44t-113 -121t-66.5 -181.5t-21.5 -222.5z" />
<glyph unicode="P" horiz-adv-x="1312" d="M88 0v94l111 19q6 6 11 17t8 35.5t5 69t2 119.5v617q0 76 -2 120t-5 68.5t-8 35.5t-11 17l-111 19v94h557q123 0 234.5 -14.5t196.5 -56.5t136.5 -115.5t51.5 -192.5q0 -123 -46.5 -207t-126 -134t-186 -71.5t-225.5 -21.5q-88 0 -152 6v-164q0 -78 2 -123t5.5 -69.5 t9.5 -33.5t14 -15l193 -19v-94h-664zM528 631q25 -4 63 -6t79 -2q143 0 206.5 76.5t63.5 232.5q0 150 -72.5 217.5t-232.5 67.5h-57.5t-49.5 -3v-583z" />
<glyph unicode="Q" horiz-adv-x="1519" d="M72 657q0 154 51 281t142 219t217 143.5t276 51.5q156 0 283.5 -49.5t218 -138.5t139.5 -212.5t49 -273.5q0 -156 -48 -285t-138.5 -222t-218.5 -145.5t-287 -52.5q-20 0 -40 1t-40 3q90 -25 160.5 -51t131 -48.5t115 -38t109.5 -21.5q49 0 96 10t82 22l27 -51 q-25 -37 -58.5 -70.5t-74.5 -59t-87.5 -42t-95.5 -16.5q-63 0 -119.5 31.5t-127 88t-167 136.5t-237.5 176q-170 80 -264 240.5t-94 373.5zM395 670q0 -115 21.5 -220.5t66.5 -187.5t115 -130t166 -48q100 0 168.5 49t111.5 130t61.5 186.5t18.5 220.5q0 119 -22.5 223 t-68.5 181t-115.5 121t-163.5 44q-90 0 -158 -44t-113 -121t-66.5 -181.5t-21.5 -222.5z" />
<glyph unicode="R" horiz-adv-x="1400" d="M86 0v94l115 19q6 6 10 17t7 35.5t5 69t2 119.5v617q0 76 -2 120t-5 68.5t-7 35.5t-10 17l-115 19v93h612q115 0 217.5 -17t180.5 -57t123 -105.5t45 -163.5q0 -78 -29 -137.5t-79 -103.5t-118.5 -73.5t-150.5 -43.5v-9q72 -31 127 -81t96 -111q29 -45 59.5 -96.5 t67.5 -99.5t85 -89t114 -63l-6 -86q-135 2 -222.5 11t-144.5 31.5t-94 62.5t-72 102q-18 29 -45 80t-58.5 108t-65.5 112.5t-66 92.5q-25 -2 -64 -3t-68 -1v-230q0 -78 2.5 -123t5.5 -69.5t8 -33.5t13 -15l143 -19v-94h-616zM530 694q8 0 24.5 -1t37 -2t40 -2t34.5 -1 q135 0 203.5 73t68.5 208q0 76 -19.5 125t-54.5 76.5t-84 38t-108 10.5q-41 0 -85 -2.5t-57 -4.5v-518z" />
<glyph unicode="S" horiz-adv-x="1185" d="M90 946q0 94 42 170t112.5 128t164 80t193.5 28q59 0 119.5 -2t118 -6.5t107.5 -9.5t89 -11l19 -20q6 -70 10 -170.5t4 -212.5l-92 -5q-41 102 -81 174t-83 132q-51 10 -104.5 17t-118.5 7q-115 0 -191.5 -46t-76.5 -140q0 -43 15 -73t56 -57.5t113 -58t182 -71.5 q104 -39 182 -78t130.5 -86t78 -107.5t25.5 -140.5q0 -109 -43 -186.5t-115 -126.5t-167 -73t-201 -24q-98 0 -221.5 9.5t-233.5 33.5q-6 49 -11.5 95.5t-8.5 92.5t-5 96t-4 112l101 8q43 -94 88 -174t71 -117q53 -27 106.5 -36t121.5 -9q61 0 114.5 10.5t92 34t60 59 t21.5 87.5q0 45 -17 76.5t-58 60t-112 57.5t-177 66q-213 74 -314.5 167t-101.5 240z" />
<glyph unicode="T" horiz-adv-x="1308" d="M43 852q2 154 10 278.5t17 202.5q18 -2 51 -3t72.5 -2t84 -2t84.5 -1h580q39 0 84 1t86 2t75 2t52 3q8 -78 16.5 -202.5t10.5 -278.5l-92 -8q-35 98 -62 160.5t-49.5 103.5t-42 66.5t-39.5 48.5h-152q-6 -6 -11 -20.5t-7 -42t-3 -74t-1 -115.5v-617q0 -76 1 -120t4 -68.5 t8 -35.5t11 -17l175 -19v-94h-703v94l174 19q6 6 10.5 17t7.5 35.5t5 69t2 119.5v617q0 70 -1 116t-4 73.5t-8.5 42t-11.5 20.5h-149q-20 -23 -40 -48.5t-42.5 -66.5t-49 -103.5t-61.5 -160.5z" />
<glyph unicode="U" horiz-adv-x="1449" d="M53 1231v94h615v-94l-150 -17q-8 -6 -14 -19t-9 -41t-4.5 -74t-1.5 -115v-508q0 -88 15.5 -156t52.5 -113t97.5 -68.5t150.5 -23.5q98 0 161.5 31t100.5 86t51.5 132t14.5 171v438q0 133 -11.5 188.5t-34.5 71.5l-153 17v94h469v-94l-115 -17q-14 -16 -22.5 -74.5 t-8.5 -185.5v-462q0 -117 -22.5 -213.5t-79.5 -164t-157.5 -105.5t-254.5 -38q-129 0 -232 23.5t-176 78t-112 142.5t-39 217v545q0 74 -1 118t-4 68.5t-7 34.5t-10 16z" />
<glyph unicode="V" horiz-adv-x="1363" d="M-23 1231v94h670v-94l-143 -12q-20 -16 -21 -50q0 -47 45 -155l256 -652l217 578q25 70 40.5 128t15.5 91q0 43 -23 60l-141 12v94h471v-94l-100 -14q-14 -10 -25.5 -24.5t-26 -41.5t-32 -68t-41.5 -104l-275 -696l-86 -295l-147 -17l-428 1039q-25 59 -42.5 96 t-32.5 58.5t-28.5 31.5t-25.5 18z" />
<glyph unicode="W" horiz-adv-x="2052" d="M-27 1231v94h621v-94l-96 -12q-20 -16 -21 -48q0 -47 45 -159l246 -647l211 542l-49 121q-20 51 -38 84t-32 53.5t-26.5 31.5t-24.5 20l-74 14v94h629v-94l-121 -12q-23 -16 -22 -50q0 -29 11 -61.5t34 -95.5l235 -647l191 577q20 61 35.5 123.5t15.5 97.5q0 39 -23 56 l-137 12v94h465v-94l-100 -14q-29 -18 -55.5 -71.5t-67.5 -166.5l-256 -723l-74 -268l-147 -17l-312 789l-225 -590l-49 -182l-146 -17l-419 1039q-23 55 -40.5 91t-34 58.5t-30.5 34.5t-26 20z" />
<glyph unicode="X" horiz-adv-x="1339" d="M6 0v94l88 10q78 35 189 191l243 338l-254 409q-31 49 -55 81t-43.5 50.5t-36 28.5t-33.5 19l-81 10v94h645v-94l-107 -10q-23 -10 -22 -37q0 -31 59 -127l156 -250l135 205q37 59 55.5 94t18.5 68q0 18 -6.5 27t-18.5 16l-94 14v94h469v-94l-96 -14q-27 -12 -61 -39 t-81 -95l-252 -358l252 -414q57 -96 96 -140t72 -60l94 -17v-94h-641v94l86 10q23 10 23 43q0 27 -19.5 68t-66.5 119l-127 213l-178 -264q-27 -37 -43.5 -74t-16.5 -59q0 -27 27 -44l115 -12v-94h-490z" />
<glyph unicode="Y" horiz-adv-x="1259" d="M-29 1231v94h625v-94l-104 -10q-20 -6 -21 -33q0 -29 41 -96l221 -373l176 340q35 68 35 104q0 20 -6 32.5t-29 23.5l-112 12v94h467v-94l-95 -17q-31 -18 -60.5 -55t-70.5 -108l-243 -422v-275q0 -76 1 -120t5 -68.5t11 -35.5t19 -19l150 -17v-94h-678v94l150 17 q10 8 17 19t11 35.5t6 69t2 119.5v226l-303 485q-43 72 -68.5 104.5t-49.5 47.5z" />
<glyph unicode="Z" horiz-adv-x="1236" d="M74 866q8 158 17 280t15 193l238 -14h791l18 -76l-694 -1136h131q86 0 172 11t143 28q43 53 84 140t80 185l96 -6q-2 -66 -6 -137.5t-9 -138t-10 -118.5t-7 -77h-1037l-20 74l694 1140h-160q-35 0 -75.5 -2t-79.5 -5t-72 -8t-51 -11q-37 -37 -79 -125t-85 -203z" />
<glyph unicode="[" horiz-adv-x="706" d="M154 -467v1962h512v-90l-187 -21q-4 -37 -8 -73q-4 -35 -6 -76t-2 -88v-1266q0 -47 2 -90t6 -76q4 -39 8 -71l187 -21v-90h-512z" />
<glyph unicode="\" horiz-adv-x="1116" d="M96 1454l172 70l817 -1917l-172 -72z" />
<glyph unicode="]" horiz-adv-x="706" d="M41 -377l186 21q4 33 9 71q4 33 6 76t2 90v1266q0 47 -2 88t-6 76q-4 37 -9 73l-186 21v90h512v-1962h-512v90z" />
<glyph unicode="^" horiz-adv-x="911" d="M23 694l358 639h160l348 -639h-164l-268 492l-273 -492h-161z" />
<glyph unicode="_" horiz-adv-x="1024" d="M25 -201h972v-118h-972v118z" />
<glyph unicode="`" horiz-adv-x="874" d="M203 1468q0 16 17.5 41t42 48.5t52 40t47.5 16.5q33 0 56 -41l194 -354l-61 -50l-307 240q-16 12 -28.5 27.5t-12.5 31.5z" />
<glyph unicode="a" horiz-adv-x="1085" d="M63 209q0 156 140.5 241t398.5 134q16 4 22.5 23.5t6.5 68.5v41q0 98 -32 151.5t-99 53.5q-41 0 -88 -9.5t-66 -17.5q-8 -16 -7 -31.5t4 -32t7 -35t4 -38.5q-6 -18 -33.5 -37t-63.5 -34t-70.5 -24.5t-57.5 -9.5q-33 0 -48 21.5t-15 50.5q0 53 31.5 99t84.5 83 q109 68 238 108t254 40q113 0 182.5 -74t69.5 -188q0 -119 -5 -231.5t-6 -229.5v-49q0 -90 11.5 -119t34.5 -29t56.5 7.5t45.5 11.5l18 -68q-37 -49 -112.5 -83t-161.5 -34q-78 0 -115.5 33.5t-62.5 99.5q-57 -55 -140 -94t-180 -39q-49 0 -93 17.5t-78 50.5t-54.5 76 t-20.5 96zM356 315q0 -74 34 -124t85 -50q43 0 84 17t64 37q4 51 6 128.5t2 170.5q-33 -4 -66 -11q-29 -4 -59.5 -12t-54.5 -18q-47 -16 -71 -48t-24 -90z" />
<glyph unicode="b" horiz-adv-x="1196" d="M27 1298v70q53 18 112 33q49 12 111.5 24.5t122.5 20.5l73 -4q-2 -61 -4 -125q-2 -53 -3 -116.5t-1 -123.5v-162q27 27 62 52.5t74.5 45t82.5 31t86 11.5q86 0 157 -38t123 -105.5t81 -158.5t29 -196q0 -145 -41 -254.5t-112 -183.5t-169 -112t-211 -38q-82 0 -172 13.5 t-170 35.5l-57 -43l-74 21q2 14 5 55t5 93.5t4 111.5t2 113v667q0 80 -2 127t-5 72t-7 33t-10 12zM438 436q0 -96 3 -179t12 -130q20 -20 65 -32.5t80 -12.5q106 0 164.5 88t58.5 276q0 184 -60.5 298t-172.5 114q-41 0 -83 -15.5t-67 -29.5v-377z" />
<glyph unicode="c" horiz-adv-x="960" d="M57 469q0 127 45 234.5t121 185.5t174.5 121t202.5 43q135 0 223 -37t88 -115q0 -27 -8 -58.5t-21.5 -61t-33 -53.5t-39.5 -30q-41 10 -85 47t-87 80t-84 79t-76 42q-23 -12 -45 -44t-38.5 -79t-27 -105.5t-10.5 -121.5q0 -84 23.5 -154.5t66.5 -123t105.5 -82 t140.5 -29.5q53 0 109.5 12t93.5 27l29 -64q-47 -92 -148.5 -152.5t-226.5 -60.5q-104 0 -194.5 36t-157 102.5t-103.5 158.5t-37 203z" />
<glyph unicode="d" horiz-adv-x="1218" d="M61 451q0 137 49.5 247.5t126 187.5t172 117.5t189.5 40.5q29 0 77 -5t79 -13v70q0 53 -1 85.5t-4.5 52t-7.5 29t-10 15.5l-102 18v76q57 16 119 31q53 12 115.5 23.5t121.5 19.5l74 -4q0 -8 -1 -44t-3 -88.5t-3 -113.5t-1 -119v-708q0 -80 2 -126t5 -69.5t8 -31 t11 -11.5l105 -12v-80q-51 -14 -105 -27q-47 -10 -103 -20t-114 -17l-82 5q-2 20 -6 43q-4 18 -7 40.5t-5 45.5l-6 2q-59 -66 -141.5 -104t-161.5 -38q-78 0 -148 34t-124 96.5t-86 151.5t-32 200zM373 553q0 -80 14 -149.5t43 -122t71 -83t95 -30.5q47 0 91 16.5t67 32.5 v379q0 96 -1 167t-3 118q-18 25 -67.5 40t-86.5 15q-100 0 -161.5 -101.5t-61.5 -281.5z" />
<glyph unicode="e" horiz-adv-x="1032" d="M59 475q0 127 41 233.5t110 183.5t158 120t187 43q82 0 155.5 -20.5t130 -62.5t90.5 -105.5t34 -147.5q0 -86 -9.5 -118t-31.5 -32q-63 0 -137 2t-151 4.5t-151.5 4.5t-138.5 2q-2 -6 -2 -13v-24q0 -154 88 -248t250 -94q59 0 134 14t128 35l25 -62q-53 -98 -164 -159.5 t-260 -61.5q-98 0 -187.5 38t-155 104.5t-104.5 159.5t-39 204zM350 684q0 -14 15 -14l274 8q37 6 37 92q0 104 -40 147.5t-106 43.5q-74 0 -122 -71t-58 -206z" />
<glyph unicode="f" horiz-adv-x="731" d="M70 895l8 80l112 29l7 6q25 117 63.5 199.5t100 136t146.5 78t202 24.5q69 -18 69 -94q0 -35 -5 -67t-14 -57.5t-21.5 -40.5t-26.5 -15q-23 0 -51.5 17t-59.5 40.5t-60.5 49.5t-52.5 42q-23 -16 -28.5 -39.5t-2.5 -58.5t12 -84t17 -115v-18l228 2l6 -27q0 -29 -5 -54.5 t-14 -54.5l-211 27q0 -4 -1 -15.5t-2 -36t-1 -65.5v-102v-57v-84.5t1 -115.5t2 -114.5t1 -83.5q0 -35 2.5 -56t4.5 -33.5t5 -18.5t7 -13l145 -20v-86h-577v86l94 16q12 10 16 32t4 89v479q0 43 1.5 79t3.5 61q2 29 6 51z" />
<glyph unicode="g" horiz-adv-x="1138" d="M51 -180q0 66 47 113t133 69q-149 35 -149 164q0 80 52 144.5t130 105.5q-72 41 -120 108.5t-48 169.5q0 82 35 148.5t93.5 114t137 73t164.5 25.5q72 0 138.5 -14.5t119.5 -43.5q53 25 107 47q47 16 98 32t94 16q16 0 25.5 -13.5t9.5 -48.5q0 -23 -2 -49.5t-4 -50.5 q-4 -29 -6 -58q-45 8 -90 19q-39 8 -82 19.5t-78 23.5l-4 -6q39 -35 69.5 -93.5t30.5 -140.5q0 -80 -32.5 -143.5t-90 -106.5t-134.5 -66.5t-163 -23.5q-61 0 -114 10.5t-76 20.5q-23 -16 -38 -42t-15 -48q0 -27 21.5 -38t58.5 -15q20 0 71.5 -1t110.5 -2t113.5 -2t83.5 -1 q156 -8 246.5 -72t90.5 -193q0 -96 -51 -166.5t-134 -116.5t-190.5 -67.5t-217.5 -21.5q-92 0 -172 14t-139.5 42t-94.5 70t-35 95zM248 -137q0 -45 23.5 -76t64.5 -50.5t95 -28.5t116 -9q63 0 124.5 9t109.5 29.5t78 52.5t30 79q0 66 -56.5 86t-142.5 25q-29 0 -76 2 t-101 4t-105.5 4t-88.5 4q-29 -23 -50 -54.5t-21 -76.5zM371 698q0 -117 40 -187.5t117 -70.5q78 0 115 71t37 191q0 129 -41 197t-113 68q-78 0 -116.5 -76t-38.5 -193z" />
<glyph unicode="h" horiz-adv-x="1263" d="M49 1296v72q57 16 117 31q51 12 112.5 25.5t118.5 21.5l74 -4q-2 -59 -4 -123q-2 -53 -3 -116.5t-1 -121.5v-166q66 55 149.5 97.5t178.5 42.5q72 0 132 -29t103 -80t66.5 -124.5t23.5 -162.5v-436q0 -68 3 -89t14 -32l92 -16v-86h-512v86l88 16q10 10 14 32t4 89v398 q0 119 -51 177t-129 58q-45 0 -99.5 -14.5t-76.5 -28.5v-590q0 -63 3 -86.5t13 -34.5l94 -16v-86h-518v86l92 16q10 10 14.5 32t4.5 89v817q0 80 -1 125t-4 68.5t-7 32t-11 12.5z" />
<glyph unicode="i" horiz-adv-x="645" d="M66 881v77q53 16 110 33q49 14 111.5 26.5t124.5 22.5l75 -6q-2 -49 -4 -96q-2 -41 -3 -84t-1 -74v-557q0 -63 3 -86.5t14 -34.5l94 -16v-86h-518v86l92 16q10 10 14 32t4 89v432q0 63 -1 102.5t-4 61t-7 30.5t-10 15zM152 1278q0 72 49 114t127 42t128 -42t50 -114 t-50 -111t-128 -39t-127 39t-49 111z" />
<glyph unicode="j" horiz-adv-x="595" d="M12 -315q37 31 64.5 63.5t46 76.5t27 103.5t8.5 141.5v585q0 68 -1 107t-4 60.5t-7.5 28.5t-10.5 13l-94 17v77q53 16 111 33q49 14 111.5 26.5t123.5 22.5l76 -6l-4 -98q-2 -41 -3 -88t-1 -86v-713q0 -82 -30 -150.5t-83 -124t-128 -97.5t-165 -72zM127 1278 q0 72 49 114t125 42q78 0 128 -42t50 -114t-50 -111t-128 -39q-76 0 -125 39t-49 111z" />
<glyph unicode="k" horiz-adv-x="1204" d="M53 1296v74q55 16 115 31q51 12 110.5 24.5t116.5 20.5l76 -4q-2 -61 -4 -125q-2 -53 -3 -116.5t-1 -123.5v-514l98 19l152 163q47 47 67.5 79t20.5 59q0 16 -5 25.5t-16 15.5l-90 10v88h475v-88l-96 -14q-80 -31 -172 -123l-121 -121l250 -434q41 -68 66.5 -97.5 t48.5 -44.5l51 -14v-86h-512v86l63 8q16 10 17 31q0 18 -31 65l-176 281l-90 10v-258q0 -63 3 -86.5t13 -34.5l86 -16v-86h-508v86l88 16q12 10 16.5 32t4.5 89v813q0 80 -1 126t-4 70.5t-7 33t-11 12.5z" />
<glyph unicode="l" horiz-adv-x="628" d="M49 1296v72q55 18 115 33q51 12 112.5 24.5t120.5 20.5l74 -4q-2 -61 -4 -125q-2 -53 -3 -116.5t-1 -123.5v-854q0 -66 3 -88t13 -33l94 -16v-86h-522v86l96 16q10 10 14.5 32t4.5 89v813q0 82 -1 128t-4 71t-7 32t-11 11z" />
<glyph unicode="m" horiz-adv-x="1900" d="M70 881v77q57 18 116 35q51 14 109.5 27.5t112.5 19.5l75 -4l-4 -129q66 68 154 108t168 40q94 0 158.5 -44t105.5 -116q76 74 172 117t193 43q74 0 133 -29t102 -80t66.5 -123.5t23.5 -158.5v-441q0 -68 3 -89t14 -32l86 -16v-86h-510v86l92 16q10 10 14 32t4 89v312 q0 92 -14 153.5t-39 97t-58.5 51t-72.5 15.5q-41 0 -94.5 -14.5t-83.5 -30.5q4 -27 10 -59q4 -29 8 -66t4 -82v-377q0 -68 3 -89t14 -32l92 -16v-86h-516v86l92 16q10 10 14 32t4 89v312q0 92 -12 152.5t-33.5 97t-52.5 52t-70 15.5t-93 -13.5t-81 -29.5v-586q0 -63 3 -86.5 t14 -34.5l94 -16v-86h-518v86l92 16q10 10 14 32t4 89v428q0 66 -1 105t-4 61.5t-7 31.5t-10 15z" />
<glyph unicode="n" horiz-adv-x="1280" d="M70 881v77q57 18 116 35q51 14 109.5 27.5t112.5 19.5l75 -4l-4 -123q70 61 155 101.5t171 40.5q74 0 134 -29t103 -81t67 -126t24 -166v-430q0 -68 3 -89t15 -32l92 -16v-86h-514v86l88 16q10 10 14.5 32t4.5 89v402q0 117 -52.5 174t-128.5 57q-23 0 -48 -4t-50 -11 t-45 -15.5t-33 -14.5v-588q0 -63 3 -86.5t14 -34.5l94 -16v-86h-518v86l92 16q10 10 14 32t4 89v428q0 66 -1 105t-4 61.5t-7 31.5t-10 15z" />
<glyph unicode="o" horiz-adv-x="1150" d="M57 504q0 127 45 228.5t119 173t169 110.5t198 39q96 0 187 -34t162 -99.5t113 -162.5t42 -224q0 -129 -43 -233.5t-116 -178.5t-166 -114t-194 -40q-100 0 -193 37t-165 106.5t-115 169t-43 222.5zM362 537q0 -92 15.5 -177.5t44.5 -150t69.5 -103t94.5 -38.5 q51 0 89 35.5t62.5 95t36.5 139.5t12 166q0 96 -13 179t-40.5 143.5t-67.5 95t-94 34.5q-55 0 -94 -35.5t-64.5 -94t-38 -134t-12.5 -155.5z" />
<glyph unicode="p" horiz-adv-x="1208" d="M45 -283l90 15q12 10 16.5 32.5t4.5 90.5v761q0 80 -1 126t-4.5 72t-6.5 35t-9 13l-90 19v80q53 18 113 34q49 14 110.5 26.5t120.5 18.5l68 -4q-2 -20 -2 -41q-2 -16 -2 -35.5v-33.5v-11q66 68 147.5 104t155.5 36q82 0 153.5 -38t123.5 -106.5t82 -162t30 -203.5 q0 -141 -40 -248t-108.5 -178.5t-163 -107.5t-200.5 -36q-18 0 -44 2.5t-51.5 5.5t-48 7t-36.5 8v-143q0 -66 3 -89.5t15 -33.5l127 -17v-86h-553v88zM453 436q0 -96 1 -169.5t3 -121.5q23 -25 75 -41t95 -16q100 0 154.5 89t54.5 261q0 199 -61.5 309.5t-168.5 110.5 q-43 0 -86 -16.5t-67 -32.5v-373z" />
<glyph unicode="q" horiz-adv-x="1193" d="M61 455q0 143 47.5 253.5t123 186.5t171 114t191.5 38q78 0 165 -13.5t163 -36.5l73 43l72 -20q-2 -16 -4 -55t-4 -91.5t-4 -110.5t-2 -112v-796q0 -68 3 -89.5t13 -31.5l88 -17v-88h-551v86l129 17q12 10 16.5 32.5t4.5 90.5v251q-63 -63 -143.5 -100t-166.5 -37 q-80 0 -150.5 35t-122.5 99.5t-82 153.5t-30 198zM373 537q0 -174 57 -272.5t162 -98.5q47 0 96 15.5t68 29.5v379q0 96 -3 174t-12 125q-20 23 -65 35t-78 12q-104 0 -164.5 -102.5t-60.5 -296.5z" />
<glyph unicode="r" horiz-adv-x="909" d="M68 881v77q55 18 114 35q49 14 109.5 28.5t114.5 20.5l83 -8l-12 -203q33 39 73 78t82 70t83 50.5t76 19.5q37 0 69.5 -29t32.5 -68q0 -31 -4 -68.5t-12.5 -72.5t-20.5 -61.5t-27 -34.5q-25 0 -59.5 7t-71 16.5t-68.5 18.5t-50 15q-23 -4 -53.5 -18.5t-47.5 -24.5v-506 q0 -70 5 -91t20 -32l121 -14v-86h-553v86l92 16q10 10 14 32t4 89v428q0 66 -1 105t-4 61.5t-7 31.5t-10 15z" />
<glyph unicode="s" horiz-adv-x="954" d="M76 336l92 6q23 -66 44 -111t38 -73q18 -33 35 -54q33 -14 75.5 -21t85.5 -7q68 0 120 35.5t52 99.5q0 33 -11 57.5t-37.5 45t-69.5 39t-107 40.5q-84 29 -143.5 60.5t-98 70.5t-56 86t-17.5 109q0 78 34.5 140.5t92 105.5t132 66.5t152.5 23.5q94 0 190.5 -12.5 t162.5 -28.5q4 -33 8 -78q4 -39 7 -96.5t3 -130.5l-90 -9q-27 72 -45 115t-31 68q-14 29 -26 41q-27 10 -66 17t-82 7q-68 0 -121 -35.5t-53 -101.5q0 -33 11.5 -56.5t36 -43t64.5 -37t97 -35.5q86 -29 148.5 -58.5t104.5 -67.5t61.5 -87t19.5 -117q0 -80 -34 -143.5 t-91 -106.5t-133 -66.5t-162 -23.5q-94 0 -197.5 18.5t-179.5 49.5q-4 43 -8 94q-4 43 -6 96.5t-2 108.5z" />
<glyph unicode="t" horiz-adv-x="720" d="M47 889l6 88l127 33q8 8 36 45t59.5 80t57 77.5t29.5 40.5l93 -6q-2 -43 -2 -112.5v-128.5l231 6l8 -27q-2 -29 -6 -54.5t-12 -53.5l-225 18q0 -18 1 -69.5t2 -109t1 -109.5v-70v-226q0 -78 17 -121t65 -43q41 0 78.5 6.5t60.5 14.5l20 -78q-25 -25 -60.5 -47.5 t-77.5 -38.5t-86 -25.5t-87 -9.5q-111 0 -169 70t-58 203v448q0 14 1 45t1 62.5t1 58.5t1 33h-113z" />
<glyph unicode="u" horiz-adv-x="1236" d="M41 899v88q61 14 121 25q51 10 108.5 17t104.5 9l78 -4l-11 -182v-168q0 -76 1 -152.5t3 -146.5q4 -98 43 -157.5t111 -59.5q55 0 104.5 13.5t73.5 27.5v459q0 70 -1 109.5t-3 61t-6 28.5t-8 12l-103 20v86q63 14 127 25q53 10 113.5 18t110.5 10l75 -6q-2 -39 -4 -67 q-2 -27 -3 -47.5t-1 -24.5v-524q0 -80 1 -125t4 -68.5t8.5 -32t11.5 -12.5l86 -11v-87q-8 -4 -39 -11.5t-76 -15.5t-97 -16t-102 -13l-79 5q-2 27 -7 49q-4 20 -6 40.5t-2 37.5q-61 -57 -145 -98.5t-176 -41.5q-147 0 -229.5 109.5t-82.5 300.5v287q0 72 -1 112.5t-3 62 t-6 29t-10 11.5z" />
<glyph unicode="v" horiz-adv-x="1069" d="M-6 934v88h543v-88l-101 -14q-18 -12 -18 -41q0 -31 20 -78l191 -449l153 385q16 41 23.5 71t7.5 56q0 35 -18 54l-99 16v88h381v-88l-71 -14q-23 -18 -45.5 -55.5t-59.5 -121.5l-184 -430l-105 -327l-104 -11l-358 791q-31 70 -52.5 104.5t-40.5 51.5z" />
<glyph unicode="w" horiz-adv-x="1589" d="M-6 934v88h502v-88l-70 -8q-23 -10 -23 -43q0 -14 6.5 -41t22.5 -68l174 -432l160 373l-41 92q-23 57 -37 80.5t-37 34.5l-65 12v88h532v-88l-84 -12q-27 -14 -26 -50q0 -20 11 -59t36 -94l155 -377l95 262q29 80 44 152.5t15 101.5q0 41 -27 62l-80 14v88h334v-88 l-45 -12q-12 -8 -22.5 -20.5t-22.5 -36t-27.5 -62.5t-35.5 -98l-156 -404l-102 -315l-93 -11l-276 643l-131 -319l-107 -313l-90 -11l-342 781q-37 84 -55 117.5t-37 48.5z" />
<glyph unicode="x" horiz-adv-x="1073" d="M18 934v88h535v-86l-82 -12q-14 -12 -14 -35q0 -16 8 -38t35 -63l106 -167l127 182q16 18 26.5 44.5t10.5 41.5q0 23 -18 35l-70 12v86h371v-86l-64 -14q-29 -14 -58.5 -43t-66.5 -76l-200 -250l235 -354q55 -80 90 -101l60 -12v-86h-510v86l71 10q12 8 13 27 q0 35 -62 127l-98 143l-92 -131q-25 -35 -40.5 -67.5t-15.5 -49.5q0 -33 23 -49l70 -10v-86h-381v86l65 14q29 14 67 54.5t103 126.5l144 186l-236 348q-35 49 -54.5 72.5t-41.5 36.5z" />
<glyph unicode="y" horiz-adv-x="1079" d="M-6 934v88h547v-88l-101 -12q-18 -12 -18 -43q0 -29 20 -78l195 -449l147 371q20 47 27.5 82t7.5 61q0 37 -18 54l-96 14v88h380v-88l-73 -14q-25 -18 -50.5 -59.5t-60.5 -129.5l-332 -799q-59 -145 -139 -234t-207 -89q-63 0 -104 23.5t-41 74.5q0 27 7 57.5t18.5 57 t26.5 45t32 22.5q55 -6 110.5 -24.5t104.5 -44.5q23 20 51.5 63t42.5 80l21 55l-338 748q-35 76 -53.5 109.5t-41.5 48.5z" />
<glyph unicode="z" horiz-adv-x="1032" d="M72 72l530 862l-129 -4q-66 -4 -107.5 -10.5t-72.5 -18.5q-12 -14 -31 -49q-16 -29 -39.5 -81t-58.5 -138l-90 6q0 66 5 135.5t9 126.5q6 68 14 129q47 -2 101 -4q47 -2 104.5 -3t120.5 -1h516l8 -78l-540 -856l129 4q53 4 98 10.5t94 20.5q14 14 35 51q16 29 42 82 t60 137l95 -6q-2 -59 -7.5 -128t-9.5 -128q-8 -70 -14 -139q-51 2 -109 4q-49 2 -112.5 3t-128.5 1h-498z" />
<glyph unicode="{" horiz-adv-x="737" d="M20 483v90l23 5q100 10 135 43.5t35 119.5q0 43 -7 108.5t-14.5 136.5t-14.5 138.5t-7 114.5q0 250 502 283l20 -86q-63 -14 -102 -36t-60.5 -52.5t-28.5 -68.5t-7 -87q0 -47 6 -104.5t14 -117t14.5 -116.5t6.5 -100q0 -104 -74 -154.5t-254 -67.5v-6q180 -16 254 -62 t74 -149q0 -43 -6.5 -102t-14.5 -120.5t-14 -122t-6 -105.5q0 -49 7 -87t28.5 -69t60.5 -52.5t102 -35.5l-20 -86q-502 33 -502 283q0 47 7 114.5t14.5 138t14.5 136t7 108.5q0 86 -35 120t-135 44z" />
<glyph unicode="|" horiz-adv-x="499" d="M154 -512v2048h192v-2048h-192z" />
<glyph unicode="}" horiz-adv-x="741" d="M45 -379q63 14 102 35.5t60.5 52.5t29 69t7.5 87q0 45 -6.5 105.5t-14.5 122t-14 120.5t-6 102q0 51 17.5 88t56 61.5t101 39t152.5 22.5v6q-90 8 -152.5 24.5t-101 42.5t-56 63.5t-17.5 91.5q0 43 6 100t14 116.5t14.5 117t6.5 104.5q0 49 -7.5 87t-29 68.5t-60 52 t-102.5 36.5l21 86q502 -33 501 -283q0 -47 -7 -114.5t-14 -138.5t-14.5 -136.5t-7.5 -108.5q0 -86 35 -119.5t135 -43.5l23 -5v-90l-23 -4q-100 -10 -135 -44t-35 -120q0 -43 7.5 -108.5t14.5 -136t14 -138t7 -114.5q0 -250 -501 -283z" />
<glyph unicode="~" horiz-adv-x="890" d="M70 467q31 59 59.5 97t56 59.5t56 30t59.5 8.5q33 0 73 -13.5t80 -31t75.5 -31t62.5 -13.5q41 0 70.5 24t58.5 62l102 -55q-29 -57 -54.5 -94t-51 -58.5t-53 -29.5t-58.5 -8t-72.5 13t-82.5 30.5t-80 31t-64 13.5q-41 0 -70.5 -23.5t-64.5 -68.5z" />
<glyph unicode="&#xa1;" horiz-adv-x="606" d="M113 -223q0 27 8 80t20.5 122.5t27.5 147.5t30.5 153.5t29 141t21.5 108.5h98q8 -43 22.5 -108.5t31 -141t32 -153.5t27.5 -147.5t20 -124t8 -78.5q0 -90 -49 -134t-141 -44q-90 0 -138 44t-48 134zM115 825q0 78 54 127t132 49q39 0 74 -13t60.5 -36.5t41 -55.5 t15.5 -71q0 -80 -54.5 -134t-136.5 -54q-80 0 -133 52t-53 136z" />
<glyph unicode="&#xa2;" horiz-adv-x="978" d="M57 467q0 121 42 223.5t112 178t162 119.5t190 50l23 273h92l-23 -273q106 -8 173 -45t67 -102q0 -25 -7 -56.5t-21.5 -61.5t-33 -52.5t-38.5 -28.5q-39 10 -79 42t-79 71l-49 -584q23 -6 45 -8t47 -2q53 0 108.5 12.5t90.5 26.5l28 -64q-43 -86 -134 -143t-204 -63 l-22 -275h-92l22 277q-92 10 -169 49t-133 102.5t-87 148.5t-31 185zM352 592q0 -111 38 -196t110 -132l51 623q-47 41 -82 49q-23 -12 -43 -43t-36.5 -77t-27 -103.5t-10.5 -120.5z" />
<glyph unicode="&#xa3;" horiz-adv-x="1140" d="M61 84l170 72q35 37 64 80t29 94q0 57 -13.5 101t-36.5 91h-184v103h154q-10 31 -18.5 68.5t-8.5 74.5q0 70 39 130t104.5 105.5t151.5 71t182 25.5q59 0 118.5 -8.5t106 -26.5t75 -46t28.5 -67q0 -33 -9 -68.5t-24.5 -66.5t-37 -54.5t-44.5 -29.5q-41 14 -78.5 49 t-75.5 77t-78 82t-85 63q-43 -16 -63.5 -63.5t-20.5 -102.5q0 -47 12 -104.5t31 -108.5h299v-103h-264q16 -37 26.5 -78t10.5 -77q0 -70 -55.5 -120t-159.5 -95v-15l102 13q180 31 276.5 68.5t118.5 60.5l66 141l80 -4q-6 -90 -17.5 -169t-21.5 -138q-12 -70 -29 -129 q-104 2 -223 11t-223 19q-121 10 -242 25l-217 -41z" />
<glyph unicode="&#xa4;" horiz-adv-x="1191" d="M90 934l92 88l123 -133q59 43 131 66.5t150 23.5t150.5 -23.5t131.5 -64.5l131 137l95 -88l-131 -135q51 -61 80.5 -138t29.5 -165q0 -80 -25.5 -151.5t-70.5 -131.5l121 -119l-92 -90l-121 117q-61 -47 -138 -73.5t-161 -26.5q-82 0 -157 24.5t-136 71.5l-109 -117 l-92 88l109 117q-47 59 -74 133t-27 158q0 88 30 164.5t83 138.5zM266 502q0 -68 23.5 -127.5t65.5 -103.5t100.5 -70.5t130.5 -26.5t131 26.5t101 70.5t65.5 103.5t23.5 127.5q0 66 -23.5 126t-65.5 105t-101.5 71.5t-130.5 26.5q-72 0 -130.5 -26.5t-100.5 -71.5 t-65.5 -105.5t-23.5 -125.5z" />
<glyph unicode="&#xa5;" horiz-adv-x="1314" d="M61 983v88h601v-88l-84 -12q-25 -6 -25 -23q0 -12 12.5 -33.5t34.5 -56.5l172 -262l135 227q18 31 29.5 58.5t11.5 44.5q0 29 -39 45l-86 12v88h420v-88l-90 -12q-31 -12 -60.5 -47t-62.5 -86l-141 -224h235v-100h-297l-6 -10v-152h303v-102h-303q2 -82 9.5 -109.5 t23.5 -38.5l158 -14v-88h-678v88l155 14q16 10 22.5 38t8.5 110h-307v102h307v119l-31 43h-276v100h209l-158 230q-39 55 -68.5 84.5t-58.5 42.5z" />
<glyph unicode="&#xa6;" horiz-adv-x="479" d="M143 -512l33 864h127l33 -864h-193zM143 1536h193l-33 -872h-127z" />
<glyph unicode="&#xa7;" horiz-adv-x="1069" d="M74 489q0 88 49 169t133 141q-72 45 -98.5 90t-26.5 117q0 63 35 125.5t93 111.5t134 80t160 31t155.5 -10.5t123 -29t80 -43t28.5 -50.5q0 -31 -9 -63t-23.5 -59.5t-33 -48t-36.5 -26.5q-35 10 -71 43t-74 71t-78 72.5t-80 51.5q-70 0 -116 -42t-46 -104 q0 -31 18.5 -55.5t55 -48t92 -47t129.5 -54.5q86 -37 148.5 -69.5t102 -66.5t59 -73t19.5 -90q0 -106 -51 -188t-143 -135q59 -41 91 -87t32 -112q0 -80 -36 -144.5t-94.5 -110.5t-133 -70.5t-152.5 -24.5q-72 0 -140.5 10t-121.5 28.5t-86 42t-33 50.5q0 29 9 60.5 t23.5 61.5t33 51.5t36.5 27.5q35 -10 70 -45t72 -74t74.5 -74t78.5 -45q59 0 105.5 39t46.5 109q0 31 -18.5 55t-55.5 46.5t-92 46.5t-127 54q-90 37 -150.5 71t-96.5 68.5t-50 74.5t-14 91zM301 645q0 -35 12.5 -63.5t40 -55t74.5 -52t119 -56.5q51 -23 96 -42.5t82 -39.5 q33 51 33 108q0 35 -13.5 65t-42 57.5t-77.5 55t-119 58.5q-53 23 -97 42t-81 38q-27 -49 -27 -115z" />
<glyph unicode="&#xa8;" horiz-adv-x="874" d="M35 1343q0 66 39.5 113t115.5 47q72 0 119 -46t47 -114q0 -72 -50 -113.5t-116 -41.5t-110.5 42t-44.5 113zM455 1343q0 66 42.5 113t118.5 47q72 0 116 -45t44 -115t-47 -112.5t-113 -42.5q-70 0 -115.5 44t-45.5 111z" />
<glyph unicode="&#xa9;" horiz-adv-x="1605" d="M70 672q0 150 56 279.5t154.5 226t232.5 151.5t288 55q156 0 290 -55t232 -151.5t154.5 -226t56.5 -279.5t-56.5 -279t-154.5 -225t-232.5 -151.5t-289.5 -55.5q-154 0 -288 55.5t-232.5 151.5t-154.5 225t-56 279zM184 670q0 -131 48.5 -242t132.5 -191.5t195.5 -125.5 t240.5 -45t241.5 45t196.5 125.5t132 191.5t48 242t-48 243.5t-132 193.5t-196.5 127t-241.5 46t-240.5 -46t-195.5 -128t-132.5 -193.5t-48.5 -242.5zM426 655q0 88 30.5 164t83 131.5t124 87t151.5 31.5q25 0 62.5 -4t77.5 -12.5t77 -17.5t60 -17q0 -37 2 -78q2 -35 3 -80 t1 -94l-62 -4q-16 43 -34.5 81t-34.5 66q-18 33 -35 60q-53 18 -121 18q-41 0 -69.5 -24.5t-47 -63.5t-28 -87t-9.5 -97q0 -63 16.5 -120.5t45.5 -100.5t67.5 -68t83.5 -25q102 0 203 88l45 -57q-59 -68 -139 -110.5t-172 -42.5q-80 0 -149.5 27.5t-121 76.5t-81 118.5 t-29.5 153.5z" />
<glyph unicode="&#xaa;" horiz-adv-x="970" d="M82 688q0 66 30.5 113t87 83t137.5 60.5t179 44.5q16 4 20.5 17.5t4.5 54.5v31q0 78 -26 113.5t-87 35.5q-31 0 -60.5 -6t-45.5 -10q-10 -20 0 -49t10 -62q-8 -16 -32 -31.5t-54.5 -28t-61 -19.5t-51.5 -7q-23 0 -34 22.5t-11 43.5q0 59 52.5 107t128 82t158.5 51.5 t144 17.5q102 0 163 -58.5t61 -148.5q0 -94 -5.5 -181t-5.5 -182v-34q0 -45 5.5 -64.5t17.5 -26.5q8 -14 18.5 -17t22.5 -1q16 2 32.5 5t24.5 5l19 -53q-35 -35 -96.5 -65.5t-129.5 -30.5q-72 0 -104.5 26.5t-54.5 75.5q-47 -43 -113 -72.5t-143 -29.5q-41 0 -77 15 t-63.5 41t-44 60.5t-16.5 71.5zM334 770q0 -57 28.5 -93t63.5 -36q45 0 72.5 16.5t38.5 38.5q4 37 4 90.5v122.5q-4 -2 -19.5 -2t-38.5 -4q-25 -4 -51 -11t-48 -22.5t-36 -39t-14 -60.5z" />
<glyph unicode="&#xab;" horiz-adv-x="1112" d="M18 467v45l476 449l67 -39l-250 -430l250 -437l-67 -37zM553 467v45l428 393l68 -39l-220 -374l222 -379l-70 -39z" />
<glyph unicode="&#xac;" horiz-adv-x="1658" d="M55 395q0 82 33 148.5t86 116t120.5 82t137.5 49.5v12q-111 41 -173 101.5t-62 146.5q0 68 43 122t111.5 90.5t153.5 56t171 19.5q70 0 134 -8t113.5 -26.5t79 -46t29.5 -64.5q0 -20 -9 -52t-26.5 -63.5t-41 -57.5t-52.5 -32q-33 10 -69.5 45t-73.5 77t-72 82t-63 62 q-59 -12 -106.5 -66t-47.5 -145q0 -86 35 -139t82 -76q14 4 36.5 9.5t46 8.5t45 5t34.5 2q39 0 58 -28.5t19 -67.5q0 -25 -8 -52.5t-20.5 -52t-27.5 -43t-30 -20.5q-29 6 -52 25.5t-44.5 42t-42 44t-43.5 33.5q-82 -20 -140.5 -80.5t-58.5 -160.5q0 -78 34 -138.5 t93.5 -102.5t141.5 -64.5t178 -22.5t176 16.5t136.5 50t87 85t30.5 120.5q0 53 -24.5 95t-71.5 59q-23 -2 -48.5 -6t-48.5 -15q-6 -6 -6 -16q0 -4 6.5 -18.5t12.5 -32t12 -31.5t6 -16q0 -8 -18.5 -18.5t-30.5 -12.5q-12 2 -28.5 18.5t-32 40t-26.5 49t-11 50.5q0 39 10 80 t30.5 74.5t50.5 58t68 32.5q59 12 128 17.5t116 9.5q92 8 144.5 26.5t52.5 67.5q-18 27 -58 39t-82 22.5t-75 21.5t-37 34q2 18 20.5 36.5t46 35t60.5 27t65 10.5q20 0 47 -8.5t51.5 -29t42 -52t17.5 -76.5q0 -70 -16.5 -136.5t-47 -121t-76.5 -92t-106 -50.5q-23 -4 -44 -7 t-44 -7v-10q27 -29 44.5 -75t17.5 -93q-2 -96 -52.5 -177t-138.5 -139.5t-211 -90t-272 -31.5q-127 0 -240.5 26.5t-198.5 78.5t-135.5 130t-50.5 180z" />
<glyph unicode="&#xad;" horiz-adv-x="1177" d="M147 446v134h885v-134h-885z" />
<glyph unicode="&#xae;" horiz-adv-x="1605" d="M70 672q0 150 56 279.5t154.5 226t232.5 151.5t288 55q156 0 290 -55t232 -151.5t154.5 -226t56.5 -279.5t-56.5 -279t-154.5 -225t-232.5 -151.5t-289.5 -55.5q-154 0 -288 55.5t-232.5 151.5t-154.5 225t-56 279zM184 670q0 -131 48.5 -242t132.5 -191.5t195.5 -125.5 t240.5 -45t241.5 45t196.5 125.5t132 191.5t48 242t-48 243.5t-132 193.5t-196.5 127t-241.5 46t-240.5 -46t-195.5 -128t-132.5 -193.5t-48.5 -242.5zM440 293v53l47 4q6 2 11.5 8.5t8.5 19.5t4 39.5t1 69.5v387q0 39 -1 63t-3 38t-6 21.5t-10 11.5l-48 6v55h344 q172 0 263.5 -45t91.5 -150q0 -49 -21.5 -84.5t-55.5 -59t-77 -38t-86 -22.5v-6q53 -18 89 -44t65 -79q12 -25 30.5 -57.5t36.5 -63.5q20 -31 45 -50.5t64 -33.5l-4 -51q-84 0 -138.5 4t-89 17t-58 37t-46.5 63q-37 61 -65.5 128.5t-63.5 108.5q-10 -2 -18 -2h-41v-149 q0 -41 1 -65t4 -38t8 -20.5t11 -10.5l68 -14v-51h-361zM709 709q10 -2 18 -2q8 -2 16.5 -2h18.5q51 0 84 13t51 34.5t25.5 48t7.5 51.5q0 90 -51.5 122t-118.5 32q-10 0 -18.5 -1t-16.5 -1q-8 -2 -16 -3v-292z" />
<glyph unicode="&#xb0;" horiz-adv-x="677" d="M59 1059q0 55 21.5 105t59.5 87t88.5 58.5t109.5 21.5q57 0 108.5 -21.5t89 -58.5t60 -87t22.5 -105t-22.5 -105.5t-60 -88.5t-89 -60.5t-108.5 -22.5q-59 0 -109.5 22.5t-88.5 60.5t-59.5 88.5t-21.5 105.5zM180 1059q0 -66 45 -115t113 -49q66 0 113 48t47 116 t-47.5 114t-112.5 46q-72 0 -115 -48.5t-43 -111.5z" />
<glyph unicode="&#xb1;" horiz-adv-x="1050" d="M78 612v133h377v316h147v-316h375v-133h-375v-313h-147v313h-377zM84 59v134h885v-134h-885z" />
<glyph unicode="&#xb2;" horiz-adv-x="823" d="M76 578q45 39 88 75q35 33 73.5 67t65.5 58q45 43 79 77t55.5 64.5t31.5 60.5t10 64q0 68 -45 103t-112 35q-55 0 -108.5 -18.5t-92.5 -41.5l-39 58q59 76 137 125t184 49q63 0 115.5 -18.5t90.5 -51.5t58.5 -79t20.5 -101q0 -53 -17.5 -96t-51 -85t-86 -85t-121.5 -95 l-74 -55h240q10 2 20 6t22.5 16.5t30 36t41.5 60.5l60 -6q-4 -45 -10.5 -92t-14.5 -88q-8 -47 -20 -95h-420q-31 0 -65 -1t-62 -3q-33 -2 -64 -4z" />
<glyph unicode="&#xb3;" horiz-adv-x="819" d="M72 588q0 23 6 47t16 45.5t22.5 37t24.5 21.5q33 -4 68 -24.5t68.5 -45t63.5 -49t54 -36.5q66 6 108 47t42 102q0 37 -18.5 64.5t-47 45t-67.5 26t-78 8.5q-49 0 -94 -7l-13 72q121 35 190.5 73t69.5 93q0 47 -39.5 71.5t-97.5 24.5q-63 0 -117.5 -16.5t-103.5 -40.5 l-33 51q57 68 141.5 112t194.5 44q55 0 104.5 -12.5t86 -37t58 -58.5t21.5 -77q0 -72 -48 -112.5t-144 -69.5v-6q111 -10 180.5 -62.5t69.5 -152.5q0 -61 -33 -109.5t-86 -81t-119.5 -50t-136.5 -17.5q-68 0 -125 6t-99 16.5t-65.5 24.5t-23.5 33z" />
<glyph unicode="&#xb4;" horiz-adv-x="874" d="M231 1217l197 356q25 41 61 41q16 0 42 -15.5t49.5 -38t41 -47t17.5 -43.5q0 -35 -29 -55l-317 -248z" />
<glyph unicode="&#xb6;" horiz-adv-x="1314" d="M57 889q0 109 42 190.5t107.5 136t144.5 82t151 27.5h731v-125h-141v-1200h-150v1200h-283v-1200h-147v459q-76 0 -156 26.5t-146.5 81t-109.5 134t-43 188.5z" />
<glyph unicode="&#xb7;" horiz-adv-x="555" d="M88 524q0 84 53.5 136.5t132.5 52.5q82 0 136.5 -54.5t54.5 -134.5q0 -39 -15.5 -70.5t-41 -55t-60.5 -37t-74 -13.5q-78 0 -132 49t-54 127z" />
<glyph unicode="&#xb8;" horiz-adv-x="1536" d="M340 -377q0 41 19.5 81t41.5 50q12 -4 38 -23.5t52.5 -43t51 -43t37.5 -21.5q35 6 65.5 27.5t30.5 58.5t-44 53.5t-110 20.5l-33 59l109 172h127l-92 -88q227 -16 227 -174q0 -47 -30.5 -86t-79 -66.5t-106.5 -43t-116 -15.5q-82 0 -135 20.5t-53 61.5z" />
<glyph unicode="&#xb9;" horiz-adv-x="641" d="M78 1233q63 31 151 63.5t166 55.5l54 -6q0 -20 -2.5 -62.5t-3.5 -88.5t-2 -88t-1 -63v-313q0 -68 3 -88t22 -25l106 -14v-78h-481v78l123 14q16 4 19.5 24t3.5 91v275v43.5t1 50t2 46t3 34.5q-12 -2 -32 -4t-41.5 -3t-43 -3.5t-35.5 -2.5z" />
<glyph unicode="&#xba;" horiz-adv-x="1001" d="M59 913q0 88 36 168t98.5 140.5t145.5 95.5t175 35q84 0 161 -29t136 -83t94 -133t35 -181q0 -92 -36 -170t-97.5 -135.5t-144 -89t-177.5 -31.5q-86 0 -163.5 31.5t-136 87t-92.5 131t-34 163.5zM317 938q0 -72 12.5 -134.5t36 -109.5t60.5 -74.5t86 -27.5q45 0 78 26.5 t53.5 72.5t29.5 109.5t9 135.5q0 63 -11.5 122.5t-35 103.5t-58 71t-81.5 27t-81 -28t-55.5 -73t-32 -102.5t-10.5 -118.5z" />
<glyph unicode="&#xbb;" horiz-adv-x="1112" d="M61 113l222 379l-220 374l68 39l428 -393v-45l-428 -393zM551 55l250 437l-250 430l67 39l476 -449v-45l-476 -449z" />
<glyph unicode="&#xbc;" horiz-adv-x="1714" d="M64 1233q63 31 151 63.5t166 55.5l54 -6q0 -20 -2.5 -62.5t-3.5 -88.5t-2 -88t-1 -63v-313q0 -68 3 -88t22 -25l106 -14v-78h-481v78l123 14q16 4 19.5 24t3.5 91v275v43.5t1 50t2 46t3 34.5q-12 -2 -32 -4t-41.5 -3t-43 -3.5t-35.5 -2.5zM385 -72l338 650l80 -37 l-285 -670zM848 793l282 671l132 -61l-336 -647zM940 246q109 213 172.5 335t97.5 175q23 35 59 52.5t107 17.5q49 0 99.5 -12.5t66.5 -24.5q-4 -16 -45 -49q-86 -70 -195.5 -178.5t-226.5 -268.5h250v162q27 10 55 18q25 8 54.5 13.5t58.5 9.5l39 -6v-197h133v-98h-133v-25 q0 -49 2 -62t10 -20l109 -10v-80h-482v80l136 8q12 4 15 18.5t3 63.5v27h-369z" />
<glyph unicode="&#xbd;" horiz-adv-x="1742" d="M64 1233q63 31 151 63.5t166 55.5l54 -6q0 -20 -2.5 -62.5t-3.5 -88.5t-2 -88t-1 -63v-313q0 -68 3 -88t22 -25l106 -14v-78h-481v78l123 14q16 4 19.5 24t3.5 91v275v43.5t1 50t2 46t3 34.5q-12 -2 -32 -4t-41.5 -3t-43 -3.5t-35.5 -2.5zM385 -72l338 650l80 -37 l-285 -670zM848 793l282 671l132 -61l-336 -647zM1018 50q45 39 88 75q35 33 73.5 67t65.5 58q45 43 79 77t55.5 64.5t31.5 60.5t10 64q0 68 -45 103t-112 35q-55 0 -108.5 -18.5t-92.5 -41.5l-39 58q59 76 137 125t184 49q63 0 115.5 -18.5t90.5 -51.5t58.5 -79t20.5 -101 q0 -53 -17.5 -96t-51 -85t-86 -85t-121.5 -95l-74 -55h240q10 2 20 6t22.5 16.5t30 36t41.5 60.5l60 -6q-4 -45 -10.5 -92t-14.5 -88q-8 -47 -20 -95h-420q-31 0 -65 -1t-62 -3q-33 -2 -64 -4z" />
<glyph unicode="&#xbe;" horiz-adv-x="1814" d="M72 588q0 23 6 47t16 45.5t22.5 37t24.5 21.5q33 -4 68 -24.5t68.5 -45t63.5 -49t54 -36.5q66 6 108 47t42 102q0 37 -18.5 64.5t-47 45t-67.5 26t-78 8.5q-49 0 -94 -7l-13 72q121 35 190.5 73t69.5 93q0 47 -39.5 71.5t-97.5 24.5q-63 0 -117.5 -16.5t-103.5 -40.5 l-33 51q57 68 141.5 112t194.5 44q55 0 104.5 -12.5t86 -37t58 -58.5t21.5 -77q0 -72 -48 -112.5t-144 -69.5v-6q111 -10 180.5 -62.5t69.5 -152.5q0 -61 -33 -109.5t-86 -81t-119.5 -50t-136.5 -17.5q-68 0 -125 6t-99 16.5t-65.5 24.5t-23.5 33zM502 -72l338 650l80 -37 l-285 -670zM965 793l282 671l132 -61l-336 -647zM1030 246q109 213 172.5 335t97.5 175q23 35 59 52.5t107 17.5q49 0 99.5 -12.5t66.5 -24.5q-4 -16 -45 -49q-86 -70 -195.5 -178.5t-226.5 -268.5h250v162q27 10 55 18q25 8 54.5 13.5t58.5 9.5l39 -6v-197h133v-98h-133 v-25q0 -49 2 -62t10 -20l109 -10v-80h-482v80l136 8q12 4 15 18.5t3 63.5v27h-369z" />
<glyph unicode="&#xbf;" horiz-adv-x="894" d="M68 104q0 150 86 224.5t245 74.5q29 0 55.5 -1t49.5 -1q25 -2 49 -2l22 131h91q8 -23 17 -57.5t17.5 -72.5t13.5 -74.5t5 -65.5q0 -37 -13.5 -59.5t-46 -35.5t-87 -19.5t-136.5 -8.5q-121 -6 -177 -31.5t-56 -89.5q0 -41 24.5 -80.5t63.5 -74.5t88 -61.5t96 -39.5 q33 12 68 37t71.5 49.5t72.5 45t71 24.5q20 -8 36.5 -30.5t29 -51.5t18.5 -59.5t6 -53.5q0 -57 -48 -89.5t-116 -32.5q-102 0 -210.5 38.5t-199 107.5t-148.5 161t-58 198zM403 825q0 39 15.5 71t42 55.5t61.5 36.5t74 13q78 0 131 -49t53 -127q0 -84 -52 -136t-132 -52 q-82 0 -137.5 54t-55.5 134z" />
<glyph unicode="&#xc0;" d="M-4 0v94l86 10q41 23 88 150l317 844q33 96 56 200l237 52l408 -1059q18 -49 33.5 -82t28 -53.5t21.5 -30.5t17 -16l94 -15v-94h-604v94l109 12q18 8 18 37q0 23 -8 51.5t-29 81.5l-28 76h-500q-6 -25 -15.5 -55.5t-16.5 -59t-12 -52t-5 -31.5q0 -37 22 -45l117 -15v-94 h-434zM342 1659q0 18 14.5 48t35 58.5t45 50t44.5 21.5q31 0 66 -35l288 -284l-47 -66l-407 152q-39 16 -39 55zM375 461h426l-219 598z" />
<glyph unicode="&#xc1;" d="M-4 0v94l86 10q41 23 88 150l317 844q33 96 56 200l237 52l408 -1059q18 -49 33.5 -82t28 -53.5t21.5 -30.5t17 -16l94 -15v-94h-604v94l109 12q18 8 18 37q0 23 -8 51.5t-29 81.5l-28 76h-500q-6 -25 -15.5 -55.5t-16.5 -59t-12 -52t-5 -31.5q0 -37 22 -45l117 -15v-94 h-434zM375 461h426l-219 598zM494 1520l288 282q16 16 31.5 26.5t34.5 10.5q20 0 43.5 -21.5t44 -50t35 -59.5t14.5 -49q0 -37 -39 -55l-405 -150z" />
<glyph unicode="&#xc2;" d="M-4 0v94l86 10q41 23 88 150l317 844q33 96 56 200l237 52l408 -1059q18 -49 33.5 -82t28 -53.5t21.5 -30.5t17 -16l94 -15v-94h-604v94l109 12q18 8 18 37q0 23 -8 51.5t-29 81.5l-28 76h-500q-6 -25 -15.5 -55.5t-16.5 -59t-12 -52t-5 -31.5q0 -37 22 -45l117 -15v-94 h-434zM290 1524l316 272h96l315 -272l-45 -62l-317 129l-318 -129zM375 461h426l-219 598z" />
<glyph unicode="&#xc3;" d="M-4 0v94l86 10q41 23 88 150l317 844q33 96 56 200l237 52l408 -1059q18 -49 33.5 -82t28 -53.5t21.5 -30.5t17 -16l94 -15v-94h-604v94l109 12q18 8 18 37q0 23 -8 51.5t-29 81.5l-28 76h-500q-6 -25 -15.5 -55.5t-16.5 -59t-12 -52t-5 -31.5q0 -37 22 -45l117 -15v-94 h-434zM285 1528q55 129 106.5 198.5t118.5 69.5q41 0 86 -14.5t89 -30.5t83 -30.5t68 -14.5q41 0 68.5 25.5t62.5 74.5l84 -39q-55 -133 -106.5 -199.5t-121.5 -66.5q-41 0 -83.5 14.5t-84.5 31t-82 30.5t-75 14q-41 0 -68.5 -26.5t-62.5 -73.5zM375 461h426l-219 598z" />
<glyph unicode="&#xc4;" d="M-4 0v94l86 10q41 23 88 150l317 844q33 96 56 200l237 52l408 -1059q18 -49 33.5 -82t28 -53.5t21.5 -30.5t17 -16l94 -15v-94h-604v94l109 12q18 8 18 37q0 23 -8 51.5t-29 81.5l-28 76h-500q-6 -25 -15.5 -55.5t-16.5 -59t-12 -52t-5 -31.5q0 -37 22 -45l117 -15v-94 h-434zM246 1647q0 66 41 112.5t117 46.5q74 0 121 -47t47 -112q0 -72 -51.5 -115t-116.5 -43q-66 0 -112 43t-46 115zM375 461h426l-219 598zM746 1647q0 66 43 112.5t119 46.5q72 0 118 -46t46 -113q0 -70 -49.5 -114t-114.5 -44q-68 0 -115 45t-47 113z" />
<glyph unicode="&#xc5;" d="M-4 0v94l86 10q41 23 88 150l317 844q14 41 26.5 85t23.5 87q-51 31 -81 83t-30 113q0 47 18.5 88t49 72t72.5 48.5t91 17.5q47 0 90.5 -17.5t75 -48.5t50 -72t18.5 -88q0 -53 -23.5 -100t-64.5 -78l385 -997q18 -49 33.5 -82t28 -53.5t21.5 -30.5t17 -16l94 -15v-94 h-604v94l109 12q18 8 18 37q0 23 -8 51.5t-29 81.5l-28 76h-500q-6 -25 -15.5 -55.5t-16.5 -59t-12 -52t-5 -31.5q0 -37 22 -45l117 -15v-94h-434zM375 461h426l-219 598zM535 1466q0 -53 34.5 -91t87.5 -38t88 38t35 91q0 51 -34.5 89t-88.5 38q-53 0 -87.5 -37.5 t-34.5 -89.5z" />
<glyph unicode="&#xc6;" horiz-adv-x="1882" d="M-10 0v94l82 12q10 6 20 19q10 10 20.5 26.5t24.5 41.5l451 847q31 57 42 89t11 55q0 35 -35 47l-121 12v82h1260l29 -20q0 -51 -7.5 -115t-15.5 -123q-10 -68 -22 -137h-87q-20 66 -37.5 110.5t-33 76.5t-31.5 53.5t-35 39.5q-59 2 -127 7q-57 4 -127.5 6t-144.5 2v-508 l160 4q53 2 80.5 10t48.5 37l49 129l92 -6q-2 -45 -4 -84q-2 -35 -2 -70v-55v-66t2 -84q2 -49 4 -104l-94 -6l-43 135q-20 31 -49 40t-84 11l-160 4v-256q0 -68 4 -113.5t15.5 -75.5t33 -45.5t55.5 -17.5h175q55 0 94 15.5t73.5 52.5t72.5 100.5t89 161.5l86 -14 q-4 -55 -11 -128t-15 -138q-8 -76 -21 -154h-1067v80l78 12q12 6 18.5 15.5t10.5 35t5 73.5t1 132v8h-438l-68 -133q-16 -35 -21.5 -50t-5.5 -30q0 -23 15 -32l137 -17v-94h-432zM420 465h383v758z" />
<glyph unicode="&#xc7;" horiz-adv-x="1310" d="M72 649q0 160 56 290t150.5 222t217 141.5t256.5 49.5q154 0 270.5 -16.5t167.5 -26.5l20 -23q-2 -100 -6 -191t-14 -196l-86 -4q-35 92 -67.5 166t-80.5 149q-35 12 -94 21.5t-127 9.5q-84 0 -147.5 -42t-106.5 -114.5t-64.5 -169t-21.5 -206.5q0 -111 23.5 -221.5 t72 -199.5t122 -144.5t171.5 -55.5q41 0 85 4t71 10q57 76 109.5 171.5t99.5 191.5l86 -14q-10 -121 -24.5 -222.5t-30.5 -185.5q-76 -29 -163 -44t-177 -22l-68 -65q227 -16 227 -174q0 -47 -30.5 -86t-78.5 -66.5t-106.5 -43t-115.5 -15.5q-82 0 -135.5 20.5t-53.5 61.5 t19.5 81t42.5 50q12 -4 37.5 -23.5t52 -43t51.5 -43t37 -21.5q35 6 65.5 27.5t30.5 58.5t-44 53t-109 21l-33 59l92 145q-141 4 -261 54.5t-206 137.5t-134 210t-48 274z" />
<glyph unicode="&#xc8;" horiz-adv-x="1308" d="M80 0v94l121 19q6 6 11 17t8 35.5t5 69t2 119.5v617q0 76 -2 120t-5 68.5t-8 35.5t-11 17l-121 19v94h1091l27 -20q0 -43 -5 -93.5t-11 -101.5t-13.5 -98t-13.5 -82h-88q-20 63 -36.5 108t-32 77t-32 53.5t-34.5 39.5q-47 4 -156.5 9.5t-245.5 5.5v-506l158 4q57 4 84 11 t47 36l47 129l95 -4q0 -16 -1.5 -45t-2.5 -61.5t-2 -64.5t-1 -52q0 -23 1 -56.5t2 -68.5t2.5 -68t1.5 -51l-95 -6l-43 139q-20 29 -47.5 37t-87.5 12l-158 4v-258q0 -127 18.5 -185t90.5 -65h170q57 0 96 15.5t75 53.5t73 101.5t88 159.5l90 -14q-8 -104 -19.5 -211 t-27.5 -209h-1104zM322 1659q0 18 14.5 48t35 58.5t45 50t44.5 21.5q31 0 66 -35l288 -284l-47 -66l-407 152q-39 16 -39 55z" />
<glyph unicode="&#xc9;" horiz-adv-x="1308" d="M80 0v94l121 19q6 6 11 17t8 35.5t5 69t2 119.5v617q0 76 -2 120t-5 68.5t-8 35.5t-11 17l-121 19v94h1091l27 -20q0 -43 -5 -93.5t-11 -101.5t-13.5 -98t-13.5 -82h-88q-20 63 -36.5 108t-32 77t-32 53.5t-34.5 39.5q-47 4 -156.5 9.5t-245.5 5.5v-506l158 4q57 4 84 11 t47 36l47 129l95 -4q0 -16 -1.5 -45t-2.5 -61.5t-2 -64.5t-1 -52q0 -23 1 -56.5t2 -68.5t2.5 -68t1.5 -51l-95 -6l-43 139q-20 29 -47.5 37t-87.5 12l-158 4v-258q0 -127 18.5 -185t90.5 -65h170q57 0 96 15.5t75 53.5t73 101.5t88 159.5l90 -14q-8 -104 -19.5 -211 t-27.5 -209h-1104zM492 1520l288 282q16 16 31.5 26.5t34.5 10.5q20 0 43.5 -21.5t44 -50t35 -59.5t14.5 -49q0 -37 -39 -55l-405 -150z" />
<glyph unicode="&#xca;" horiz-adv-x="1308" d="M80 0v94l121 19q6 6 11 17t8 35.5t5 69t2 119.5v617q0 76 -2 120t-5 68.5t-8 35.5t-11 17l-121 19v94h1091l27 -20q0 -43 -5 -93.5t-11 -101.5t-13.5 -98t-13.5 -82h-88q-20 63 -36.5 108t-32 77t-32 53.5t-34.5 39.5q-47 4 -156.5 9.5t-245.5 5.5v-506l158 4q57 4 84 11 t47 36l47 129l95 -4q0 -16 -1.5 -45t-2.5 -61.5t-2 -64.5t-1 -52q0 -23 1 -56.5t2 -68.5t2.5 -68t1.5 -51l-95 -6l-43 139q-20 29 -47.5 37t-87.5 12l-158 4v-258q0 -127 18.5 -185t90.5 -65h170q57 0 96 15.5t75 53.5t73 101.5t88 159.5l90 -14q-8 -104 -19.5 -211 t-27.5 -209h-1104zM315 1524l316 272h96l315 -272l-45 -62l-317 129l-318 -129z" />
<glyph unicode="&#xcb;" horiz-adv-x="1308" d="M80 0v94l121 19q6 6 11 17t8 35.5t5 69t2 119.5v617q0 76 -2 120t-5 68.5t-8 35.5t-11 17l-121 19v94h1091l27 -20q0 -43 -5 -93.5t-11 -101.5t-13.5 -98t-13.5 -82h-88q-20 63 -36.5 108t-32 77t-32 53.5t-34.5 39.5q-47 4 -156.5 9.5t-245.5 5.5v-506l158 4q57 4 84 11 t47 36l47 129l95 -4q0 -16 -1.5 -45t-2.5 -61.5t-2 -64.5t-1 -52q0 -23 1 -56.5t2 -68.5t2.5 -68t1.5 -51l-95 -6l-43 139q-20 29 -47.5 37t-87.5 12l-158 4v-258q0 -127 18.5 -185t90.5 -65h170q57 0 96 15.5t75 53.5t73 101.5t88 159.5l90 -14q-8 -104 -19.5 -211 t-27.5 -209h-1104zM266 1647q0 66 41 112.5t117 46.5q74 0 121 -47t47 -112q0 -72 -51.5 -115t-116.5 -43q-66 0 -112 43t-46 115zM766 1647q0 66 43 112.5t119 46.5q72 0 118 -46t46 -113q0 -70 -49.5 -114t-114.5 -44q-68 0 -115 45t-47 113z" />
<glyph unicode="&#xcc;" horiz-adv-x="761" d="M41 1659q0 18 14.5 48t35 58.5t45 50t44.5 21.5q31 0 66 -35l288 -284l-47 -66l-407 152q-39 16 -39 55zM78 0v94l125 19q6 6 11 17t8 35.5t5 69t2 119.5v617q0 76 -2 120t-5 68.5t-8 35.5t-11 17l-125 19v94h606v-94l-125 -19q-6 -6 -11 -17t-8 -35.5t-5.5 -68.5 t-2.5 -120v-617q0 -76 2.5 -120t5.5 -68.5t8 -35.5t11 -17l125 -19v-94h-606z" />
<glyph unicode="&#xcd;" horiz-adv-x="761" d="M78 0v94l125 19q6 6 11 17t8 35.5t5 69t2 119.5v617q0 76 -2 120t-5 68.5t-8 35.5t-11 17l-125 19v94h606v-94l-125 -19q-6 -6 -11 -17t-8 -35.5t-5.5 -68.5t-2.5 -120v-617q0 -76 2.5 -120t5.5 -68.5t8 -35.5t11 -17l125 -19v-94h-606zM211 1520l288 282 q16 16 31.5 26.5t34.5 10.5q20 0 43.5 -21.5t44 -50t35 -59.5t14.5 -49q0 -37 -39 -55l-405 -150z" />
<glyph unicode="&#xce;" horiz-adv-x="761" d="M12 1524l316 272h96l315 -272l-45 -62l-317 129l-318 -129zM78 0v94l125 19q6 6 11 17t8 35.5t5 69t2 119.5v617q0 76 -2 120t-5 68.5t-8 35.5t-11 17l-125 19v94h606v-94l-125 -19q-6 -6 -11 -17t-8 -35.5t-5.5 -68.5t-2.5 -120v-617q0 -76 2.5 -120t5.5 -68.5t8 -35.5 t11 -17l125 -19v-94h-606z" />
<glyph unicode="&#xcf;" horiz-adv-x="761" d="M-35 1647q0 66 41 112.5t117 46.5q74 0 121 -47t47 -112q0 -72 -51.5 -115t-116.5 -43q-66 0 -112 43t-46 115zM78 0v94l125 19q6 6 11 17t8 35.5t5 69t2 119.5v617q0 76 -2 120t-5 68.5t-8 35.5t-11 17l-125 19v94h606v-94l-125 -19q-6 -6 -11 -17t-8 -35.5t-5.5 -68.5 t-2.5 -120v-617q0 -76 2.5 -120t5.5 -68.5t8 -35.5t11 -17l125 -19v-94h-606zM465 1647q0 66 43 112.5t119 46.5q72 0 118 -46t46 -113q0 -70 -49.5 -114t-114.5 -44q-68 0 -115 45t-47 113z" />
<glyph unicode="&#xd1;" horiz-adv-x="1558" d="M59 0v94l138 15q8 8 15 19t11 32.5t6 56.5t2 90l11 807q-10 16 -25.5 32.5t-31 32t-31 27t-27.5 17.5l-55 6v96h383l792 -950l-24 586q-4 74 -8.5 118.5t-10.5 71.5t-14 40t-21 23l-180 17v94h494v-94l-103 -17q-8 -6 -13 -17t-8 -39t-4 -78t-1 -130v-393 q0 -170 1 -318.5t3 -236.5l-146 -18l-864 1022l25 -699q2 -53 5 -87t8 -55.5t11 -32.5t17 -19l198 -19v-94h-553zM404 1528q55 129 106.5 198.5t118.5 69.5q41 0 86 -14.5t89 -30.5t83 -30.5t68 -14.5q41 0 68.5 25.5t62.5 74.5l84 -39q-55 -133 -106.5 -199.5t-121.5 -66.5 q-41 0 -83.5 14.5t-84.5 31t-82 30.5t-75 14q-41 0 -68.5 -26.5t-62.5 -73.5z" />
<glyph unicode="&#xd2;" horiz-adv-x="1519" d="M72 657q0 154 51 281t142 219t217 143.5t276 51.5q156 0 283.5 -49.5t218 -138.5t139.5 -212.5t49 -273.5q0 -156 -48 -285t-138.5 -222t-218.5 -145.5t-287 -52.5q-156 0 -283 50.5t-216 141.5t-137 216t-48 276zM391 1659q0 18 14.5 48t35 58.5t45 50t44.5 21.5 q31 0 66 -35l288 -284l-47 -66l-407 152q-39 16 -39 55zM395 670q0 -115 21.5 -220.5t66.5 -187.5t115 -130t166 -48q100 0 168.5 49t111.5 130t61.5 186.5t18.5 220.5q0 119 -22.5 223t-68.5 181t-115.5 121t-163.5 44q-90 0 -158 -44t-113 -121t-66.5 -181.5t-21.5 -222.5 z" />
<glyph unicode="&#xd3;" horiz-adv-x="1519" d="M72 657q0 154 51 281t142 219t217 143.5t276 51.5q156 0 283.5 -49.5t218 -138.5t139.5 -212.5t49 -273.5q0 -156 -48 -285t-138.5 -222t-218.5 -145.5t-287 -52.5q-156 0 -283 50.5t-216 141.5t-137 216t-48 276zM395 670q0 -115 21.5 -220.5t66.5 -187.5t115 -130 t166 -48q100 0 168.5 49t111.5 130t61.5 186.5t18.5 220.5q0 119 -22.5 223t-68.5 181t-115.5 121t-163.5 44q-90 0 -158 -44t-113 -121t-66.5 -181.5t-21.5 -222.5zM590 1520l288 282q16 16 31.5 26.5t34.5 10.5q20 0 43.5 -21.5t44 -50t35 -59.5t14.5 -49q0 -37 -39 -55 l-405 -150z" />
<glyph unicode="&#xd4;" horiz-adv-x="1519" d="M72 657q0 154 51 281t142 219t217 143.5t276 51.5q156 0 283.5 -49.5t218 -138.5t139.5 -212.5t49 -273.5q0 -156 -48 -285t-138.5 -222t-218.5 -145.5t-287 -52.5q-156 0 -283 50.5t-216 141.5t-137 216t-48 276zM395 670q0 -115 21.5 -220.5t66.5 -187.5t115 -130 t166 -48q100 0 168.5 49t111.5 130t61.5 186.5t18.5 220.5q0 119 -22.5 223t-68.5 181t-115.5 121t-163.5 44q-90 0 -158 -44t-113 -121t-66.5 -181.5t-21.5 -222.5zM397 1524l316 272h96l315 -272l-45 -62l-317 129l-318 -129z" />
<glyph unicode="&#xd5;" horiz-adv-x="1519" d="M72 657q0 154 51 281t142 219t217 143.5t276 51.5q156 0 283.5 -49.5t218 -138.5t139.5 -212.5t49 -273.5q0 -156 -48 -285t-138.5 -222t-218.5 -145.5t-287 -52.5q-156 0 -283 50.5t-216 141.5t-137 216t-48 276zM393 1528q55 129 106.5 198.5t118.5 69.5q41 0 86 -14.5 t89 -30.5t83 -30.5t68 -14.5q41 0 68.5 25.5t62.5 74.5l84 -39q-55 -133 -106.5 -199.5t-121.5 -66.5q-41 0 -83.5 14.5t-84.5 31t-82 30.5t-75 14q-41 0 -68.5 -26.5t-62.5 -73.5zM395 670q0 -115 21.5 -220.5t66.5 -187.5t115 -130t166 -48q100 0 168.5 49t111.5 130 t61.5 186.5t18.5 220.5q0 119 -22.5 223t-68.5 181t-115.5 121t-163.5 44q-90 0 -158 -44t-113 -121t-66.5 -181.5t-21.5 -222.5z" />
<glyph unicode="&#xd6;" horiz-adv-x="1519" d="M72 657q0 154 51 281t142 219t217 143.5t276 51.5q156 0 283.5 -49.5t218 -138.5t139.5 -212.5t49 -273.5q0 -156 -48 -285t-138.5 -222t-218.5 -145.5t-287 -52.5q-156 0 -283 50.5t-216 141.5t-137 216t-48 276zM348 1647q0 66 41 112.5t117 46.5q74 0 121 -47t47 -112 q0 -72 -51.5 -115t-116.5 -43q-66 0 -112 43t-46 115zM395 670q0 -115 21.5 -220.5t66.5 -187.5t115 -130t166 -48q100 0 168.5 49t111.5 130t61.5 186.5t18.5 220.5q0 119 -22.5 223t-68.5 181t-115.5 121t-163.5 44q-90 0 -158 -44t-113 -121t-66.5 -181.5t-21.5 -222.5z M848 1647q0 66 43 112.5t119 46.5q72 0 118 -46t46 -113q0 -70 -49.5 -114t-114.5 -44q-68 0 -115 45t-47 113z" />
<glyph unicode="&#xd7;" horiz-adv-x="940" d="M66 201l307 307l-307 309l94 94l307 -309l317 318l95 -95l-318 -317l307 -305l-94 -94l-307 305l-307 -308z" />
<glyph unicode="&#xd8;" horiz-adv-x="1521" d="M72 657q0 154 51 281t142 219t217 143.5t276 51.5q82 0 154.5 -14.5t138.5 -39.5l159 299l101 -51l-160 -297q141 -86 219 -233.5t78 -337.5q0 -156 -48 -285t-138.5 -222t-218.5 -145.5t-287 -52.5q-72 0 -138.5 11.5t-125.5 31.5l-158 -297l-101 54l156 290 q-152 86 -234.5 240t-82.5 354zM395 670q0 -119 22.5 -227.5t71.5 -190.5l482 899q-41 41 -96.5 64.5t-120.5 23.5q-90 0 -158 -44t-113 -121t-66.5 -181t-21.5 -223zM567 156q39 -35 88.5 -53.5t108.5 -18.5q100 0 168.5 49t111.5 130t61.5 186.5t18.5 220.5 q0 111 -19.5 208t-60.5 173z" />
<glyph unicode="&#xd9;" horiz-adv-x="1449" d="M53 1231v94h615v-94l-150 -17q-8 -6 -14 -19t-9 -41t-4.5 -74t-1.5 -115v-508q0 -88 15.5 -156t52.5 -113t97.5 -68.5t150.5 -23.5q98 0 161.5 31t100.5 86t51.5 132t14.5 171v438q0 133 -11.5 188.5t-34.5 71.5l-153 17v94h469v-94l-115 -17q-14 -16 -22.5 -74.5 t-8.5 -185.5v-462q0 -117 -22.5 -213.5t-79.5 -164t-157.5 -105.5t-254.5 -38q-129 0 -232 23.5t-176 78t-112 142.5t-39 217v545q0 74 -1 118t-4 68.5t-7 34.5t-10 16zM457 1659q0 18 14.5 48t35 58.5t45 50t44.5 21.5q31 0 66 -35l288 -284l-47 -66l-407 152 q-39 16 -39 55z" />
<glyph unicode="&#xda;" horiz-adv-x="1449" d="M53 1231v94h615v-94l-150 -17q-8 -6 -14 -19t-9 -41t-4.5 -74t-1.5 -115v-508q0 -88 15.5 -156t52.5 -113t97.5 -68.5t150.5 -23.5q98 0 161.5 31t100.5 86t51.5 132t14.5 171v438q0 133 -11.5 188.5t-34.5 71.5l-153 17v94h469v-94l-115 -17q-14 -16 -22.5 -74.5 t-8.5 -185.5v-462q0 -117 -22.5 -213.5t-79.5 -164t-157.5 -105.5t-254.5 -38q-129 0 -232 23.5t-176 78t-112 142.5t-39 217v545q0 74 -1 118t-4 68.5t-7 34.5t-10 16zM643 1520l288 282q16 16 31.5 26.5t34.5 10.5q20 0 43.5 -21.5t44 -50t35 -59.5t14.5 -49 q0 -37 -39 -55l-405 -150z" />
<glyph unicode="&#xdb;" horiz-adv-x="1449" d="M53 1231v94h615v-94l-150 -17q-8 -6 -14 -19t-9 -41t-4.5 -74t-1.5 -115v-508q0 -88 15.5 -156t52.5 -113t97.5 -68.5t150.5 -23.5q98 0 161.5 31t100.5 86t51.5 132t14.5 171v438q0 133 -11.5 188.5t-34.5 71.5l-153 17v94h469v-94l-115 -17q-14 -16 -22.5 -74.5 t-8.5 -185.5v-462q0 -117 -22.5 -213.5t-79.5 -164t-157.5 -105.5t-254.5 -38q-129 0 -232 23.5t-176 78t-112 142.5t-39 217v545q0 74 -1 118t-4 68.5t-7 34.5t-10 16zM436 1524l316 272h96l315 -272l-45 -62l-317 129l-318 -129z" />
<glyph unicode="&#xdc;" horiz-adv-x="1449" d="M53 1231v94h615v-94l-150 -17q-8 -6 -14 -19t-9 -41t-4.5 -74t-1.5 -115v-508q0 -88 15.5 -156t52.5 -113t97.5 -68.5t150.5 -23.5q98 0 161.5 31t100.5 86t51.5 132t14.5 171v438q0 133 -11.5 188.5t-34.5 71.5l-153 17v94h469v-94l-115 -17q-14 -16 -22.5 -74.5 t-8.5 -185.5v-462q0 -117 -22.5 -213.5t-79.5 -164t-157.5 -105.5t-254.5 -38q-129 0 -232 23.5t-176 78t-112 142.5t-39 217v545q0 74 -1 118t-4 68.5t-7 34.5t-10 16zM383 1647q0 66 41 112.5t117 46.5q74 0 121 -47t47 -112q0 -72 -51.5 -115t-116.5 -43q-66 0 -112 43 t-46 115zM883 1647q0 66 43 112.5t119 46.5q72 0 118 -46t46 -113q0 -70 -49.5 -114t-114.5 -44q-68 0 -115 45t-47 113z" />
<glyph unicode="&#xdd;" horiz-adv-x="1259" d="M-29 1231v94h625v-94l-104 -10q-20 -6 -21 -33q0 -29 41 -96l221 -373l176 340q35 68 35 104q0 20 -6 32.5t-29 23.5l-112 12v94h467v-94l-95 -17q-31 -18 -60.5 -55t-70.5 -108l-243 -422v-275q0 -76 1 -120t5 -68.5t11 -35.5t19 -19l150 -17v-94h-678v94l150 17 q10 8 17 19t11 35.5t6 69t2 119.5v226l-303 485q-43 72 -68.5 104.5t-49.5 47.5zM562 1520l288 282q16 16 31.5 26.5t34.5 10.5q20 0 43.5 -21.5t44 -50t35 -59.5t14.5 -49q0 -37 -39 -55l-405 -150z" />
<glyph unicode="&#xdf;" horiz-adv-x="1421" d="M70 895l8 80l115 29l6 6q23 117 73 199.5t123.5 136t167.5 78t205 24.5q68 0 141.5 -13.5t137 -45t104.5 -84t41 -127.5q0 -59 -21.5 -100.5t-54.5 -72t-70.5 -53t-70.5 -45t-54.5 -49.5t-21.5 -63q0 -16 6 -33t25.5 -34t55.5 -38.5t97 -48.5q72 -33 129.5 -64.5 t97.5 -71.5t61.5 -91.5t21.5 -120.5q0 -72 -32 -131.5t-87 -102.5t-128 -66.5t-153 -23.5q-102 0 -187 17.5t-165 50.5q-6 53 -11 121.5t-7 156.5l77 9q25 -61 43.5 -102.5t33 -66t23.5 -37t13 -16.5q35 -14 74 -20t74 -6q74 0 116.5 34.5t42.5 88.5q0 31 -8 54t-30.5 46 t-65.5 47.5t-113 54.5q-145 68 -209.5 134.5t-64.5 160.5q0 80 44 133.5t98 100.5t98 100t44 133q0 98 -53 138t-131 40q-137 0 -190.5 -82.5t-53.5 -248.5v-402v-67v-108.5t1 -129t1 -129t1 -109t1 -65.5h-413v86l94 16q12 10 16 31t4 92v471q0 86 3.5 127t7.5 70z" />
<glyph unicode="&#xe0;" horiz-adv-x="1085" d="M63 209q0 156 140.5 241t398.5 134q16 4 22.5 23.5t6.5 68.5v41q0 98 -32 151.5t-99 53.5q-41 0 -88 -9.5t-66 -17.5q-8 -16 -7 -31.5t4 -32t7 -35t4 -38.5q-6 -18 -33.5 -37t-63.5 -34t-70.5 -24.5t-57.5 -9.5q-33 0 -48 21.5t-15 50.5q0 53 31.5 99t84.5 83 q109 68 238 108t254 40q113 0 182.5 -74t69.5 -188q0 -119 -5.5 -231.5t-5.5 -229.5v-49q0 -90 11.5 -119t34.5 -29t56.5 7.5t45.5 11.5l18 -68q-37 -49 -112.5 -83t-161.5 -34q-78 0 -115.5 33.5t-62.5 99.5q-57 -55 -140 -94t-180 -39q-49 0 -93 17.5t-78 50.5t-54.5 76 t-20.5 96zM203 1468q0 16 17.5 41t42 48.5t52 40t47.5 16.5q33 0 56 -41l194 -354l-61 -50l-307 240q-16 12 -28.5 27.5t-12.5 31.5zM356 315q0 -74 34 -124t85 -50q43 0 84 17t64 37q4 51 6 128.5t2 170.5q-33 -4 -66 -11q-29 -4 -59.5 -12t-54.5 -18q-47 -16 -71 -48 t-24 -90z" />
<glyph unicode="&#xe1;" horiz-adv-x="1085" d="M63 209q0 156 140.5 241t398.5 134q16 4 22.5 23.5t6.5 68.5v41q0 98 -32 151.5t-99 53.5q-41 0 -88 -9.5t-66 -17.5q-8 -16 -7 -31.5t4 -32t7 -35t4 -38.5q-6 -18 -33.5 -37t-63.5 -34t-70.5 -24.5t-57.5 -9.5q-33 0 -48 21.5t-15 50.5q0 53 31.5 99t84.5 83 q109 68 238 108t254 40q113 0 182.5 -74t69.5 -188q0 -119 -5.5 -231.5t-5.5 -229.5v-49q0 -90 11.5 -119t34.5 -29t56.5 7.5t45.5 11.5l18 -68q-37 -49 -112.5 -83t-161.5 -34q-78 0 -115.5 33.5t-62.5 99.5q-57 -55 -140 -94t-180 -39q-49 0 -93 17.5t-78 50.5t-54.5 76 t-20.5 96zM356 315q0 -74 34 -124t85 -50q43 0 84 17t64 37q4 51 6 128.5t2 170.5q-33 -4 -66 -11q-29 -4 -59.5 -12t-54.5 -18q-47 -16 -71 -48t-24 -90zM417 1217l197 356q25 41 61 41q16 0 42 -15.5t49.5 -38t41 -47t17.5 -43.5q0 -35 -29 -55l-317 -248z" />
<glyph unicode="&#xe2;" horiz-adv-x="1085" d="M63 209q0 156 140.5 241t398.5 134q16 4 22.5 23.5t6.5 68.5v41q0 98 -32 151.5t-99 53.5q-41 0 -88 -9.5t-66 -17.5q-8 -16 -7 -31.5t4 -32t7 -35t4 -38.5q-6 -18 -33.5 -37t-63.5 -34t-70.5 -24.5t-57.5 -9.5q-33 0 -48 21.5t-15 50.5q0 53 31.5 99t84.5 83 q109 68 238 108t254 40q113 0 182.5 -74t69.5 -188q0 -119 -5.5 -231.5t-5.5 -229.5v-49q0 -90 11.5 -119t34.5 -29t56.5 7.5t45.5 11.5l18 -68q-37 -49 -112.5 -83t-161.5 -34q-78 0 -115.5 33.5t-62.5 99.5q-57 -55 -140 -94t-180 -39q-49 0 -93 17.5t-78 50.5t-54.5 76 t-20.5 96zM190 1229l279 319h96l279 -319l-50 -60l-276 174l-279 -174zM356 315q0 -74 34 -124t85 -50q43 0 84 17t64 37q4 51 6 128.5t2 170.5q-33 -4 -66 -11q-29 -4 -59.5 -12t-54.5 -18q-47 -16 -71 -48t-24 -90z" />
<glyph unicode="&#xe3;" horiz-adv-x="1085" d="M63 209q0 156 140.5 241t398.5 134q16 4 22.5 23.5t6.5 68.5v41q0 98 -32 151.5t-99 53.5q-41 0 -88 -9.5t-66 -17.5q-8 -16 -7 -31.5t4 -32t7 -35t4 -38.5q-6 -18 -33.5 -37t-63.5 -34t-70.5 -24.5t-57.5 -9.5q-33 0 -48 21.5t-15 50.5q0 53 31.5 99t84.5 83 q109 68 238 108t254 40q113 0 182.5 -74t69.5 -188q0 -119 -5.5 -231.5t-5.5 -229.5v-49q0 -90 11.5 -119t34.5 -29t56.5 7.5t45.5 11.5l18 -68q-37 -49 -112.5 -83t-161.5 -34q-78 0 -115.5 33.5t-62.5 99.5q-57 -55 -140 -94t-180 -39q-49 0 -93 17.5t-78 50.5t-54.5 76 t-20.5 96zM152 1255q27 66 51.5 115t49 81t53 47t63.5 15q33 0 75 -13t85 -28.5t84 -27.5t71 -12q39 0 65.5 23.5t63.5 72.5l76 -37q-53 -131 -98 -193.5t-117 -62.5q-33 0 -75 12.5t-85 27.5t-84 28.5t-71 13.5q-41 0 -69 -24.5t-62 -71.5zM356 315q0 -74 34 -124t85 -50 q43 0 84 17t64 37q4 51 6 128.5t2 170.5q-33 -4 -66 -11q-29 -4 -59.5 -12t-54.5 -18q-47 -16 -71 -48t-24 -90z" />
<glyph unicode="&#xe4;" horiz-adv-x="1085" d="M63 209q0 156 140.5 241t398.5 134q16 4 22.5 23.5t6.5 68.5v41q0 98 -32 151.5t-99 53.5q-41 0 -88 -9.5t-66 -17.5q-8 -16 -7 -31.5t4 -32t7 -35t4 -38.5q-6 -18 -33.5 -37t-63.5 -34t-70.5 -24.5t-57.5 -9.5q-33 0 -48 21.5t-15 50.5q0 53 31.5 99t84.5 83 q109 68 238 108t254 40q113 0 182.5 -74t69.5 -188q0 -119 -5.5 -231.5t-5.5 -229.5v-49q0 -90 11.5 -119t34.5 -29t56.5 7.5t45.5 11.5l18 -68q-37 -49 -112.5 -83t-161.5 -34q-78 0 -115.5 33.5t-62.5 99.5q-57 -55 -140 -94t-180 -39q-49 0 -93 17.5t-78 50.5t-54.5 76 t-20.5 96zM148 1343q0 66 39.5 113t115.5 47q72 0 119 -46t47 -114q0 -72 -50 -113.5t-116 -41.5t-110.5 42t-44.5 113zM356 315q0 -74 34 -124t85 -50q43 0 84 17t64 37q4 51 6 128.5t2 170.5q-33 -4 -66 -11q-29 -4 -59.5 -12t-54.5 -18q-47 -16 -71 -48t-24 -90z M568 1343q0 66 42.5 113t118.5 47q72 0 116 -45t44 -115t-47 -112.5t-113 -42.5q-70 0 -115.5 44t-45.5 111z" />
<glyph unicode="&#xe5;" horiz-adv-x="1085" d="M63 209q0 156 140.5 241t398.5 134q16 4 22.5 23.5t6.5 68.5v41q0 98 -32 151.5t-99 53.5q-41 0 -88 -9.5t-66 -17.5q-8 -16 -7 -31.5t4 -32t7 -35t4 -38.5q-6 -18 -33.5 -37t-63.5 -34t-70.5 -24.5t-57.5 -9.5q-33 0 -48 21.5t-15 50.5q0 53 31.5 99t84.5 83 q109 68 238 108t254 40q113 0 182.5 -74t69.5 -188q0 -119 -5.5 -231.5t-5.5 -229.5v-49q0 -90 11.5 -119t34.5 -29t56.5 7.5t45.5 11.5l18 -68q-37 -49 -112.5 -83t-161.5 -34q-78 0 -115.5 33.5t-62.5 99.5q-57 -55 -140 -94t-180 -39q-49 0 -93 17.5t-78 50.5t-54.5 76 t-20.5 96zM301 1358q0 45 17.5 84t48 67.5t70.5 46t85 17.5t86 -17.5t71.5 -46t49 -67.5t18.5 -84t-18.5 -85t-49 -69.5t-71.5 -47t-86 -17.5t-85 17.5t-70.5 47t-48 69.5t-17.5 85zM356 315q0 -74 34 -124t85 -50q43 0 84 17t64 37q4 51 6 128.5t2 170.5q-33 -4 -66 -11 q-29 -4 -59.5 -12t-54.5 -18q-47 -16 -71 -48t-24 -90zM405 1358q0 -49 33 -86t84 -37q53 0 87 37t34 86q0 47 -34 84t-87 37q-51 0 -84 -37t-33 -84z" />
<glyph unicode="&#xe6;" horiz-adv-x="1587" d="M63 209q0 156 140.5 241t398.5 134q16 4 22.5 24.5t6.5 67.5v41q0 98 -32 151.5t-99 53.5q-41 0 -88 -9.5t-66 -17.5q-8 -16 -7 -31.5t4 -32t7 -35t4 -38.5q-6 -18 -33.5 -37t-63.5 -34t-73 -24.5t-61 -9.5q-25 0 -41 21.5t-16 52.5q0 51 31.5 97t84.5 83q109 68 238 108 t254 40q63 0 103 -24.5t63 -67.5q59 43 127.5 67.5t140.5 24.5q82 0 156.5 -20.5t131 -62.5t90.5 -105.5t34 -147.5q0 -86 -10.5 -118t-32.5 -32q-63 0 -137 2t-151 4.5t-151.5 4.5t-138.5 2q-2 -6 -2 -13v-24q0 -154 89 -248t251 -94q59 0 134 14t128 35l25 -62 q-53 -98 -164 -159.5t-260 -61.5q-115 0 -213.5 49.5t-165.5 135.5q-35 -31 -82 -64t-101.5 -59.5t-112.5 -44t-116 -17.5q-49 0 -93 17.5t-78 50.5t-54.5 76t-20.5 96zM356 315q0 -74 35 -124t88 -50q25 0 51.5 8.5t52 20.5t49 27.5t40.5 31.5q-57 111 -58 246v17 q-25 -4 -73.5 -12.5t-89.5 -26.5q-47 -16 -71 -48t-24 -90zM903 684q0 -14 17 -14l274 8q37 6 37 92q0 104 -40 147.5t-106 43.5q-74 0 -123 -71t-59 -206z" />
<glyph unicode="&#xe7;" horiz-adv-x="960" d="M59 469q0 127 45.5 234.5t121 185.5t174 121t202.5 43q135 0 223 -37t88 -115q0 -27 -8 -58.5t-21.5 -61t-33 -53t-39.5 -30.5q-41 10 -85 47t-87 80t-84 79t-76 42q-23 -12 -45 -44t-38.5 -79t-27 -105.5t-10.5 -121.5q0 -84 24 -154.5t67 -123t105 -82t140 -29.5 q53 0 109.5 12t93.5 27l29 -64q-41 -84 -127 -140t-195 -69l-47 -47q227 -16 227 -174q0 -47 -30.5 -86t-78.5 -66.5t-106.5 -43t-115.5 -15.5q-82 0 -135.5 20.5t-53.5 61.5t19.5 81t42.5 50q12 -4 37.5 -23.5t52 -43t51.5 -43t37 -21.5q35 6 65.5 27.5t30.5 58.5t-44 53.5 t-110 20.5l-32 59l82 129q-96 8 -176 48t-137.5 105.5t-90.5 153t-33 191.5z" />
<glyph unicode="&#xe8;" horiz-adv-x="1032" d="M59 475q0 127 41 233.5t110 183.5t158 120t187 43q82 0 155.5 -20.5t130 -62.5t90.5 -105.5t34 -147.5q0 -86 -9.5 -118t-31.5 -32q-63 0 -137 2t-151 4.5t-151.5 4.5t-138.5 2q-2 -6 -2 -13v-24q0 -154 88 -248t250 -94q59 0 134 14t128 35l25 -62q-53 -98 -164 -159.5 t-260 -61.5q-98 0 -187.5 38t-155 104.5t-104.5 159.5t-39 204zM189 1468q0 16 17.5 41t42 48.5t52 40t47.5 16.5q33 0 56 -41l194 -354l-61 -50l-307 240q-16 12 -28.5 27.5t-12.5 31.5zM350 684q0 -14 15 -14l274 8q37 6 37 92q0 104 -40 147.5t-106 43.5q-74 0 -122 -71 t-58 -206z" />
<glyph unicode="&#xe9;" horiz-adv-x="1032" d="M59 475q0 127 41 233.5t110 183.5t158 120t187 43q82 0 155.5 -20.5t130 -62.5t90.5 -105.5t34 -147.5q0 -86 -9.5 -118t-31.5 -32q-63 0 -137 2t-151 4.5t-151.5 4.5t-138.5 2q-2 -6 -2 -13v-24q0 -154 88 -248t250 -94q59 0 134 14t128 35l25 -62q-53 -98 -164 -159.5 t-260 -61.5q-98 0 -187.5 38t-155 104.5t-104.5 159.5t-39 204zM350 684q0 -14 15 -14l274 8q37 6 37 92q0 104 -40 147.5t-106 43.5q-74 0 -122 -71t-58 -206zM458 1217l197 356q25 41 61 41q16 0 42 -15.5t49.5 -38t41 -47t17.5 -43.5q0 -35 -29 -55l-317 -248z" />
<glyph unicode="&#xea;" horiz-adv-x="1032" d="M59 475q0 127 41 233.5t110 183.5t158 120t187 43q82 0 155.5 -20.5t130 -62.5t90.5 -105.5t34 -147.5q0 -86 -9.5 -118t-31.5 -32q-63 0 -137 2t-151 4.5t-151.5 4.5t-138.5 2q-2 -6 -2 -13v-24q0 -154 88 -248t250 -94q59 0 134 14t128 35l25 -62q-53 -98 -164 -159.5 t-260 -61.5q-98 0 -187.5 38t-155 104.5t-104.5 159.5t-39 204zM211 1229l279 319h96l279 -319l-50 -60l-276 174l-279 -174zM350 684q0 -14 15 -14l274 8q37 6 37 92q0 104 -40 147.5t-106 43.5q-74 0 -122 -71t-58 -206z" />
<glyph unicode="&#xeb;" horiz-adv-x="1032" d="M59 475q0 127 41 233.5t110 183.5t158 120t187 43q82 0 155.5 -20.5t130 -62.5t90.5 -105.5t34 -147.5q0 -86 -9.5 -118t-31.5 -32q-63 0 -137 2t-151 4.5t-151.5 4.5t-138.5 2q-2 -6 -2 -13v-24q0 -154 88 -248t250 -94q59 0 134 14t128 35l25 -62q-53 -98 -164 -159.5 t-260 -61.5q-98 0 -187.5 38t-155 104.5t-104.5 159.5t-39 204zM162 1343q0 66 39.5 113t115.5 47q72 0 119 -46t47 -114q0 -72 -50 -113.5t-116 -41.5t-110.5 42t-44.5 113zM350 684q0 -14 15 -14l274 8q37 6 37 92q0 104 -40 147.5t-106 43.5q-74 0 -122 -71t-58 -206z M582 1343q0 66 42.5 113t118.5 47q72 0 116 -45t44 -115t-47 -112.5t-113 -42.5q-70 0 -115.5 44t-45.5 111z" />
<glyph unicode="&#xec;" horiz-adv-x="645" d="M31 1468q0 16 17.5 41t42 48.5t52 40t47.5 16.5q33 0 56 -41l194 -354l-61 -50l-307 240q-16 12 -28.5 27.5t-12.5 31.5zM66 881v77q53 16 110 33q49 14 111.5 26.5t124.5 22.5l75 -6q-2 -49 -4 -96q-2 -41 -3 -84t-1 -74v-557q0 -63 3 -86.5t14 -34.5l94 -16v-86h-518 v86l92 16q10 10 14 32t4 89v432q0 63 -1 102.5t-4 61t-7 30.5t-10 15z" />
<glyph unicode="&#xed;" horiz-adv-x="645" d="M66 881v77q53 16 110 33q49 14 111.5 26.5t124.5 22.5l75 -6q-2 -49 -4 -96q-2 -41 -3 -84t-1 -74v-557q0 -63 3 -86.5t14 -34.5l94 -16v-86h-518v86l92 16q10 10 14 32t4 89v432q0 63 -1 102.5t-4 61t-7 30.5t-10 15zM196 1217l197 356q25 41 61 41q16 0 42 -15.5 t49.5 -38t41 -47t17.5 -43.5q0 -35 -29 -55l-317 -248z" />
<glyph unicode="&#xee;" horiz-adv-x="645" d="M-19 1229l279 319h96l279 -319l-50 -60l-276 174l-279 -174zM66 881v77q53 16 110 33q49 14 111.5 26.5t124.5 22.5l75 -6q-2 -49 -4 -96q-2 -41 -3 -84t-1 -74v-557q0 -63 3 -86.5t14 -34.5l94 -16v-86h-518v86l92 16q10 10 14 32t4 89v432q0 63 -1 102.5t-4 61t-7 30.5 t-10 15z" />
<glyph unicode="&#xef;" horiz-adv-x="645" d="M-74 1343q0 66 39.5 113t115.5 47q72 0 119 -46t47 -114q0 -72 -50 -113.5t-116 -41.5t-110.5 42t-44.5 113zM66 881v77q53 16 110 33q49 14 111.5 26.5t124.5 22.5l75 -6q-2 -49 -4 -96q-2 -41 -3 -84t-1 -74v-557q0 -63 3 -86.5t14 -34.5l94 -16v-86h-518v86l92 16 q10 10 14 32t4 89v432q0 63 -1 102.5t-4 61t-7 30.5t-10 15zM346 1343q0 66 42.5 113t118.5 47q72 0 116 -45t44 -115t-47 -112.5t-113 -42.5q-70 0 -115.5 44t-45.5 111z" />
<glyph unicode="&#xf1;" horiz-adv-x="1280" d="M70 881v77q57 18 116 35q51 14 109.5 27.5t112.5 19.5l75 -4l-4 -123q70 61 155 101.5t171 40.5q74 0 134 -29t103 -81t67 -126t24 -166v-430q0 -68 3 -89t15 -32l92 -16v-86h-514v86l88 16q10 10 14.5 32t4.5 89v402q0 117 -52.5 174t-128.5 57q-23 0 -48 -4t-50 -11 t-45 -15.5t-33 -14.5v-588q0 -63 3 -86.5t14 -34.5l94 -16v-86h-518v86l92 16q10 10 14 32t4 89v428q0 66 -1 105t-4 61.5t-7 31.5t-10 15zM285 1255q27 66 51.5 115t49 81t53 47t63.5 15q33 0 75 -13t85 -28.5t84 -27.5t71 -12q39 0 65.5 23.5t63.5 72.5l76 -37 q-53 -131 -98 -193.5t-117 -62.5q-33 0 -75 12.5t-85 27.5t-84 28.5t-71 13.5q-41 0 -69 -24.5t-62 -71.5z" />
<glyph unicode="&#xf2;" horiz-adv-x="1150" d="M57 504q0 127 45 228.5t119 173t169 110.5t198 39q96 0 187 -34t162 -99.5t113 -162.5t42 -224q0 -129 -43 -233.5t-116 -178.5t-166 -114t-194 -40q-100 0 -193 37t-165 106.5t-115 169t-43 222.5zM219 1468q0 16 17.5 41t42 48.5t52 40t47.5 16.5q33 0 56 -41l194 -354 l-61 -50l-307 240q-16 12 -28.5 27.5t-12.5 31.5zM362 537q0 -92 15.5 -177.5t44.5 -150t69.5 -103t94.5 -38.5q51 0 89 35.5t62.5 95t36.5 139.5t12 166q0 96 -13 179t-40.5 143.5t-67.5 95t-94 34.5q-55 0 -94 -35.5t-64.5 -94t-38 -134t-12.5 -155.5z" />
<glyph unicode="&#xf3;" horiz-adv-x="1150" d="M57 504q0 127 45 228.5t119 173t169 110.5t198 39q96 0 187 -34t162 -99.5t113 -162.5t42 -224q0 -129 -43 -233.5t-116 -178.5t-166 -114t-194 -40q-100 0 -193 37t-165 106.5t-115 169t-43 222.5zM362 537q0 -92 15.5 -177.5t44.5 -150t69.5 -103t94.5 -38.5 q51 0 89 35.5t62.5 95t36.5 139.5t12 166q0 96 -13 179t-40.5 143.5t-67.5 95t-94 34.5q-55 0 -94 -35.5t-64.5 -94t-38 -134t-12.5 -155.5zM475 1217l197 356q25 41 61 41q16 0 42 -15.5t49.5 -38t41 -47t17.5 -43.5q0 -35 -29 -55l-317 -248z" />
<glyph unicode="&#xf4;" horiz-adv-x="1150" d="M57 504q0 127 45 228.5t119 173t169 110.5t198 39q96 0 187 -34t162 -99.5t113 -162.5t42 -224q0 -129 -43 -233.5t-116 -178.5t-166 -114t-194 -40q-100 0 -193 37t-165 106.5t-115 169t-43 222.5zM248 1229l279 319h96l279 -319l-50 -60l-276 174l-279 -174zM362 537 q0 -92 15.5 -177.5t44.5 -150t69.5 -103t94.5 -38.5q51 0 89 35.5t62.5 95t36.5 139.5t12 166q0 96 -13 179t-40.5 143.5t-67.5 95t-94 34.5q-55 0 -94 -35.5t-64.5 -94t-38 -134t-12.5 -155.5z" />
<glyph unicode="&#xf5;" horiz-adv-x="1150" d="M57 504q0 127 45 228.5t119 173t169 110.5t198 39q96 0 187 -34t162 -99.5t113 -162.5t42 -224q0 -129 -43 -233.5t-116 -178.5t-166 -114t-194 -40q-100 0 -193 37t-165 106.5t-115 169t-43 222.5zM197 1255q27 66 51.5 115t49 81t53 47t63.5 15q33 0 75 -13t85 -28.5 t84 -27.5t71 -12q39 0 65.5 23.5t63.5 72.5l76 -37q-53 -131 -98 -193.5t-117 -62.5q-33 0 -75 12.5t-85 27.5t-84 28.5t-71 13.5q-41 0 -69 -24.5t-62 -71.5zM362 537q0 -92 15.5 -177.5t44.5 -150t69.5 -103t94.5 -38.5q51 0 89 35.5t62.5 95t36.5 139.5t12 166 q0 96 -13 179t-40.5 143.5t-67.5 95t-94 34.5q-55 0 -94 -35.5t-64.5 -94t-38 -134t-12.5 -155.5z" />
<glyph unicode="&#xf6;" horiz-adv-x="1150" d="M57 504q0 127 45 228.5t119 173t169 110.5t198 39q96 0 187 -34t162 -99.5t113 -162.5t42 -224q0 -129 -43 -233.5t-116 -178.5t-166 -114t-194 -40q-100 0 -193 37t-165 106.5t-115 169t-43 222.5zM197 1343q0 66 39.5 113t115.5 47q72 0 119 -46t47 -114 q0 -72 -50 -113.5t-116 -41.5t-110.5 42t-44.5 113zM362 537q0 -92 15.5 -177.5t44.5 -150t69.5 -103t94.5 -38.5q51 0 89 35.5t62.5 95t36.5 139.5t12 166q0 96 -13 179t-40.5 143.5t-67.5 95t-94 34.5q-55 0 -94 -35.5t-64.5 -94t-38 -134t-12.5 -155.5zM617 1343 q0 66 42.5 113t118.5 47q72 0 116 -45t44 -115t-47 -112.5t-113 -42.5q-70 0 -115.5 44t-45.5 111z" />
<glyph unicode="&#xf7;" horiz-adv-x="1015" d="M68 446v134h884v-134h-884zM383 193q0 59 38 95t93 36q57 0 95 -38t38 -93q0 -53 -39 -88t-94 -35q-53 0 -92 33.5t-39 89.5zM383 819q0 59 38 95t93 36q57 0 95 -38t38 -93q0 -53 -39 -88t-94 -35q-53 0 -92 34t-39 89z" />
<glyph unicode="&#xf8;" horiz-adv-x="1153" d="M57 504q0 127 45 228.5t119 173t169 110.5t198 39q94 0 186 -35l121 250l88 -41l-121 -252q100 -61 165 -172t65 -270q0 -129 -43 -233.5t-116 -178.5t-166 -114t-194 -40q-94 0 -180 31l-114 -242l-89 41l117 242q-111 66 -180.5 184.5t-69.5 278.5zM362 537 q0 -80 11.5 -154t32.5 -135l299 626q-25 39 -59 60.5t-75 21.5q-55 0 -94 -35.5t-64.5 -94t-38 -134t-12.5 -155.5zM461 139q51 -72 125 -71q51 0 89 35.5t62.5 95t36.5 139.5t12 166q0 143 -30 252z" />
<glyph unicode="&#xf9;" horiz-adv-x="1236" d="M41 899v88q61 14 121 25q51 10 108.5 17t104.5 9l78 -4l-11 -182v-168q0 -76 1 -152.5t3 -146.5q4 -98 43 -157.5t111 -59.5q55 0 104.5 13.5t73.5 27.5v459q0 70 -1 109.5t-3 61t-6 28.5t-8 12l-103 20v86q63 14 127 25q53 10 113.5 18t110.5 10l75 -6q-2 -39 -4 -67 q-2 -27 -3 -47.5t-1 -24.5v-524q0 -80 1 -125t4 -68.5t8.5 -32t11.5 -12.5l86 -12v-86q-8 -4 -39 -11.5t-76 -15.5t-97 -16t-102 -13l-79 5q-2 27 -7 49q-4 20 -6 40.5t-2 37.5q-61 -57 -145 -98.5t-176 -41.5q-147 0 -229.5 109.5t-82.5 300.5v287q0 72 -1 112.5t-3 62 t-6 29t-10 11.5zM269 1468q0 16 17.5 41t42 48.5t52 40t47.5 16.5q33 0 56 -41l194 -354l-61 -50l-307 240q-16 12 -28.5 27.5t-12.5 31.5z" />
<glyph unicode="&#xfa;" horiz-adv-x="1236" d="M41 899v88q61 14 121 25q51 10 108.5 17t104.5 9l78 -4l-11 -182v-168q0 -76 1 -152.5t3 -146.5q4 -98 43 -157.5t111 -59.5q55 0 104.5 13.5t73.5 27.5v459q0 70 -1 109.5t-3 61t-6 28.5t-8 12l-103 20v86q63 14 127 25q53 10 113.5 18t110.5 10l75 -6q-2 -39 -4 -67 q-2 -27 -3 -47.5t-1 -24.5v-524q0 -80 1 -125t4 -68.5t8.5 -32t11.5 -12.5l86 -12v-86q-8 -4 -39 -11.5t-76 -15.5t-97 -16t-102 -13l-79 5q-2 27 -7 49q-4 20 -6 40.5t-2 37.5q-61 -57 -145 -98.5t-176 -41.5q-147 0 -229.5 109.5t-82.5 300.5v287q0 72 -1 112.5t-3 62 t-6 29t-10 11.5zM487 1217l197 356q25 41 61 41q16 0 42 -15.5t49.5 -38t41 -47t17.5 -43.5q0 -35 -29 -55l-317 -248z" />
<glyph unicode="&#xfb;" horiz-adv-x="1236" d="M41 899v88q61 14 121 25q51 10 108.5 17t104.5 9l78 -4l-11 -182v-168q0 -76 1 -152.5t3 -146.5q4 -98 43 -157.5t111 -59.5q55 0 104.5 13.5t73.5 27.5v459q0 70 -1 109.5t-3 61t-6 28.5t-8 12l-103 20v86q63 14 127 25q53 10 113.5 18t110.5 10l75 -6q-2 -39 -4 -67 q-2 -27 -3 -47.5t-1 -24.5v-524q0 -80 1 -125t4 -68.5t8.5 -32t11.5 -12.5l86 -12v-86q-8 -4 -39 -11.5t-76 -15.5t-97 -16t-102 -13l-79 5q-2 27 -7 49q-4 20 -6 40.5t-2 37.5q-61 -57 -145 -98.5t-176 -41.5q-147 0 -229.5 109.5t-82.5 300.5v287q0 72 -1 112.5t-3 62 t-6 29t-10 11.5zM274 1229l279 319h96l279 -319l-50 -60l-276 174l-279 -174z" />
<glyph unicode="&#xfc;" horiz-adv-x="1236" d="M41 899v88q61 14 121 25q51 10 108.5 17t104.5 9l78 -4l-11 -182v-168q0 -76 1 -152.5t3 -146.5q4 -98 43 -157.5t111 -59.5q55 0 104.5 13.5t73.5 27.5v459q0 70 -1 109.5t-3 61t-6 28.5t-8 12l-103 20v86q63 14 127 25q53 10 113.5 18t110.5 10l75 -6q-2 -39 -4 -67 q-2 -27 -3 -47.5t-1 -24.5v-524q0 -80 1 -125t4 -68.5t8.5 -32t11.5 -12.5l86 -12v-86q-8 -4 -39 -11.5t-76 -15.5t-97 -16t-102 -13l-79 5q-2 27 -7 49q-4 20 -6 40.5t-2 37.5q-61 -57 -145 -98.5t-176 -41.5q-147 0 -229.5 109.5t-82.5 300.5v287q0 72 -1 112.5t-3 62 t-6 29t-10 11.5zM240 1343q0 66 39.5 113t115.5 47q72 0 119 -46t47 -114q0 -72 -50 -113.5t-116 -41.5t-110.5 42t-44.5 113zM660 1343q0 66 42.5 113t118.5 47q72 0 116 -45t44 -115t-47 -112.5t-113 -42.5q-70 0 -115.5 44t-45.5 111z" />
<glyph unicode="&#xfd;" horiz-adv-x="1079" d="M-6 934v88h547v-88l-101 -12q-18 -12 -18 -43q0 -29 20 -78l195 -449l147 371q20 47 27.5 82t7.5 61q0 37 -18 54l-96 14v88h380v-88l-73 -14q-25 -18 -50.5 -59.5t-60.5 -129.5l-332 -799q-59 -145 -139 -234t-207 -89q-63 0 -104 23.5t-41 74.5q0 27 7 57.5t18.5 57 t26.5 45t32 22.5q55 -6 110.5 -24.5t104.5 -44.5q23 20 51.5 63t42.5 80l21 55l-338 748q-35 76 -53.5 109.5t-41.5 48.5zM528 1217l197 356q25 41 61 41q16 0 42 -15.5t49.5 -38t41 -47t17.5 -43.5q0 -35 -29 -55l-317 -248z" />
<glyph unicode="&#xff;" horiz-adv-x="1079" d="M-6 934v88h547v-88l-101 -12q-18 -12 -18 -43q0 -29 20 -78l195 -449l147 371q20 47 27.5 82t7.5 61q0 37 -18 54l-96 14v88h380v-88l-73 -14q-25 -18 -50.5 -59.5t-60.5 -129.5l-332 -799q-59 -145 -139 -234t-207 -89q-63 0 -104 23.5t-41 74.5q0 27 7 57.5t18.5 57 t26.5 45t32 22.5q55 -6 110.5 -24.5t104.5 -44.5q23 20 51.5 63t42.5 80l21 55l-338 748q-35 76 -53.5 109.5t-41.5 48.5zM219 1290q0 66 39.5 113t115.5 47q72 0 119 -46t47 -114q0 -72 -50 -113.5t-116 -41.5t-110.5 42t-44.5 113zM639 1290q0 66 42.5 113t118.5 47 q72 0 116 -45t44 -115t-47 -112.5t-113 -42.5q-70 0 -115.5 44t-45.5 111z" />
<glyph unicode="&#x152;" horiz-adv-x="2029" d="M72 662q0 147 49 274t136 219t207 144.5t261 52.5q37 0 90 -4.5t107.5 -9.5t104.5 -9t85 -4h780l27 -20q0 -43 -5 -93.5t-11.5 -101.5t-14.5 -98t-14 -82h-86q-20 63 -36.5 108t-32 77t-32 53.5t-34.5 39.5q-47 4 -157 9.5t-245 5.5v-506l158 4q57 4 83 11t48 36l47 129 l94 -4q0 -16 -1 -45t-2 -61.5t-2 -64.5t-1 -52q0 -23 1 -56.5t2 -68.5t2 -68t1 -51l-94 -6l-43 139q-20 29 -48 37t-87 12l-158 4v-245q0 -68 3 -117t14.5 -80t33 -47.5t58.5 -18.5h170q57 0 96 15.5t75 53.5t72.5 101.5t88.5 159.5l90 -14q-8 -104 -19.5 -211t-27.5 -209 h-826q-37 0 -79 -4t-85 -10t-83.5 -10.5t-75.5 -4.5q-156 0 -283 50.5t-216 141.5t-137 218t-48 281zM395 674q0 -117 21.5 -224.5t66.5 -188.5t114 -130t165 -49q47 0 92 10t78 35q4 8 7 23.5t5 41t3 64.5t1 96v631q0 59 -1 98t-4 63.5t-7 39t-10 22.5q-37 18 -81 25.5 t-91 7.5q-90 0 -158 -45t-113 -122t-66.5 -179t-21.5 -219z" />
<glyph unicode="&#x153;" horiz-adv-x="1757" d="M57 504q0 127 45 229.5t119 174t170 109.5t199 38q104 0 193 -40t155 -118q68 76 156 117t184 41q82 0 156.5 -20.5t131 -62.5t90.5 -105.5t34 -147.5q0 -86 -10.5 -118t-32.5 -32q-61 0 -135 2t-151 4.5t-152.5 4.5t-139.5 2q-2 -6 -2 -13v-24q0 -154 89 -248t251 -94 q59 0 134 14t128 35l25 -62q-53 -98 -164 -159.5t-260 -61.5q-102 0 -192.5 39t-155.5 111q-66 -74 -158 -112t-201 -38q-96 0 -187 38t-162 106.5t-114 168t-43 222.5zM362 537q0 -94 15.5 -178.5t44.5 -149t69.5 -102t94.5 -37.5q49 0 87 35.5t62.5 98t36.5 146.5t12 180 q0 86 -13 164t-41 136.5t-67.5 92t-93.5 33.5q-53 0 -92 -35.5t-64.5 -94t-38 -134t-12.5 -155.5zM1073 684q0 -14 17 -14l274 8q37 6 37 92q0 104 -40 147.5t-106 43.5q-74 0 -123 -72t-59 -205z" />
<glyph unicode="&#x178;" horiz-adv-x="1259" d="M-29 1231v94h625v-94l-104 -10q-20 -6 -21 -33q0 -29 41 -96l221 -373l176 340q35 68 35 104q0 20 -6 32.5t-29 23.5l-112 12v94h467v-94l-95 -17q-31 -18 -60.5 -55t-70.5 -108l-243 -422v-275q0 -76 1 -120t5 -68.5t11 -35.5t19 -19l150 -17v-94h-678v94l150 17 q10 8 17 19t11 35.5t6 69t2 119.5v226l-303 485q-43 72 -68.5 104.5t-49.5 47.5zM254 1647q0 66 41 112.5t117 46.5q74 0 121 -47t47 -112q0 -72 -51.5 -115t-116.5 -43q-66 0 -112 43t-46 115zM754 1647q0 66 43 112.5t119 46.5q72 0 118 -46t46 -113q0 -70 -49.5 -114 t-114.5 -44q-68 0 -115 45t-47 113z" />
<glyph unicode="&#x2c6;" horiz-adv-x="874" d="M94 1229l279 319h96l279 -319l-50 -60l-276 174l-279 -174z" />
<glyph unicode="&#x2dc;" horiz-adv-x="874" d="M35 1255q27 66 51.5 115t49 81t53 47t63.5 15q33 0 75 -13t85 -28.5t84 -27.5t71 -12q39 0 65.5 23.5t63.5 72.5l76 -37q-53 -131 -98 -193.5t-117 -62.5q-33 0 -75 12.5t-85 27.5t-84 28.5t-71 13.5q-41 0 -69 -24.5t-62 -71.5z" />
<glyph unicode="&#x2000;" horiz-adv-x="919" />
<glyph unicode="&#x2001;" horiz-adv-x="1839" />
<glyph unicode="&#x2002;" horiz-adv-x="919" />
<glyph unicode="&#x2003;" horiz-adv-x="1839" />
<glyph unicode="&#x2004;" horiz-adv-x="613" />
<glyph unicode="&#x2005;" horiz-adv-x="459" />
<glyph unicode="&#x2006;" horiz-adv-x="306" />
<glyph unicode="&#x2007;" horiz-adv-x="306" />
<glyph unicode="&#x2008;" horiz-adv-x="229" />
<glyph unicode="&#x2009;" horiz-adv-x="367" />
<glyph unicode="&#x200a;" horiz-adv-x="102" />
<glyph unicode="&#x2010;" horiz-adv-x="806" d="M98 412v217h613v-217h-613z" />
<glyph unicode="&#x2011;" horiz-adv-x="806" d="M98 412v217h613v-217h-613z" />
<glyph unicode="&#x2012;" horiz-adv-x="806" d="M98 412v217h613v-217h-613z" />
<glyph unicode="&#x2013;" horiz-adv-x="1173" d="M100 453v147h973v-147h-973z" />
<glyph unicode="&#x2014;" horiz-adv-x="2043" d="M100 453v147h1844v-147h-1844z" />
<glyph unicode="&#x2018;" horiz-adv-x="489" d="M61 1028q0 63 24 119.5t66 106t96 92.5t115 79l50 -79q-72 -47 -111 -91.5t-39 -80.5q0 -20 15.5 -35t70.5 -35q35 -14 58.5 -34.5t23.5 -57.5q0 -33 -11 -65t-31.5 -57.5t-49.5 -42t-62 -16.5q-41 0 -78.5 15.5t-68.5 41t-49.5 61.5t-18.5 79z" />
<glyph unicode="&#x2019;" horiz-adv-x="487" d="M72 1229q0 33 11 64.5t31.5 57t49.5 42t61 16.5q39 0 78 -15.5t69.5 -41t49 -61.5t18.5 -79q0 -63 -23.5 -119.5t-65.5 -105.5t-96 -92t-116 -80l-49 80q72 47 111 91t39 81q0 20 -15.5 34.5t-70.5 35.5q-35 14 -58.5 34.5t-23.5 57.5z" />
<glyph unicode="&#x201a;" horiz-adv-x="520" d="M78 88q0 33 11 64.5t31.5 57.5t49.5 42t61 16q39 0 78 -15t70 -41t49 -61.5t18 -78.5q0 -63 -23.5 -119.5t-65.5 -106t-96 -92.5t-116 -80l-49 80q72 47 111 91t39 81q0 20 -15.5 34.5t-70.5 35.5q-35 14 -58.5 34.5t-23.5 57.5z" />
<glyph unicode="&#x201c;" horiz-adv-x="927" d="M61 1028q0 63 24 119.5t66 106t96 92.5t115 79l50 -79q-72 -47 -111 -91.5t-39 -80.5q0 -20 15.5 -35t70.5 -35q35 -14 58.5 -34.5t23.5 -57.5q0 -33 -11 -65t-31.5 -57.5t-49.5 -42t-62 -16.5q-41 0 -78.5 15.5t-68.5 41t-49.5 61.5t-18.5 79zM500 1028q0 63 23.5 119.5 t65.5 106t96 92.5t116 79l49 -79q-72 -47 -111 -91.5t-39 -80.5q0 -20 15.5 -35t70.5 -35q35 -14 58.5 -34.5t23.5 -57.5q0 -33 -11 -65t-31.5 -57.5t-49 -42t-61.5 -16.5q-41 0 -79 15.5t-68.5 41t-49 61.5t-18.5 79z" />
<glyph unicode="&#x201d;" horiz-adv-x="923" d="M72 1229q0 33 11 64.5t31.5 57t49.5 42t61 16.5q39 0 78 -15.5t69.5 -41t49 -61.5t18.5 -79q0 -63 -23.5 -119.5t-65.5 -105.5t-96 -92t-116 -80l-49 80q72 47 111 91t39 81q0 20 -15.5 34.5t-70.5 35.5q-35 14 -58.5 34.5t-23.5 57.5zM508 1229q0 33 11 64.5t31.5 57 t49.5 42t62 16.5q39 0 77.5 -15.5t69.5 -41t49.5 -61.5t18.5 -79q0 -63 -24 -119.5t-66 -105.5t-96 -92t-116 -80l-49 80q72 47 111 91t39 81q0 20 -15.5 34.5t-70.5 35.5q-35 14 -58.5 34.5t-23.5 57.5z" />
<glyph unicode="&#x201e;" horiz-adv-x="958" d="M78 88q0 33 11 64.5t31.5 57.5t49.5 42t61 16q39 0 78 -15t70 -41t49 -61.5t18 -78.5q0 -63 -23.5 -119.5t-65.5 -106t-96 -92.5t-116 -80l-49 80q72 47 111 91t39 81q0 20 -15.5 34.5t-70.5 35.5q-35 14 -58.5 34.5t-23.5 57.5zM516 88q0 33 11.5 64.5t32 57.5t49 42 t61.5 16q39 0 77.5 -15t69.5 -41t49.5 -61.5t18.5 -78.5q0 -63 -23.5 -119.5t-65.5 -106t-96.5 -92.5t-115.5 -80l-49 80q72 47 110.5 91t38.5 81q0 20 -15.5 34.5t-70.5 35.5q-35 14 -58.5 34.5t-23.5 57.5z" />
<glyph unicode="&#x2022;" horiz-adv-x="2002" d="M55 629q0 135 52.5 253.5t143.5 208t212 140.5t260 51q133 0 248 -46t203 -124q199 -176 352 -272.5t260 -141.5q125 -53 219 -61v-19q-94 -8 -219 -61q-106 -45 -260 -139t-352 -271q-90 -78 -204 -125t-247 -47q-139 0 -260 51.5t-212 140.5t-143.5 208t-52.5 254z" />
<glyph unicode="&#x2026;" horiz-adv-x="1531" d="M80 137q0 84 53 136.5t133 52.5q82 0 136.5 -54.5t54.5 -134.5q0 -39 -15.5 -70.5t-41 -55t-60.5 -37t-74 -13.5q-78 0 -132 49t-54 127zM578 137q0 84 53 136.5t133 52.5q82 0 136 -54.5t54 -134.5q0 -39 -15 -70.5t-41 -55t-60.5 -37t-73.5 -13.5q-78 0 -132 49 t-54 127zM1075 137q0 84 53.5 136.5t133.5 52.5q82 0 136 -54.5t54 -134.5q0 -39 -15.5 -70.5t-41 -55t-60 -37t-73.5 -13.5q-78 0 -132.5 49t-54.5 127z" />
<glyph unicode="&#x202f;" horiz-adv-x="367" />
<glyph unicode="&#x2039;" horiz-adv-x="620" d="M18 467v45l476 449l67 -39l-250 -430l250 -437l-67 -37z" />
<glyph unicode="&#x203a;" horiz-adv-x="620" d="M59 55l250 437l-250 430l68 39l475 -449v-45l-475 -449z" />
<glyph unicode="&#x205f;" horiz-adv-x="459" />
<glyph unicode="&#x20ac;" horiz-adv-x="1193" d="M68 340v100h110q-4 18 -4 38v42q0 47 6 90h-112v101h133q27 88 75 159.5t114.5 122.5t147 79t173.5 28q102 0 202.5 -14.5t161.5 -32.5l25 -21q0 -37 -7.5 -91t-17.5 -103q-10 -59 -22 -121l-72 -4q-16 49 -34.5 96t-35.5 84q-20 43 -39 82q-39 14 -77.5 19t-77.5 5 q-47 0 -85 -22.5t-65.5 -61t-46 -91t-28.5 -113.5h366v-101h-377v-51v-60.5t4 -58.5h334v-100h-317q27 -119 85 -192.5t158 -73.5q53 0 97 14q18 18 41.5 52t47 74t45 78t34.5 66l73 -14q-2 -39 -7 -93t-11 -106q-8 -59 -16 -122q-78 -25 -168 -39.5t-193 -14.5 q-186 0 -315 101.5t-176 269.5h-129z" />
<glyph unicode="&#x2122;" horiz-adv-x="1742" d="M70 1067q0 47 1 94t5 84q2 43 6 80h592q2 -37 6 -80q2 -37 4 -84t2 -94l-59 -2l-62 172q-14 12 -31.5 17.5t-48.5 5.5h-22v-408q0 -59 4 -87t18 -38l76 -10v-72h-368v72l73 8q16 12 20.5 39t4.5 88v408h-29q-55 0 -78 -25l-53 -170zM729 645v72l62 6q16 12 20 40t4 93 v277q0 55 -4 79.5t-14 34.5l-62 10v68h305l162 -426l98 270q10 33 23.5 80t19.5 76h302v-70l-64 -12q-10 -10 -14 -35.5t-4 -77.5v-284q0 -53 3 -81t19 -38l60 -10v-72h-334v72l55 6q16 10 20.5 36.5t4.5 82.5v350l-199 -551h-66l-225 573v-358q0 -63 4 -92t19 -39l67 -8 v-72h-262z" />
<glyph unicode="&#x25fc;" horiz-adv-x="1024" d="M0 0v1024h1024v-1024h-1024z" />
</font>
</defs>
</svg>
