<?xml version="1.0" standalone="no"?>
<!DOCTYPE svg PUBLIC "-//W3C//DTD SVG 1.1//EN" "http://www.w3.org/Graphics/SVG/1.1/DTD/svg11.dtd" >
<svg xmlns="http://www.w3.org/2000/svg">
<metadata></metadata>
<defs>
<font id="_.uploaded_file" horiz-adv-x="1359" >
<font-face units-per-em="2048" ascent="1536" descent="-512" />
<missing-glyph horiz-adv-x="481" />
<glyph horiz-adv-x="0" />
<glyph horiz-adv-x="0" />
<glyph unicode="&#xd;" horiz-adv-x="481" />
<glyph unicode=" "  horiz-adv-x="481" />
<glyph unicode="&#x09;" horiz-adv-x="481" />
<glyph unicode="&#xa0;" horiz-adv-x="481" />
<glyph unicode="!" horiz-adv-x="563" d="M43 127q0 37 13.5 71.5t38 62.5t57 45.5t71.5 17.5q72 0 116 -47.5t44 -118.5q0 -37 -13.5 -72t-38 -61.5t-57 -43t-69.5 -16.5q-72 0 -117 45t-45 117zM182 1143q2 80 60.5 137t150.5 57q90 0 138.5 -42t48.5 -117q0 -37 -30 -119t-75 -185.5t-100.5 -216t-104.5 -208.5 h-32q-31 315 -43.5 485t-12.5 209z" />
<glyph unicode="&#x22;" horiz-adv-x="811" d="M145 1206q0 63 48.5 106.5t134.5 43.5q78 0 108.5 -32t30.5 -81q0 -25 -23.5 -77t-57.5 -114.5t-72 -125t-64 -103.5h-33q-10 43 -23.5 100.5t-23.5 115t-17.5 103.5t-7.5 64zM569 1206q0 63 48.5 106.5t134.5 43.5q78 0 108.5 -32t30.5 -81q0 -25 -23.5 -77 t-57.5 -114.5t-72 -125t-64 -103.5h-33q-10 43 -23.5 100.5t-23.5 115t-17.5 103.5t-7.5 64z" />
<glyph unicode="#" horiz-adv-x="1114" d="M61 367v75h226l53 387h-227v76h233l51 367h82l-51 -367h346l51 367h82l-51 -367h219v-76h-227l-55 -387h229v-75h-240l-51 -367h-82l51 367h-344l-53 -367h-80l51 367h-213zM367 442h344l57 387h-348z" />
<glyph unicode="$" horiz-adv-x="1052" d="M31 29q2 51 6 104t9 102.5t11 92.5t13 73l39 5q14 -53 35.5 -107.5t43 -103t43 -89t37.5 -67.5q29 -10 64 -14.5t69 -6.5l84 486l-49 20q-84 35 -145.5 70t-101 74t-58 86t-18.5 106q0 94 43 174t113.5 138.5t163.5 92t192 33.5l51 287h55l-51 -287q45 -2 93 -5t93 -8 t85 -10t67 -11l8 -15q-4 -45 -8 -94t-10.5 -97t-12.5 -90t-12 -73l-39 -2q-12 53 -30.5 105.5t-40 97.5t-43 80.5t-39.5 60.5q-25 8 -55.5 11t-61.5 5l-80 -448l57 -23q84 -35 144.5 -70.5t98.5 -75.5t56.5 -87t18.5 -107q0 -104 -43 -190t-116 -146.5t-167 -95.5t-194 -37 l-52 -290h-55l51 290q-82 4 -176 17.5t-186 38.5zM360 1024q0 -63 40 -104t143 -91l75 426q-51 -2 -98 -19t-82 -48t-56.5 -73t-21.5 -91zM457 18q55 4 102 27t83 57.5t55.5 81t19.5 99.5q0 68 -42 110.5t-138 87.5z" />
<glyph unicode="%" horiz-adv-x="1284" d="M-84 -129l1235 1417q-25 -16 -57.5 -33.5t-68.5 -33t-74 -25.5t-70 -10q-41 0 -88.5 23.5t-83.5 50.5q29 -51 28 -119q0 -74 -24.5 -140.5t-67.5 -119t-100.5 -83t-122.5 -30.5q-121 0 -190.5 59.5t-69.5 165.5q0 80 31.5 145.5t82 113.5t116 74t132.5 26q78 0 131 -35 q14 -4 41 -10.5t62 -12.5t73.5 -11t79.5 -5q88 0 166 21.5t113 33.5l51 60l55 -23l-1323 -1517zM369 981q0 -59 25.5 -104.5t74.5 -45.5q41 0 79 28t66.5 73t46 101.5t17.5 111.5q0 70 -31 110.5t-98 40.5q-37 0 -70 -26.5t-57.5 -71.5t-38.5 -101.5t-14 -115.5zM563 201 q0 80 32 145.5t83 113.5t116.5 73.5t133.5 25.5q109 0 174 -60.5t65 -164.5q0 -74 -28.5 -138.5t-76.5 -113.5t-110.5 -78t-128.5 -29q-121 0 -190.5 59.5t-69.5 166.5zM772 188q0 -59 24.5 -104t73.5 -45q41 0 79 27.5t66.5 72.5t45 101.5t16.5 111.5q0 68 -28.5 110 t-96.5 42q-37 0 -69.5 -26.5t-57 -72t-39 -101.5t-14.5 -116z" />
<glyph unicode="&#x26;" horiz-adv-x="1343" d="M-31 268q0 82 36 151.5t95.5 125t133 94.5t151.5 59q-35 66 -52.5 138.5t-17.5 138.5q0 74 34 141.5t91.5 118.5t134 82t162.5 31q80 0 144.5 -20.5t109.5 -55.5t69.5 -82t24.5 -98q0 -68 -28.5 -119t-77.5 -91t-116.5 -71t-145.5 -57q14 -37 37.5 -86.5t49 -102.5 t50.5 -104t45 -90q23 111 44.5 184.5t49 117.5t61 62.5t81.5 18.5q53 0 111.5 -23.5t92.5 -46.5l-2 -33q-35 -6 -70.5 -24.5t-83.5 -53t-112.5 -91t-152.5 -142.5q16 -37 37.5 -73t44 -64.5t48 -46t52.5 -17.5q25 0 61.5 18.5t57.5 32.5l14 -30q-74 -76 -166 -128t-182 -52 q-84 0 -140.5 38.5t-109.5 126.5q-84 -78 -163 -121.5t-189 -43.5q-141 0 -227.5 79.5t-86.5 208.5zM307 385q0 -106 51.5 -173t137.5 -67q29 0 60.5 8.5t55.5 22.5q-27 51 -56.5 113.5t-58 128t-55 130t-45.5 120.5q-16 -12 -32.5 -42t-28.5 -69t-20.5 -84t-8.5 -88z M629 1061q0 -63 16.5 -126t56.5 -147q20 20 43 61.5t42.5 92.5t31.5 107.5t12 105.5q0 66 -18 111t-63 45q-23 0 -45.5 -21.5t-39 -56.5t-26.5 -80t-10 -92z" />
<glyph unicode="'" horiz-adv-x="389" d="M145 1206q0 63 48.5 106.5t134.5 43.5q78 0 108.5 -32t30.5 -81q0 -25 -23.5 -77t-57.5 -114.5t-72 -125t-64 -103.5h-33q-10 43 -23.5 100.5t-23.5 115t-17.5 103.5t-7.5 64z" />
<glyph unicode="(" horiz-adv-x="632" d="M5 240.5q-13 142.5 11 287.5q25 143 87.5 283.5t157.5 269.5t224 241t287 198l16 -29q-102 -92 -172.5 -202.5t-120 -232.5t-80 -253t-55.5 -266q-25 -139 -42 -275.5t-13 -263.5t36 -239.5t103 -207.5l-20 -24q-127 86 -215 198.5t-139.5 242.5t-64.5 272.5z" />
<glyph unicode=")" horiz-adv-x="634" d="M-170 -444q102 92 173 202.5t120 232.5t79.5 253t55.5 266q25 139 42 275.5t13 263.5t-35.5 239.5t-103.5 206.5l21 25q125 -86 214 -199t140 -243t64.5 -272t-11.5 -288q-25 -143 -87 -283.5t-157.5 -269.5t-224.5 -240.5t-287 -197.5z" />
<glyph unicode="*" horiz-adv-x="856" d="M113 963q0 53 33.5 88.5t86.5 35.5q35 0 96.5 -36.5t147.5 -77.5q-59 66 -113.5 114t-64.5 82q-16 49 6.5 92.5t75.5 59.5q49 16 94 -4.5t62 -71.5q10 -33 -6.5 -105.5t-28.5 -160.5l-25 -6l-2 -27l25 -8q10 -88 24.5 -158.5t3.5 -105.5q-16 -49 -60 -70.5t-93 -5.5 q-51 16 -75 60t-7 94q10 33 66.5 82t115.5 112q-80 -37 -143.5 -72.5t-100.5 -35.5q-51 0 -84.5 35.5t-33.5 89.5zM500 938l16 20l-14 21q43 80 74.5 144.5t60.5 84.5q43 31 90 23t78 -51q33 -41 25.5 -90.5t-50.5 -81.5q-27 -20 -101.5 -26.5t-162.5 -23.5q90 -16 161 -25 t99 -30q43 -33 50.5 -80t-25.5 -88q-29 -45 -78 -54t-92 21q-14 10 -28.5 34t-30 55.5t-34 69.5t-38.5 77z" />
<glyph unicode="+" horiz-adv-x="948" d="M53 481v90h367v387h90v-387h367v-90h-367v-387h-90v387h-367z" />
<glyph unicode="," horiz-adv-x="468" d="M-57 -244q78 45 134 98.5t56 96.5q0 27 -14.5 44t-67.5 46q-43 23 -58.5 39t-15.5 45t15.5 63.5t40 64.5t57.5 49.5t68 19.5q74 0 127 -49.5t53 -122.5q0 -68 -31 -128.5t-83 -113.5t-121.5 -99.5t-145.5 -82.5z" />
<glyph unicode="-" horiz-adv-x="727" d="M74 610l547 29l10 -211l-547 -29z" />
<glyph unicode="." horiz-adv-x="458" d="M-16 129q0 37 14 73t38.5 64.5t57.5 46t72 17.5q74 0 120 -48.5t46 -119.5q0 -37 -14.5 -73t-39 -63.5t-57 -44t-71.5 -16.5q-72 0 -119 45t-47 119z" />
<glyph unicode="/" horiz-adv-x="856" d="M-139 -358l995 1894l82 -33l-999 -1898z" />
<glyph unicode="0" horiz-adv-x="1144" d="M80 485q0 174 49 327t132 266.5t191.5 178t225.5 64.5q90 0 166 -33t131 -95.5t87 -152t32 -202.5q0 -221 -61.5 -383t-154 -267.5t-198 -156.5t-193.5 -51q-86 0 -160.5 32.5t-129 97t-86 158.5t-31.5 217zM383 274q0 -53 6 -99t18.5 -81t33 -55.5t51.5 -20.5 q45 0 84.5 53.5t72.5 139.5t58.5 194.5t44 219t27.5 213t9 176.5q0 121 -28.5 193.5t-81.5 72.5q-47 0 -86 -55.5t-72 -143.5t-58.5 -199.5t-43 -223t-26.5 -213t-9 -171.5z" />
<glyph unicode="1" horiz-adv-x="735" d="M-47 0q2 14 5 24.5t7 14.5l144 18q6 2 13 10.5t13 28t14.5 55t18.5 95.5l98 557q6 31 14.5 76t17.5 90t18.5 84t15.5 57q-16 -2 -41 -5t-51.5 -5t-52 -4t-44.5 -2l-2 28q45 23 110.5 51.5t134.5 57.5t136.5 53.5t120.5 40.5l39 -10q-8 -33 -21.5 -97.5t-28 -135 t-27.5 -136t-19 -100.5l-105 -602q-10 -57 -15 -92t-6 -55.5t2 -29t9 -10.5l133 -18q2 -8 1 -19.5t-3 -19.5h-649z" />
<glyph unicode="2" horiz-adv-x="1042" d="M-33 27q133 113 257 246t219.5 274t152.5 286.5t57 284.5q0 72 -18.5 115t-52.5 43q-14 0 -27.5 -2t-15.5 -2q-16 -35 -44 -92.5t-58.5 -118t-61.5 -111.5t-53 -69q-33 0 -68 12t-62.5 32.5t-46 48t-18.5 62.5q0 47 40 97.5t104.5 92.5t146.5 68.5t166 26.5 q80 0 151.5 -19.5t127 -58.5t88 -96t32.5 -133q0 -78 -32.5 -149.5t-105.5 -148.5t-187.5 -166t-278.5 -202l-127 -94q66 10 117 14t73 4q31 0 68 -3t76 -6t77.5 -6t69.5 -3q33 0 58.5 8t48 27.5t46 54.5t54.5 88l35 -12q-35 -98 -72 -182t-77 -145.5t-80.5 -95.5t-81.5 -34 q-47 0 -111 9.5t-130.5 19.5t-126.5 19t-101 9q-47 0 -111 -9t-107 -19z" />
<glyph unicode="3" horiz-adv-x="1015" d="M-10 106q0 29 14 65t35.5 69.5t45.5 58.5t44 33q43 -6 80 -48t67.5 -94.5t57 -102.5t53.5 -71q45 8 82 38t64.5 76t43 104.5t15.5 123.5q0 123 -74 190.5t-186 67.5q-16 0 -43 -3t-45 -7l-4 39q178 59 275 131t97 178q0 72 -56 107t-128 35t-141.5 -21.5t-130.5 -56.5 l-19 24q84 131 203 206t272 75q68 0 128.5 -16.5t105.5 -47t71.5 -75.5t26.5 -103q0 -113 -84 -183.5t-246 -117.5v-8q135 -23 223.5 -101.5t88.5 -213.5q0 -113 -49.5 -202t-128 -150.5t-175 -94.5t-190.5 -33q-186 0 -289.5 35t-103.5 94z" />
<glyph unicode="4" horiz-adv-x="1026" d="M-25 352q92 158 176.5 297t154 251t122.5 191.5t82 120.5q39 55 84 83t125 28q86 0 149.5 -14.5t79.5 -34.5q-6 -10 -26.5 -32.5t-59.5 -53.5q-80 -66 -177 -150t-204.5 -186t-220.5 -223t-223 -260h459l63 356q109 35 185.5 52.5t109.5 19.5l29 -6l-76 -422h143l-10 -52 h-141l-13 -69q-10 -55 -14 -89t-5 -54.5t2 -31t11 -18.5l101 -18q2 -6 1 -17.5t-3 -19.5h-629q2 27 8 37l156 20q8 6 15 15.5t14.5 29t13.5 51t16 85.5l12 79h-505z" />
<glyph unicode="5" horiz-adv-x="1007" d="M8 102q0 27 14.5 61t35 64.5t44 54t41.5 27.5q43 -6 79 -47t66.5 -90t56.5 -93t50 -59q96 10 161 83t65 190q0 61 -23 104t-62.5 72t-96 42t-122.5 13q-63 0 -116.5 -9t-77.5 -19l-25 16q29 106 48.5 195.5t25.5 132.5l72 454l14 9q61 -10 134 -17.5t144.5 -11.5t139 -6 t117.5 -2q45 0 76.5 5t56 19.5t46 42t46.5 72.5l31 -6q-31 -139 -58.5 -224t-56.5 -131.5t-59.5 -62.5t-69.5 -16q-86 0 -170 4t-158 10t-134 14t-99 15l-29 -164l-14 -51q74 16 135 22t90 6q94 0 184 -19.5t159 -61.5t111 -109.5t42 -163.5q0 -111 -49.5 -201t-128 -154.5 t-178 -99.5t-197.5 -35q-186 0 -273.5 32t-87.5 93z" />
<glyph unicode="6" horiz-adv-x="1054" d="M41 393q0 190 65.5 348t185.5 278t291 199.5t384 112.5q6 -8 8 -17t2 -16q-109 -47 -196 -104t-154.5 -130t-117.5 -161t-89 -194q18 14 47 30.5t62.5 31.5t69.5 25.5t71 10.5q80 0 138 -26.5t98 -72.5t59.5 -107.5t19.5 -131.5q0 -115 -44 -206t-116.5 -154.5t-165 -96 t-188.5 -32.5t-176 27.5t-136.5 80.5t-87 130t-30.5 175zM348 301q0 -59 7 -110.5t22.5 -89.5t39 -59.5t56.5 -21.5q43 0 77 43t57.5 111t36.5 152t13 166q0 92 -36.5 151t-96.5 59q-29 0 -60.5 -8t-55.5 -22q-10 -29 -21.5 -72t-20 -94t-13.5 -104.5t-5 -100.5z" />
<glyph unicode="7" horiz-adv-x="927" d="M68 825q82 252 154.5 368t146.5 116q49 0 112.5 -6.5t133 -14.5t143 -14t145.5 -6q31 0 78 25.5t80 49.5l14 -22q-123 -154 -232.5 -302.5t-193.5 -275.5t-137 -223t-63 -147q0 -37 14 -78t30.5 -82t30 -81t13.5 -77q-35 -37 -82 -57.5t-113 -20.5q-53 0 -85 31t-32 82 t54.5 155.5t135.5 230.5t175 258t176 239q-174 14 -280.5 20t-141.5 6q-45 0 -76.5 -6t-58.5 -24.5t-51.5 -54t-55.5 -95.5z" />
<glyph unicode="8" horiz-adv-x="1112" d="M29 272q0 72 32.5 128.5t85 97.5t117 67.5t127.5 38.5q-57 39 -100 74t-70.5 72.5t-42 78.5t-14.5 93q0 90 43 163.5t113.5 127t160.5 82t183 28.5q76 0 150.5 -16.5t132 -49t93 -83t35.5 -117.5q0 -84 -43 -142.5t-96 -97.5t-100.5 -59.5t-57.5 -24.5 q115 -72 170.5 -142t55.5 -181q0 -100 -45.5 -180t-121 -135.5t-172 -85t-196.5 -29.5q-92 0 -172 19t-140.5 56t-94 91.5t-33.5 125.5zM274 256q0 -43 14.5 -86t40 -76t59.5 -53.5t75 -20.5q104 0 164.5 67.5t60.5 184.5q0 47 -12 85t-43 73t-83 72t-132 84 q-55 -53 -99.5 -136t-44.5 -194zM475 1047q0 -41 14.5 -74t46 -66t83 -69.5t124.5 -83.5q8 4 24.5 34.5t33 78.5t29 109t12.5 122q0 84 -49.5 134t-120.5 50q-41 0 -76 -20.5t-62.5 -53t-43 -74.5t-15.5 -87z" />
<glyph unicode="9" horiz-adv-x="1050" d="M96 848q0 106 43 194t114 150.5t163 96.5t188 34t176 -28.5t136.5 -82t88 -130t31.5 -173.5q0 -190 -65.5 -349t-186 -278.5t-291.5 -198.5t-382 -112q-6 8 -9.5 17.5t-3.5 13.5q219 94 352.5 241.5t211.5 364.5q-18 -16 -47 -33.5t-63 -32t-71 -23.5t-69 -9 q-74 0 -133.5 25.5t-99.5 70.5t-61.5 106.5t-21.5 135.5zM424 827q0 -92 37 -152.5t98 -60.5q29 0 59.5 8.5t55.5 22.5q10 29 20.5 70t17.5 89t11 98t4 97q0 59 -7 110.5t-22.5 89.5t-38 59.5t-55.5 21.5q-43 0 -75.5 -41t-56 -105.5t-36 -145.5t-12.5 -161z" />
<glyph unicode=":" horiz-adv-x="540" d="M23 129q0 37 14 73t38.5 64.5t57.5 46t72 17.5q74 0 120 -48.5t46 -119.5q0 -37 -14.5 -73t-39 -63.5t-57.5 -44t-72 -16.5q-72 0 -118.5 45t-46.5 119zM129 737q0 37 14.5 73t39 64.5t57 46t71.5 17.5q74 0 120 -48t46 -120q0 -37 -14 -72.5t-39 -63.5t-57.5 -44.5 t-71.5 -16.5q-72 0 -119 45.5t-47 118.5z" />
<glyph unicode=";" horiz-adv-x="512" d="M-41 -244q78 45 134.5 98.5t56.5 96.5q0 27 -14.5 44t-67.5 46q-43 23 -58.5 39t-15.5 45t15.5 63.5t40 64.5t57 49.5t67.5 19.5q74 0 127 -49.5t53 -122.5q0 -68 -30.5 -128.5t-83 -113.5t-122 -99.5t-145.5 -82.5zM121 752q0 37 14.5 72.5t39 64.5t57 46t71.5 17 q74 0 120 -48t46 -120q0 -37 -14.5 -72.5t-39 -63t-57 -44t-71.5 -16.5q-72 0 -119 45t-47 119z" />
<glyph unicode="&#x3c;" horiz-adv-x="903" d="M10 489v103l791 362v-106l-684 -305l684 -310v-106z" />
<glyph unicode="=" horiz-adv-x="1097" d="M123 266v90h827v-90h-827zM123 651v90h827v-90h-827z" />
<glyph unicode="&#x3e;" horiz-adv-x="907" d="M94 127v106l684 310l-684 305v106l791 -362v-103z" />
<glyph unicode="?" horiz-adv-x="856" d="M135 127q0 37 13.5 71.5t38 62.5t57 45.5t69.5 17.5q72 0 116 -47.5t44 -118.5q0 -37 -13.5 -72t-38 -61.5t-56 -43t-68.5 -16.5q-72 0 -117 45t-45 117zM164 1186q0 68 68.5 110.5t189.5 42.5q98 0 179 -36.5t139.5 -93t90 -124t31.5 -131.5q0 -55 -11 -97t-45 -78 t-96.5 -68.5t-162.5 -71.5q-51 -20 -84 -39.5t-51.5 -39t-25.5 -41t-7 -44.5q0 -12 2 -28.5t4 -26.5l-35 -6q-47 25 -78.5 56.5t-51 64t-29 63.5t-9.5 55q0 141 209 228q68 27 125 52t100 52t67 57.5t24 67.5q0 53 -39 96t-97 56q-43 -6 -79.5 -45t-70.5 -84.5t-68 -83 t-66 -43.5q-18 8 -40 27.5t-40.5 46t-30.5 54t-12 52.5z" />
<glyph unicode="@" horiz-adv-x="1806" d="M39 393q0 197 75.5 378t203.5 320.5t298 223.5t361 84q166 0 308 -48t246.5 -140.5t164 -226.5t59.5 -304q0 -117 -33.5 -242t-102.5 -229.5t-172.5 -172t-242.5 -67.5q-100 0 -161.5 41t-61.5 142q0 25 4 66.5t9 84.5t11.5 81t10.5 58h-4q-23 -84 -55.5 -168 t-75.5 -152.5t-92.5 -111.5t-100.5 -43q-74 0 -127 30t-87 79t-49 113.5t-15 136.5q0 135 46 259t119.5 219t164.5 151.5t184 56.5q66 0 119 -36t94 -83q18 12 47.5 27.5t63.5 29t69 25.5t63 22l27 -6q-10 -37 -21.5 -87t-22.5 -109.5t-22.5 -124t-19.5 -129.5l-33 -232 q-6 -41 -10 -84t-4 -71q0 -49 14.5 -78t48.5 -29q76 0 143.5 58.5t120 149.5t83 203.5t30.5 221.5q0 162 -54 288t-152.5 213t-233.5 133t-297 46q-182 0 -336 -81t-264.5 -216t-172 -309t-61.5 -361q0 -178 47.5 -319.5t139.5 -241.5t228 -153.5t314 -53.5q117 0 232 32 t211 85l18 -33q-102 -57 -217 -89t-244 -32q-188 0 -342.5 56.5t-263 161t-168 253t-59.5 334.5zM717 342q0 -37 5 -71.5t15.5 -62.5t26 -44.5t35.5 -16.5q37 0 73.5 52.5t68.5 126t57.5 155.5t39.5 142l27 188q-16 86 -47 127t-86 41q-41 0 -80 -64.5t-68.5 -161t-48 -208 t-18.5 -203.5z" />
<glyph unicode="A" horiz-adv-x="1204" d="M-129 0q2 10 5 21.5t7 19.5l58 12q23 16 71.5 86t98.5 166l411 813l43 135l266 84l170 -1046q10 -63 18.5 -106.5t15.5 -70t13.5 -40t12.5 -19.5l72 -14q1 -8 1 -14q0 -17 -4 -27h-587q4 25 10 41l94 14q20 10 23 31q2 12 2 31t-2 45q-4 53 -11 106l-18 123h-424 q-45 -98 -68.5 -169.5t-27.5 -100.5q-8 -37 8 -53l113 -27q2 -12 1 -23.5t-3 -17.5h-369zM244 446h389l-90 617z" />
<glyph unicode="B" horiz-adv-x="1247" d="M-39 0q4 25 10 41l86 14q8 6 16.5 17.5t16.5 39t17.5 74.5t23.5 127l127 719q12 66 17.5 106t6.5 63.5t-3.5 34.5t-10.5 17l-80 17q0 27 5 39h516q104 0 194 -16.5t156.5 -52.5t103.5 -91t37 -135q0 -63 -27.5 -112.5t-73.5 -84.5t-106.5 -57.5t-126.5 -34.5v-6 q129 -33 210 -108.5t81 -209.5q0 -109 -52 -185.5t-138 -124.5t-197 -69.5t-229 -21.5h-580zM434 112q2 -36 13.5 -48.5t27.5 -18.5h53q63 0 117.5 27.5t92.5 78t59.5 122t21.5 159.5q0 117 -63.5 176.5t-165.5 59.5h-74l-49 -281q-19 -111 -27 -175q-7 -52 -6 -86v-14z M524 711h68q123 0 198.5 87t75.5 261q0 90 -42 148.5t-134 58.5h-67z" />
<glyph unicode="C" horiz-adv-x="1155" d="M61 522q0 170 56.5 319.5t155 260t233.5 174t295 63.5q53 0 108.5 -4t104.5 -10t91 -13t69 -12l12 -16q-8 -49 -20.5 -103.5t-25 -106.5t-24.5 -99t-22 -82l-37 -2q-35 160 -73 255t-60 124q-20 10 -50 17t-71 7q-70 0 -127.5 -38.5t-103.5 -104.5t-80.5 -153t-57 -180 t-34 -188t-11.5 -179q0 -74 14.5 -150t44 -138.5t75.5 -102.5t112 -40q23 0 44 4.5t34 8.5q33 27 74.5 76t86 106t86 117.5t74.5 111.5l39 -8q-8 -43 -19.5 -95t-24.5 -105.5t-26.5 -103.5t-23.5 -87q-98 -37 -188.5 -54.5t-155.5 -17.5q-131 0 -237.5 37t-181.5 106.5 t-115 172t-40 233.5z" />
<glyph unicode="D" horiz-adv-x="1361" d="M-37 0q2 14 5 25.5t7 15.5l84 14q8 8 16.5 20.5t16.5 42t18.5 83t26.5 143.5l123 694q10 61 16.5 99.5t7.5 62t-3.5 34.5t-10.5 19l-80 17q-2 10 -1 20t4 19h528q131 0 242.5 -30t193.5 -94.5t128 -168t46 -250.5q0 -162 -60.5 -301t-165 -242.5t-243.5 -163t-297 -59.5 h-602zM446 224q-3 -30 -2 -55q0 -32 4 -53q8 -38 31 -52.5t60 -16.5h26q98 0 178 76t138.5 192.5t90.5 260t32 278.5q0 209 -71 308.5t-220 99.5h-90l-152 -856q-19 -112 -25 -182z" />
<glyph unicode="E" horiz-adv-x="1148" d="M-39 0q2 12 5 23.5t5 17.5l88 14q8 8 16.5 19.5t15.5 39t17.5 80t26.5 142.5l121 678q14 76 20.5 121t7.5 68.5t-3.5 33.5t-10.5 16l-82 17q0 27 5 39h976l15 -15q-10 -43 -22.5 -92t-27 -99t-27.5 -96t-24 -81h-30q-35 139 -69 209.5t-73 113.5q-72 10 -153.5 13.5 t-134.5 3.5l-101 -580l96 4q74 2 111 12.5t62 32.5l79 142l35 -3q-18 -84 -28.5 -139t-14.5 -76q-4 -20 -9 -49.5t-10 -63.5t-10.5 -69t-9.5 -63l-35 -2l-24 180q-16 27 -49 37t-105 12l-98 2l-47 -283q-15 -92 -23 -152q-5 -39 -5 -68q0 -16 1 -28q4 -34 20.5 -48.5 t45.5 -16.5h63q53 0 98.5 17.5t96.5 60.5t113.5 116.5t152.5 188.5l29 -4q-10 -47 -24.5 -104.5t-31 -116t-33 -111.5t-28.5 -94h-979z" />
<glyph unicode="F" horiz-adv-x="1052" d="M-37 0q2 10 4 22.5t6 18.5l86 14q8 6 16.5 18.5t16.5 42t18.5 85t26.5 147.5l121 680q12 68 17.5 109t6.5 65.5t-2.5 34.5t-9.5 16l-82 17q0 27 5 39h944l12 -15q-8 -39 -21.5 -91t-28 -107.5t-28.5 -108.5t-27 -96h-30q-31 152 -63.5 231.5t-73.5 122.5 q-53 10 -128 15.5t-126 5.5l-111 -635l111 4q59 2 89.5 13t53.5 34l82 141l35 -2q-18 -84 -29.5 -139t-15.5 -78q-4 -20 -8.5 -51t-9.5 -64.5t-10 -68.5t-9 -64l-35 -4l-29 183q-16 29 -42.5 37t-80.5 10l-110 4l-37 -197q-18 -102 -27.5 -164.5t-11.5 -98.5t2 -50.5 t12 -20.5l133 -14q2 -12 1 -23.5t-3 -17.5h-610z" />
<glyph unicode="G" horiz-adv-x="1226" d="M59 518q0 166 56.5 315.5t158 262t240.5 178t307 65.5q55 0 113.5 -4t112 -9t96.5 -11t69 -12l13 -17q-8 -49 -20.5 -103.5t-26 -107.5t-26.5 -100t-24 -82l-34 -2q-35 160 -73 254t-60 123q-23 10 -62 17t-84 7q-74 0 -134 -39t-107.5 -105.5t-82 -152.5t-57 -179 t-34 -188.5t-11.5 -176.5q0 -86 12.5 -163t40 -136.5t72.5 -94t113 -34.5q25 0 55.5 3t50.5 7q4 47 9.5 86t9.5 59l22 131q8 51 13.5 83t6.5 52.5t-3.5 30.5t-10.5 19l-96 14q0 8 1 19.5t3 21.5h498q-4 -31 -10 -41l-54 -10q-6 -6 -10 -15.5t-10 -31t-14.5 -59.5t-18.5 -99 l-45 -264q-45 -12 -98.5 -21.5t-107.5 -17.5t-103 -12.5t-84 -4.5q-133 0 -238.5 33t-179.5 100.5t-114 170t-40 241.5z" />
<glyph unicode="H" horiz-adv-x="1417" d="M-49 0q2 10 5 22.5t5 18.5l100 14q8 8 16.5 19.5t15.5 37t17.5 72.5t24.5 127l121 686q14 80 20.5 127t8.5 73t-2 37t-11 19l-94 17q0 27 4 39h580q-4 -23 -10 -39l-101 -17q-10 -8 -16 -18t-14.5 -35.5t-17.5 -73t-23 -129.5l-56 -313h408l55 313q14 80 20.5 127t8.5 73 t-2 37t-10 19l-95 17q0 27 4 39h580q-4 -23 -10 -39l-101 -17q-10 -8 -16 -18t-14.5 -35.5t-17.5 -73t-23 -129.5l-121 -686q-14 -76 -21.5 -122t-8.5 -73.5t2 -40t9 -20.5l97 -14q0 -12 -1 -23.5t-1 -17.5h-584q2 10 5 22.5t5 18.5l101 14q8 8 16 19.5t15 37t17.5 72.5 t24.5 127l56 322h-408l-55 -322q-14 -76 -21.5 -122t-8.5 -73.5t2 -40t9 -20.5l97 -14q0 -12 -1 -23.5t-1 -17.5h-584z" />
<glyph unicode="I" horiz-adv-x="686" d="M-49 0q2 10 5 22.5t5 18.5l100 14q8 8 16.5 19.5t15.5 37t17.5 72.5t24.5 127l121 686q14 80 20.5 127t8.5 73t-2 37t-11 19l-94 17q0 27 4 39h580q-4 -23 -10 -39l-101 -17q-10 -8 -16 -18t-14.5 -35.5t-17.5 -73t-23 -129.5l-121 -686q-14 -76 -21.5 -122t-8.5 -73.5 t2 -40t9 -20.5l97 -14q0 -12 -1 -23.5t-1 -17.5h-584z" />
<glyph unicode="J" horiz-adv-x="659" d="M-137 -285q57 51 97 99.5t67.5 101.5t45 119.5t33.5 154.5l144 807q14 80 20 128.5t8.5 75t-2 36.5t-10.5 16l-94 17q-2 12 0 23.5t4 15.5h561q-2 -10 -5 -20.5t-7 -18.5l-80 -17q-8 -6 -15 -17t-15.5 -38t-17.5 -74t-24 -127l-143 -809q-18 -106 -68.5 -185t-124 -138.5 t-167 -103.5t-197.5 -76z" />
<glyph unicode="K" horiz-adv-x="1286" d="M-49 0q2 12 5 23.5t5 17.5l100 14q8 6 15.5 17.5t15.5 38t18.5 76t24.5 128.5l121 686q14 80 20.5 126.5t8.5 73t-2 36.5t-11 16l-94 17q0 27 4 39h580q0 -23 -12 -39l-101 -17q-10 -8 -16 -18t-13.5 -35.5t-16.5 -72t-23 -126.5l-60 -337l82 28l129 125 q162 156 262.5 265.5t102.5 146.5q0 20 -19 28l-98 13q-2 25 2 39h424q0 -23 -12 -39l-115 -17q-82 -29 -203 -149l-250 -256l205 -555q23 -61 40 -103.5t31.5 -69t27 -42t24.5 -23.5l64 -14q2 -10 1 -22.5t-4 -18.5h-575q4 27 10 41l68 10q14 8 17 16.5t7 22.5q1 6 1 15 q0 64 -68 241l-107 277l-53 10l-55 -320q-14 -74 -21.5 -120t-9.5 -73.5t1 -42t9 -22.5l76 -14q2 -10 1 -22.5t-3 -18.5h-561z" />
<glyph unicode="L" horiz-adv-x="1077" d="M-37 0q4 27 10 41l84 14q8 8 15.5 18.5t15.5 35t17.5 70.5t23.5 126l123 692q14 80 21.5 127t8.5 74t-3.5 37t-10.5 18l-78 17q-2 10 0.5 21.5t4.5 17.5h610q-2 -10 -5 -21.5t-7 -17.5l-146 -17q-10 -8 -17 -19t-14.5 -40t-18.5 -82t-28 -145l-98 -561q-21 -116 -29 -186 q-6 -47 -5 -80q0 -15 1 -28q4 -38 20.5 -50.5t45.5 -14.5h51q41 2 80 19.5t89 66.5t116.5 135t165.5 226l30 -5q-16 -76 -32.5 -149.5t-33 -138t-31.5 -116.5t-26 -85h-950z" />
<glyph unicode="M" horiz-adv-x="1622" d="M-74 0q4 27 11 41l100 20q14 8 26.5 20.5t23.5 38t22.5 69.5t27.5 116l174 801q-8 43 -29.5 90t-39.5 61l-56 13q0 23 4 39h422l193 -889l289 545q14 27 32.5 68.5t38 89.5t39 96.5t35.5 89.5h428q-4 -29 -10 -39l-74 -15q-10 -6 -19.5 -17t-16.5 -33.5t-16 -60.5 t-20 -95q-4 -23 -13 -86.5t-21.5 -147.5t-25.5 -179t-24.5 -179t-20.5 -148.5t-11 -87.5q-4 -47 -6.5 -76.5t-2.5 -48t4.5 -27t12.5 -14.5l76 -14q0 -10 -1 -21.5t-1 -19.5h-557q4 27 10 41l78 14q25 10 41 46t26 114l115 817l-557 -1034l-62 -10l-229 1054l-137 -739 q-11 -69 -17 -111q-5 -36 -5 -60v-8q1 -26 6.5 -38t13.5 -18l139 -27q2 -10 1 -21.5t-3 -19.5h-414z" />
<glyph unicode="N" horiz-adv-x="1339" d="M-63 0q2 10 4 22.5t6 18.5l125 35q12 8 22 22.5t20.5 42t21.5 70.5t24 111l147 774q-39 63 -74.5 110t-54.5 58l-28 6q0 10 1 21.5t1 17.5h401l547 -901l76 540q10 76 15 127q4 42 4 72v11q-1 32 -8 50.5t-20 28.5l-168 33q0 23 5 39h423q0 -10 -3 -21.5t-7 -17.5 l-96 -29q-12 -10 -21.5 -25.5t-19.5 -48t-22.5 -90t-28.5 -151.5l-58 -340q-10 -53 -22 -127t-25.5 -154t-26 -159.5t-22.5 -143.5l-78 -18l-659 1067l-98 -729q-10 -68 -14.5 -111t-4.5 -69.5t4 -40t11 -19.5l167 -41q2 -10 1 -21.5t-3 -19.5h-464z" />
<glyph unicode="O" d="M57 506q0 180 61.5 332.5t162 264t229.5 174t262 62.5q123 0 226.5 -35.5t177 -104.5t114.5 -168t41 -224q0 -180 -60.5 -332.5t-160.5 -264.5t-229 -175.5t-267 -63.5q-113 0 -213 36t-177 103.5t-122 167t-45 228.5zM387 420q0 -86 13.5 -159t41 -127t71.5 -85t105 -31 q59 0 109.5 40t93.5 106.5t77 154t56.5 183.5t34.5 195.5t12 189.5q0 193 -52 300t-171 107q-59 0 -111.5 -38.5t-96.5 -105.5t-77.5 -155t-57 -185t-36 -197.5t-12.5 -192.5z" />
<glyph unicode="P" horiz-adv-x="1177" d="M-35 0q2 10 4 22.5t4 18.5l76 12q12 6 21.5 18.5t17.5 37t17.5 65.5t19.5 105l137 770q10 61 15.5 98t6.5 58.5t-3.5 31.5t-12.5 18l-78 15v17t5 22h510q100 0 191 -20.5t160.5 -63.5t109.5 -107.5t40 -152.5q0 -123 -47 -212t-128 -147.5t-187.5 -86t-225.5 -27.5 q-27 0 -64.5 1t-66.5 3l-34 -203q-12 -72 -18.5 -117t-7.5 -69.5t3 -36t10 -15.5l150 -14q2 -8 0 -19.5t-4 -21.5h-621zM498 545q29 -4 55.5 -5t42.5 -1q66 0 118 42t89 108.5t57.5 149.5t20.5 167q0 125 -46.5 191.5t-150.5 66.5q-12 0 -30.5 -1t-30.5 -3z" />
<glyph unicode="Q" d="M57 506q0 180 61.5 332.5t162 264t229.5 174t262 62.5q123 0 226.5 -35.5t177 -104.5t114.5 -168t41 -224q0 -180 -60.5 -332.5t-160.5 -264.5t-229 -175.5t-267 -63.5q-35 0 -69.5 4.5t-69.5 10.5q106 -33 184 -60.5t139.5 -49t114 -36t107.5 -20.5q47 0 90 8t78 20 l10 -22q-31 -41 -72 -79t-85 -67.5t-90 -48t-85 -18.5q-59 0 -102 27.5t-97.5 80t-129 130t-197.5 180.5q-125 61 -204 181t-79 294zM387 420q0 -86 13.5 -159t41 -127t71.5 -85t105 -31q59 0 109.5 40t93.5 106.5t77 154t56.5 183.5t34.5 195.5t12 189.5q0 193 -52 300 t-171 107q-59 0 -111.5 -38.5t-96.5 -105.5t-77.5 -155t-57 -185t-36 -197.5t-12.5 -192.5z" />
<glyph unicode="R" horiz-adv-x="1273" d="M-37 0q2 14 4 25.5t4 15.5l84 14q10 8 17.5 19.5t15.5 36t16.5 65.5t20.5 109l135 766q10 57 15.5 94t5.5 59.5t-4.5 34.5t-12.5 23l-74 12q0 6 2.5 16t4.5 19h510q92 0 182 -14.5t160.5 -50.5t113.5 -95t43 -150q0 -80 -30.5 -142t-83 -108.5t-122 -77t-149.5 -46.5 l-2 -11q68 -31 113 -76.5t74 -117.5l18 -54t26.5 -76t27 -77t20.5 -55q23 -51 55.5 -83t91.5 -48l-10 -37q-131 0 -219 8t-144.5 30.5t-90 63.5t-56.5 107q-18 51 -34.5 107t-33 108.5t-34 98.5t-37.5 79q-16 -2 -42 -3t-44 -1l-51 -297q-12 -70 -18.5 -114t-6.5 -69.5 t4 -37t10 -15.5l115 -14q2 -8 1 -19.5t-1 -21.5h-590zM510 641q27 -4 49.5 -5t34.5 -1q63 0 115.5 32.5t89.5 89t57.5 130t20.5 153.5q0 104 -41 166t-140 62q-18 0 -40.5 -1t-37.5 -3z" />
<glyph unicode="S" horiz-adv-x="1083" d="M35 29q2 53 6 108.5t9 106.5t11.5 95t12.5 75l41 4q16 -55 37.5 -110.5t44 -104.5t44 -91t38.5 -71q35 -12 82 -17.5t88 -5.5q61 0 114 21.5t93 58.5t62.5 86t22.5 107q0 43 -16 75.5t-51 61.5t-90.5 55.5t-130.5 57.5q-176 70 -255 147.5t-79 198.5q0 98 45 181 t119.5 143.5t171 94t198.5 33.5q47 0 103.5 -3t112 -8t103.5 -11t79 -14l10 -15q-4 -47 -9 -98t-11.5 -100.5t-12.5 -93.5t-12 -74l-41 -2q-12 55 -31.5 108t-41 100.5t-44 85t-41.5 62.5q-35 10 -80 14t-90 4q-53 0 -103 -17t-88 -49t-60.5 -76t-22.5 -97q0 -39 14 -70 t50 -58.5t93.5 -55t143.5 -64.5t148.5 -74t102.5 -78t58 -89t18 -109q0 -111 -46 -201t-123.5 -152.5t-178 -96.5t-207.5 -34q-90 0 -197.5 13.5t-213.5 42.5z" />
<glyph unicode="T" horiz-adv-x="1169" d="M80 856q33 160 63.5 285t46.5 180q72 -6 140.5 -9t107.5 -3h520q66 0 148 4t135 8q-2 -47 -8 -107.5t-14.5 -125t-16.5 -125t-16 -107.5l-41 -8q-29 109 -51.5 180.5t-42 117.5t-39 72.5t-39.5 45.5h-84q-8 -8 -14.5 -22.5t-14.5 -43.5t-17 -77t-24 -124l-121 -686 q-14 -78 -21 -124t-8 -72.5t2 -37.5t9 -20l145 -16q2 -10 1 -21.5t-3 -19.5h-667q2 12 4 23.5t4 17.5l139 14q8 6 15.5 17.5t15.5 38t17 73.5t24 127l121 686q14 76 21 124t8 77t-1 43t-6 23h-80q-29 -18 -57.5 -44t-64 -72t-83 -118t-114.5 -180z" />
<glyph unicode="U" horiz-adv-x="1271" d="M122 246q-10 45 -11 99q0 58 12 126l96 533q14 76 20.5 121.5t8.5 71.5t-1 37t-7 19l-78 17q0 27 4 39h567q-2 -8 -5 -19.5t-7 -19.5l-109 -17q-10 -8 -17 -19t-14.5 -38t-16.5 -73t-23 -124l-95 -524q-14 -82 -14 -152v-18q2 -78 26.5 -134t73 -88t123.5 -32 q166 0 259.5 101.5t129.5 318.5l78 434q25 141 25 234.5t-29 109.5l-135 21q0 23 4 39h387q-2 -10 -5 -21.5t-7 -17.5l-86 -25q-23 -20 -49.5 -111.5t-50.5 -228.5l-78 -436q-20 -121 -59.5 -214t-102 -155.5t-153.5 -95.5t-218 -33q-121 0 -213 29t-150 90.5t-80 155.5z " />
<glyph unicode="V" horiz-adv-x="1191" d="M86 1270q0 23 4 39h627q-2 -10 -5 -21.5t-7 -17.5l-103 -17q-23 -10 -34 -36.5t-11 -55.5q0 -23 3 -60.5t20 -113.5l127 -643l274 578q18 39 36.5 80.5t33 79.5t23.5 69t9 49q0 20 -3 31.5t-17 23.5l-125 15q-2 10 0 20t4 19h399q-2 -10 -5 -21.5t-7 -17.5l-78 -15 q-37 -27 -85 -97.5t-111 -199.5l-326 -663l-139 -305l-129 -19l-223 1035q-29 127 -48.5 179t-37.5 68z" />
<glyph unicode="W" horiz-adv-x="1822" d="M72 1270q0 23 4 39h588q-2 -10 -5.5 -21.5t-7.5 -17.5l-84 -17q-16 -16 -23 -35.5t-7 -50.5q0 -23 7 -73t23 -119l133 -621l244 502l-35 150q-29 125 -49 179t-41 70l-57 15q0 27 4 39h604q-2 -10 -5 -21.5t-7 -17.5l-96 -17q-20 -18 -29.5 -40.5t-9.5 -61.5 q0 -23 4 -53.5t14 -79.5l139 -662l217 545q14 35 29.5 78t28 83t20.5 72.5t8 51.5q0 49 -24 67l-133 17q0 23 4 39h418q-4 -25 -13 -39l-86 -17q-18 -12 -36.5 -34.5t-42 -64.5t-53 -105.5t-68.5 -157.5l-246 -584l-127 -317l-131 -21l-184 817l-236 -485l-139 -311 l-131 -21l-236 1037q-29 121 -48 175t-38 72z" />
<glyph unicode="X" horiz-adv-x="1198" d="M-109 0q4 14 8.5 26.5t4.5 14.5l108 14q16 6 41 28.5t54.5 52.5t59.5 65t56 67l262 332l-202 498q-33 80 -53.5 113.5t-49.5 45.5l-71 13q-2 10 0 21.5t4 17.5h608q-4 -27 -10 -39l-78 -10q-33 -14 -33 -52q0 -27 27 -100l121 -320l155 222q47 66 78 119t31 85 q0 33 -23 46l-100 10q-2 10 0 21.5t4 17.5h428q0 -23 -12 -39l-103 -15q-41 -14 -100 -78.5t-150 -181.5l-188 -247l186 -476q41 -104 69 -151t50 -66l57 -14q2 -12 1 -23.5t-3 -17.5h-620q2 10 4 22.5t6 18.5l96 10q16 6 26.5 25.5t10.5 46.5q0 45 -39 156l-108 282 l-225 -311q-78 -113 -78 -160q0 -25 22 -35l115 -14q2 -12 1 -23.5t-3 -17.5h-445z" />
<glyph unicode="Y" horiz-adv-x="1112" d="M100 1270q-1 5 -1 10.5t1 11.5q2 11 4 17h588q-2 -10 -5 -21.5t-7 -17.5l-92 -8q-16 -4 -22.5 -13.5t-8.5 -23.5q0 -27 18 -78l144 -467l227 375q25 39 43.5 81t18.5 64q0 20 -5.5 33.5t-23.5 23.5l-123 13q0 23 4 39h402q-4 -23 -13 -37l-75 -19q-37 -23 -77 -68.5 t-98 -135.5l-262 -406l-57 -342l-19.5 -117t-9.5 -71.5t2 -39t11 -18.5l139 -14q0 -10 -1 -22.5t-1 -18.5h-670q2 10 4 22.5t6 18.5l144 14q10 8 18 20.5t15.5 38t16.5 70.5t21 117l54 285l-172 528q-23 66 -41.5 96.5t-40.5 44.5z" />
<glyph unicode="Z" horiz-adv-x="1146" d="M-20 45l835 1223h-117q-63 0 -133.5 -7.5t-111.5 -19.5q-23 -18 -55.5 -53t-71.5 -84t-82 -108.5t-88 -127.5l-41 4q12 53 26.5 116t29.5 123t29.5 115.5t26.5 96.5l234 -14h733v-37l-838 -1225h111q70 0 131 7t104 24q27 20 66 63t82 96.5t88 115t84 118.5l41 -4 q-12 -57 -27.5 -121.5t-33 -127t-33 -120t-27.5 -98.5h-956z" />
<glyph unicode="[" horiz-adv-x="657" d="M-55 -467l346 1962h506l-6 -37l-168 -20q-18 -66 -34 -132.5t-22 -105.5l-241 -1374q-14 -72 -19.5 -140.5t-5.5 -103.5l156 -12l-6 -37h-506z" />
<glyph unicode="\" horiz-adv-x="1222" d="M266 1503l86 33l701 -1894l-88 -37z" />
<glyph unicode="]" horiz-adv-x="659" d="M-160 -467l6 37l168 20q18 66 33.5 132.5t22.5 105.5l241 1374q14 72 19.5 140.5t5.5 103.5l-156 12l6 37h506l-346 -1962h-506z" />
<glyph unicode="^" horiz-adv-x="845" d="M37 659l362 662h105l348 -662h-104l-299 574l-312 -574h-100z" />
<glyph unicode="_" horiz-adv-x="1024" d="M-147 -246l20 117h1028l-18 -117h-1030z" />
<glyph unicode="`" horiz-adv-x="819" d="M426 1380q0 27 18.5 55.5t46 53t59.5 40t56 15.5q45 0 62 -49l116 -346l-24 -19l-301 199q-16 10 -24.5 24.5t-8.5 26.5z" />
<glyph unicode="a" horiz-adv-x="1056" d="M18 332q0 137 41 262t115 220t174.5 151.5t220.5 56.5q31 0 72 -6t81 -17.5t78 -26t62 -30.5q18 18 49 38.5t54 35.5l32 -10q-23 -72 -47 -177.5t-49 -234.5l-47 -248q-4 -16 -8 -38.5t-7 -46t-6.5 -45t-3.5 -36.5q0 -18 8.5 -32.5t24.5 -14.5q14 0 31.5 10.5t33 25.5 t29 32.5t23.5 31.5l22 -36q-25 -41 -58.5 -80t-73.5 -70t-84 -49t-91 -18q-70 0 -113.5 39.5t-43.5 109.5q0 20 4 53t10 67t13 66.5t14 55.5l-13 2q-25 -86 -55.5 -159t-68.5 -125t-84 -80.5t-103 -28.5q-59 0 -104.5 30.5t-74 79.5t-43 112.5t-14.5 129.5zM340 381 q0 -33 3 -64.5t11 -57.5t22 -41t32 -15q25 0 46 19.5t45.5 68.5t51.5 134t61 214l50 262q-27 74 -105 74q-47 0 -87 -63.5t-68.5 -155.5t-45 -194.5t-16.5 -180.5z" />
<glyph unicode="b" horiz-adv-x="1038" d="M0 -2q4 14 13.5 54t21.5 91.5t23.5 109.5t21.5 112l125 702q14 84 21 132t9.5 73.5t-1 34t-7.5 14.5l-90 2q4 23 13 37q57 18 115.5 31.5t111.5 22.5t98 15.5t76 8.5l31 -8q-27 -113 -46.5 -207.5t-29.5 -141.5l-92 -446h10q25 82 56.5 153.5t71.5 125t88 84t108 30.5 q59 0 105 -26.5t77 -73.5t47 -111.5t16 -138.5q0 -137 -40 -263t-110.5 -223.5t-167.5 -154.5t-214 -57q-41 0 -86 6t-89 17t-84 26.5t-71 33.5q-10 -10 -45 -35.5t-61 -43.5zM340 109q14 -35 40 -58.5t60 -23.5q49 0 91 64.5t72 158.5t47.5 200.5t17.5 190.5 q0 68 -17.5 123t-56.5 55q-55 0 -100 -91t-101 -296l-22 -119q-4 -18 -9.5 -45.5t-9.5 -58.5t-8 -58.5t-4 -41.5z" />
<glyph unicode="c" horiz-adv-x="827" d="M23 375q0 129 38.5 246.5t107.5 208t163 144.5t203 54q61 0 114 -8t93 -23.5t62.5 -40t22.5 -57.5t-12 -72t-31.5 -73.5t-43 -59t-46.5 -26.5q-29 8 -55.5 51t-53 94t-53 98t-53.5 64q-25 -18 -50.5 -62.5t-46 -106t-32.5 -137t-12 -157.5q0 -55 8 -107.5t28.5 -92.5 t53.5 -64.5t82 -24.5q57 0 112.5 23.5t110.5 64.5l21 -26q-41 -141 -142.5 -223t-242.5 -82q-82 0 -146.5 29.5t-108.5 82.5t-67.5 126t-23.5 157z" />
<glyph unicode="d" horiz-adv-x="1085" d="M18 334q0 137 41 262t113 219t172 149.5t217 55.5q35 0 72 -12.5t61 -28.5l37 199q6 43 9 69.5t3 41t-2 21.5t-8 11l-104 2q4 23 12 37q55 18 112.5 31.5t112 22.5t100.5 15.5t78 8.5l37 -8q-10 -45 -21 -92.5t-20.5 -92.5t-16.5 -85t-11 -66l-133 -746 q-4 -16 -8.5 -39.5t-7.5 -47t-6 -46t-3 -35.5q0 -20 8 -33.5t25 -13.5q14 0 30.5 10.5t32 25.5t29.5 32.5t25 31.5l22 -36q-25 -41 -58.5 -80t-73.5 -70t-85 -49t-92 -18q-68 0 -113 40.5t-45 108.5q0 20 5 53t11.5 69t13.5 68.5t11 53.5l-12 2q-25 -86 -56.5 -159 t-70.5 -125t-86 -81.5t-105 -29.5q-59 0 -106 26.5t-80 73.5t-49.5 111.5t-16.5 142.5zM344 367q0 -29 5 -57.5t14.5 -52.5t23.5 -39t35 -15q27 0 50.5 20.5t48 65.5t49 117.5t53.5 177.5l20 100q4 18 9 48t9.5 61.5l8.5 59.5t4 42q-14 35 -43 56.5t-64 21.5 q-49 0 -90 -63.5t-70.5 -155.5t-46 -197.5t-16.5 -189.5z" />
<glyph unicode="e" horiz-adv-x="864" d="M23 385q0 131 45 248t118.5 205t169 139t197.5 51q61 0 117.5 -11t98.5 -35t66.5 -60.5t24.5 -90.5q0 -66 -37 -111.5t-105.5 -76.5t-164.5 -47t-215 -23q-2 -23 -3 -44t-1 -31q0 -49 10 -98.5t32.5 -88.5t58.5 -63.5t87 -24.5q70 0 131.5 26.5t108.5 63.5l22 -24 q-47 -141 -144 -225t-251 -84q-88 0 -155.5 30.5t-114.5 83.5t-71.5 128t-24.5 163zM342 610q125 23 182.5 98.5t57.5 174.5q0 43 -14.5 73.5t-43.5 30.5q-33 0 -61.5 -28.5t-52 -80t-41 -120t-27.5 -148.5z" />
<glyph unicode="f" horiz-adv-x="608" d="M-274 -301q0 27 11 61.5t28.5 64.5t37 50.5t35.5 20.5q20 0 39 -29t35 -66t32.5 -70.5t35.5 -45.5q29 16 44 78.5t24 154.5t17.5 206t22.5 236l51 318q10 66 24.5 134.5t24.5 109.5h-110q4 29 12 43l105 20l8 6q78 227 191.5 338t287.5 111q49 0 76.5 -18.5t27.5 -49.5 t-10 -66.5t-25.5 -66.5t-34 -52.5t-32.5 -21.5q-20 0 -38.5 23.5t-35 57.5t-33 69t-32.5 57q-29 -14 -38 -53t-10 -88v-25q0 -38 2 -80q1 -23 1 -46q0 -30 -2 -58l-2 -37l182 4l4 -16q-4 -29 -20 -55l-175 18q0 -10 -5 -40t-11 -69t-12 -78.5t-10 -68.5l-13 -66 q-4 -29 -14 -83t-20.5 -113.5t-21.5 -113.5t-20 -83q-39 -164 -89 -279.5t-113.5 -188t-140 -106.5t-171.5 -34q-43 0 -81.5 23.5t-38.5 62.5z" />
<glyph unicode="g" horiz-adv-x="1013" d="M-98 -205q0 43 26.5 79t68.5 63.5t96 48t110 34.5q-57 23 -84 52.5t-27 77.5q0 27 21.5 55t55.5 56t75 50.5t80 38.5q-123 31 -195 104.5t-72 186.5q0 84 35 155.5t93.5 123t136 80t161.5 28.5q63 0 121 -14.5t111 -46.5q98 57 177 80.5t118 23.5q41 0 41 -55 q0 -41 -12.5 -96.5t-24.5 -92.5q-100 39 -168 68t-92 41l-6 -6q41 -31 74.5 -87.5t33.5 -121.5q0 -88 -37 -158.5t-97 -121t-138 -77t-162 -26.5q-10 0 -28.5 2t-26.5 4q-6 -10 -13.5 -33.5t-7.5 -38.5q0 -33 35 -39l182 -30q86 -16 151.5 -34.5t111.5 -45.5t70 -65t24 -95 q0 -74 -51.5 -138.5t-134.5 -112.5t-189.5 -75.5t-218.5 -27.5q-72 0 -147 10t-136 31.5t-101 57.5t-40 87zM143 -156q0 -78 59.5 -133t164.5 -55q125 0 195.5 58.5t70.5 133.5q0 39 -33 67t-131 46q-45 8 -105.5 19.5t-119.5 27.5q-41 -23 -71 -70t-30 -94zM338 551 q0 -76 17.5 -123t58.5 -47q37 0 65.5 42t48 106.5t29.5 141.5t10 144q0 78 -16 125t-57 47q-35 0 -63 -42t-49.5 -106.5t-32.5 -141t-11 -146.5z" />
<glyph unicode="h" horiz-adv-x="1093" d="M6 12l189 1061q14 82 21 129t8 71.5t-1 33t-8 14.5l-92 2q2 10 5 20.5t7 16.5q59 18 117.5 31.5t111 22.5t96.5 15.5t75 8.5l36 -8q-25 -109 -45 -206.5t-30 -148.5l-103 -506h19q29 96 65.5 180.5t83.5 145.5t103.5 97t121.5 36q86 0 135.5 -55t49.5 -142 q0 -53 -9.5 -118.5t-19.5 -124.5l-53 -277q-6 -31 -11.5 -70.5t-5.5 -68.5q0 -18 8.5 -30.5t24.5 -12.5q29 0 61.5 37t55.5 67l22 -36q-25 -41 -57.5 -80t-72.5 -70t-85 -49t-96 -18q-78 0 -124 45t-46 112q0 43 10.5 110.5t22.5 127.5l41 211q8 41 14 83t6 68q0 70 -49 70 q-53 0 -114.5 -129t-124.5 -373l-56 -313q-154 0 -225.5 7t-81.5 13z" />
<glyph unicode="i" horiz-adv-x="632" d="M37 813q25 39 60.5 78t78.5 69.5t91.5 49t97.5 18.5q86 0 120.5 -46t34.5 -112q0 -20 -5 -56t-13 -77t-16.5 -81t-14.5 -70l-55 -277q-8 -35 -14.5 -73.5t-6.5 -63.5q0 -43 33 -43q14 0 30.5 11.5t33 26.5t31 33.5t24.5 32.5l22 -36q-25 -41 -58.5 -80t-73.5 -70t-86 -49 t-95 -18q-80 0 -125 44t-45 111q0 43 11.5 107.5t23.5 128.5l53 241q6 25 12.5 57.5t11.5 64.5t9 58.5t4 38.5q0 20 -9 34t-26 14q-14 0 -30.5 -10.5t-32 -26t-29.5 -33.5t-25 -33zM250 1257q0 39 16.5 73t43 58.5t62.5 38t74 13.5q76 0 118 -41t42 -101q0 -80 -58.5 -130 t-137.5 -50q-63 0 -111.5 36.5t-48.5 102.5z" />
<glyph unicode="j" horiz-adv-x="579" d="M-119 -358q37 25 65.5 58.5t52.5 82.5t42 117.5t37 165.5l100 542q6 25 12.5 57.5t11.5 65.5t8 60.5t3 39.5q0 20 -8 34t-25 14q-14 0 -30.5 -10.5t-32 -26t-29.5 -33.5t-25 -33l-22 37q25 39 60.5 78t78.5 69.5t90 49t97 18.5q74 0 113.5 -43t39.5 -115q0 -18 -5 -54 t-13 -77t-16.5 -84t-14.5 -75l-88 -498q-20 -111 -59 -189.5t-99.5 -135t-143.5 -92.5t-190 -58zM254 1257q0 39 16.5 73t43 58.5t62.5 38t75 13.5q76 0 117.5 -41t41.5 -101q0 -80 -58 -130t-138 -50q-63 0 -111.5 36.5t-48.5 102.5z" />
<glyph unicode="k" horiz-adv-x="1036" d="M6 12l189 1061q14 82 21 128t8 70.5t-1 33t-8 14.5l-92 4q2 10 5 20.5t7 16.5q59 18 118.5 31.5t113 22.5t97.5 15.5t75 8.5l36 -11q-31 -141 -50 -230t-27 -120l-113 -526h12q66 231 156 354t215 123q39 0 74 -14.5t61.5 -39t42 -59t15.5 -75.5q0 -199 -295 -320 q43 -104 72.5 -176t52 -116t39 -63.5t32.5 -19.5q35 0 63.5 28t51.5 54l20 -34q-25 -41 -57.5 -79t-72.5 -68t-84 -48t-89 -18q-43 0 -75.5 15t-64.5 59t-65.5 122t-76.5 203q-10 -6 -19.5 -10t-15.5 -9l-72 -368q-145 0 -217 7t-82 13zM387 414q51 23 91 45t59 37 q66 45 103.5 96t37.5 119q0 41 -19.5 66.5t-54.5 25.5q-25 0 -54.5 -27.5t-59 -79t-56.5 -123t-47 -159.5z" />
<glyph unicode="l" horiz-adv-x="583" d="M37 137q0 20 3 50t8 63t11.5 64.5t10.5 58.5l116 651q18 94 26.5 149.5t11.5 86t0 43t-7 18.5l-90 2q2 10 5 20.5t7 16.5q57 18 115.5 31.5t112 22.5t98.5 15.5t76 8.5l32 -8q-35 -160 -55 -259.5t-26 -132.5l-127 -725q-6 -37 -12.5 -75.5t-6.5 -65.5q0 -43 29 -43 q14 0 31.5 11.5t34 26.5t30.5 33.5t25 32.5l22 -36q-25 -41 -57.5 -80t-72.5 -70t-85 -49t-96 -18q-78 0 -124 45t-46 112z" />
<glyph unicode="m" horiz-adv-x="1683" d="M43 809q25 39 60.5 79t78.5 70.5t91.5 50t97.5 19.5q70 0 106.5 -47t36.5 -113q0 -20 -6 -56t-15.5 -78t-20.5 -86t-19 -79h20q29 100 67 185.5t86 146t104 94t120 33.5q92 0 136 -55t44 -144q0 -37 -13 -109.5t-36 -150.5h18q29 100 67 185.5t84 146t100.5 94 t117.5 33.5q90 0 142.5 -56.5t52.5 -144.5q0 -27 -3.5 -58.5t-8.5 -64t-10 -62.5t-9 -50l-53 -283q-6 -33 -12.5 -70.5t-6.5 -66.5q0 -18 9.5 -30.5t25.5 -12.5q14 0 29.5 11.5t32 26.5t31 33.5t24.5 32.5l20 -36q-25 -41 -56.5 -80t-71.5 -70t-87 -49t-102 -18 q-74 0 -119 44t-45 113q0 41 9 107.5t22 126.5l41 217q8 37 14 80t6 71q0 29 -11 48.5t-38 19.5q-55 0 -114.5 -130t-123.5 -372l-55 -313q-156 0 -228.5 7t-80.5 13l108 568q4 29 11.5 77t7.5 80q0 70 -49 70q-55 0 -118 -130t-126 -372l-55 -313q-156 0 -227.5 7t-80.5 13 l117 594q4 25 9.5 56.5t10.5 63.5t8 58.5t3 40.5q0 23 -7 37.5t-24 14.5q-12 0 -28.5 -10.5t-32 -26t-28.5 -34t-23 -32.5z" />
<glyph unicode="n" horiz-adv-x="1161" d="M45 811q25 39 59.5 78t77.5 69.5t91.5 50t97.5 19.5q70 0 106.5 -46t36.5 -114q0 -20 -6 -56t-15.5 -78t-20.5 -86t-19 -79h20q29 100 67 185.5t85 146t102 94t119 33.5q92 0 142 -57.5t50 -145.5q0 -18 -3 -47.5t-7 -63.5t-9 -67t-9 -55l-54 -281q-6 -35 -12 -72.5 t-6 -66.5q0 -18 9 -30.5t26 -12.5q29 0 61.5 37t55.5 67l20 -36q-25 -41 -56.5 -80t-71.5 -70t-87 -49t-102 -18q-76 0 -120 45t-44 112q0 43 10 108.5t20 125.5l41 215q6 27 13.5 74t7.5 77q0 31 -11.5 50.5t-37.5 19.5q-57 0 -120 -129t-124 -373l-57 -313 q-154 0 -225.5 7t-82.5 13l115 594q6 27 11.5 58.5t10.5 63.5t8 57.5t3 39.5q0 23 -8 37.5t-25 14.5q-12 0 -27.5 -10.5t-31 -26t-29.5 -34t-24 -32.5z" />
<glyph unicode="o" horiz-adv-x="1017" d="M20 391q0 127 42 243t116 203t173.5 139t211.5 52q88 0 163 -28.5t128 -81t84 -126t31 -161.5q0 -137 -41 -256t-113 -207t-168 -138t-209 -50q-90 0 -166.5 28.5t-132 82.5t-87.5 130t-32 170zM346 268q0 -104 19.5 -172.5t74.5 -68.5q43 0 80 69.5t64.5 177t44 235.5 t16.5 247q0 100 -17.5 162.5t-68.5 62.5q-43 0 -82 -66.5t-67.5 -171t-46 -230.5t-17.5 -245z" />
<glyph unicode="p" horiz-adv-x="1062" d="M-117 -371q2 14 4 26.5t4 16.5l70 11q8 8 16.5 20t16.5 33.5t15 54.5t16 84l90 528q27 152 41 244t18 115q-23 -4 -67 -15.5t-78 -21.5q0 23 4 39q63 35 112.5 59.5t71.5 34.5q27 33 69 79t87 92t84 85t61 57l35 -6q-31 -119 -45 -179t-19 -73l9 -4q45 47 105.5 83 t129.5 36q129 0 207 -90t78 -248q0 -145 -39 -274t-106.5 -225.5t-161 -151.5t-201.5 -55q-45 0 -92 13t-74 26l-22 -150q-11 -77 -11 -115q0 -10 1 -17q3 -36 30 -50l174 -17q2 -10 1 -22t-1 -23h-633zM369 100q12 -25 36.5 -45t59.5 -20q41 0 81 51t72.5 137t52 201 t19.5 242q0 88 -25.5 141t-82.5 53q-29 0 -56.5 -8t-50.5 -21l-63 -401q-8 -47 -14.5 -95t-12.5 -93t-10 -82t-6 -60z" />
<glyph unicode="q" horiz-adv-x="1036" d="M18 330q0 135 40 262t112 223t170 154.5t215 58.5q37 0 80 -6t86 -17.5t84 -26.5t72 -34q6 6 18 15.5t27.5 20.5t32 22.5t30.5 21.5l27 -14q-4 -16 -14.5 -54t-21.5 -89.5t-23.5 -108t-20.5 -109.5l-141 -799q-10 -51 -14.5 -81.5t-4.5 -48t3 -25.5t9 -12l72 -9 q0 -10 -2 -23t-4 -22h-545q0 29 8 45l115 9q8 4 15.5 11t13.5 25.5t13 50t19 87.5l111 514h-10q-25 -80 -56.5 -152t-71.5 -125t-88 -83.5t-106 -30.5q-59 0 -105 26.5t-79 72.5t-49.5 110.5t-16.5 140.5zM344 367q0 -35 4 -67t13.5 -56.5t22.5 -40t34 -15.5q53 0 99 91.5 t99 293.5l25 121q4 18 9 46t9.5 58.5t8.5 57.5t4 41q-14 37 -38 58.5t-63 21.5q-49 0 -90 -63.5t-71.5 -156.5t-48 -198.5t-17.5 -191.5z" />
<glyph unicode="r" horiz-adv-x="880" d="M45 811q25 39 59.5 78t76.5 69.5t90 50t100 19.5q68 0 104.5 -45t36.5 -111q0 -20 -5 -59t-14.5 -85t-20.5 -94t-23 -91h16q80 248 167 366.5t202 118.5q41 0 71.5 -29.5t30.5 -72.5q0 -37 -11.5 -80t-28.5 -82t-37.5 -68.5t-37.5 -38.5q-47 2 -101 26t-89 38 q-43 -2 -98.5 -105.5t-110.5 -341.5l-49 -282q-154 0 -226.5 7t-83.5 13l117 606q6 25 11.5 56t9.5 59.5t7 52t3 37.5q0 23 -8 38.5t-25 15.5q-12 0 -27.5 -10.5t-31 -26t-28.5 -34t-23 -32.5z" />
<glyph unicode="s" horiz-adv-x="849" d="M-6 129q0 27 10 58.5t25.5 60t36 49t43.5 25.5q33 -8 65.5 -51.5t65 -94.5t65.5 -95t66 -52q51 10 87 53t36 102q0 31 -10.5 54.5t-33 46t-59.5 49t-92 61.5q-61 39 -105 72t-72 64.5t-40 67.5t-12 79q0 74 36.5 137.5t95 110.5t130 74.5t141.5 27.5q158 0 252 -35 t94 -112q0 -31 -7 -62t-20.5 -57.5t-32 -45t-38.5 -22.5q-31 12 -65.5 54.5t-70.5 89.5t-72 89t-69 54q-49 -10 -85.5 -53t-36.5 -97q0 -49 44 -90t150 -106q61 -39 106.5 -72t76 -67.5t45 -73.5t14.5 -90q0 -72 -32 -135.5t-87 -111.5t-129 -76.5t-156 -28.5 q-180 0 -270 43t-90 106z" />
<glyph unicode="t" horiz-adv-x="626" d="M39 145q0 39 10 105.5t21 120.5l53 303q2 20 8 52t14.5 67.5t15.5 71.5t13 67h-84q2 10 4 19.5t4 15.5l109 32l250 279l80 -4q-16 -98 -30.5 -176t-21.5 -117l170 8l11 -16q-2 -10 -7.5 -27.5t-9.5 -27.5l-174 14l-69 -414l-37 -207q-6 -37 -11.5 -74.5t-5.5 -64.5 q0 -45 37 -45q18 0 37.5 12.5t38 29.5t35 38.5t28.5 40.5l25 -39q-25 -41 -59.5 -82t-76.5 -74t-90 -53t-102 -20q-78 0 -132 47t-54 118z" />
<glyph unicode="u" horiz-adv-x="1171" d="M33 811q25 39 59.5 78t77.5 69.5t91 50t99 19.5q72 0 113 -44t41 -112q0 -43 -9 -103t-24 -130l-43 -221q-2 -10 -6 -28.5t-7 -40t-5 -42t-2 -35.5q0 -33 12 -52t39 -19q59 0 119.5 129t124.5 375l55 309q156 0 227.5 -7.5t79.5 -13.5l-110 -592q-4 -27 -10.5 -60.5 t-11.5 -65t-8 -59.5t-3 -42q0 -18 9 -30.5t26 -12.5q12 0 28.5 10.5t31.5 26.5t29.5 33.5t24.5 34.5l23 -37q-25 -41 -57.5 -80t-72.5 -70t-87 -50t-101 -19q-74 0 -116.5 46t-42.5 113q0 23 6 58.5t15 77.5t19.5 85t20.5 78h-20q-29 -96 -68 -180t-86 -145.5t-103.5 -97 t-117.5 -35.5q-92 0 -143.5 56t-51.5 148q0 20 3 50t8.5 63t10.5 63.5t9 55.5l55 282q6 29 11.5 69t5.5 67q0 45 -29 45q-12 0 -28.5 -10.5t-33 -26t-30.5 -33.5t-25 -33z" />
<glyph unicode="v" horiz-adv-x="944" d="M27 813q25 39 60.5 78t77.5 69.5t90 49t97 18.5q66 0 106 -39t40 -104q0 -43 -9.5 -108.5t-21.5 -137.5q-4 -25 -13.5 -79t-18.5 -113.5t-16 -112.5t-7 -80q0 -43 22.5 -72.5t65.5 -29.5q41 0 86 37.5t85 96t70.5 129t44.5 136.5q-4 35 -27.5 79t-51 92t-51 94t-27.5 83 q2 25 16 47.5t35.5 41t47.5 29.5t54 11q68 0 112 -59.5t44 -141.5q0 -61 -23.5 -149t-66.5 -182.5t-101.5 -186.5t-127 -165.5t-145.5 -118.5t-155 -45q-92 0 -155.5 59t-63.5 162q0 18 3 44.5t7.5 57.5t8.5 60.5t8 54.5l49 280q4 29 10.5 70t6.5 66q0 16 -7.5 30.5 t-23.5 14.5q-12 0 -28.5 -10.5t-32 -26t-29 -33.5t-23.5 -33z" />
<glyph unicode="w" horiz-adv-x="1460" d="M27 811q25 39 59.5 78t77.5 69.5t91 50t99 19.5q72 0 109 -45t37 -113q0 -43 -10.5 -105.5t-20.5 -115.5q-4 -20 -13.5 -75.5t-18.5 -119t-17 -121t-8 -81.5q0 -41 12 -70.5t47 -29.5q37 0 77 51t73.5 127t57 159.5t30.5 149.5q0 84 -2 157.5t-2 127.5q16 53 59 78.5 t96 25.5q82 0 126 -44t44 -128q0 -51 -8 -106.5t-25 -126.5q-27 -117 -43 -210.5t-16 -154.5q0 -41 24.5 -74.5t69.5 -33.5q37 0 78 36.5t79 95t67.5 128t43.5 137.5q-4 37 -28.5 81t-53 89t-53 92t-26.5 90q10 47 52 88t97 41q35 0 63.5 -17.5t50 -46t34 -67.5t12.5 -82 q0 -59 -22.5 -145t-63.5 -179.5t-97.5 -184.5t-123 -163.5t-140 -117.5t-149.5 -45q-92 0 -148.5 50t-56.5 138q0 31 5 72t10 69h-11q-4 -8 -27.5 -60t-65.5 -112.5t-102.5 -108.5t-136.5 -48q-102 0 -161.5 62t-59.5 155q0 20 2 48.5t6.5 59.5t9.5 61.5t11 57.5l45 240 q6 37 13.5 86t7.5 75q0 23 -7.5 38.5t-23.5 15.5q-12 0 -28.5 -10.5t-32 -26t-29 -33.5t-23.5 -33z" />
<glyph unicode="x" horiz-adv-x="997" d="M-23 76q0 45 10.5 89t27 79t35 58.5t36.5 29.5q29 -2 80 -30t92 -56q23 10 43.5 33.5t42.5 70.5l21 39l-125 340q-29 78 -44.5 102.5t-31.5 24.5q-23 0 -46.5 -24.5t-45.5 -59.5l-25 37q27 45 62.5 85t75.5 69.5t82 47t79 17.5q74 0 114 -38t72 -142l58 -184l24 63 q53 141 110.5 221t143.5 80q41 0 80 -25.5t39 -64.5q0 -41 -9 -85t-24.5 -81t-36 -63.5t-43.5 -34.5q-27 2 -76.5 27.5t-88.5 50.5q-43 -14 -88 -109l-11 -25l127 -368q20 -53 33.5 -73.5t36.5 -20.5t51.5 26.5t46.5 55.5l25 -35q-23 -39 -55.5 -79t-70.5 -72t-80 -52 t-83 -20q-78 0 -122 40.5t-70 120.5l-64 201l-16 -45q-33 -88 -61.5 -148.5t-58.5 -98.5t-63.5 -54t-74.5 -16q-45 0 -89.5 27.5t-44.5 68.5z" />
<glyph unicode="y" horiz-adv-x="927" d="M-147 -276q0 27 7 53t19 48.5t28.5 37t35.5 18.5q27 -2 59.5 -11t67 -23.5t68.5 -30t59 -29.5q31 25 78 75t85 111l-170 734q-20 86 -33.5 119.5t-31.5 33.5q-23 0 -52.5 -31.5t-52.5 -66.5l-22 37q27 45 63.5 86t77.5 72.5t86 51t88 19.5q66 0 104 -50t64 -181l105 -541 q47 63 100 150.5t76 171.5q-2 33 -23.5 72.5t-47 82.5t-48 86t-27.5 80q2 23 16.5 45.5t34 41t45 30.5t54.5 12q33 0 62.5 -16.5t51 -42t35 -59t13.5 -70.5q0 -80 -49.5 -190.5t-125 -232.5t-168.5 -246t-179 -230q-131 -160 -231.5 -246t-197.5 -86q-57 0 -90.5 30.5 t-33.5 84.5z" />
<glyph unicode="z" horiz-adv-x="925" d="M-51 18l676 723q-37 -14 -68 -19t-47 -5q-23 0 -60.5 6t-79.5 14t-80 14.5t-63 6.5q-43 0 -76.5 -21.5t-68.5 -74.5l-33 14q53 178 118 259t155 81q39 0 103 -9.5t133 -20.5t131.5 -20.5t98.5 -9.5q29 2 66 25t59 43l31 -37l-694 -729q2 2 16.5 7t32.5 11.5t39.5 10.5 t38.5 4q23 0 61.5 -6t81.5 -13.5t85 -13.5t71 -6q41 0 75.5 22.5t69.5 73.5l33 -12q-33 -96 -63.5 -163t-63.5 -107.5t-69.5 -60t-82.5 -19.5q-43 0 -106 9t-132 21.5t-132.5 21.5t-104.5 9q-33 -6 -67.5 -25.5t-55.5 -35.5z" />
<glyph unicode="{" horiz-adv-x="677" d="M0 512l8 39l21 2q82 8 121.5 45t56.5 133q8 43 13 108.5t9 137.5t10.5 139.5t14.5 114.5q12 68 57 119t119 85.5t173 56t220 30.5l-2 -35q-68 -18 -110.5 -44t-68.5 -58.5t-39 -73.5t-21 -90q-8 -47 -13.5 -107.5t-9.5 -125t-8 -125t-12 -103.5q-18 -104 -115.5 -156.5 t-294.5 -66.5l-2 -9q195 -16 272.5 -66t59.5 -155q-8 -43 -24.5 -106.5t-36 -130t-36 -131t-24.5 -109.5q-10 -49 -11 -89t14 -73t50 -57.5t96 -42.5l-14 -33q-117 8 -210 27.5t-154.5 54.5t-89 85t-15.5 118q8 47 27.5 116.5t41 143.5t40 141.5t24.5 110.5q16 96 -10.5 133 t-106.5 45z" />
<glyph unicode="|" horiz-adv-x="458" d="M172 -512v2048h80v-2048h-80z" />
<glyph unicode="}" horiz-adv-x="677" d="M-162 -465l2 35q68 18 111 44t68.5 58.5t39 73.5t21.5 90q8 45 13 106.5t9 126t8.5 125t12.5 103.5q18 104 115.5 155.5t293.5 67.5l3 8q-195 16 -273 66.5t-59 155.5q8 43 24.5 106.5t36 130t35.5 130t25 110.5q8 49 10 89t-13.5 72.5t-50 57t-96.5 43.5l14 33 q117 -8 210.5 -27.5t154.5 -54.5t89 -85t15 -118q-8 -47 -27.5 -116.5t-41 -143.5t-40 -141.5t-24.5 -110.5q-16 -96 10.5 -133t106.5 -45l21 -2l-9 -39l-20 -2q-82 -8 -122 -45t-56 -133q-8 -43 -13.5 -108.5t-9.5 -137.5t-10 -139.5t-14 -114.5q-12 -68 -57.5 -119 t-119 -86t-174 -56.5t-219.5 -29.5z" />
<glyph unicode="~" horiz-adv-x="948" d="M37 440q47 104 103.5 157.5t121.5 53.5q43 0 99.5 -23.5t113.5 -51t110.5 -50t88.5 -22.5q41 0 79 46t70 105l72 -37q-43 -100 -99.5 -156t-121.5 -56q-43 0 -100.5 22.5t-115 50t-109.5 51t-89 23.5q-43 0 -81 -45t-66 -105z" />
<glyph unicode="&#xa1;" horiz-adv-x="538" d="M-63 -221q0 37 29.5 119t74.5 185t100.5 216t104.5 209h33q31 -315 43 -485t12 -209q-2 -80 -60.5 -137.5t-150.5 -57.5q-90 0 -138 42t-48 118zM133 799q0 37 13.5 71.5t38 61t57 43t69.5 16.5q72 0 117 -45t45 -117q0 -37 -13.5 -71.5t-38 -62t-57 -45t-71.5 -17.5 q-72 0 -116 47t-44 119z" />
<glyph unicode="&#xa2;" horiz-adv-x="866" d="M31 375q0 129 39 246.5t107.5 208t162.5 144.5t203 54h10l55 307h56l-56 -311q98 -8 163 -38t65 -87q0 -33 -12.5 -72t-32 -73.5t-43 -59t-46.5 -26.5q-16 4 -32.5 21.5t-31.5 42t-30.5 54t-29.5 60.5l-109 -615q18 -8 49 -8q57 0 112.5 23.5t110.5 64.5l21 -26 q-37 -129 -125 -209t-213 -94l-53 -306h-54l54 304q-80 2 -143.5 32.5t-106.5 82.5t-66.5 124t-23.5 156zM346 512q0 -78 16.5 -145.5t57.5 -106.5l115 660q-25 41 -48 55q-25 -18 -50 -62.5t-45.5 -106t-33 -137t-12.5 -157.5z" />
<glyph unicode="&#xa3;" horiz-adv-x="1064" d="M-55 0l2 39l164 61q70 53 106.5 130t36.5 167q0 31 -1 69t-3 78t-5 77.5t-7 68.5h-156l6 55h143q-2 20 -3 41t-1 43q0 100 39 189.5t106.5 157t160 107.5t200.5 40q59 0 120.5 -11.5t111 -30.5t81 -49t31.5 -67q0 -35 -17.5 -79t-43 -82.5t-55 -67.5t-54.5 -33 q-39 18 -66.5 65.5t-50 104.5t-45 113.5t-49.5 93.5q-72 -78 -98.5 -192.5t-26.5 -249.5q0 -25 1 -49.5t6 -43.5h284l-8 -55h-272q4 -51 7 -117.5t3 -119.5q0 -66 -26.5 -117t-73 -93t-108.5 -75t-134 -64v-14l92 19q80 16 167 45.5t163 61.5t130 59.5t64 39.5l66 115l35 -4 q-18 -68 -40 -135.5t-42.5 -127t-39 -107.5t-32.5 -81q-76 4 -164 12.5t-174 17.5t-164 19.5t-135 18.5z" />
<glyph unicode="&#xa4;" horiz-adv-x="1255" d="M152 1128l90 84l129 -141q59 41 128.5 64.5t147.5 23.5t147.5 -23.5t129.5 -64.5l139 143l86 -84l-135 -141q51 -59 79.5 -135t28.5 -162q0 -78 -24.5 -147.5t-67.5 -128.5l127 -125l-86 -84l-129 123q-61 -49 -136 -76t-159 -27q-80 0 -153.5 24.5t-133.5 72.5 l-116 -129l-90 79l118 134q-47 59 -72.5 130.5t-25.5 153.5q0 86 28.5 162t80.5 135zM299 692q0 -72 25.5 -135t71.5 -111.5t110.5 -76t140.5 -27.5t140.5 27.5t111.5 76t72.5 111.5t25.5 135t-25.5 135.5t-72.5 111.5t-111.5 76.5t-140.5 28.5t-140.5 -28.5t-110.5 -76.5 t-71.5 -111.5t-25.5 -135.5z" />
<glyph unicode="&#xa5;" horiz-adv-x="1251" d="M168 1253q-2 10 0 20.5t4 16.5h580q-4 -23 -13 -37l-90 -8q-16 -4 -22 -13t-9 -24q0 -27 19 -78l141 -460l226 370q23 39 41 80t18 64q0 20 -5 33.5t-24 23.5l-121 12q0 20 5 37h397q-2 -10 -5 -20t-7 -15l-76 -18q-37 -23 -76 -69t-96 -134l-238 -366h230v-47h-252 l-41 -238h262v-47h-271l-6 -39q-12 -72 -18 -116t-8 -69.5t2 -38t10 -18.5l137 -14q0 -10 -1 -22.5t-1 -18.5h-661q2 10 4 22.5t6 18.5l141 14q10 6 18.5 18.5t15.5 38t16.5 69.5t21.5 116l6 39h-217v47h225l37 195l-14 43h-219v47h202l-139 432q-20 63 -38.5 94t-41.5 45z " />
<glyph unicode="&#xa6;" horiz-adv-x="458" d="M168 352h80v-864h-80v864zM168 664v872h80v-872h-80z" />
<glyph unicode="&#xa7;" horiz-adv-x="1009" d="M-10 -125q0 25 15 57.5t36.5 63.5t47.5 55.5t48 30.5q33 -10 57.5 -51t49 -90.5t52.5 -93.5t64 -58q31 0 62 15.5t55.5 40t38.5 59.5t14 76q0 25 -11 45t-38.5 41.5t-74 45t-113.5 54.5q-82 37 -132 66.5t-78 58t-37 58.5t-9 67q0 55 21.5 105t57.5 94t83 80t100 65 q-76 45 -102.5 89t-26.5 107q0 74 44 143.5t112.5 124t153.5 86t167 31.5q174 0 263 -37.5t89 -91.5q0 -29 -15 -60.5t-36.5 -61t-47.5 -52t-46 -30.5q-33 10 -57.5 50t-49 87t-53 91t-65.5 62q-31 0 -61.5 -16t-54.5 -43t-39 -59.5t-15 -65.5q0 -29 10 -51.5t36.5 -44 t72 -44t114.5 -52.5q86 -37 139.5 -69t84 -62.5t42 -61t11.5 -67.5q0 -59 -21.5 -109.5t-59.5 -93.5t-88 -77t-108 -60q68 -41 99.5 -85t31.5 -110q0 -88 -45 -158.5t-114.5 -121t-154.5 -77t-163 -26.5q-74 0 -138.5 10t-113.5 28.5t-76.5 42t-27.5 50.5zM301 612 q0 -31 7 -55.5t27.5 -46t58.5 -43t98 -47.5q47 -20 85.5 -37.5t71.5 -34.5q18 31 29.5 71t11.5 62q0 51 -38.5 92.5t-155.5 92.5q-47 20 -86 37.5t-72 33.5q-16 -25 -26.5 -57.5t-10.5 -67.5z" />
<glyph unicode="&#xa8;" horiz-adv-x="819" d="M262 1307q0 39 14.5 72.5t40 59t59 40t70.5 14.5q70 0 107 -37t37 -92q0 -78 -56.5 -131t-134.5 -53q-59 0 -98 34.5t-39 92.5zM666 1307q0 80 53 133t131 53q70 0 106.5 -37t36.5 -92q0 -39 -15 -73t-42 -58.5t-61.5 -38.5t-73.5 -14q-59 0 -97 34.5t-38 92.5z" />
<glyph unicode="&#xa9;" horiz-adv-x="1556" d="M84 672q0 150 54.5 279.5t150.5 226t225 151.5t281 55q150 0 280.5 -55t226 -151.5t150.5 -226t55 -279.5t-55 -279t-150.5 -225t-226.5 -151.5t-280 -55.5q-152 0 -281 55.5t-225 151.5t-150.5 225t-54.5 279zM143 670q0 -137 49.5 -257t136.5 -209t206.5 -140.5 t259.5 -51.5q139 0 259 51.5t207 140.5t137 209t50 257t-50 259t-137 211t-207 141t-259 52t-259 -52t-207 -141t-136.5 -211t-49.5 -259zM412 674q0 86 31.5 158.5t84 127t121 85t142.5 30.5q25 0 63.5 -4t79.5 -10t78 -14.5t59 -18.5q6 -76 8 -144.5t2 -103.5l-30 -2 q-37 82 -79 144.5t-69 91.5q-20 10 -49 14t-57 4q-41 0 -71 -26.5t-49.5 -69.5t-28.5 -96.5t-9 -106.5q0 -59 17.5 -121.5t47 -114t70.5 -83t88 -31.5q102 0 205 98l29 -30q-59 -66 -139 -110t-166 -44q-84 0 -154 25.5t-120 74.5t-77.5 119t-27.5 158z" />
<glyph unicode="&#xaa;" horiz-adv-x="923" d="M96 782q0 113 36 213.5t97.5 176t145.5 120.5t180 45q25 0 58.5 -5t69.5 -14t67.5 -21.5t52.5 -24.5q16 14 40.5 31.5t43.5 27.5l26 -8q-16 -57 -36.5 -142t-40.5 -190l-37 -196q-2 -10 -5 -26.5t-5.5 -36t-4.5 -38t-2 -28.5q0 -16 3 -24.5t16 -8.5q20 0 52 15.5t52 29.5 l15 -27q-57 -59 -137.5 -104t-172.5 -45q-37 0 -58.5 29.5t-21.5 78.5q0 16 3.5 44t8.5 56.5t11 56.5t10 46l-8 2q-20 -66 -48 -123t-61.5 -100t-73.5 -67.5t-87 -24.5t-82 24.5t-58.5 64.5t-36 90t-12.5 103zM356 821q0 -53 12.5 -97t41.5 -44q18 0 39.5 16.5t44 56.5 t48 107.5t52.5 171.5l33 205q-18 59 -82 59q-37 0 -72 -51t-60.5 -123.5t-41 -154.5t-15.5 -146z" />
<glyph unicode="&#xab;" horiz-adv-x="1038" d="M-20 485l4 27l573 438l29 -24l-283 -424l133 -426l-35 -25zM483 485l4 27l529 391l26 -24l-239 -377l106 -381l-37 -25z" />
<glyph unicode="&#xad;" horiz-adv-x="727" d="M74 610l547 29l10 -211l-547 -29z" />
<glyph unicode="&#xae;" horiz-adv-x="1556" d="M84 672q0 150 54.5 279.5t150.5 226t225 151.5t281 55q150 0 280.5 -55t226 -151.5t150.5 -226t55 -279.5t-55 -279t-150.5 -225t-226.5 -151.5t-280 -55.5q-152 0 -281 55.5t-225 151.5t-150.5 225t-54.5 279zM143 670q0 -137 49.5 -257t136.5 -209t206.5 -140.5 t259.5 -51.5q139 0 259 51.5t207 140.5t137 209t50 257t-50 259t-137 211t-207 141t-259 52t-259 -52t-207 -141t-136.5 -211t-49.5 -259zM399 299v33l58 6q6 6 11 16.5t8 28.5t4 48t1 77v371q0 43 -1 69.5t-4 43t-8 25.5t-11 15l-56 8v33h381q82 0 150.5 -9t119 -30.5 t79 -59.5t28.5 -93q0 -84 -58.5 -129t-160.5 -68v-6q53 -23 87 -53.5t65 -85.5q12 -27 30.5 -63t34.5 -62q18 -35 44 -59.5t65 -35.5l-2 -30q-100 0 -164 6t-105 22.5t-66.5 46t-49.5 78.5q-14 27 -27.5 56.5t-27 58.5t-28 54.5t-28.5 43.5q-23 -2 -38 -2h-23v-141 q0 -47 1 -76.5t4 -48t8 -29t11 -18.5l78 -8v-33h-410zM707 694q23 -2 40 -2h27q66 0 111 43t45 129q0 98 -43 135t-121 37q-14 0 -31.5 -1t-27.5 -3v-338z" />
<glyph unicode="&#xb0;" horiz-adv-x="606" d="M121 1055q0 51 20.5 98t55 81t83 54.5t101.5 20.5t100 -20.5t83 -54.5t57.5 -81t21.5 -98q0 -53 -21.5 -100.5t-57.5 -83t-83 -56t-100 -20.5t-101.5 20.5t-83 56t-55 82.5t-20.5 101zM209 1055q0 -74 48 -128.5t124 -54.5q74 0 124 53.5t50 129.5t-51 126t-123 50 q-76 0 -124 -51.5t-48 -124.5z" />
<glyph unicode="&#xb1;" horiz-adv-x="1060" d="M94 143v90h834v-90h-834zM94 690v90h373v295h90v-295h371v-90h-371v-295h-90v295h-373z" />
<glyph unicode="&#xb2;" horiz-adv-x="724" d="M53 545q88 78 148.5 132t83.5 77q90 84 141 150.5t51 133.5q0 66 -41 105t-100 39q-47 0 -92 -16.5t-80 -39.5l-14 23q61 92 136.5 147.5t186.5 55.5q100 0 167 -62.5t67 -156.5q0 -45 -15.5 -84t-56.5 -82t-113.5 -95.5t-187.5 -126.5l-60 -40h285q25 2 53.5 33.5 t75.5 103.5l25 -4q-10 -43 -22.5 -88t-26 -86t-25.5 -78t-23 -62h-378q-41 0 -91.5 -2t-85.5 -6z" />
<glyph unicode="&#xb3;" horiz-adv-x="731" d="M72 592q0 20 10 46t23.5 49.5t29 40.5t27.5 24q33 -4 59.5 -33t50 -65t42 -69.5t34.5 -47.5q55 16 93 76.5t38 131.5q0 66 -46 106t-118 40q-18 0 -37.5 -2t-31.5 -4v30q49 16 93 36t79 43.5t55.5 52t20.5 63.5q0 45 -34 67.5t-85 22.5q-57 0 -105.5 -14.5t-97.5 -36.5 l-14 20q63 78 147 130.5t193 52.5q98 0 166.5 -42t68.5 -120q0 -41 -20.5 -73t-55 -57.5t-78.5 -43t-92 -27.5l-2 -6q49 -6 92.5 -17.5t75 -33t50 -55t18.5 -82.5q0 -68 -38 -121t-95.5 -90t-125 -57.5t-126.5 -20.5q-133 0 -198.5 24.5t-65.5 61.5z" />
<glyph unicode="&#xb4;" horiz-adv-x="819" d="M453 1153l213 354q29 41 65 41q25 0 51.5 -16t48 -41t36 -53.5t14.5 -55.5q0 -20 -12.5 -34.5t-30.5 -24.5l-363 -190z" />
<glyph unicode="&#xb6;" horiz-adv-x="1169" d="M102 793q0 123 54.5 220t136.5 162.5t177 100.5t177 35h596l-10 -56h-164l-219 -1255h-59l219 1255h-314l-221 -1255h-57l78 453q-84 0 -156 25.5t-124 70.5t-83 107.5t-31 136.5z" />
<glyph unicode="&#xb7;" horiz-adv-x="477" d="M59 535q0 37 14.5 72.5t39 64t57.5 46t72 17.5q74 0 120 -48t46 -120q0 -37 -14.5 -72.5t-39 -63.5t-57.5 -44t-72 -16q-72 0 -119 45t-47 119z" />
<glyph unicode="&#xb8;" horiz-adv-x="1591" d="M340 -383q0 18 7 38.5t19.5 39t26 31t25.5 16.5q14 -4 31.5 -26.5t36 -49t36 -50.5t29.5 -28q39 6 68.5 43t29.5 82q0 41 -38 64.5t-107 29.5l-12 27l126 166h70l-76 -68q96 -6 155.5 -42.5t59.5 -112.5q0 -49 -31.5 -92t-78.5 -75t-102.5 -50.5t-104.5 -18.5 q-86 0 -128 20.5t-42 55.5z" />
<glyph unicode="&#xb9;" horiz-adv-x="555" d="M51 524q2 10 4 19.5t4 13.5l103 14q14 6 20 24.5t17 84.5l57 321q2 18 8 49t12.5 63t13.5 59.5t11 39.5q-12 -2 -31.5 -4l-39 -4t-37 -3t-25.5 -1v27q31 14 75 31.5t93 34t97 32.5t85 27l27 -9q-4 -20 -12.5 -62t-18.5 -88t-18.5 -88t-12.5 -63l-63 -364 q-10 -59 -11 -78.5t11 -28.5l88 -14q0 -10 -1 -19.5t-1 -13.5h-455z" />
<glyph unicode="&#xba;" horiz-adv-x="868" d="M98 872q0 90 35 174t95.5 149t139 103.5t167.5 38.5q78 0 143 -26.5t111.5 -73.5t72 -112.5t25.5 -141.5q0 -102 -37 -190t-97.5 -153t-139 -102.5t-164.5 -37.5q-74 0 -138.5 27.5t-111.5 76.5t-74 117.5t-27 150.5zM360 766q0 -41 4.5 -82t13.5 -72.5t24.5 -51 t37.5 -19.5q37 0 71 57t59.5 142t40 184.5t14.5 183.5q0 88 -18.5 139t-61.5 51q-41 0 -75 -56t-58.5 -138t-38 -174t-13.5 -164z" />
<glyph unicode="&#xbb;" horiz-adv-x="1040" d="M-29 123l240 377l-107 381l37 24l389 -389l-4 -27l-528 -391zM428 76l283 424l-133 426l34 24l422 -434l-4 -27l-573 -438z" />
<glyph unicode="&#xbc;" horiz-adv-x="1640" d="M61 524q2 10 4.5 19.5t4.5 13.5l102 14q14 6 20.5 24.5t16.5 84.5l57 321q2 18 8.5 49t12.5 63t13 59.5t11 39.5q-12 -2 -31.5 -4l-39 -4t-37 -3t-25.5 -1v27q31 14 75 31.5t93 34t97.5 32.5t84.5 27l27 -9q-4 -20 -12 -62t-18.5 -88t-18.5 -88l-12 -63l-64 -364 q-10 -59 -11 -78.5t11 -28.5l88 -14q0 -10 -1 -19.5t-1 -13.5h-455zM356 -74l359 641l41 -20l-279 -674zM850 778l264 684l121 -55l-346 -647zM854 207q117 217 198 348t119 182q29 41 67 63.5t114 22.5q57 0 105 -13t63 -26q-8 -20 -62 -55q-109 -72 -249 -194.5 t-296 -309.5h287l37 213q63 23 114.5 35t75.5 14l39 -4l-45 -258h113l-8 -43h-113l-2 -12q-12 -74 -14 -98.5t4 -30.5l86 -12q4 -18 0 -33h-459q2 10 4 19.5t4 13.5l115 12q10 4 17.5 27.5t19.5 95.5l4 18h-334z" />
<glyph unicode="&#xbd;" horiz-adv-x="1617" d="M55 524q2 10 4 19.5t4 13.5l103 14q14 6 20.5 24.5t16.5 84.5l57 321q2 18 8 49t12.5 63t13.5 59.5t11 39.5q-12 -2 -31.5 -4l-39 -4t-37 -3t-25.5 -1v27q31 14 75 31.5t93 34t97 32.5t85 27l27 -9q-4 -20 -12.5 -62t-18.5 -88t-18 -88t-13 -63l-63 -364 q-10 -59 -11 -78.5t11 -28.5l88 -14q0 -10 -1 -19.5t-1 -13.5h-455zM338 -74l358 641l41 -20l-278 -674zM831 778l265 684l121 -55l-347 -647zM862 16q88 78 148.5 132.5t83.5 76.5q90 84 141 150.5t51 134.5q0 66 -41 104.5t-100 38.5q-47 0 -92 -16t-80 -39l-15 23 q61 92 137 147t187 55q100 0 167 -62.5t67 -156.5q0 -45 -15.5 -84t-56.5 -82t-114 -95t-187 -126l-60 -41h285q25 2 53.5 34t75.5 103l25 -4q-10 -43 -22.5 -88t-26 -86t-25.5 -78t-23 -61h-378q-41 0 -91.5 -2t-85.5 -6z" />
<glyph unicode="&#xbe;" horiz-adv-x="1757" d="M82 592q0 20 10 46t23.5 49.5t29 40.5t27.5 24q33 -4 59.5 -33t50 -65t42 -69.5t34.5 -47.5q55 16 93 76.5t38 131.5q0 66 -46 106t-117 40q-18 0 -38 -2t-32 -4v30q49 16 93 36t79 43.5t55.5 52t20.5 63.5q0 45 -34 67.5t-85 22.5q-57 0 -105.5 -14.5t-97.5 -36.5 l-14 20q63 78 147 130.5t193 52.5q98 0 166.5 -42t68.5 -120q0 -41 -20.5 -73t-55 -57.5t-78.5 -43t-91 -27.5l-2 -6q49 -6 92 -17.5t74.5 -33t50 -55t18.5 -82.5q0 -68 -38 -121t-95 -90t-124.5 -57.5t-127.5 -20.5q-133 0 -198.5 24.5t-65.5 61.5zM475 -74l359 641l40 -20 l-278 -674zM969 778l264 684l121 -55l-346 -647zM971 207q117 217 197.5 348t119.5 182q29 41 67 63.5t113 22.5q57 0 105.5 -13t62.5 -26q-8 -20 -61 -55q-109 -72 -249 -194.5t-296 -309.5h287l37 213q63 23 114.5 35t75.5 14l39 -4l-45 -258h113l-9 -43h-112l-2 -12 q-12 -74 -14.5 -98.5t4.5 -30.5l86 -12q4 -18 0 -33h-459q2 10 4 19.5t4 13.5l115 12q10 4 17 27.5t20 95.5l4 18h-334z" />
<glyph unicode="&#xbf;" horiz-adv-x="858" d="M-47 2q0 55 11 97t45 77t96.5 69t162.5 72q100 39 134 78t34 86q0 12 -2 28.5t-4 27.5l35 6q45 -25 77.5 -56.5t52 -64.5t29 -63.5t9.5 -55.5q0 -141 -209 -227q-68 -29 -125 -53.5t-100 -51t-66.5 -57.5t-23.5 -68q0 -53 38.5 -96t96.5 -55q43 6 79.5 45t70.5 84t67 83 t67 44q18 -8 40 -27.5t40.5 -46.5t30.5 -54.5t12 -51.5q0 -68 -68.5 -111t-189.5 -43q-98 0 -179 37t-139.5 93t-90 124t-31.5 131zM342 799q0 37 13.5 71.5t38 61t56 43t68.5 16.5q72 0 117 -45t45 -117q0 -37 -13.5 -71.5t-38 -62t-57 -45t-69.5 -17.5q-72 0 -116 47 t-44 119z" />
<glyph unicode="&#xc0;" horiz-adv-x="1204" d="M-129 0q2 10 5 21.5t7 19.5l58 12q23 16 71.5 86t98.5 166l411 813l43 135l266 84l170 -1046q10 -63 18.5 -106.5t15.5 -70t13.5 -40t12.5 -19.5l72 -14q2 -27 -3 -41h-587q4 25 10 41l94 14q20 10 23 31q4 23 0 76t-11 106l-18 123h-424q-45 -98 -68.5 -169.5 t-27.5 -100.5q-8 -37 8 -53l113 -27q2 -12 1 -23.5t-3 -17.5h-369zM244 446h389l-90 617zM469 1632q0 25 19.5 57.5t47 62.5t57.5 51.5t52 21.5q37 0 62 -41l186 -326l-29 -24l-344 143q-33 12 -42 26.5t-9 28.5z" />
<glyph unicode="&#xc1;" horiz-adv-x="1204" d="M-129 0q2 10 5 21.5t7 19.5l58 12q23 16 71.5 86t98.5 166l411 813l43 135l266 84l170 -1046q10 -63 18.5 -106.5t15.5 -70t13.5 -40t12.5 -19.5l72 -14q2 -27 -3 -41h-587q4 25 10 41l94 14q20 10 23 31q4 23 0 76t-11 106l-18 123h-424q-45 -98 -68.5 -169.5 t-27.5 -100.5q-8 -37 8 -53l113 -27q2 -12 1 -23.5t-3 -17.5h-369zM244 446h389l-90 617zM561 1458l291 316q45 49 74 49q20 0 42.5 -19.5t40 -48.5t29 -59.5t11.5 -53.5q0 -20 -15.5 -35.5t-56.5 -29.5l-397 -143z" />
<glyph unicode="&#xc2;" horiz-adv-x="1204" d="M-129 0q2 10 5 21.5t7 19.5l58 12q23 16 71.5 86t98.5 166l411 813l43 135l266 84l170 -1046q10 -63 18.5 -106.5t15.5 -70t13.5 -40t12.5 -19.5l72 -14q2 -27 -3 -41h-587q4 25 10 41l94 14q20 10 23 31q4 23 0 76t-11 106l-18 123h-424q-45 -98 -68.5 -169.5 t-27.5 -100.5q-8 -37 8 -53l113 -27q2 -12 1 -23.5t-3 -17.5h-369zM244 446h389l-90 617zM395 1477l353 288h75l240 -288l-23 -25l-286 111l-344 -111z" />
<glyph unicode="&#xc3;" horiz-adv-x="1204" d="M-129 0q2 10 5 21.5t7 19.5l58 12q23 16 71.5 86t98.5 166l411 813l43 135l266 84l170 -1046q10 -63 18.5 -106.5t15.5 -70t13.5 -40t12.5 -19.5l72 -14q2 -27 -3 -41h-587q4 25 10 41l94 14q20 10 23 31q4 23 0 76t-11 106l-18 123h-424q-45 -98 -68.5 -169.5 t-27.5 -100.5q-8 -37 8 -53l113 -27q2 -12 1 -23.5t-3 -17.5h-369zM244 446h389l-90 617zM375 1487q82 147 142.5 217t127.5 70q35 0 80 -13.5t91 -31t91 -30.5t80 -13t67.5 18t78.5 65l28 -14q-41 -76 -74.5 -130t-64.5 -90t-62.5 -52.5t-66.5 -16.5t-78 13.5t-88 31 t-90 30.5t-84 13q-41 0 -75 -19t-77 -62z" />
<glyph unicode="&#xc4;" horiz-adv-x="1204" d="M-129 0q2 10 5 21.5t7 19.5l58 12q23 16 71.5 86t98.5 166l411 813l43 135l266 84l170 -1046q10 -63 18.5 -106.5t15.5 -70t13.5 -40t12.5 -19.5l72 -14q2 -27 -3 -41h-587q4 25 10 41l94 14q20 10 23 31q4 23 0 76t-11 106l-18 123h-424q-45 -98 -68.5 -169.5 t-27.5 -100.5q-8 -37 8 -53l113 -27q2 -12 1 -23.5t-3 -17.5h-369zM244 446h389l-90 617zM365 1599q10 66 59 114t127 48q74 0 111.5 -47t25.5 -115q-10 -76 -69.5 -114.5t-124.5 -38.5q-66 0 -104 42t-25 111zM842 1599q12 66 63 114t127 48q74 0 111 -46t24 -116 q-12 -74 -68.5 -113.5t-121.5 -39.5q-70 0 -109 44t-26 109z" />
<glyph unicode="&#xc5;" horiz-adv-x="1206" d="M-127 0q2 10 5 21.5t7 19.5l58 12q23 16 71.5 86t98.5 166l411 813l39 125q-39 29 -62.5 72t-23.5 96q0 39 15.5 75t43 63.5t64.5 44t78 16.5t78 -16.5t65.5 -43t45 -63.5t16.5 -76q0 -66 -43 -121l164 -999q10 -63 18 -106.5t15 -70t13.5 -40t12.5 -19.5l72 -14 q2 -27 -2 -41h-588q4 25 10 41l94 14q20 10 23 31q4 23 0 76t-10 106l-19 123h-424q-45 -98 -68.5 -169.5t-27.5 -100.5q-8 -37 8 -53l113 -27q2 -12 1 -23.5t-3 -17.5h-369zM246 446h389l-90 617zM537 1411q0 -47 23.5 -85t62.5 -56l174 55q26 39 26 86q0 61 -43 102 t-102 41q-61 0 -101 -42t-40 -101z" />
<glyph unicode="&#xc6;" horiz-adv-x="1761" d="M-143 0q4 16 7 24.5t5 12.5l74 20q14 6 37.5 29t49 51.5t51 61t48.5 61.5l559 770q41 55 66.5 99.5t31.5 78.5q4 20 -3 30.5t-21 18.5l-111 13q-2 6 -1 17t3 22h1129l12 -15q-10 -43 -22.5 -92t-26.5 -99t-27.5 -96t-23.5 -81h-31q-35 139 -67.5 209.5t-73.5 113.5 q-70 10 -151 13.5t-134 3.5l-102 -580l92 4q76 2 111.5 12.5t60.5 32.5l82 142l35 -3q-18 -84 -28.5 -139t-14.5 -76q-4 -20 -9.5 -49.5t-10.5 -63.5t-10 -69l-9 -63l-35 -2l-27 180q-16 27 -48 37t-105 12l-93 2l-41 -237q-18 -109 -26 -177.5t-4 -108.5t20.5 -55.5 t46.5 -17.5h56q53 0 99 17.5t96 60.5t113.5 116.5t151.5 188.5l31 -4q-10 -47 -24.5 -104.5t-32 -116t-33.5 -111.5t-29 -94h-972q2 31 10 41l71 8q14 6 23.5 17.5t19 40t20.5 84t28 149.5l10 57h-467l-98 -137q-35 -51 -56.5 -93t-25.5 -67q-4 -18 1 -29.5t11 -15.5 l111 -18q2 -4 1 -15.5t-4 -21.5h-376zM330 451h438l109 600l34 211z" />
<glyph unicode="&#xc7;" horiz-adv-x="1155" d="M61 522q0 170 56.5 319.5t155 260t233.5 174t295 63.5q53 0 108.5 -4t104.5 -10t91 -13t69 -12l12 -16q-8 -49 -20.5 -103.5t-25 -106.5t-24.5 -99t-22 -82l-37 -2q-35 160 -73 255t-60 124q-20 10 -50 17t-71 7q-70 0 -127.5 -38.5t-103.5 -104.5t-80.5 -153t-57 -180 t-34 -188t-11.5 -179q0 -74 14.5 -150t44 -138.5t75.5 -102.5t112 -40q23 0 44 4.5t34 8.5q33 27 74.5 76t86 106t86 117.5t74.5 111.5l39 -8q-8 -43 -19.5 -95t-24.5 -105.5t-26.5 -103.5t-23.5 -87q-98 -37 -188.5 -54.5t-155.5 -17.5h-21.5t-21.5 2l-47 -43 q96 -6 155.5 -42.5t59.5 -112.5q0 -49 -32 -92t-79 -75t-102 -50.5t-105 -18.5q-86 0 -128 20.5t-42 55.5q0 18 7.5 38.5t19.5 39t25.5 31t25.5 16.5q14 -4 31.5 -26.5t36 -49t36 -50.5t29.5 -28q39 6 69 43t30 82q0 41 -38 64.5t-108 29.5l-12 27l111 146 q-221 27 -347.5 165t-126.5 377z" />
<glyph unicode="&#xc8;" horiz-adv-x="1148" d="M-39 0q2 12 5 23.5t5 17.5l88 14q8 8 16.5 19.5t15.5 39t17.5 80t26.5 142.5l121 678q14 76 20.5 121t7.5 68.5t-3.5 33.5t-10.5 16l-82 17q0 27 5 39h976l15 -15q-10 -43 -22.5 -92t-27 -99t-27.5 -96t-24 -81h-30q-35 139 -69 209.5t-73 113.5q-72 10 -153.5 13.5 t-134.5 3.5l-101 -580l96 4q74 2 111 12.5t62 32.5l79 142l35 -3q-18 -84 -28.5 -139t-14.5 -76q-4 -20 -9 -49.5t-10 -63.5t-10.5 -69t-9.5 -63l-35 -2l-24 180q-16 27 -49 37t-105 12l-98 2l-47 -283q-16 -92 -23.5 -152.5t-3.5 -95t20.5 -49t45.5 -16.5h63 q53 0 98.5 17.5t96.5 60.5t113.5 116.5t152.5 188.5l29 -4q-10 -47 -24.5 -104.5t-31 -116t-33 -111.5t-28.5 -94h-979zM432 1632q0 25 19.5 57.5t47 62.5t57.5 51.5t52 21.5q37 0 62 -41l186 -326l-29 -24l-344 143q-33 12 -42 26.5t-9 28.5z" />
<glyph unicode="&#xc9;" horiz-adv-x="1148" d="M-39 0q2 12 5 23.5t5 17.5l88 14q8 8 16.5 19.5t15.5 39t17.5 80t26.5 142.5l121 678q14 76 20.5 121t7.5 68.5t-3.5 33.5t-10.5 16l-82 17q0 27 5 39h976l15 -15q-10 -43 -22.5 -92t-27 -99t-27.5 -96t-24 -81h-30q-35 139 -69 209.5t-73 113.5q-72 10 -153.5 13.5 t-134.5 3.5l-101 -580l96 4q74 2 111 12.5t62 32.5l79 142l35 -3q-18 -84 -28.5 -139t-14.5 -76q-4 -20 -9 -49.5t-10 -63.5t-10.5 -69t-9.5 -63l-35 -2l-24 180q-16 27 -49 37t-105 12l-98 2l-47 -283q-16 -92 -23.5 -152.5t-3.5 -95t20.5 -49t45.5 -16.5h63 q53 0 98.5 17.5t96.5 60.5t113.5 116.5t152.5 188.5l29 -4q-10 -47 -24.5 -104.5t-31 -116t-33 -111.5t-28.5 -94h-979zM598 1458l291 316q45 49 74 49q20 0 42.5 -19.5t40 -48.5t28.5 -59.5t11 -53.5q0 -20 -15 -35.5t-56 -29.5l-398 -143z" />
<glyph unicode="&#xca;" horiz-adv-x="1148" d="M-39 0q2 12 5 23.5t5 17.5l88 14q8 8 16.5 19.5t15.5 39t17.5 80t26.5 142.5l121 678q14 76 20.5 121t7.5 68.5t-3.5 33.5t-10.5 16l-82 17q0 27 5 39h976l15 -15q-10 -43 -22.5 -92t-27 -99t-27.5 -96t-24 -81h-30q-35 139 -69 209.5t-73 113.5q-72 10 -153.5 13.5 t-134.5 3.5l-101 -580l96 4q74 2 111 12.5t62 32.5l79 142l35 -3q-18 -84 -28.5 -139t-14.5 -76q-4 -20 -9 -49.5t-10 -63.5t-10.5 -69t-9.5 -63l-35 -2l-24 180q-16 27 -49 37t-105 12l-98 2l-47 -283q-16 -92 -23.5 -152.5t-3.5 -95t20.5 -49t45.5 -16.5h63 q53 0 98.5 17.5t96.5 60.5t113.5 116.5t152.5 188.5l29 -4q-10 -47 -24.5 -104.5t-31 -116t-33 -111.5t-28.5 -94h-979zM397 1477l353 288h75l240 -288l-23 -25l-286 111l-344 -111z" />
<glyph unicode="&#xcb;" horiz-adv-x="1148" d="M-39 0q2 12 5 23.5t5 17.5l88 14q8 8 16.5 19.5t15.5 39t17.5 80t26.5 142.5l121 678q14 76 20.5 121t7.5 68.5t-3.5 33.5t-10.5 16l-82 17q0 27 5 39h976l15 -15q-10 -43 -22.5 -92t-27 -99t-27.5 -96t-24 -81h-30q-35 139 -69 209.5t-73 113.5q-72 10 -153.5 13.5 t-134.5 3.5l-101 -580l96 4q74 2 111 12.5t62 32.5l79 142l35 -3q-18 -84 -28.5 -139t-14.5 -76q-4 -20 -9 -49.5t-10 -63.5t-10.5 -69t-9.5 -63l-35 -2l-24 180q-16 27 -49 37t-105 12l-98 2l-47 -283q-16 -92 -23.5 -152.5t-3.5 -95t20.5 -49t45.5 -16.5h63 q53 0 98.5 17.5t96.5 60.5t113.5 116.5t152.5 188.5l29 -4q-10 -47 -24.5 -104.5t-31 -116t-33 -111.5t-28.5 -94h-979zM360 1599q10 66 59.5 114t127.5 48q74 0 111.5 -47t25.5 -115q-10 -76 -69.5 -114.5t-125.5 -38.5t-103.5 42t-25.5 111zM838 1599q12 66 63 114t127 48 q74 0 111 -46t24 -116q-12 -74 -68.5 -113.5t-121.5 -39.5q-70 0 -109 44t-26 109z" />
<glyph unicode="&#xcc;" horiz-adv-x="686" d="M-49 0q2 10 5 22.5t5 18.5l100 14q8 8 16.5 19.5t15.5 37t17.5 72.5t24.5 127l121 686q14 80 20.5 127t8.5 73t-2 37t-11 19l-94 17q0 27 4 39h580q-4 -23 -10 -39l-101 -17q-10 -8 -16 -18t-14.5 -35.5t-17.5 -73t-23 -129.5l-121 -686q-14 -76 -21.5 -122t-8.5 -73.5 t2 -40t9 -20.5l97 -14q0 -12 -1 -23.5t-1 -17.5h-584zM184 1632q0 25 19.5 57.5t47.5 62.5t57.5 51.5t51.5 21.5q37 0 62 -41l186 -326l-28 -24l-344 143q-33 12 -42.5 26.5t-9.5 28.5z" />
<glyph unicode="&#xcd;" horiz-adv-x="686" d="M-49 0q2 10 5 22.5t5 18.5l100 14q8 8 16.5 19.5t15.5 37t17.5 72.5t24.5 127l121 686q14 80 20.5 127t8.5 73t-2 37t-11 19l-94 17q0 27 4 39h580q-4 -23 -10 -39l-101 -17q-10 -8 -16 -18t-14.5 -35.5t-17.5 -73t-23 -129.5l-121 -686q-14 -76 -21.5 -122t-8.5 -73.5 t2 -40t9 -20.5l97 -14q0 -12 -1 -23.5t-1 -17.5h-584zM344 1458l291 316q45 49 74 49q20 0 42.5 -19.5t40 -48.5t28.5 -59.5t11 -53.5q0 -20 -15 -35.5t-56 -29.5l-398 -143z" />
<glyph unicode="&#xce;" horiz-adv-x="686" d="M-49 0q2 10 5 22.5t5 18.5l100 14q8 8 16.5 19.5t15.5 37t17.5 72.5t24.5 127l121 686q14 80 20.5 127t8.5 73t-2 37t-11 19l-94 17q0 27 4 39h580q-4 -23 -10 -39l-101 -17q-10 -8 -16 -18t-14.5 -35.5t-17.5 -73t-23 -129.5l-121 -686q-14 -76 -21.5 -122t-8.5 -73.5 t2 -40t9 -20.5l97 -14q0 -12 -1 -23.5t-1 -17.5h-584zM164 1477l352 288h76l239 -288l-22 -25l-287 111l-344 -111z" />
<glyph unicode="&#xcf;" horiz-adv-x="686" d="M-49 0q2 10 5 22.5t5 18.5l100 14q8 8 16.5 19.5t15.5 37t17.5 72.5t24.5 127l121 686q14 80 20.5 127t8.5 73t-2 37t-11 19l-94 17q0 27 4 39h580q-4 -23 -10 -39l-101 -17q-10 -8 -16 -18t-14.5 -35.5t-17.5 -73t-23 -129.5l-121 -686q-14 -76 -21.5 -122t-8.5 -73.5 t2 -40t9 -20.5l97 -14q0 -12 -1 -23.5t-1 -17.5h-584zM133 1599q10 66 59 114t127 48q74 0 112 -47t26 -115q-10 -76 -69.5 -114.5t-125.5 -38.5t-103.5 42t-25.5 111zM610 1599q12 66 63.5 114t127.5 48q74 0 110.5 -46t24.5 -116q-12 -74 -68.5 -113.5t-122.5 -39.5 q-70 0 -108.5 44t-26.5 109z" />
<glyph unicode="&#xd1;" horiz-adv-x="1339" d="M-63 0q2 10 4 22.5t6 18.5l125 35q12 8 22 22.5t20.5 42t21.5 70.5t24 111l147 774q-39 63 -74.5 110t-54.5 58l-28 6q0 10 1 21.5t1 17.5h401l547 -901l76 540q10 76 15 127t4 83t-8 50.5t-20 28.5l-168 33q0 23 5 39h423q0 -10 -3 -21.5t-7 -17.5l-96 -29 q-12 -10 -21.5 -25.5t-19.5 -48t-22.5 -90t-28.5 -151.5l-58 -340q-10 -53 -22 -127t-25.5 -154t-26 -159.5t-22.5 -143.5l-78 -18l-659 1067l-98 -729q-10 -68 -14.5 -111t-4.5 -69.5t4 -40t11 -19.5l167 -41q2 -10 1 -21.5t-3 -19.5h-464zM471 1487q82 147 142.5 217 t127.5 70q35 0 80 -13.5t91 -31t91.5 -30.5t79.5 -13q35 0 68 18t78 65l28 -14q-41 -76 -74.5 -130t-64.5 -90t-62.5 -52.5t-66.5 -16.5t-78 13.5t-88 31t-90 30.5t-84 13q-41 0 -74.5 -19t-76.5 -62z" />
<glyph unicode="&#xd2;" d="M57 506q0 180 61.5 332.5t162 264t229.5 174t262 62.5q123 0 226.5 -35.5t177 -104.5t114.5 -168t41 -224q0 -180 -60.5 -332.5t-160.5 -264.5t-229 -175.5t-267 -63.5q-113 0 -213 36t-177 103.5t-122 167t-45 228.5zM387 420q0 -86 13.5 -159t41 -127t71.5 -85t105 -31 q59 0 109.5 40t93.5 106.5t77 154t56.5 183.5t34.5 195.5t12 189.5q0 193 -52 300t-171 107q-59 0 -111.5 -38.5t-96.5 -105.5t-77.5 -155t-57 -185t-36 -197.5t-12.5 -192.5zM518 1632q0 25 19.5 57.5t47 62.5t57.5 51.5t52 21.5q37 0 62 -41l186 -326l-29 -24l-344 143 q-33 12 -42 26.5t-9 28.5z" />
<glyph unicode="&#xd3;" d="M57 506q0 180 61.5 332.5t162 264t229.5 174t262 62.5q123 0 226.5 -35.5t177 -104.5t114.5 -168t41 -224q0 -180 -60.5 -332.5t-160.5 -264.5t-229 -175.5t-267 -63.5q-113 0 -213 36t-177 103.5t-122 167t-45 228.5zM387 420q0 -86 13.5 -159t41 -127t71.5 -85t105 -31 q59 0 109.5 40t93.5 106.5t77 154t56.5 183.5t34.5 195.5t12 189.5q0 193 -52 300t-171 107q-59 0 -111.5 -38.5t-96.5 -105.5t-77.5 -155t-57 -185t-36 -197.5t-12.5 -192.5zM676 1458l291 316q45 49 73 49q20 0 43 -19.5t40.5 -48.5t28.5 -59.5t11 -53.5q0 -20 -15 -35.5 t-56 -29.5l-398 -143z" />
<glyph unicode="&#xd4;" d="M57 506q0 180 61.5 332.5t162 264t229.5 174t262 62.5q123 0 226.5 -35.5t177 -104.5t114.5 -168t41 -224q0 -180 -60.5 -332.5t-160.5 -264.5t-229 -175.5t-267 -63.5q-113 0 -213 36t-177 103.5t-122 167t-45 228.5zM387 420q0 -86 13.5 -159t41 -127t71.5 -85t105 -31 q59 0 109.5 40t93.5 106.5t77 154t56.5 183.5t34.5 195.5t12 189.5q0 193 -52 300t-171 107q-59 0 -111.5 -38.5t-96.5 -105.5t-77.5 -155t-57 -185t-36 -197.5t-12.5 -192.5zM483 1477l353 288h75l240 -288l-23 -25l-286 111l-344 -111z" />
<glyph unicode="&#xd5;" d="M57 506q0 180 61.5 332.5t162 264t229.5 174t262 62.5q123 0 226.5 -35.5t177 -104.5t114.5 -168t41 -224q0 -180 -60.5 -332.5t-160.5 -264.5t-229 -175.5t-267 -63.5q-113 0 -213 36t-177 103.5t-122 167t-45 228.5zM387 420q0 -86 13.5 -159t41 -127t71.5 -85t105 -31 q59 0 109.5 40t93.5 106.5t77 154t56.5 183.5t34.5 195.5t12 189.5q0 193 -52 300t-171 107q-59 0 -111.5 -38.5t-96.5 -105.5t-77.5 -155t-57 -185t-36 -197.5t-12.5 -192.5zM461 1487q82 147 142.5 217t127.5 70q35 0 80 -13.5t91 -31t91 -30.5t80 -13t68 18t78 65l28 -14 q-41 -76 -74.5 -130t-64.5 -90t-62.5 -52.5t-66.5 -16.5t-78 13.5t-88 31t-90 30.5t-84 13q-41 0 -75 -19t-77 -62z" />
<glyph unicode="&#xd6;" d="M57 506q0 180 61.5 332.5t162 264t229.5 174t262 62.5q123 0 226.5 -35.5t177 -104.5t114.5 -168t41 -224q0 -180 -60.5 -332.5t-160.5 -264.5t-229 -175.5t-267 -63.5q-113 0 -213 36t-177 103.5t-122 167t-45 228.5zM387 420q0 -86 13.5 -159t41 -127t71.5 -85t105 -31 q59 0 109.5 40t93.5 106.5t77 154t56.5 183.5t34.5 195.5t12 189.5q0 193 -52 300t-171 107q-59 0 -111.5 -38.5t-96.5 -105.5t-77.5 -155t-57 -185t-36 -197.5t-12.5 -192.5zM455 1599q10 66 59 114t127 48q74 0 112 -47t25 -115q-10 -76 -69.5 -114.5t-124.5 -38.5 q-66 0 -104 42t-25 111zM932 1599q12 66 63 114t127 48q74 0 111 -46t24 -116q-12 -74 -68 -113.5t-122 -39.5q-70 0 -108.5 44t-26.5 109z" />
<glyph unicode="&#xd7;" horiz-adv-x="813" d="M68 260l266 266l-266 269l61 63l268 -268l269 268l61 -63l-268 -269l268 -266l-61 -63l-269 268l-268 -268z" />
<glyph unicode="&#xd8;" horiz-adv-x="1361" d="M23 -258l235 340q-92 68 -146.5 174t-54.5 250q0 180 61.5 332.5t162 264t229.5 174t262 62.5q88 0 166 -19.5t143 -53.5l230 331l55 -36l-229 -330q92 -68 143 -175.5t51 -248.5q0 -180 -60.5 -332.5t-160.5 -264.5t-229 -175.5t-267 -63.5q-82 0 -157.5 18.5 t-141.5 55.5l-235 -340zM387 420q0 -37 2 -72t6 -67l580 835q-23 86 -71 132t-126 46q-59 0 -111.5 -38.5t-96.5 -105.5t-77.5 -155t-57 -185t-36 -197.5t-12.5 -192.5zM416 190q27 -78 76 -125t126 -47q59 0 109.5 40t93.5 106.5t77 154t56.5 183.5t34.5 195.5t12 189.5 q0 37 -2 70.5t-6 66.5z" />
<glyph unicode="&#xd9;" horiz-adv-x="1271" d="M121.5 246q-21.5 94 1.5 225l96 533q14 76 20.5 121.5t8.5 71.5t-1 37t-7 19l-78 17q0 27 4 39h567q-2 -8 -5 -19.5t-7 -19.5l-109 -17q-10 -8 -17 -19t-14.5 -38t-16.5 -73t-23 -124l-95 -524q-16 -92 -14 -170t26.5 -134t73 -88t123.5 -32q166 0 259.5 101.5 t129.5 318.5l78 434q25 141 25 234.5t-29 109.5l-135 21q0 23 4 39h387q-2 -10 -5 -21.5t-7 -17.5l-86 -25q-23 -20 -49.5 -111.5t-50.5 -228.5l-78 -436q-20 -121 -59.5 -214t-102 -155.5t-153.5 -95.5t-218 -33q-121 0 -213 29t-150.5 90.5t-80 155.5zM524 1632 q0 25 19.5 57.5t47 62.5t57.5 51.5t52 21.5q37 0 62 -41l186 -326l-28 -24l-345 143q-33 12 -42 26.5t-9 28.5z" />
<glyph unicode="&#xda;" horiz-adv-x="1271" d="M121.5 246q-21.5 94 1.5 225l96 533q14 76 20.5 121.5t8.5 71.5t-1 37t-7 19l-78 17q0 27 4 39h567q-2 -8 -5 -19.5t-7 -19.5l-109 -17q-10 -8 -17 -19t-14.5 -38t-16.5 -73t-23 -124l-95 -524q-16 -92 -14 -170t26.5 -134t73 -88t123.5 -32q166 0 259.5 101.5 t129.5 318.5l78 434q25 141 25 234.5t-29 109.5l-135 21q0 23 4 39h387q-2 -10 -5 -21.5t-7 -17.5l-86 -25q-23 -20 -49.5 -111.5t-50.5 -228.5l-78 -436q-20 -121 -59.5 -214t-102 -155.5t-153.5 -95.5t-218 -33q-121 0 -213 29t-150.5 90.5t-80 155.5zM674 1458l291 316 q45 49 73 49q20 0 43 -19.5t40.5 -48.5t28.5 -59.5t11 -53.5q0 -20 -15.5 -35.5t-55.5 -29.5l-398 -143z" />
<glyph unicode="&#xdb;" horiz-adv-x="1271" d="M121.5 246q-21.5 94 1.5 225l96 533q14 76 20.5 121.5t8.5 71.5t-1 37t-7 19l-78 17q0 27 4 39h567q-2 -8 -5 -19.5t-7 -19.5l-109 -17q-10 -8 -17 -19t-14.5 -38t-16.5 -73t-23 -124l-95 -524q-16 -92 -14 -170t26.5 -134t73 -88t123.5 -32q166 0 259.5 101.5 t129.5 318.5l78 434q25 141 25 234.5t-29 109.5l-135 21q0 23 4 39h387q-2 -10 -5 -21.5t-7 -17.5l-86 -25q-23 -20 -49.5 -111.5t-50.5 -228.5l-78 -436q-20 -121 -59.5 -214t-102 -155.5t-153.5 -95.5t-218 -33q-121 0 -213 29t-150.5 90.5t-80 155.5zM487 1477l353 288 h75l240 -288l-22 -25l-287 111l-344 -111z" />
<glyph unicode="&#xdc;" horiz-adv-x="1271" d="M121.5 246q-21.5 94 1.5 225l96 533q14 76 20.5 121.5t8.5 71.5t-1 37t-7 19l-78 17q0 27 4 39h567q-2 -8 -5 -19.5t-7 -19.5l-109 -17q-10 -8 -17 -19t-14.5 -38t-16.5 -73t-23 -124l-95 -524q-16 -92 -14 -170t26.5 -134t73 -88t123.5 -32q166 0 259.5 101.5 t129.5 318.5l78 434q25 141 25 234.5t-29 109.5l-135 21q0 23 4 39h387q-2 -10 -5 -21.5t-7 -17.5l-86 -25q-23 -20 -49.5 -111.5t-50.5 -228.5l-78 -436q-20 -121 -59.5 -214t-102 -155.5t-153.5 -95.5t-218 -33q-121 0 -213 29t-150.5 90.5t-80 155.5zM440 1599 q10 66 59.5 114t127.5 48q74 0 111.5 -47t25.5 -115q-10 -76 -69.5 -114.5t-125.5 -38.5t-103.5 42t-25.5 111zM918 1599q12 66 63 114t127 48q74 0 110.5 -46t24.5 -116q-12 -74 -68.5 -113.5t-121.5 -39.5q-70 0 -109 44t-26 109z" />
<glyph unicode="&#xdd;" horiz-adv-x="1112" d="M100 1270q-2 10 0 21.5t4 17.5h588q-2 -10 -5 -21.5t-7 -17.5l-92 -8q-16 -4 -22.5 -13.5t-8.5 -23.5q0 -27 18 -78l144 -467l227 375q25 39 43.5 81t18.5 64q0 20 -5.5 33.5t-23.5 23.5l-123 13q0 23 4 39h402q-4 -23 -13 -37l-75 -19q-37 -23 -77 -68.5t-98 -135.5 l-262 -406l-57 -342l-19.5 -117t-9.5 -71.5t2 -39t11 -18.5l139 -14q0 -10 -1 -22.5t-1 -18.5h-670q2 10 4 22.5t6 18.5l144 14q10 8 18 20.5t15.5 38t16.5 70.5t21 117l54 285l-172 528q-23 66 -41.5 96.5t-40.5 44.5zM616 1458l291 316q45 49 74 49q20 0 43 -19.5 t40 -48.5t28.5 -59.5t11.5 -53.5q0 -20 -15.5 -35.5t-56.5 -29.5l-397 -143z" />
<glyph unicode="&#xdf;" horiz-adv-x="1249" d="M-293 -301q0 27 12.5 61.5t28.5 64.5t35.5 50.5t36.5 20.5q20 0 38.5 -29t36 -66t33 -70.5t33.5 -45.5q29 16 45.5 85.5t26.5 166t17 209t20 214.5l47 304q27 168 87 310t148 245.5t200 162t239 58.5q76 0 146.5 -11.5t124.5 -35t86 -61.5t32 -91q0 -57 -31 -97t-78 -71 t-101.5 -53.5t-101.5 -46t-77.5 -49t-30.5 -62.5q0 -25 9 -46t32.5 -44.5t62.5 -53.5t101 -73q57 -39 100 -73.5t72.5 -70.5t45 -77t15.5 -90q0 -72 -31.5 -135.5t-87 -112.5t-130.5 -77.5t-158 -28.5q-174 0 -257 43t-83 106q0 27 10 58.5t25.5 60t36 49t42.5 25.5 q33 -8 63.5 -51.5t61.5 -93.5t60.5 -94t62.5 -52q51 10 86 52t35 101q0 31 -9.5 54.5t-31 48t-57 53.5t-86.5 66q-57 43 -96.5 74.5t-64 61t-34.5 60.5t-10 70q0 47 24.5 88t62.5 82t82 83t82 89t62.5 102t24.5 123t-32 111t-91 43q-111 0 -185.5 -143.5t-121.5 -426.5 l-35 -217q-4 -31 -14.5 -84t-20.5 -110.5t-21.5 -110.5t-17.5 -80q-41 -164 -93 -279.5t-116.5 -188t-141.5 -106.5t-165 -34q-41 0 -81 24.5t-40 61.5z" />
<glyph unicode="&#xe0;" horiz-adv-x="1056" d="M18 332q0 137 41 262t115 220t174.5 151.5t220.5 56.5q31 0 72 -6t81 -17.5t78 -26t62 -30.5q18 18 49 38.5t54 35.5l32 -10q-23 -72 -47 -177.5t-49 -234.5l-47 -248q-4 -16 -8 -38.5t-7 -46t-6.5 -45t-3.5 -36.5q0 -18 8.5 -32.5t24.5 -14.5q14 0 31.5 10.5t33 25.5 t29 32.5t23.5 31.5l22 -36q-25 -41 -58.5 -80t-73.5 -70t-84 -49t-91 -18q-70 0 -113.5 39.5t-43.5 109.5q0 20 4 53t10 67t13 66.5t14 55.5l-13 2q-25 -86 -55.5 -159t-68.5 -125t-84 -80.5t-103 -28.5q-59 0 -104.5 30.5t-74 79.5t-43 112.5t-14.5 129.5zM340 381 q0 -33 3 -64.5t11 -57.5t22 -41t32 -15q25 0 46 19.5t45.5 68.5t51.5 134t61 214l50 262q-27 74 -105 74q-47 0 -87 -63.5t-68.5 -155.5t-45 -194.5t-16.5 -180.5zM371 1380q0 27 18.5 55.5t46 53t59 40t56.5 15.5q45 0 61 -49l117 -346l-24 -19l-302 199q-16 10 -24 24.5 t-8 26.5z" />
<glyph unicode="&#xe1;" horiz-adv-x="1056" d="M18 332q0 137 41 262t115 220t174.5 151.5t220.5 56.5q31 0 72 -6t81 -17.5t78 -26t62 -30.5q18 18 49 38.5t54 35.5l32 -10q-23 -72 -47 -177.5t-49 -234.5l-47 -248q-4 -16 -8 -38.5t-7 -46t-6.5 -45t-3.5 -36.5q0 -18 8.5 -32.5t24.5 -14.5q14 0 31.5 10.5t33 25.5 t29 32.5t23.5 31.5l22 -36q-25 -41 -58.5 -80t-73.5 -70t-84 -49t-91 -18q-70 0 -113.5 39.5t-43.5 109.5q0 20 4 53t10 67t13 66.5t14 55.5l-13 2q-25 -86 -55.5 -159t-68.5 -125t-84 -80.5t-103 -28.5q-59 0 -104.5 30.5t-74 79.5t-43 112.5t-14.5 129.5zM340 381 q0 -33 3 -64.5t11 -57.5t22 -41t32 -15q25 0 46 19.5t45.5 68.5t51.5 134t61 214l50 262q-27 74 -105 74q-47 0 -87 -63.5t-68.5 -155.5t-45 -194.5t-16.5 -180.5zM516 1153l213 354q29 41 66 41q25 0 51 -16t47.5 -41t36 -53.5t14.5 -55.5q0 -20 -12 -34.5t-31 -24.5 l-362 -190z" />
<glyph unicode="&#xe2;" horiz-adv-x="1056" d="M18 332q0 137 41 262t115 220t174.5 151.5t220.5 56.5q31 0 72 -6t81 -17.5t78 -26t62 -30.5q18 18 49 38.5t54 35.5l32 -10q-23 -72 -47 -177.5t-49 -234.5l-47 -248q-4 -16 -8 -38.5t-7 -46t-6.5 -45t-3.5 -36.5q0 -18 8.5 -32.5t24.5 -14.5q14 0 31.5 10.5t33 25.5 t29 32.5t23.5 31.5l22 -36q-25 -41 -58.5 -80t-73.5 -70t-84 -49t-91 -18q-70 0 -113.5 39.5t-43.5 109.5q0 20 4 53t10 67t13 66.5t14 55.5l-13 2q-25 -86 -55.5 -159t-68.5 -125t-84 -80.5t-103 -28.5q-59 0 -104.5 30.5t-74 79.5t-43 112.5t-14.5 129.5zM301 1190 l350 301h74l242 -301l-21 -23l-287 125l-344 -125zM340 381q0 -33 3 -64.5t11 -57.5t22 -41t32 -15q25 0 46 19.5t45.5 68.5t51.5 134t61 214l50 262q-27 74 -105 74q-47 0 -87 -63.5t-68.5 -155.5t-45 -194.5t-16.5 -180.5z" />
<glyph unicode="&#xe3;" horiz-adv-x="1056" d="M18 332q0 137 41 262t115 220t174.5 151.5t220.5 56.5q31 0 72 -6t81 -17.5t78 -26t62 -30.5q18 18 49 38.5t54 35.5l32 -10q-23 -72 -47 -177.5t-49 -234.5l-47 -248q-4 -16 -8 -38.5t-7 -46t-6.5 -45t-3.5 -36.5q0 -18 8.5 -32.5t24.5 -14.5q14 0 31.5 10.5t33 25.5 t29 32.5t23.5 31.5l22 -36q-25 -41 -58.5 -80t-73.5 -70t-84 -49t-91 -18q-70 0 -113.5 39.5t-43.5 109.5q0 20 4 53t10 67t13 66.5t14 55.5l-13 2q-25 -86 -55.5 -159t-68.5 -125t-84 -80.5t-103 -28.5q-59 0 -104.5 30.5t-74 79.5t-43 112.5t-14.5 129.5zM303 1219 q80 145 137.5 210.5t124.5 65.5q35 0 73 -13.5t78 -28.5t79 -27.5t75 -12.5q35 0 66 17.5t78 64.5l26 -14q-76 -145 -132 -211t-126 -66q-35 0 -71.5 12.5t-75.5 28t-78 28.5t-76 13q-41 0 -75.5 -18.5t-75.5 -63.5zM340 381q0 -33 3 -64.5t11 -57.5t22 -41t32 -15 q25 0 46 19.5t45.5 68.5t51.5 134t61 214l50 262q-27 74 -105 74q-47 0 -87 -63.5t-68.5 -155.5t-45 -194.5t-16.5 -180.5z" />
<glyph unicode="&#xe4;" horiz-adv-x="1056" d="M18 332q0 137 41 262t115 220t174.5 151.5t220.5 56.5q31 0 72 -6t81 -17.5t78 -26t62 -30.5q18 18 49 38.5t54 35.5l32 -10q-23 -72 -47 -177.5t-49 -234.5l-47 -248q-4 -16 -8 -38.5t-7 -46t-6.5 -45t-3.5 -36.5q0 -18 8.5 -32.5t24.5 -14.5q14 0 31.5 10.5t33 25.5 t29 32.5t23.5 31.5l22 -36q-25 -41 -58.5 -80t-73.5 -70t-84 -49t-91 -18q-70 0 -113.5 39.5t-43.5 109.5q0 20 4 53t10 67t13 66.5t14 55.5l-13 2q-25 -86 -55.5 -159t-68.5 -125t-84 -80.5t-103 -28.5q-59 0 -104.5 30.5t-74 79.5t-43 112.5t-14.5 129.5zM307 1307 q0 39 14.5 72.5t40 59t59.5 40t71 14.5q70 0 106.5 -37t36.5 -92q0 -78 -56.5 -131t-134.5 -53q-59 0 -98 34.5t-39 92.5zM340 381q0 -33 3 -64.5t11 -57.5t22 -41t32 -15q25 0 46 19.5t45.5 68.5t51.5 134t61 214l50 262q-27 74 -105 74q-47 0 -87 -63.5t-68.5 -155.5 t-45 -194.5t-16.5 -180.5zM711 1307q0 80 53 133t131 53q70 0 106.5 -37t36.5 -92q0 -39 -15 -73t-42 -58.5t-61.5 -38.5t-73.5 -14q-59 0 -97 34.5t-38 92.5z" />
<glyph unicode="&#xe5;" horiz-adv-x="1056" d="M18 332q0 137 41 262t115 220t174.5 151.5t220.5 56.5q31 0 72 -6t81 -17.5t78 -26t62 -30.5q18 18 49 38.5t54 35.5l32 -10q-23 -72 -47 -177.5t-49 -234.5l-47 -248q-4 -16 -8 -38.5t-7 -46t-6.5 -45t-3.5 -36.5q0 -18 8.5 -32.5t24.5 -14.5q14 0 31.5 10.5t33 25.5 t29 32.5t23.5 31.5l22 -36q-25 -41 -58.5 -80t-73.5 -70t-84 -49t-91 -18q-70 0 -113.5 39.5t-43.5 109.5q0 20 4 53t10 67t13 66.5t14 55.5l-13 2q-25 -86 -55.5 -159t-68.5 -125t-84 -80.5t-103 -28.5q-59 0 -104.5 30.5t-74 79.5t-43 112.5t-14.5 129.5zM340 381 q0 -33 3 -64.5t11 -57.5t22 -41t32 -15q25 0 46 19.5t45.5 68.5t51.5 134t61 214l50 262q-27 74 -105 74q-47 0 -87 -63.5t-68.5 -155.5t-45 -194.5t-16.5 -180.5zM446 1319q0 37 15.5 70.5t41 59.5t60.5 40t74 14t72.5 -14t60.5 -40t42 -59.5t15 -70.5q0 -39 -15 -74 t-42 -60.5t-60.5 -41t-72.5 -15.5t-74 15.5t-60.5 41t-41 60.5t-15.5 74zM500 1319q0 -57 39 -100t98 -43t98 42t39 101t-40 99t-97 40q-59 0 -98 -40t-39 -99z" />
<glyph unicode="&#xe6;" horiz-adv-x="1333" d="M-6 199q0 68 38 120t103.5 94t155.5 76.5t194 65.5q23 8 31 24.5t19 65.5l12 76q8 47 9 88t-7 71.5t-27.5 48t-50.5 17.5q-27 0 -55.5 -5t-44.5 -9q-18 -23 -22.5 -44.5t-3.5 -44t3 -45t-2 -48.5q-12 -20 -46 -40t-72 -34t-74.5 -23.5t-55.5 -9.5q-23 0 -32 16.5t-9 32.5 q0 51 37 97.5t94 82.5q119 76 228.5 117t226.5 41q68 0 112 -27.5t60 -68.5q39 39 89 66.5t136 27.5q53 0 104.5 -11t92.5 -36t66.5 -62.5t25.5 -91.5q0 -61 -37 -107t-104.5 -77t-163.5 -47t-213 -23q-2 -23 -3 -42t-1 -29q0 -53 10 -102.5t31.5 -88.5t57.5 -62.5t85 -23.5 q55 0 120 24.5t120 63.5l20 -26q-53 -154 -158.5 -230.5t-244.5 -76.5q-74 0 -134.5 24.5t-104.5 69.5t-71.5 104t-37.5 131q-18 -61 -44 -120.5t-60 -105.5t-80 -74.5t-103 -28.5q-98 0 -158.5 60t-60.5 159zM289 313q0 -53 18.5 -90t52.5 -37q23 0 44.5 19.5t38 49.5 t29.5 63.5t22 62.5q0 29 5 72t11 67q-29 -4 -55.5 -12t-42.5 -14q-51 -16 -87 -62.5t-36 -118.5zM813 610q125 23 181.5 98.5t56.5 176.5q0 41 -14.5 71.5t-41.5 30.5q-66 0 -114 -98.5t-68 -278.5z" />
<glyph unicode="&#xe7;" horiz-adv-x="827" d="M23 375q0 129 38.5 246.5t107.5 208t163 144.5t203 54q61 0 114 -8t93 -23.5t62.5 -40t22.5 -57.5t-12 -72t-31.5 -73.5t-43 -59t-46.5 -26.5q-29 8 -55.5 51t-53 94t-53 98t-53.5 64q-25 -18 -50.5 -62.5t-46 -106t-32.5 -137t-12 -157.5q0 -55 8 -107.5t28.5 -92.5 t53.5 -64.5t82 -24.5q57 0 112.5 23.5t110.5 64.5l21 -26q-37 -131 -126 -210t-214 -93l-56 -50q96 -6 155.5 -42.5t59.5 -112.5q0 -49 -31.5 -92t-78.5 -75t-102.5 -50.5t-104.5 -18.5q-86 0 -128 20.5t-42 55.5q0 18 7 38.5t19.5 39t26 31t25.5 16.5q14 -4 31.5 -26.5 t36 -49t36 -50.5t29.5 -28q39 6 68.5 43t29.5 82q0 41 -38 64.5t-107 29.5l-12 27l110 146q-78 4 -138 35.5t-101 84t-63.5 123t-22.5 152.5z" />
<glyph unicode="&#xe8;" horiz-adv-x="864" d="M23 385q0 131 45 248t118.5 205t169 139t197.5 51q61 0 117.5 -11t98.5 -35t66.5 -60.5t24.5 -90.5q0 -66 -37 -111.5t-105.5 -76.5t-164.5 -47t-215 -23q-2 -23 -3 -44t-1 -31q0 -49 10 -98.5t32.5 -88.5t58.5 -63.5t87 -24.5q70 0 131.5 26.5t108.5 63.5l22 -24 q-47 -141 -144 -225t-251 -84q-88 0 -155.5 30.5t-114.5 83.5t-71.5 128t-24.5 163zM276 1380q0 27 18.5 55.5t46.5 53t59.5 40t56.5 15.5q45 0 61 -49l117 -346l-25 -19l-301 199q-16 10 -24.5 24.5t-8.5 26.5zM342 610q125 23 182.5 98.5t57.5 174.5q0 43 -14.5 73.5 t-43.5 30.5q-33 0 -61.5 -28.5t-52 -80t-41 -120t-27.5 -148.5z" />
<glyph unicode="&#xe9;" horiz-adv-x="864" d="M23 385q0 131 45 248t118.5 205t169 139t197.5 51q61 0 117.5 -11t98.5 -35t66.5 -60.5t24.5 -90.5q0 -66 -37 -111.5t-105.5 -76.5t-164.5 -47t-215 -23q-2 -23 -3 -44t-1 -31q0 -49 10 -98.5t32.5 -88.5t58.5 -63.5t87 -24.5q70 0 131.5 26.5t108.5 63.5l22 -24 q-47 -141 -144 -225t-251 -84q-88 0 -155.5 30.5t-114.5 83.5t-71.5 128t-24.5 163zM342 610q125 23 182.5 98.5t57.5 174.5q0 43 -14.5 73.5t-43.5 30.5q-33 0 -61.5 -28.5t-52 -80t-41 -120t-27.5 -148.5zM453 1153l213 354q29 41 65 41q25 0 51.5 -16t48 -41t36 -53.5 t14.5 -55.5q0 -20 -12.5 -34.5t-30.5 -24.5l-363 -190z" />
<glyph unicode="&#xea;" horiz-adv-x="864" d="M23 385q0 131 45 248t118.5 205t169 139t197.5 51q61 0 117.5 -11t98.5 -35t66.5 -60.5t24.5 -90.5q0 -66 -37 -111.5t-105.5 -76.5t-164.5 -47t-215 -23q-2 -23 -3 -44t-1 -31q0 -49 10 -98.5t32.5 -88.5t58.5 -63.5t87 -24.5q70 0 131.5 26.5t108.5 63.5l22 -24 q-47 -141 -144 -225t-251 -84q-88 0 -155.5 30.5t-114.5 83.5t-71.5 128t-24.5 163zM215 1190l350 301h74l242 -301l-21 -23l-287 125l-344 -125zM342 610q125 23 182.5 98.5t57.5 174.5q0 43 -14.5 73.5t-43.5 30.5q-33 0 -61.5 -28.5t-52 -80t-41 -120t-27.5 -148.5z" />
<glyph unicode="&#xeb;" horiz-adv-x="864" d="M23 385q0 131 45 248t118.5 205t169 139t197.5 51q61 0 117.5 -11t98.5 -35t66.5 -60.5t24.5 -90.5q0 -66 -37 -111.5t-105.5 -76.5t-164.5 -47t-215 -23q-2 -23 -3 -44t-1 -31q0 -49 10 -98.5t32.5 -88.5t58.5 -63.5t87 -24.5q70 0 131.5 26.5t108.5 63.5l22 -24 q-47 -141 -144 -225t-251 -84q-88 0 -155.5 30.5t-114.5 83.5t-71.5 128t-24.5 163zM215 1307q0 39 14.5 72.5t40 59t59 40t70.5 14.5q70 0 107 -37t37 -92q0 -78 -56.5 -131t-134.5 -53q-59 0 -98 34.5t-39 92.5zM342 610q125 23 182.5 98.5t57.5 174.5q0 43 -14.5 73.5 t-43.5 30.5q-33 0 -61.5 -28.5t-52 -80t-41 -120t-27.5 -148.5zM618 1307q0 80 53.5 133t131.5 53q70 0 106.5 -37t36.5 -92q0 -39 -15.5 -73t-42 -58.5t-61 -38.5t-73.5 -14q-59 0 -97.5 34.5t-38.5 92.5z" />
<glyph unicode="&#xec;" horiz-adv-x="632" d="M37 813q25 39 60.5 78t78.5 69.5t91.5 49t97.5 18.5q86 0 120.5 -46t34.5 -112q0 -20 -5 -56t-13 -77t-16.5 -81t-14.5 -70l-55 -277q-8 -35 -14.5 -73.5t-6.5 -63.5q0 -43 33 -43q14 0 30.5 11.5t33 26.5t31 33.5t24.5 32.5l22 -36q-25 -41 -58.5 -80t-73.5 -70t-86 -49 t-95 -18q-80 0 -125 44t-45 111q0 43 11.5 107.5t23.5 128.5l53 241q6 25 12.5 57.5t11.5 64.5t9 58.5t4 38.5q0 20 -9 34t-26 14q-14 0 -30.5 -10.5t-32 -26t-29.5 -33.5t-25 -33zM182 1380q0 27 18.5 55.5t46 53t59.5 40t56 15.5q45 0 62 -49l117 -346l-25 -19l-301 199 q-16 10 -24.5 24.5t-8.5 26.5z" />
<glyph unicode="&#xed;" horiz-adv-x="632" d="M37 813q25 39 60.5 78t78.5 69.5t91.5 49t97.5 18.5q86 0 120.5 -46t34.5 -112q0 -20 -5 -56t-13 -77t-16.5 -81t-14.5 -70l-55 -277q-8 -35 -14.5 -73.5t-6.5 -63.5q0 -43 33 -43q14 0 30.5 11.5t33 26.5t31 33.5t24.5 32.5l22 -36q-25 -41 -58.5 -80t-73.5 -70t-86 -49 t-95 -18q-80 0 -125 44t-45 111q0 43 11.5 107.5t23.5 128.5l53 241q6 25 12.5 57.5t11.5 64.5t9 58.5t4 38.5q0 20 -9 34t-26 14q-14 0 -30.5 -10.5t-32 -26t-29.5 -33.5t-25 -33zM256 1153l213 354q29 41 66 41q25 0 51 -16t47.5 -41t36 -53.5t14.5 -55.5 q0 -20 -12.5 -34.5t-30.5 -24.5l-362 -190z" />
<glyph unicode="&#xee;" horiz-adv-x="632" d="M37 813q25 39 60.5 78t78.5 69.5t91.5 49t97.5 18.5q86 0 120.5 -46t34.5 -112q0 -20 -5 -56t-13 -77t-16.5 -81t-14.5 -70l-55 -277q-8 -35 -14.5 -73.5t-6.5 -63.5q0 -43 33 -43q14 0 30.5 11.5t33 26.5t31 33.5t24.5 32.5l22 -36q-25 -41 -58.5 -80t-73.5 -70t-86 -49 t-95 -18q-80 0 -125 44t-45 111q0 43 11.5 107.5t23.5 128.5l53 241q6 25 12.5 57.5t11.5 64.5t9 58.5t4 38.5q0 20 -9 34t-26 14q-14 0 -30.5 -10.5t-32 -26t-29.5 -33.5t-25 -33zM55 1190l351 301h73l242 -301l-21 -23l-286 125l-344 -125z" />
<glyph unicode="&#xef;" horiz-adv-x="632" d="M37 813q25 39 60.5 78t78.5 69.5t91.5 49t97.5 18.5q86 0 120.5 -46t34.5 -112q0 -20 -5 -56t-13 -77t-16.5 -81t-14.5 -70l-55 -277q-8 -35 -14.5 -73.5t-6.5 -63.5q0 -43 33 -43q14 0 30.5 11.5t33 26.5t31 33.5t24.5 32.5l22 -36q-25 -41 -58.5 -80t-73.5 -70t-86 -49 t-95 -18q-80 0 -125 44t-45 111q0 43 11.5 107.5t23.5 128.5l53 241q6 25 12.5 57.5t11.5 64.5t9 58.5t4 38.5q0 20 -9 34t-26 14q-14 0 -30.5 -10.5t-32 -26t-29.5 -33.5t-25 -33zM37 1307q0 39 14.5 72.5t40 59t59 40t70.5 14.5q70 0 107 -37t37 -92q0 -78 -56.5 -131 t-134.5 -53q-59 0 -98 34.5t-39 92.5zM440 1307q0 80 53.5 133t131.5 53q70 0 106.5 -37t36.5 -92q0 -39 -15.5 -73t-42 -58.5t-61.5 -38.5t-74 -14q-59 0 -97 34.5t-38 92.5z" />
<glyph unicode="&#xf1;" horiz-adv-x="1161" d="M45 811q25 39 59.5 78t77.5 69.5t91.5 50t97.5 19.5q70 0 106.5 -46t36.5 -114q0 -20 -6 -56t-15.5 -78t-20.5 -86t-19 -79h20q29 100 67 185.5t85 146t102 94t119 33.5q92 0 142 -57.5t50 -145.5q0 -18 -3 -47.5t-7 -63.5t-9 -67t-9 -55l-54 -281q-6 -35 -12 -72.5 t-6 -66.5q0 -18 9 -30.5t26 -12.5q29 0 61.5 37t55.5 67l20 -36q-25 -41 -56.5 -80t-71.5 -70t-87 -49t-102 -18q-76 0 -120 45t-44 112q0 43 10 108.5t20 125.5l41 215q6 27 13.5 74t7.5 77q0 31 -11.5 50.5t-37.5 19.5q-57 0 -120 -129t-124 -373l-57 -313 q-154 0 -225.5 7t-82.5 13l115 594q6 27 11.5 58.5t10.5 63.5t8 57.5t3 39.5q0 23 -8 37.5t-25 14.5q-12 0 -27.5 -10.5t-31 -26t-29.5 -34t-24 -32.5zM346 1219q80 145 137.5 210.5t124.5 65.5q35 0 73 -13.5t78 -28.5t79 -27.5t75 -12.5q35 0 66 17.5t78 64.5l26 -14 q-76 -145 -132 -211t-126 -66q-35 0 -71.5 12.5t-75.5 28t-78 28.5t-76 13q-41 0 -75.5 -18.5t-75.5 -63.5z" />
<glyph unicode="&#xf2;" horiz-adv-x="1017" d="M20 391q0 127 42 243t116 203t173.5 139t211.5 52q88 0 163 -28.5t128 -81t84 -126t31 -161.5q0 -137 -41 -256t-113 -207t-168 -138t-209 -50q-90 0 -166.5 28.5t-132 82.5t-87.5 130t-32 170zM330 1380q0 27 18.5 55.5t46 53t59 40t56.5 15.5q45 0 61 -49l117 -346 l-24 -19l-302 199q-16 10 -24 24.5t-8 26.5zM346 268q0 -104 19.5 -172.5t74.5 -68.5q43 0 80 69.5t64.5 177t44 235.5t16.5 247q0 100 -17.5 162.5t-68.5 62.5q-43 0 -82 -66.5t-67.5 -171t-46 -230.5t-17.5 -245z" />
<glyph unicode="&#xf3;" horiz-adv-x="1017" d="M20 391q0 127 42 243t116 203t173.5 139t211.5 52q88 0 163 -28.5t128 -81t84 -126t31 -161.5q0 -137 -41 -256t-113 -207t-168 -138t-209 -50q-90 0 -166.5 28.5t-132 82.5t-87.5 130t-32 170zM346 268q0 -104 19.5 -172.5t74.5 -68.5q43 0 80 69.5t64.5 177t44 235.5 t16.5 247q0 100 -17.5 162.5t-68.5 62.5q-43 0 -82 -66.5t-67.5 -171t-46 -230.5t-17.5 -245zM494 1153l213 354q29 41 65 41q25 0 51.5 -16t48 -41t36 -53.5t14.5 -55.5q0 -20 -12.5 -34.5t-30.5 -24.5l-363 -190z" />
<glyph unicode="&#xf4;" horiz-adv-x="1017" d="M20 391q0 127 42 243t116 203t173.5 139t211.5 52q88 0 163 -28.5t128 -81t84 -126t31 -161.5q0 -137 -41 -256t-113 -207t-168 -138t-209 -50q-90 0 -166.5 28.5t-132 82.5t-87.5 130t-32 170zM246 1190l350 301h74l241 -301l-20 -23l-287 125l-344 -125zM346 268 q0 -104 19.5 -172.5t74.5 -68.5q43 0 80 69.5t64.5 177t44 235.5t16.5 247q0 100 -17.5 162.5t-68.5 62.5q-43 0 -82 -66.5t-67.5 -171t-46 -230.5t-17.5 -245z" />
<glyph unicode="&#xf5;" horiz-adv-x="1017" d="M20 391q0 127 42 243t116 203t173.5 139t211.5 52q88 0 163 -28.5t128 -81t84 -126t31 -161.5q0 -137 -41 -256t-113 -207t-168 -138t-209 -50q-90 0 -166.5 28.5t-132 82.5t-87.5 130t-32 170zM256 1219q80 145 137.5 210.5t124.5 65.5q35 0 73 -13.5t78 -28.5 t78.5 -27.5t75.5 -12.5q35 0 66 17.5t78 64.5l26 -14q-76 -145 -132 -211t-126 -66q-35 0 -71.5 12.5t-75.5 28t-78 28.5t-76 13q-41 0 -75.5 -18.5t-75.5 -63.5zM346 268q0 -104 19.5 -172.5t74.5 -68.5q43 0 80 69.5t64.5 177t44 235.5t16.5 247q0 100 -17.5 162.5 t-68.5 62.5q-43 0 -82 -66.5t-67.5 -171t-46 -230.5t-17.5 -245z" />
<glyph unicode="&#xf6;" horiz-adv-x="1017" d="M20 391q0 127 42 243t116 203t173.5 139t211.5 52q88 0 163 -28.5t128 -81t84 -126t31 -161.5q0 -137 -41 -256t-113 -207t-168 -138t-209 -50q-90 0 -166.5 28.5t-132 82.5t-87.5 130t-32 170zM246 1307q0 39 14 72.5t40 59t59.5 40t70.5 14.5q70 0 106.5 -37t36.5 -92 q0 -78 -56 -131t-134 -53q-59 0 -98 34.5t-39 92.5zM346 268q0 -104 19.5 -172.5t74.5 -68.5q43 0 80 69.5t64.5 177t44 235.5t16.5 247q0 100 -17.5 162.5t-68.5 62.5q-43 0 -82 -66.5t-67.5 -171t-46 -230.5t-17.5 -245zM649 1307q0 80 53.5 133t131.5 53q70 0 106.5 -37 t36.5 -92q0 -39 -15.5 -73t-42 -58.5t-61.5 -38.5t-74 -14q-59 0 -97 34.5t-38 92.5z" />
<glyph unicode="&#xf7;" horiz-adv-x="954" d="M57 481v90h824v-90h-824zM391 223q0 47 34 88t83 41q47 0 76.5 -30.5t29.5 -77.5q0 -49 -33.5 -88t-82.5 -39q-47 0 -77 29.5t-30 76.5zM391 815q0 47 34 88t83 41q47 0 76.5 -30.5t29.5 -77.5q0 -49 -33.5 -88t-82.5 -39q-47 0 -77 29.5t-30 76.5z" />
<glyph unicode="&#xf8;" horiz-adv-x="1019" d="M23 391q0 127 41.5 243t115.5 203t173.5 139t211.5 52q72 0 140 -22l114 247l47 -20l-112 -246q98 -47 157.5 -138t59.5 -218q0 -137 -41 -256t-113 -207t-168 -138t-209 -50q-39 0 -73.5 5t-67.5 15l-123 -266l-47 22l121 262q-104 47 -165.5 142.5t-61.5 230.5z M348 231l293 635q-8 53 -26.5 84t-53.5 31q-43 0 -82 -66.5t-67.5 -171t-46 -230.5t-17.5 -245v-37zM358 129q10 -47 29.5 -74.5t54.5 -27.5q43 0 80 69.5t64.5 177t44 235.5t16.5 247z" />
<glyph unicode="&#xf9;" horiz-adv-x="1171" d="M33 811q25 39 59.5 78t77.5 69.5t91 50t99 19.5q72 0 113 -44t41 -112q0 -43 -9 -103t-24 -130l-43 -221q-2 -10 -6 -28.5t-7 -40t-5 -42t-2 -35.5q0 -33 12 -52t39 -19q59 0 119.5 129t124.5 375l55 309q156 0 227.5 -7.5t79.5 -13.5l-110 -592q-4 -27 -10.5 -60.5 t-11.5 -65t-8 -59.5t-3 -42q0 -18 9 -30.5t26 -12.5q12 0 28.5 10.5t31.5 26.5t29.5 33.5t24.5 34.5l23 -37q-25 -41 -57.5 -80t-72.5 -70t-87 -50t-101 -19q-74 0 -116.5 46t-42.5 113q0 23 6 58.5t15 77.5t19.5 85t20.5 78h-20q-29 -96 -68 -180t-86 -145.5t-103.5 -97 t-117.5 -35.5q-92 0 -143.5 56t-51.5 148q0 20 3 50t8.5 63t10.5 63.5t9 55.5l55 282q6 29 11.5 69t5.5 67q0 45 -29 45q-12 0 -28.5 -10.5t-33 -26t-30.5 -33.5t-25 -33zM365 1380q0 27 18 55.5t46 53t59.5 40t56.5 15.5q45 0 61 -49l117 -346l-25 -19l-301 199 q-16 10 -24 24.5t-8 26.5z" />
<glyph unicode="&#xfa;" horiz-adv-x="1171" d="M33 811q25 39 59.5 78t77.5 69.5t91 50t99 19.5q72 0 113 -44t41 -112q0 -43 -9 -103t-24 -130l-43 -221q-2 -10 -6 -28.5t-7 -40t-5 -42t-2 -35.5q0 -33 12 -52t39 -19q59 0 119.5 129t124.5 375l55 309q156 0 227.5 -7.5t79.5 -13.5l-110 -592q-4 -27 -10.5 -60.5 t-11.5 -65t-8 -59.5t-3 -42q0 -18 9 -30.5t26 -12.5q12 0 28.5 10.5t31.5 26.5t29.5 33.5t24.5 34.5l23 -37q-25 -41 -57.5 -80t-72.5 -70t-87 -50t-101 -19q-74 0 -116.5 46t-42.5 113q0 23 6 58.5t15 77.5t19.5 85t20.5 78h-20q-29 -96 -68 -180t-86 -145.5t-103.5 -97 t-117.5 -35.5q-92 0 -143.5 56t-51.5 148q0 20 3 50t8.5 63t10.5 63.5t9 55.5l55 282q6 29 11.5 69t5.5 67q0 45 -29 45q-12 0 -28.5 -10.5t-33 -26t-30.5 -33.5t-25 -33zM557 1153l213 354q29 41 66 41q25 0 51 -16t47.5 -41t36 -53.5t14.5 -55.5q0 -20 -12 -34.5 t-31 -24.5l-362 -190z" />
<glyph unicode="&#xfb;" horiz-adv-x="1171" d="M33 811q25 39 59.5 78t77.5 69.5t91 50t99 19.5q72 0 113 -44t41 -112q0 -43 -9 -103t-24 -130l-43 -221q-2 -10 -6 -28.5t-7 -40t-5 -42t-2 -35.5q0 -33 12 -52t39 -19q59 0 119.5 129t124.5 375l55 309q156 0 227.5 -7.5t79.5 -13.5l-110 -592q-4 -27 -10.5 -60.5 t-11.5 -65t-8 -59.5t-3 -42q0 -18 9 -30.5t26 -12.5q12 0 28.5 10.5t31.5 26.5t29.5 33.5t24.5 34.5l23 -37q-25 -41 -57.5 -80t-72.5 -70t-87 -50t-101 -19q-74 0 -116.5 46t-42.5 113q0 23 6 58.5t15 77.5t19.5 85t20.5 78h-20q-29 -96 -68 -180t-86 -145.5t-103.5 -97 t-117.5 -35.5q-92 0 -143.5 56t-51.5 148q0 20 3 50t8.5 63t10.5 63.5t9 55.5l55 282q6 29 11.5 69t5.5 67q0 45 -29 45q-12 0 -28.5 -10.5t-33 -26t-30.5 -33.5t-25 -33zM324 1190l350 301h74l241 -301l-20 -23l-287 125l-344 -125z" />
<glyph unicode="&#xfc;" horiz-adv-x="1171" d="M33 811q25 39 59.5 78t77.5 69.5t91 50t99 19.5q72 0 113 -44t41 -112q0 -43 -9 -103t-24 -130l-43 -221q-2 -10 -6 -28.5t-7 -40t-5 -42t-2 -35.5q0 -33 12 -52t39 -19q59 0 119.5 129t124.5 375l55 309q156 0 227.5 -7.5t79.5 -13.5l-110 -592q-4 -27 -10.5 -60.5 t-11.5 -65t-8 -59.5t-3 -42q0 -18 9 -30.5t26 -12.5q12 0 28.5 10.5t31.5 26.5t29.5 33.5t24.5 34.5l23 -37q-25 -41 -57.5 -80t-72.5 -70t-87 -50t-101 -19q-74 0 -116.5 46t-42.5 113q0 23 6 58.5t15 77.5t19.5 85t20.5 78h-20q-29 -96 -68 -180t-86 -145.5t-103.5 -97 t-117.5 -35.5q-92 0 -143.5 56t-51.5 148q0 20 3 50t8.5 63t10.5 63.5t9 55.5l55 282q6 29 11.5 69t5.5 67q0 45 -29 45q-12 0 -28.5 -10.5t-33 -26t-30.5 -33.5t-25 -33zM315 1307q0 39 14.5 72.5t40 59t59.5 40t71 14.5q70 0 106.5 -37t36.5 -92q0 -78 -56.5 -131 t-133.5 -53q-59 0 -98.5 34.5t-39.5 92.5zM719 1307q0 80 53 133t131 53q70 0 107 -37t37 -92q0 -39 -15.5 -73t-42 -58.5t-61.5 -38.5t-74 -14q-59 0 -97 34.5t-38 92.5z" />
<glyph unicode="&#xfd;" horiz-adv-x="927" d="M-147 -276q0 27 7 53t19 48.5t28.5 37t35.5 18.5q27 -2 59.5 -11t67 -23.5t68.5 -30t59 -29.5q31 25 78 75t85 111l-170 734q-20 86 -33.5 119.5t-31.5 33.5q-23 0 -52.5 -31.5t-52.5 -66.5l-22 37q27 45 63.5 86t77.5 72.5t86 51t88 19.5q66 0 104 -50t64 -181l105 -541 q47 63 100 150.5t76 171.5q-2 33 -23.5 72.5t-47 82.5t-48 86t-27.5 80q2 23 16.5 45.5t34 41t45 30.5t54.5 12q33 0 62.5 -16.5t51 -42t35 -59t13.5 -70.5q0 -80 -49.5 -190.5t-125 -232.5t-168.5 -246t-179 -230q-131 -160 -231.5 -246t-197.5 -86q-57 0 -90.5 30.5 t-33.5 84.5zM467 1153l213 354q29 41 65 41q25 0 51.5 -16t48 -41t36 -53.5t14.5 -55.5q0 -20 -12.5 -34.5t-30.5 -24.5l-363 -190z" />
<glyph unicode="&#xff;" horiz-adv-x="927" d="M-147 -276q0 27 7 53t19 48.5t28.5 37t35.5 18.5q27 -2 59.5 -11t67 -23.5t68.5 -30t59 -29.5q31 25 78 75t85 111l-170 734q-20 86 -33.5 119.5t-31.5 33.5q-23 0 -52.5 -31.5t-52.5 -66.5l-22 37q27 45 63.5 86t77.5 72.5t86 51t88 19.5q66 0 104 -50t64 -181l105 -541 q47 63 100 150.5t76 171.5q-2 33 -23.5 72.5t-47 82.5t-48 86t-27.5 80q2 23 16.5 45.5t34 41t45 30.5t54.5 12q33 0 62.5 -16.5t51 -42t35 -59t13.5 -70.5q0 -80 -49.5 -190.5t-125 -232.5t-168.5 -246t-179 -230q-131 -160 -231.5 -246t-197.5 -86q-57 0 -90.5 30.5 t-33.5 84.5zM201 1307q0 39 14 72.5t40 59t59.5 40t70.5 14.5q70 0 106.5 -37t36.5 -92q0 -78 -56 -131t-134 -53q-59 0 -98 34.5t-39 92.5zM604 1307q0 80 53 133t131 53q70 0 107 -37t37 -92q0 -39 -15.5 -73t-42 -58.5t-61.5 -38.5t-74 -14q-59 0 -97 34.5t-38 92.5z" />
<glyph unicode="&#x152;" horiz-adv-x="1873" d="M65.5 365q-28.5 127 0.5 288q27 156 102.5 283t179 217t226 138t245.5 48q61 0 146.5 -13t156.5 -17h772l13 -15q-10 -43 -22.5 -92t-27 -99t-27.5 -96t-24 -81h-30q-35 139 -69 209.5t-73 113.5q-72 10 -154.5 13.5t-136.5 3.5l-100 -580l96 4q74 2 111 12.5t61 32.5 l82 142l33 -3q-18 -84 -28.5 -139t-14.5 -76q-4 -20 -8 -49.5t-9 -63.5t-10.5 -69t-9.5 -63l-37 -2l-24 180q-16 27 -49 37t-105 12l-96 2l-55 -317q-14 -80 -19.5 -133.5t0.5 -85t22.5 -45t47.5 -15.5h59q53 0 98.5 17.5t96.5 60.5t113.5 116.5t152.5 188.5l31 -4 q-10 -47 -24.5 -104.5t-32 -116t-34 -111.5t-28.5 -94h-799q-31 0 -67.5 -4t-74.5 -10t-74 -10.5t-66 -4.5q-129 0 -236.5 46t-179.5 133.5t-100.5 214.5zM384.5 443.5q-5.5 -113.5 11 -208t63.5 -156t133 -61.5q45 0 109.5 26t111.5 71q8 27 17.5 72.5t23.5 123.5l121 686 q18 109 24.5 158t1.5 72q-35 29 -88 48t-100 19q-86 0 -152.5 -59t-116.5 -151.5t-84 -205t-52 -219.5q-18 -102 -23.5 -215.5z" />
<glyph unicode="&#x153;" horiz-adv-x="1464" d="M23 395q0 129 43 244t116.5 202t172 137t210.5 50q102 0 166 -39t98 -104q70 66 153 104.5t171 38.5q61 0 117.5 -11t98.5 -35t66.5 -60.5t24.5 -90.5q0 -66 -37 -111.5t-105.5 -76.5t-164.5 -47t-215 -23q-2 -23 -3 -44t-1 -31q0 -49 10 -98.5t32.5 -88.5t58.5 -63.5 t87 -24.5q70 0 131.5 26.5t108.5 63.5l22 -24q-47 -141 -144 -225t-251 -84q-92 0 -162.5 32.5t-117.5 91.5q-53 -59 -122 -91.5t-151 -32.5q-90 0 -165.5 29.5t-131 85t-86 132t-30.5 168.5zM348 276q0 -45 4 -90t15.5 -79.5t29 -57t45.5 -22.5q43 0 80 71.5t64.5 180 t43 236.5t15.5 241q0 41 -4 82t-13.5 72.5t-26.5 51t-42 19.5q-43 0 -81 -67.5t-67.5 -171t-46 -228.5t-16.5 -238zM942 610q125 23 182.5 98.5t57.5 174.5q0 43 -14.5 73.5t-43.5 30.5q-33 0 -61.5 -28.5t-52 -80t-41 -120t-27.5 -148.5z" />
<glyph unicode="&#x178;" horiz-adv-x="1112" d="M100 1270q-2 10 0 21.5t4 17.5h588q-2 -10 -5 -21.5t-7 -17.5l-92 -8q-16 -4 -22.5 -13.5t-8.5 -23.5q0 -27 18 -78l144 -467l227 375q25 39 43.5 81t18.5 64q0 20 -5.5 33.5t-23.5 23.5l-123 13q0 23 4 39h402q-4 -23 -13 -37l-75 -19q-37 -23 -77 -68.5t-98 -135.5 l-262 -406l-57 -342l-19.5 -117t-9.5 -71.5t2 -39t11 -18.5l139 -14q0 -10 -1 -22.5t-1 -18.5h-670q2 10 4 22.5t6 18.5l144 14q10 8 18 20.5t15.5 38t16.5 70.5t21 117l54 285l-172 528q-23 66 -41.5 96.5t-40.5 44.5zM348 1599q10 66 59.5 114t127.5 48q74 0 111.5 -47 t25.5 -115q-10 -76 -69.5 -114.5t-125.5 -38.5t-103.5 42t-25.5 111zM825 1599q12 66 63.5 114t127.5 48q74 0 110.5 -46t24.5 -116q-12 -74 -68.5 -113.5t-121.5 -39.5q-70 0 -109 44t-27 109z" />
<glyph unicode="&#x2c6;" horiz-adv-x="819" d="M285 1190l350 301h74l241 -301l-20 -23l-287 125l-344 -125z" />
<glyph unicode="&#x2dc;" horiz-adv-x="819" d="M279 1219q80 145 137 210.5t125 65.5q35 0 72.5 -13.5t77.5 -28.5t79 -27.5t76 -12.5q35 0 65.5 17.5t77.5 64.5l27 -14q-76 -145 -132.5 -211t-125.5 -66q-35 0 -72 12.5t-76 28t-77.5 28.5t-75.5 13q-41 0 -76 -18.5t-76 -63.5z" />
<glyph unicode="&#x2000;" horiz-adv-x="912" />
<glyph unicode="&#x2001;" horiz-adv-x="1825" />
<glyph unicode="&#x2002;" horiz-adv-x="912" />
<glyph unicode="&#x2003;" horiz-adv-x="1825" />
<glyph unicode="&#x2004;" horiz-adv-x="608" />
<glyph unicode="&#x2005;" horiz-adv-x="456" />
<glyph unicode="&#x2006;" horiz-adv-x="304" />
<glyph unicode="&#x2007;" horiz-adv-x="304" />
<glyph unicode="&#x2008;" horiz-adv-x="228" />
<glyph unicode="&#x2009;" horiz-adv-x="365" />
<glyph unicode="&#x200a;" horiz-adv-x="101" />
<glyph unicode="&#x2010;" horiz-adv-x="727" d="M74 610l547 29l10 -211l-547 -29z" />
<glyph unicode="&#x2011;" horiz-adv-x="727" d="M74 610l547 29l10 -211l-547 -29z" />
<glyph unicode="&#x2012;" horiz-adv-x="727" d="M74 610l547 29l10 -211l-547 -29z" />
<glyph unicode="&#x2013;" horiz-adv-x="1212" d="M78 481l14 90h1024l-14 -90h-1024z" />
<glyph unicode="&#x2014;" horiz-adv-x="2031" d="M78 481l14 90h1843l-14 -90h-1843z" />
<glyph unicode="&#x2018;" horiz-adv-x="425" d="M111 973q0 63 29.5 120.5t79.5 107.5t115.5 94t137.5 79l14 -28q-76 -43 -129 -93.5t-53 -91.5q0 -27 13.5 -42t64.5 -44q41 -20 55.5 -36.5t14.5 -43.5q0 -29 -14.5 -60.5t-38 -60t-54.5 -47t-63 -18.5q-72 0 -122 46t-50 118z" />
<glyph unicode="&#x2019;" horiz-adv-x="425" d="M123 821q76 41 129 92.5t53 92.5q0 27 -13 42t-65 44q-41 20 -55 36.5t-14 42.5q0 27 14 60t37.5 61.5t54.5 47t64 18.5q72 0 122 -46t50 -118q0 -63 -30 -120.5t-80 -108t-115.5 -94.5t-137.5 -78z" />
<glyph unicode="&#x201a;" horiz-adv-x="450" d="M-61 -272q76 41 129 92t53 92q0 27 -13.5 42t-64.5 44q-41 20 -55.5 36.5t-14.5 43.5t14.5 59.5t38 61t54.5 47t63 18.5q72 0 122 -46t50 -118q0 -63 -29.5 -120.5t-79.5 -107.5t-115.5 -94t-137.5 -79z" />
<glyph unicode="&#x201c;" horiz-adv-x="837" d="M111 973q0 63 29.5 120.5t79.5 107.5t115.5 94t137.5 79l14 -28q-76 -43 -129 -93.5t-53 -91.5q0 -27 13.5 -42t64.5 -44q41 -20 55.5 -36.5t14.5 -43.5q0 -29 -14.5 -60.5t-38 -60t-54.5 -47t-63 -18.5q-72 0 -122 46t-50 118zM522 973q0 63 30 120.5t80 107.5t115.5 94 t137.5 79l14 -28q-76 -43 -129 -93.5t-53 -91.5q0 -27 13 -42t65 -44q41 -20 55 -36.5t14 -43.5q0 -29 -14 -60.5t-38 -60t-54.5 -47t-63.5 -18.5q-72 0 -122 46t-50 118z" />
<glyph unicode="&#x201d;" horiz-adv-x="835" d="M123 821q76 41 129 92.5t53 92.5q0 27 -13 42t-65 44q-41 20 -55 36.5t-14 42.5q0 27 14 60t37.5 61.5t54.5 47t64 18.5q72 0 122 -46t50 -118q0 -63 -30 -120.5t-80 -108t-115.5 -94.5t-137.5 -78zM530 821q76 41 129.5 92.5t53.5 92.5q0 27 -13.5 42t-64.5 44 q-41 20 -55.5 36.5t-14.5 42.5q0 27 14.5 60t38 61.5t54 47t63.5 18.5q72 0 122 -46t50 -118q0 -63 -29.5 -120.5t-79.5 -108t-116 -94.5t-137 -78z" />
<glyph unicode="&#x201e;" horiz-adv-x="862" d="M-61 -272q76 41 129 92t53 92q0 27 -13.5 42t-64.5 44q-41 20 -55.5 36.5t-14.5 43.5t14.5 59.5t38 61t54.5 47t63 18.5q72 0 122 -46t50 -118q0 -63 -29.5 -120.5t-79.5 -107.5t-115.5 -94t-137.5 -79zM348 -272q76 41 129 92t53 92q0 27 -13 42t-64 44 q-41 20 -55.5 36.5t-14.5 43.5t14.5 59.5t38 61t54 47t63.5 18.5q72 0 122 -46t50 -118q0 -63 -29.5 -120.5t-80 -107.5t-116 -94t-137.5 -79z" />
<glyph unicode="&#x2022;" horiz-adv-x="741" d="M76 686q0 72 20.5 135.5t62.5 110.5t107.5 74.5t155.5 27.5q76 0 130 -21.5t90 -59.5t52.5 -90t16.5 -111q0 -72 -20.5 -134.5t-62.5 -109.5t-106.5 -74.5t-154.5 -27.5q-78 0 -132.5 21.5t-90 59t-52 89t-16.5 110.5z" />
<glyph unicode="&#x2026;" horiz-adv-x="1421" d="M-16 127q0 45 16 86t44 72.5t64.5 50t75.5 18.5q78 0 124 -46t46 -122q0 -47 -16 -88t-44 -70.5t-64.5 -46t-75.5 -16.5q-74 0 -122 42t-48 120zM457 127q0 45 16 86t44 72.5t63.5 50t74.5 18.5q78 0 124 -46t46 -122q0 -47 -16 -88t-44 -70.5t-64.5 -46t-75.5 -16.5 q-72 0 -120 42t-48 120zM928 127q0 45 16.5 86t44 72.5t63 50t76.5 18.5q78 0 123 -46t45 -122q0 -47 -16 -88t-44 -70.5t-63.5 -46t-74.5 -16.5q-74 0 -122 42t-48 120z" />
<glyph unicode="&#x202f;" horiz-adv-x="365" />
<glyph unicode="&#x2039;" horiz-adv-x="575" d="M-20 485l4 27l573 438l29 -24l-283 -424l133 -426l-35 -25z" />
<glyph unicode="&#x203a;" horiz-adv-x="575" d="M-37 76l283 424l-133 426l34 24l422 -434l-4 -27l-573 -438z" />
<glyph unicode="&#x205f;" horiz-adv-x="456" />
<glyph unicode="&#x20ac;" horiz-adv-x="1087" d="M23 489l6 48h92q0 59 9 115.5t26 109.5h-86l8 47h92q39 111 104.5 205t145.5 162.5t169 106.5t179 38q109 0 191.5 -13.5t136.5 -23.5l14 -14q-10 -49 -21.5 -104.5t-24.5 -110t-25.5 -102.5t-22.5 -83h-37q-31 156 -66.5 257.5t-58.5 136.5q-25 8 -52.5 11t-43.5 3 q-35 0 -71 -37t-69.5 -99.5t-63.5 -148.5t-52 -184h391l-10 -47h-391q-12 -55 -20.5 -111.5t-14.5 -113.5h325l-8 -48h-321q-2 -35 -3 -67.5t-1 -67.5q0 -334 137 -334q10 0 23.5 2.5t23.5 4.5q31 27 70.5 77t82.5 110t84 124.5t74 118.5l37 -11q-10 -45 -24.5 -98 t-31 -108.5t-32.5 -106.5t-29 -90q-72 -35 -152.5 -51.5t-138.5 -16.5q-221 0 -333.5 138.5t-118.5 375.5h-98z" />
<glyph unicode="&#x2122;" horiz-adv-x="1716" d="M162 1057q0 31 1 64.5t2 67.5t3 65.5t4 54.5h592q6 -78 9 -147.5t3 -104.5h-20l-105 200q-27 20 -69 21h-23v-453q0 -70 3 -97.5t20 -37.5l67 -10v-31h-362v31l65 8q16 12 20.5 39t4.5 98v453h-27q-39 0 -67 -21l-97 -200h-24zM831 649v31l50 6q16 10 21 37t5 92v334 q0 53 -4 82t-20 41l-52 8v29h263l159 -420l97 268q10 31 21 77t18 75h274v-29l-57 -10q-10 -10 -13.5 -35t-3.5 -74v-354q0 -53 2 -81t19 -38l53 -8v-31h-328v31l47 4q18 10 21.5 38t3.5 81v403l-199 -563h-34l-226 551v-379q0 -61 4 -90t19 -39l63 -6v-31h-203z" />
<glyph unicode="&#x25fc;" horiz-adv-x="1024" d="M0 0v1024h1024v-1024h-1024z" />
</font>
</defs>
</svg>
