<?xml version="1.0" standalone="no"?>
<!DOCTYPE svg PUBLIC "-//W3C//DTD SVG 1.1//EN" "http://www.w3.org/Graphics/SVG/1.1/DTD/svg11.dtd" >
<svg xmlns="http://www.w3.org/2000/svg">
<metadata></metadata>
<defs>
<font id="_.uploaded_file" horiz-adv-x="1050" >
<font-face units-per-em="2048" ascent="1536" descent="-512" />
<missing-glyph horiz-adv-x="473" />
<glyph horiz-adv-x="0" />
<glyph horiz-adv-x="0" />
<glyph unicode="&#xd;" horiz-adv-x="473" />
<glyph unicode=" "  horiz-adv-x="473" />
<glyph unicode="&#x09;" horiz-adv-x="473" />
<glyph unicode="&#xa0;" horiz-adv-x="473" />
<glyph unicode="!" horiz-adv-x="602" d="M61 123q0 37 14.5 71.5t39 62.5t57.5 45t70 17q72 0 115.5 -47t43.5 -118q0 -35 -14 -70t-39.5 -61.5t-58.5 -43t-70 -16.5q-72 0 -115 44t-43 116zM217 1178q2 70 55.5 123t139.5 53q80 0 126 -38t46 -110q0 -33 -26 -116.5t-65.5 -193.5t-88 -230.5t-91.5 -225.5h-90 q-4 340 -5 519.5t-1 218.5z" />
<glyph unicode="&#x22;" horiz-adv-x="827" d="M166 1225q2 53 45 94t129 41q74 0 101.5 -30t27.5 -77q0 -18 -19.5 -70.5t-49 -117t-62.5 -131t-57 -111.5h-76q-8 45 -15.5 107.5t-12.5 123t-8 107.5t-3 64zM582 1225q2 53 45 94t129 41q74 0 101.5 -30t27.5 -77q0 -18 -19.5 -70.5t-49.5 -117t-62.5 -131 t-57.5 -111.5h-75q-8 45 -15.5 107.5t-12.5 123t-8 107.5t-3 64z" />
<glyph unicode="#" horiz-adv-x="1189" d="M86 342v127h213l49 360h-227v127h246l45 342h137l-45 -342h299l45 342h139l-47 -342h190v-127h-206l-47 -360h213v-127h-234l-47 -342h-139l49 342h-301l-47 -342h-138l48 342h-195zM436 469h299l51 360h-303z" />
<glyph unicode="$" horiz-adv-x="958" d="M-10 37q6 86 15 169t15 130l86 8q18 -98 44 -160.5t43 -85.5q25 -10 58.5 -16t67.5 -8l80 327l-39 15q-166 57 -225 138t-39 204q12 76 57.5 137t111 105t144 70t160.5 30l62 252h90l-62 -254q80 -4 150 -12.5t123 -24.5q0 -31 -3 -70t-8.5 -81t-10.5 -83t-9 -73l-84 -9 q-20 104 -40.5 160t-33.5 70q-41 18 -108 22l-82 -331l16 -4q166 -57 238 -133t49 -214q-12 -78 -56 -140t-108.5 -107t-143.5 -71t-165 -28l-64 -264h-90l64 266q-84 6 -163 22.5t-140 43.5zM375 836q-10 -51 13.5 -81t82.5 -57l72 297q-63 -12 -110.5 -54t-57.5 -105z M410 78q61 14 107 55t56 100q8 47 -12 77t-80 59z" />
<glyph unicode="%" horiz-adv-x="1538" d="M53 -115l1143 1127q-55 -33 -134 -61.5t-179 -28.5q-61 0 -115.5 17t-95.5 40q14 -25 20 -54.5t6 -58.5q0 -66 -21.5 -122t-60 -99t-94 -67.5t-123.5 -24.5q-61 0 -115.5 16.5t-96.5 48t-65.5 77.5t-23.5 106q0 70 30 128t79 99t112.5 63.5t131.5 22.5q84 0 149 -49 q35 -12 118 -34.5t183 -22.5q76 0 144.5 14t122 32.5t87 35t39.5 20.5l2 2l60 -68l-1235 -1232zM332 768q0 -53 24.5 -95t71.5 -42q39 0 68.5 24.5t50 62.5t32 84t11.5 89q0 63 -29 104t-82 41q-33 0 -59.5 -22.5t-46 -59t-30.5 -85t-11 -101.5zM786 145q0 70 31 129.5 t82 101.5t114.5 65.5t131.5 23.5q57 0 106 -18.5t85 -52.5t56.5 -80t20.5 -103q0 -68 -25.5 -124t-68.5 -98t-100.5 -64.5t-120.5 -22.5q-68 0 -124 17.5t-98 49t-66 76.5t-24 100zM1018 117q0 -53 25.5 -94t72.5 -41q39 0 68.5 23.5t50 61t31 83t10.5 88.5q0 61 -27.5 104 t-81.5 43q-33 0 -60.5 -22.5t-47 -59.5t-30.5 -86t-11 -100z" />
<glyph unicode="&#x26;" horiz-adv-x="1411" d="M-8 299q0 86 32.5 156.5t89 125t133.5 90.5t165 52q-33 66 -52.5 128t-19.5 134q0 80 36 147.5t95 115.5t139 76t170 28q82 0 149.5 -21.5t117 -59.5t77 -88t27.5 -108q0 -68 -30.5 -122t-84 -96t-125 -74.5t-153.5 -57.5q14 -37 35.5 -82t44 -91t44 -89t38.5 -76 q27 104 55.5 174t59 112t66.5 60.5t79 18.5q68 0 120 -15.5t74 -31.5l-10 -74q-35 -8 -68.5 -25.5t-79 -53.5t-104.5 -92.5t-145 -144.5q35 -74 67.5 -108.5t73.5 -34.5q16 0 36.5 8t40 19.5t35 25t25.5 23.5l43 -82q-29 -33 -66.5 -65.5t-84.5 -60.5t-99.5 -45.5 t-107.5 -17.5q-41 0 -72 7.5t-57.5 24t-51 43t-51.5 65.5q-70 -63 -150.5 -101.5t-191.5 -38.5q-78 0 -144.5 25t-115.5 68t-76.5 101t-27.5 128zM301 369q0 -96 53.5 -163t145.5 -67q43 0 84 18.5t65 39.5q-25 43 -51.5 98t-54 114.5t-53 119t-46.5 112.5 q-55 -29 -99 -97.5t-44 -174.5zM639 1079q0 -53 19.5 -120.5t64.5 -153.5q84 39 137 116.5t53 174.5q0 72 -35.5 118t-93.5 46q-61 0 -103 -52.5t-42 -128.5z" />
<glyph unicode="'" horiz-adv-x="411" d="M166 1225q2 53 45 94t129 41q74 0 101.5 -30t27.5 -77q0 -18 -19.5 -70.5t-49 -117t-62.5 -131t-57 -111.5h-76q-8 45 -15.5 107.5t-12.5 123t-8 107.5t-3 64z" />
<glyph unicode="(" horiz-adv-x="671" d="M16.5 230.5q-12.5 146.5 14.5 297.5q27 150 86 294.5t151 275.5t217 242.5t281 197.5l47 -78q-106 -84 -183 -186.5t-132.5 -220t-91 -247.5t-60.5 -269q-25 -143 -36 -277.5t1.5 -255.5t53.5 -227.5t120 -194.5l-57 -71q-123 84 -211 196.5t-138 244.5t-62.5 278.5z" />
<glyph unicode=")" horiz-adv-x="673" d="M-162 -414q106 82 183 185.5t132.5 221.5t91.5 248t60 269q25 143 36 277.5t-1 255t-53 227t-121 194.5l57 72q123 -84 211 -196.5t138.5 -244.5t62.5 -278.5t-14 -298.5q-27 -150 -87.5 -294t-152.5 -275t-216 -243t-280 -198z" />
<glyph unicode="*" horiz-adv-x="866" d="M115 969q0 57 33.5 92t82.5 31q41 -4 92.5 -33t137.5 -66q-61 72 -101.5 113t-56.5 80q-16 37 0 84t78 65q55 16 97 -6t54 -69q10 -39 -2 -99.5t-18 -148.5q49 86 76.5 135t56.5 72q33 29 82 27.5t86 -52.5q33 -47 22.5 -95t-49.5 -73q-35 -23 -96 -29t-145 -28 q84 -23 145.5 -32t91.5 -32q35 -23 48.5 -67.5t-21.5 -96.5q-35 -47 -84 -52t-84 24q-33 27 -58.5 83t-72.5 132q4 -84 15.5 -146.5t0.5 -103.5q-6 -18 -18 -36.5t-31.5 -31t-45 -15.5t-56.5 7q-53 18 -73.5 63.5t-4.5 88.5q16 37 62.5 78.5t103.5 111.5 q-82 -35 -138.5 -62.5t-95.5 -27.5q-47 0 -80.5 28.5t-33.5 86.5zM469 946l41 -12l25 35l-27 35l-39 -17v-41z" />
<glyph unicode="+" horiz-adv-x="1036" d="M53 446v134h379v376h148v-376h374v-134h-374v-376h-148v376h-379z" />
<glyph unicode="," horiz-adv-x="507" d="M-51 -213q35 23 67.5 47.5t57 49t40 47t15.5 40.5q0 23 -12.5 37.5t-59.5 34.5q-66 31 -65 76q0 37 16.5 73.5t43 65.5t59 46.5t65.5 17.5q35 0 67.5 -14.5t58.5 -39t41 -57.5t15 -70q0 -123 -99 -233.5t-273 -196.5z" />
<glyph unicode="-" horiz-adv-x="772" d="M84 625l569 28l11 -233l-568 -29z" />
<glyph unicode="." horiz-adv-x="487" d="M-2 127q0 37 14.5 73t39 63.5t57 45t71.5 17.5q74 0 118 -47.5t44 -118.5q0 -37 -14.5 -72t-40 -62.5t-59 -44t-70.5 -16.5q-72 0 -116 45t-44 117z" />
<glyph unicode="/" horiz-adv-x="911" d="M-139 -346l1011 1896l115 -55l-1014 -1898z" />
<glyph unicode="0" horiz-adv-x="1169" d="M55 432q0 115 46 226.5t124 198.5t181.5 140.5t218.5 53.5q94 0 179 -34t147.5 -93.5t99 -144.5t36.5 -185q0 -111 -43 -221.5t-118.5 -197.5t-181 -142.5t-230.5 -55.5q-94 0 -178 32t-146.5 91.5t-98.5 143.5t-36 188zM358 348q0 -53 7.5 -103t24 -89t45 -62.5 t71.5 -23.5q63 0 115.5 61.5t88 152.5t55 197.5t19.5 196.5q0 55 -8 105.5t-26.5 89t-47 61t-71.5 22.5q-61 0 -111.5 -60t-86.5 -151.5t-55.5 -198t-19.5 -198.5z" />
<glyph unicode="1" horiz-adv-x="772" d="M-35 0q6 31 12.5 53.5t10.5 32.5l166 23q8 6 16 19t15.5 42t17.5 79t24 132l23 121q6 31 14 76t17.5 90t17.5 84t14 57q-16 -4 -42.5 -8t-56.5 -9.5t-59.5 -8.5t-50.5 -5l-2 74q47 23 103.5 49.5t116 53t119 51t114.5 45.5l82 -15q-6 -33 -19.5 -99.5t-28 -140 t-27.5 -140t-19 -101.5l-29 -172q-14 -84 -22.5 -134t-11.5 -79t-2 -42t7 -19l146 -23q-2 -16 -4 -42t-6 -44h-656z" />
<glyph unicode="2" horiz-adv-x="1017" d="M-20 70q20 14 61 43.5t89 64.5t98.5 74t90.5 72q139 111 201 185.5t62 149.5q0 78 -53.5 120t-131.5 42q-74 0 -144.5 -32.5t-129.5 -67.5l-23 74q37 53 84 100t103.5 83t120 56.5t135.5 20.5q70 0 132 -20.5t108 -58.5t74 -91.5t28 -116.5q0 -66 -27 -122t-80 -110.5 t-136 -111.5t-196 -121l-133 -80h353q16 2 31.5 11.5t35 28t45 48t62.5 76.5l75 -8q-10 -43 -26.5 -97.5t-33.5 -107.5t-33.5 -100t-28.5 -74h-568q-82 0 -141 -2t-94 -6z" />
<glyph unicode="3" horiz-adv-x="1044" d="M-98 -223q0 29 13 61.5t32.5 62t42 52t41.5 33.5q41 -8 81 -41t77.5 -73t73.5 -78t71 -56q47 4 94 29.5t84 67.5t60.5 98.5t23.5 121.5q0 59 -26.5 104.5t-69.5 75t-97.5 45t-109.5 15.5q-27 0 -62.5 -3t-62.5 -7l-6 94q96 27 181 56.5t149.5 63t101.5 73.5t37 87 q0 80 -58.5 122t-150.5 42q-78 0 -160 -28.5t-156 -69.5l-28 63q88 117 215 190t276 73q70 0 134.5 -18.5t114.5 -53.5t80 -86t30 -115q0 -121 -88 -196.5t-244 -124.5v-11q66 -14 121 -39.5t96 -64.5t64.5 -93t23.5 -124q0 -111 -54 -200t-137 -151.5t-185.5 -96 t-196.5 -33.5q-90 0 -168 10t-135.5 27.5t-90 42t-32.5 53.5z" />
<glyph unicode="4" horiz-adv-x="1048" d="M-61 78q143 238 278 458t256 386q59 82 113.5 107.5t132.5 25.5q45 0 95 -9.5t69 -17.5l-11 -63q-61 -55 -153 -145.5t-198.5 -201t-220.5 -235.5t-218 -252h438l47 287q53 25 110.5 44t119.5 27l51 -8l-55 -350h151l-20 -113h-152l-55 -340h-273l56 340h-555z" />
<glyph unicode="5" horiz-adv-x="1046" d="M-63 -236q0 23 11 53.5t28.5 59.5t39 52.5t43.5 33.5q41 -6 81 -37.5t77 -70.5t71 -74t64 -49q47 8 92 30.5t80 57.5t56.5 84t21.5 110q0 102 -78 165t-213 63q-57 0 -113.5 -9.5t-78.5 -19.5l-72 23q29 113 46.5 191.5t21.5 111.5l67 479l21 10q236 -18 377 -25.5 t186 -7.5q33 0 55.5 5.5t43 20.5t42 44t51.5 76l76 -19q-29 -135 -56.5 -215t-57 -122t-61.5 -55t-71 -13q-43 0 -110.5 4t-143 9t-152.5 12.5t-138 13.5l-33 -219l-14 -56q72 16 134 22.5t93 6.5q98 0 183 -23.5t148.5 -69.5t100.5 -112.5t37 -154.5q0 -115 -53.5 -209.5 t-135 -160t-181 -101t-193.5 -35.5q-84 0 -156 7t-125 22.5t-82.5 38t-29.5 52.5z" />
<glyph unicode="6" horiz-adv-x="1079" d="M47 397q0 190 64.5 348t184.5 278t291 200t382 116q14 -27 21 -46t9 -29q-225 -92 -370.5 -214t-214.5 -311q39 27 101.5 51.5t121.5 24.5q168 0 264 -97t96 -261q0 -117 -44 -207t-116.5 -150.5t-165.5 -91.5t-190 -31q-92 0 -172 31t-138 86.5t-91 132t-33 170.5z M332 332q0 -111 39 -183.5t116 -72.5q45 0 83 31.5t67 85t45 124t16 148.5q0 92 -36.5 155.5t-112.5 63.5q-45 0 -91 -12.5t-73 -30.5q-10 -18 -19.5 -54t-17.5 -79t-12 -89t-4 -87z" />
<glyph unicode="7" horiz-adv-x="1001" d="M31 582q33 123 60.5 207.5t53 137t54 75t63.5 22.5q51 0 127 -4t160 -10t167 -10.5t150 -4.5q10 0 29.5 7.5t43.5 19.5t48.5 25.5t46.5 25.5l45 -59q-139 -160 -254.5 -317.5t-200.5 -293t-136.5 -239t-59.5 -154.5q-2 -33 13.5 -69.5t34 -74.5t33.5 -73t13 -61 q-31 -47 -82 -67.5t-114 -20.5q-53 0 -87 25.5t-34 76.5t23.5 123t62.5 157t91 177t110.5 183t119 177t117.5 160q-174 12 -277.5 17t-136.5 5t-56 -6t-43.5 -25.5t-44.5 -54t-56 -90.5z" />
<glyph unicode="8" horiz-adv-x="1155" d="M47 289q0 66 32 121t79 99t104 76.5t109 51.5q-109 78 -161 142.5t-52 154.5q0 92 46 166t118.5 126t164 80.5t183.5 28.5q88 0 164.5 -19.5t134 -56t90.5 -88t33 -114.5q0 -84 -38 -144.5t-87 -102.5t-95.5 -65.5t-64.5 -31.5q111 -72 173 -139.5t62 -157.5 q0 -117 -48 -200t-125.5 -136t-177 -78t-199.5 -25q-90 0 -170 18.5t-141.5 56.5t-97.5 96.5t-36 140.5zM279 279q0 -92 58 -150.5t150 -58.5q51 0 96.5 14t79 44t54 76t20.5 107q0 39 -16 72t-51 64.5t-93.5 67.5t-140.5 83q-29 -27 -57.5 -60.5t-51 -74.5t-35.5 -88 t-13 -96zM455 1040q0 -37 13 -67.5t45 -63t87 -69.5t139 -88q16 8 40 36.5t44.5 70.5t34.5 92.5t14 103.5q0 92 -57 140t-141 48q-45 0 -85 -16.5t-70 -44t-47 -64.5t-17 -78z" />
<glyph unicode="9" horiz-adv-x="1060" d="M39 -233q236 92 379 220t213 318q-41 -27 -103.5 -51.5t-121.5 -24.5q-166 0 -262.5 96.5t-96.5 260.5q0 106 43 192t114.5 146.5t164 93.5t188.5 33q92 0 172 -31t138.5 -86t92 -132t33.5 -169q0 -190 -65.5 -349t-185 -279t-290.5 -199.5t-382 -114.5q-14 25 -21.5 45 t-9.5 31zM346 580q0 -92 37 -156t113 -64q45 0 91 12.5t72 30.5q10 18 18.5 52t14.5 74t10.5 84t4.5 85q0 111 -38 182.5t-116 71.5q-45 0 -83 -28.5t-65.5 -78.5t-43 -118.5t-15.5 -146.5z" />
<glyph unicode=":" horiz-adv-x="567" d="M45 127q0 37 14.5 73t39 63.5t57 45t71.5 17.5q74 0 118 -47.5t44 -118.5q0 -37 -14.5 -72t-40 -62.5t-59 -44t-70.5 -16.5q-72 0 -116 45t-44 117zM135 748q0 37 14.5 72.5t39 63t57.5 45t71 17.5q74 0 118 -47t44 -119q0 -37 -14 -71.5t-40 -62.5t-59.5 -44t-70.5 -16 q-72 0 -116 45t-44 117z" />
<glyph unicode=";" horiz-adv-x="552" d="M-18 -213q35 23 67.5 47.5t57 49t40 47t15.5 40.5q0 23 -12.5 37.5t-59.5 34.5q-66 31 -65 76q0 37 16 73.5t43 65.5t59.5 46.5t65.5 17.5q35 0 67.5 -14.5t58 -39t41 -57.5t15.5 -70q0 -123 -99 -233.5t-274 -196.5zM121 754q0 37 14.5 72.5t39 63.5t57 45t71.5 17 q74 0 118 -47t44 -119q0 -37 -14.5 -71.5t-40 -62t-59 -44t-70.5 -16.5q-72 0 -116 45t-44 117z" />
<glyph unicode="&#x3c;" horiz-adv-x="948" d="M29 432v176l796 361v-164l-651 -283l651 -286v-166z" />
<glyph unicode="=" horiz-adv-x="1171" d="M121 246v143h899v-143h-899zM121 627v143h899v-143h-899z" />
<glyph unicode="&#x3e;" horiz-adv-x="956" d="M106 70v166l652 286l-652 283v164l797 -361v-176z" />
<glyph unicode="?" horiz-adv-x="860" d="M133 125q0 37 14.5 71.5t38 62.5t56 45.5t69.5 17.5q72 0 116 -47.5t44 -118.5q0 -35 -14.5 -70t-40 -61.5t-58 -43t-69.5 -16.5q-70 0 -113 44t-43 116zM166 1208q0 66 69.5 106t180.5 40q96 0 179 -33t143.5 -86t95 -120.5t34.5 -137.5q0 -57 -14 -99t-52 -78 t-104.5 -70t-169.5 -77q-100 -43 -133 -79.5t-33 -79.5q0 -12 1.5 -31t3.5 -33l-84 -8q-57 53 -81 119.5t-24 109.5q0 129 209 226q143 63 214 108t71 111q0 51 -40 96t-100 55q-33 -2 -65.5 -31.5t-65 -65.5t-64.5 -67.5t-63 -35.5q-18 8 -36.5 25.5t-35 41t-26.5 48 t-10 46.5z" />
<glyph unicode="@" horiz-adv-x="1865" d="M33 383q0 207 78.5 394.5t213 329.5t309.5 226t365 84q178 0 327 -51t256.5 -147.5t166.5 -232.5t59 -308q0 -121 -35.5 -247t-107.5 -228.5t-178.5 -169t-247.5 -66.5q-104 0 -166.5 44t-62.5 141q0 25 3 62.5t8 77.5t11 75.5t10 54.5l-6 2q-23 -74 -55.5 -154 t-72.5 -147.5t-87 -111.5t-102 -44q-72 0 -126 30t-91 79t-55.5 113.5t-18.5 136.5q0 131 45 255t119 220t166 153.5t184 57.5q66 0 116 -37t87 -84q18 14 43.5 30.5t55.5 32t58.5 27.5t53.5 20l51 -10q-10 -37 -21.5 -87t-22.5 -109.5t-22.5 -124t-21.5 -129.5l-31 -222 q-6 -39 -9 -74.5t-3 -64.5q0 -37 16.5 -63.5t55.5 -26.5q76 0 142 53.5t114.5 138.5t76 189t27.5 207q0 156 -51 277.5t-145.5 204.5t-224.5 126t-288 43q-182 0 -333.5 -79t-260 -210t-170 -302t-61.5 -355q0 -344 183.5 -535.5t531.5 -191.5q117 0 230.5 29.5t207.5 85.5 l37 -86q-104 -59 -225 -91t-250 -32q-193 0 -350.5 57t-270 164.5t-174 259.5t-61.5 340zM709 342q0 -72 24.5 -115t71.5 -43q39 0 80 52.5t75.5 127t63.5 155.5t43 138l14 105q-29 172 -147 172q-45 0 -86 -60.5t-72 -149.5t-49 -192.5t-18 -189.5z" />
<glyph unicode="A" horiz-adv-x="1296" d="M-104 0l16 90l84 14q20 12 50 52.5t81 136.5l461 893l41 117l241 47l207 -1059q8 -49 16.5 -82t14.5 -53.5t11 -30.5t11 -16l80 -19l-14 -90h-559l12 90l115 14q16 12 18 39q2 23 0 53.5t-12 82.5l-14 71h-467q-41 -88 -60.5 -136t-21.5 -58q-6 -35 12 -50l109 -16 l-15 -90h-417zM338 457h399l-102 604z" />
<glyph unicode="B" horiz-adv-x="1312" d="M-18 0l14 90l104 16q12 6 20.5 16.5t16.5 35t17.5 68.5t21.5 118l115 653q12 66 17 106t5 63.5t-3 33.5t-9 17l-108 18l18 90h565q92 0 178 -16.5t153 -51t106.5 -92t39.5 -139.5q0 -68 -25.5 -118t-68.5 -85t-101.5 -56.5t-121.5 -31.5l-2 -8q119 -35 193.5 -110.5 t74.5 -208.5q0 -113 -52 -191t-138 -126t-194.5 -69.5t-221.5 -21.5h-614zM450 214q-1 -15 -2 -27q0 -27 6 -43q8 -24 25 -34t47 -12h49q68 0 127.5 21.5t103.5 64.5t68.5 107.5t24.5 150.5q0 104 -70.5 153.5t-185.5 49.5h-119l-57 -311q-13 -74 -17 -120zM539 743h123 q131 0 209.5 84t78.5 226q0 86 -56 131t-151 45h-120z" />
<glyph unicode="C" horiz-adv-x="1241" d="M74 518q0 180 60.5 333t162.5 264.5t240.5 175t296.5 63.5q57 0 116.5 -5.5t114.5 -12.5t102 -15t80 -16l15 -21q-10 -55 -23.5 -119.5t-27 -122t-22.5 -95.5l-9 -38l-86 -4q-23 123 -47.5 202t-40.5 107q-8 4 -62.5 16.5t-130.5 12.5q-106 0 -187 -69.5t-135.5 -181 t-82 -252t-27.5 -281.5q0 -174 72.5 -273.5t224.5 -99.5q31 0 65.5 4t57.5 10q25 23 57.5 65t68.5 91t70.5 102.5t63.5 96.5l82 -15q-23 -82 -44.5 -153.5t-39 -126t-29.5 -86.5l-12 -31q-94 -37 -187.5 -53.5t-156.5 -16.5q-135 0 -247 33t-189.5 100.5t-120.5 170 t-43 241.5z" />
<glyph unicode="D" horiz-adv-x="1433" d="M-8 0l14 90l103 19q16 18 25 52t26 120l135 757q8 45 12 75t4 49.5t-2 30.5t-6 21l-94 21l14 90h535q135 0 248.5 -34t197.5 -101.5t131 -169t47 -236.5q0 -172 -62.5 -316t-171 -247.5t-256 -162t-317.5 -58.5h-583zM448 234q-2 -19 -1 -34q1 -26 5 -44q8 -28 29 -40 t58 -14h47q104 0 194 56.5t157 157t104.5 236.5t37.5 296q0 180 -87 277.5t-249 99.5h-125l-151 -863q-15 -78 -19 -128z" />
<glyph unicode="E" horiz-adv-x="1241" d="M-6 0l14 90l103 21q6 6 12 19t13 39t15.5 66.5t20.5 104.5l115 657q12 66 17 106t6 62.5t-1 32.5t-6 16l-96 21l18 90h1002l20 -20q-6 -37 -18 -85.5t-26.5 -99.5t-29 -101t-26.5 -89h-84q-8 63 -16.5 109t-17.5 78t-21.5 54.5t-26.5 40.5q-45 2 -95 5.5t-98.5 4.5 t-92.5 2t-74 1l-86 -506l141 2q53 2 82.5 11t56.5 38l70 133l86 -4q-18 -86 -28.5 -140t-14.5 -73q-4 -16 -8.5 -46t-9.5 -66.5t-10 -74.5t-9 -69l-90 -6l-15 141q-16 31 -44.5 40t-82.5 11l-143 2l-47 -251q-17 -103 -17 -164q0 -20 2 -35q8 -62 76 -68h123q55 0 99.5 15.5 t88.5 53.5t94 102.5t120 162.5l80 -16q-10 -45 -24.5 -100.5t-32 -113t-34 -110.5t-30.5 -94h-1020z" />
<glyph unicode="F" horiz-adv-x="1138" d="M-4 0l14 90l99 21q6 6 12 17t13 35.5t15.5 66.5t20.5 114l123 690q8 49 12 82t5 52.5t-1 29.5t-6 16l-90 21l14 90h973l21 -20q-6 -37 -18.5 -87.5t-28 -103.5t-31 -106.5t-27.5 -96.5h-82q-16 129 -33.5 194.5t-44.5 104.5q-41 4 -87 7.5t-91 4.5t-86 2t-71 1l-99 -557 l133 4q61 4 90 12t52 31l69 131l88 -4q-18 -86 -28.5 -139.5t-14.5 -71.5q-4 -16 -8 -48t-10 -70t-12.5 -79t-12.5 -74l-90 -6l-18 160q-16 29 -43 37t-80 12l-133 4l-35 -198q-14 -80 -20.5 -127t-6.5 -75t4.5 -40t12.5 -21l147 -16l-12 -90h-598z" />
<glyph unicode="G" horiz-adv-x="1312" d="M74 518q0 170 58 321.5t161.5 266.5t247 181.5t313.5 66.5q63 0 126.5 -4t119 -10.5t100.5 -13.5t76 -13l14 -23q-8 -43 -19 -94t-23.5 -101.5t-25 -96.5t-20.5 -78l-86 -2q-18 123 -41.5 199.5t-38.5 105.5q-14 4 -70.5 16t-127.5 12q-115 0 -201 -68.5t-143.5 -180 t-86 -252t-28.5 -283.5q0 -180 73.5 -281.5t202.5 -101.5q43 0 87 5t71 9q6 53 11 95.5t10 60.5l16 94q12 66 13 96.5t-9 49.5l-111 20l13 84h508l-17 -86l-67 -14q-6 -4 -10.5 -12.5t-10.5 -30t-14 -61.5t-21 -109l-43 -248q-47 -14 -102 -26.5t-112.5 -20.5t-109.5 -12.5 t-89 -4.5q-135 0 -245 33t-187.5 100.5t-119.5 170t-42 241.5z" />
<glyph unicode="H" horiz-adv-x="1507" d="M-23 0l15 90l123 21q6 6 12 18t14.5 40t17.5 75t21 123l105 591q14 82 21 130.5t9 74t0 35.5t-6 16l-112 21l14 90h571l-14 -90l-123 -21q-6 -4 -12 -14t-13.5 -36.5t-16.5 -75t-23 -130.5l-43 -235h479l43 235q14 82 21 130.5t9.5 74t0 35.5t-6.5 16l-112 21l14 90h571 l-14 -90l-123 -21q-6 -4 -12 -14t-13.5 -36.5t-16.5 -75t-23 -130.5l-105 -591q-12 -74 -20 -119t-11.5 -73t-1 -42t6.5 -22l114 -21l-14 -90h-571l14 90l123 21q6 6 12 18t14.5 40t17.5 75t21 123l43 243h-479l-43 -243q-12 -74 -20.5 -119t-11.5 -73t-1 -42t7 -22l114 -21 l-14 -90h-572z" />
<glyph unicode="I" horiz-adv-x="733" d="M-23 0l15 90l123 21q6 6 12 18t14.5 40t17.5 75t21 123l105 591q14 82 21 130.5t9 74t0 35.5t-6 16l-112 21l14 90h571l-14 -90l-123 -21q-6 -4 -12 -14t-13.5 -36.5t-16.5 -75t-23 -130.5l-105 -591q-12 -74 -20.5 -119t-11.5 -73t-1 -42t7 -22l114 -21l-14 -90h-572z " />
<glyph unicode="J" horiz-adv-x="688" d="M-137 -274q59 51 103 97t75 98t51.5 115.5t36.5 151.5l137 775q14 74 21.5 119.5t8.5 73.5t-1 40t-6 18l-109 21l17 90h548l-14 -88l-104 -23q-8 -8 -15.5 -22t-14.5 -42t-15.5 -73t-20.5 -114l-137 -777q-18 -104 -66.5 -187t-119 -146.5t-159.5 -110.5t-192 -84z" />
<glyph unicode="K" horiz-adv-x="1343" d="M-18 0l16 90l115 21q6 8 12 19t14 38t17.5 72t21.5 118l109 615q14 76 20 120t8 68.5t-1 34.5t-7 18l-106 21l14 90h561l-16 -90l-117 -21q-6 -6 -12 -17t-13.5 -36.5t-16.5 -69.5t-21 -118l-45 -256l104 26l137 131q80 76 132.5 129.5t83 89t44 58.5t13.5 39 q0 20 -15 33l-102 12l16 90h494l-21 -90l-118 -23q-41 -23 -93.5 -64.5t-124.5 -109.5l-251 -233l200 -475q25 -57 44.5 -94t34.5 -61.5t27.5 -38t26.5 -25.5l86 -21l-14 -90h-577l14 90l84 12q18 14 18 41q0 12 -3 28.5t-11 42.5t-23.5 63.5t-38.5 95.5l-108 256l-74 12 l-49 -287q-12 -72 -19.5 -113.5t-10.5 -67.5t-1 -39t6 -23l97 -21l-15 -90h-546z" />
<glyph unicode="L" horiz-adv-x="1161" d="M-6 0l12 90l103 21q6 6 11 16t12 32.5t15.5 61.5t20.5 105l117 655q12 72 18 114t7 66.5t-1 34.5t-6 18l-88 21l16 90h568l-17 -90l-141 -18q-6 -10 -12 -20.5t-13.5 -37t-17.5 -73t-25 -125.5l-104 -599q-11 -72 -17 -120q-3 -24 -3 -44q1 -20 3 -36q6 -31 20.5 -45.5 t43.5 -16.5h100q49 2 91.5 24.5t86.5 71t98 127t128 197.5l84 -10q-14 -74 -29.5 -148.5t-32 -142t-31 -124t-26.5 -95.5h-991z" />
<glyph unicode="M" horiz-adv-x="1716" d="M-45 0l14 90l99 19q8 4 16 15t19.5 37.5t25.5 74t33 126.5l178 756q-8 29 -18.5 58.5t-20.5 37.5l-90 21l14 90h391l209 -948l305 577q20 39 44 87.5t46.5 99.5t44 99t38.5 85h438l-15 -90l-92 -18q-10 -4 -18 -16.5t-17.5 -35t-17.5 -59.5t-18 -92q-4 -18 -12.5 -75.5 t-18.5 -135.5t-22.5 -165t-22.5 -165t-17.5 -137.5t-9.5 -77.5q-8 -67 -8 -99v-11q2 -30 12 -42l88 -16l-14 -90h-532l14 90l100 16q14 10 27.5 42t23.5 104l105 762l-543 -1010l-104 -14l-223 983l-121 -608q-14 -74 -20.5 -121t-7.5 -76t2 -41t9 -18l133 -19l-14 -90h-432 z" />
<glyph unicode="N" horiz-adv-x="1458" d="M-37 0l14 90l132 21q10 8 18 20t16.5 34.5t15.5 57.5t17 88l152 797q-16 33 -42 67.5t-48 45.5l-56 12l17 92h362l565 -969l86 596q10 72 14 118q3 36 2 62v14q-1 30 -7.5 45t-16.5 26l-172 18l17 90h467l-17 -90l-96 -18q-8 -6 -16.5 -19.5t-16.5 -43.5t-18.5 -81 t-24.5 -131l-67 -379q-12 -63 -24.5 -139t-26 -151.5t-24.5 -146.5t-20 -124l-149 -18l-610 1015l-101 -688q-8 -53 -11 -88t-2 -57.5t5 -34.5t12 -20l185 -21l-15 -90h-516z" />
<glyph unicode="O" horiz-adv-x="1441" d="M72 530q0 174 65.5 325t173 261.5t244.5 174t281 63.5q125 0 229 -38t178 -106.5t115 -167t41 -219.5q0 -186 -64.5 -342.5t-170 -269.5t-244 -175.5t-285.5 -62.5q-121 0 -224.5 39t-179 111t-117.5 175t-42 232zM377 475q0 -80 15.5 -151.5t48 -126t82.5 -86t120 -31.5 q92 0 174 66.5t143.5 176t97.5 250.5t36 293q0 80 -15.5 149.5t-48.5 121t-82 81t-119 29.5q-96 0 -179 -66.5t-143.5 -175t-95 -246.5t-34.5 -284z" />
<glyph unicode="P" horiz-adv-x="1251" d="M-14 0l18 90l105 16q14 18 25 53.5t26 119.5l133 747q8 55 13 88t6 52.5t-1 29.5t-6 21l-98 18l14 90h508q98 0 193.5 -19.5t171 -61.5t122 -110.5t46.5 -166.5q0 -127 -47.5 -218.5t-128 -149.5t-188 -86t-228.5 -28q-23 0 -52.5 2t-57.5 4.5t-47 4.5l-19 2l-25 -148 q-14 -78 -20.5 -124t-7.5 -70.5t4.5 -33.5t13.5 -16l178 -16l-14 -90h-637zM512 596q35 -4 69.5 -6t55.5 -2q63 0 121.5 26.5t101.5 76.5t68.5 124t25.5 166q0 133 -70.5 188.5t-176.5 55.5q-23 0 -47.5 -1t-38.5 -3z" />
<glyph unicode="Q" horiz-adv-x="1443" d="M72 530q0 174 65.5 325t173 261.5t244.5 174t281 63.5q125 0 229 -38t178 -106.5t115 -167t41 -219.5q0 -186 -64.5 -342.5t-170 -269.5t-244 -175.5t-285.5 -62.5q-47 0 -92 7q90 -25 157.5 -50.5t123 -49t105.5 -40t103 -22.5q47 0 94.5 9t83.5 19l29 -63 q-29 -29 -69 -58.5t-86 -54t-95 -40t-94 -15.5q-61 0 -106.5 28.5t-97.5 81t-124.5 128t-187.5 172.5q-141 61 -224 190t-83 315zM377 475q0 -80 15.5 -151.5t48 -126t82.5 -86t120 -31.5q92 0 174 66.5t143.5 176t97.5 250.5t36 293q0 80 -15.5 149.5t-48.5 121t-82 81 t-119 29.5q-96 0 -179 -66.5t-143.5 -175t-95 -246.5t-34.5 -284z" />
<glyph unicode="R" horiz-adv-x="1320" d="M-8 0l16 90l94 21q8 8 14.5 20t12.5 33.5t13.5 56.5t17.5 88l129 729q16 88 18 123t-8 53l-90 21l14 90h522q96 0 189.5 -16.5t166.5 -54t118 -102.5t45 -161q0 -80 -34 -142.5t-91.5 -108.5t-130 -76.5t-152.5 -42.5v-9q66 -31 108 -73.5t74 -118.5q6 -16 18.5 -49 t27 -69t27.5 -68.5t22 -51.5q20 -45 58 -68.5t89 -39.5l-18 -88q-121 2 -202 11t-133.5 31.5t-84 61.5t-56.5 105q-18 47 -36.5 102t-38 107.5t-40 99.5t-40.5 80q-47 -2 -81 -3t-48 -1l-47 -265q-10 -61 -15.5 -100t-5.5 -60.5t4 -30.5t13 -13l129 -23l-17 -88h-571z M522 684q41 -2 75 -3t50 -1q63 0 119.5 25.5t96.5 71.5t63.5 109.5t23.5 139.5q0 98 -58 148.5t-163 50.5q-23 0 -56.5 -2t-56.5 -4z" />
<glyph unicode="S" horiz-adv-x="1132" d="M39 35q4 115 14 221t21 166l100 8q8 -43 20.5 -88t24.5 -88t24.5 -80t22.5 -63q47 -18 104.5 -27.5t110.5 -9.5q57 0 111.5 15t95.5 46t65.5 76t24.5 102q0 41 -14 71t-48 55.5t-92.5 51t-146.5 60.5q-86 33 -149.5 67.5t-105.5 74.5t-61.5 88t-19.5 110q0 98 43 182 t117 146.5t170.5 98.5t202.5 36q61 0 123.5 -3t119 -8.5t105.5 -12.5t86 -15l12 -21q-10 -94 -26.5 -192t-28.5 -158l-88 -8q-18 113 -46 189.5t-46 105.5q-47 12 -105.5 18t-120.5 6q-55 0 -105 -17t-89 -48t-61.5 -74t-22.5 -94q0 -33 13.5 -59.5t48 -51t94 -52.5 t151.5 -62q86 -35 150.5 -67t106.5 -70.5t62.5 -88t20.5 -116.5q0 -109 -45 -197t-121 -151.5t-175 -98.5t-210 -35q-47 0 -103.5 5.5t-114.5 13.5t-115.5 19.5t-104.5 23.5z" />
<glyph unicode="T" horiz-adv-x="1226" d="M90 854q12 61 26.5 129t29 132.5t28.5 120.5t25 97q94 -4 165.5 -6t104.5 -2h535q33 0 71.5 1t76.5 2t73 2t61 3q-6 -70 -13 -139.5t-15.5 -133t-17.5 -116.5t-15 -90l-82 -8q-18 94 -33.5 158.5t-31 107.5t-31 69.5t-31.5 49.5h-127q-6 -6 -13.5 -21.5t-14.5 -46 t-17 -80t-23 -125.5l-106 -602q-12 -76 -19.5 -122t-9.5 -72.5t-1 -38.5t5 -21l156 -24l-10 -78h-646l15 78l151 20q8 8 14.5 21.5t13.5 41t16.5 74t21.5 121.5l104 602q14 78 21.5 127.5t9.5 80t0 45t-8 20.5h-121q-25 -20 -47.5 -47t-51 -69t-66.5 -106.5t-89 -162.5z" />
<glyph unicode="U" horiz-adv-x="1372" d="M150 257q-11 47 -12 102q0 56 12 120l88 498q12 74 18 118t8 68.5t-1 34.5t-5 16l-88 21l16 90h566l-17 -90l-137 -18q-8 -6 -15.5 -20.5t-15.5 -44.5t-17 -77t-22 -114l-84 -467q-13 -70 -13 -132q0 -15 1 -30q4 -74 30.5 -127t79 -83t136.5 -30q88 0 152.5 30t108.5 84 t72.5 132t45.5 174l71 393q23 131 27 214q1 15 1 28q0 58 -15 70l-144 18l17 90h436l-18 -90l-105 -21q-16 -16 -36.5 -101t-43.5 -208l-73 -418q-23 -119 -63 -214t-108.5 -161.5t-169 -102.5t-239.5 -36q-119 0 -211 32t-151.5 94.5t-81.5 157.5z" />
<glyph unicode="V" horiz-adv-x="1271" d="M106 1235l15 90h600l-12 -90l-129 -16q-16 -10 -23.5 -31t-7.5 -45q0 -20 4 -51t14 -84l127 -658l277 553q51 102 79.5 176t28.5 109q0 20 -10 31l-123 16l15 90h436l-15 -90l-94 -18q-29 -23 -76 -101t-116 -207l-342 -639l-127 -278l-150 -19l-217 1022 q-12 61 -22.5 100.5t-19.5 63t-17 34.5t-19 21z" />
<glyph unicode="W" horiz-adv-x="1921" d="M90 1235l12 90h582l-14 -90l-103 -16q-14 -10 -21 -32t-7 -40q0 -23 3 -53.5t15 -83.5l133 -664l285 539l-25 110q-12 61 -21 100.5t-18.5 63t-17.5 36.5t-19 22l-75 20l12 88h584l-15 -90l-106 -16q-37 -23 -37 -68q0 -25 4 -57.5t14 -85.5l121 -668l266 608 q14 33 27.5 70t24 69.5t17.5 59.5t7 39q0 25 -12 31l-137 18l14 90h445l-15 -90l-96 -21q-29 -23 -74 -96.5t-102 -202.5l-314 -677l-100 -248l-164 -19l-157 777l-277 -510l-111 -248l-149 -19l-225 1024q-12 59 -22.5 98.5t-18.5 63t-16.5 35.5t-18.5 22z" />
<glyph unicode="X" horiz-adv-x="1277" d="M-92 0l12 90l96 16q76 51 189 179l309 344l-186 434q-18 43 -32.5 70.5t-27 45t-25 28t-26.5 16.5l-80 12l15 90h602l-15 -90l-86 -10q-35 -16 -35 -51q0 -29 25 -87l113 -284l172 211q47 59 72.5 101t25.5 71q0 23 -12 33l-101 16l17 90h456l-16 -90l-86 -16 q-41 -20 -92 -65.5t-141 -145.5l-254 -285l178 -422q20 -53 36.5 -86t29 -53.5t23.5 -32.5t23 -20l91 -19l-13 -90h-606l14 90l95 16q28 17 28 53q0 16 -7 44t-30 80l-106 256l-217 -267q-33 -41 -56.5 -81.5t-23.5 -57.5q0 -16 10 -27l123 -16l-12 -90h-469z" />
<glyph unicode="Y" horiz-adv-x="1179" d="M100 1235l15 90h581l-14 -90l-113 -10q-23 -8 -22 -33q0 -16 6 -44t16 -58l148 -390l215 351q20 33 38.5 70.5t18.5 54.5q0 29 -20 45l-117 14l16 90h432l-12 -90l-88 -18q-33 -16 -68.5 -57.5t-78.5 -104.5l-312 -467l-41 -242q-12 -70 -19 -115t-9 -71.5t0 -40t8 -19.5 l147 -22l-10 -78h-647l14 78l158 22q8 6 14 18.5t13.5 38t15.5 70.5t21 119l45 244l-181 465q-29 74 -47 111.5t-39 52.5z" />
<glyph unicode="Z" horiz-adv-x="1200" d="M2 88l860 1141h-143q-35 0 -75 -1t-80 -4t-73.5 -7.5t-52.5 -10.5q-41 -39 -104.5 -130t-124.5 -206l-92 7q12 68 27.5 135t30.5 128.5t29.5 113t24.5 85.5l240 -14h752l-2 -88l-865 -1133h131q39 0 82 2.5t84 7.5t79 11t67 14q25 27 53.5 66t58 84t58 94t55.5 96l94 -6 q-10 -53 -24.5 -116.5t-31 -128t-31.5 -124t-28 -104.5h-993z" />
<glyph unicode="[" horiz-adv-x="694" d="M-39 -481l350 1990h518l-14 -94l-209 -20q-20 -66 -35.5 -132.5t-21.5 -105.5l-227 -1290q-12 -72 -17.5 -139.5t-5.5 -102.5l199 -12l-17 -94h-520z" />
<glyph unicode="\" horiz-adv-x="1277" d="M264 1495l127 47l715 -1896l-127 -52z" />
<glyph unicode="]" horiz-adv-x="696" d="M-162 -481l15 94l208 20q20 66 36 132.5t22 105.5l227 1290q12 72 17.5 139.5t5.5 102.5l-199 12l16 94h521l-351 -1990h-518z" />
<glyph unicode="^" horiz-adv-x="892" d="M37 694l358 639h160l348 -639h-162l-268 492l-274 -492h-162z" />
<glyph unicode="_" horiz-adv-x="1024" d="M-125 -201h973v-118h-973v118z" />
<glyph unicode="`" horiz-adv-x="819" d="M430 1419q0 27 19.5 55.5t48 51t59.5 38t53 15.5q39 0 60 -51l131 -336l-56 -39l-276 213q-39 29 -39 53z" />
<glyph unicode="a" horiz-adv-x="1103" d="M31 334q0 135 43 263t117.5 227.5t174 159.5t214.5 60q68 0 147.5 -23.5t130.5 -57.5q18 23 44 45t42 34l76 -22q-23 -72 -49.5 -180.5t-50.5 -237.5l-41 -211q-4 -16 -7.5 -40.5t-7.5 -50.5t-6 -48.5t-2 -34.5q0 -18 7 -30.5t26 -12.5q12 0 27.5 8t32 21.5t31.5 29 t28 27.5l43 -82q-31 -37 -68 -73.5t-80 -64.5t-89 -45.5t-93 -17.5q-66 0 -103.5 40t-37.5 102q0 47 11 108.5t21 104.5h-14q-27 -76 -57.5 -140.5t-69.5 -112.5t-86 -75t-104 -27q-66 0 -113 30t-78 80t-45 114.5t-14 132.5zM330 356q0 -29 4 -58.5t13 -52t24.5 -36.5 t40.5 -14q51 0 118.5 115.5t133.5 367.5l34 188q-16 39 -53 62.5t-84 23.5q-49 0 -91 -62.5t-73.5 -152.5t-49 -194.5t-17.5 -186.5z" />
<glyph unicode="b" horiz-adv-x="1077" d="M16 4q4 14 13.5 55t21.5 95.5t24.5 114t22.5 112.5l119 659q12 74 19.5 118t9.5 68.5t0 34t-6 13.5h-129q2 20 9 43.5t13 40.5q111 37 212 57.5t155 24.5l75 -17l-8 -35q-8 -36 -20 -90.5t-26.5 -117t-24.5 -115.5l-80 -373h18q25 74 57.5 138.5t74.5 112.5t91.5 74.5 t106.5 26.5q61 0 108.5 -27.5t79 -73.5t48 -109.5t16.5 -133.5q0 -147 -39 -278t-108.5 -230.5t-168 -157t-215.5 -57.5q-84 0 -165.5 24t-135.5 62q-25 -27 -50 -49t-40 -32zM338 160q16 -39 50 -64.5t77 -25.5q55 0 102 61.5t80 151.5t51.5 192.5t18.5 186.5 q0 66 -21.5 116.5t-68.5 50.5q-31 0 -65 -37.5t-68.5 -102t-66.5 -150.5t-58 -183l-11 -53q-6 -31 -11 -73t-9 -70z" />
<glyph unicode="c" horiz-adv-x="870" d="M33 375q0 127 42 247.5t113.5 214t168 150.5t206.5 57q57 0 110.5 -11t94.5 -31.5t64.5 -48t23.5 -60.5q0 -35 -13.5 -71t-32.5 -66.5t-43.5 -52t-47.5 -25.5q-25 6 -51.5 47t-53 90t-52 91t-48.5 50q-33 -18 -66.5 -62t-60.5 -106.5t-43 -138.5t-16 -160q0 -53 10 -102 t30.5 -86t52.5 -59.5t75 -22.5q72 0 135 35t117 78l32 -62q-25 -61 -63.5 -114.5t-90 -93t-110.5 -62.5t-125 -23q-84 0 -149.5 30t-112.5 82t-71.5 125t-24.5 161z" />
<glyph unicode="d" horiz-adv-x="1126" d="M31 322q0 137 41 266t112.5 229.5t171 160.5t213.5 60q41 0 88.5 -15t73.5 -34l23 127q8 47 11 76t3 46t-2 24.5t-8 13.5h-129q4 23 10 47.5t10 38.5q119 35 225.5 54.5t161.5 23.5l62 -17q-14 -55 -28.5 -113.5t-27 -114.5t-21.5 -106.5t-15 -84.5l-111 -613 q-8 -39 -16.5 -92t-8.5 -82q0 -18 8.5 -30.5t24.5 -12.5q23 0 57.5 28.5t59.5 55.5l45 -80q-31 -37 -67.5 -73.5t-80 -64.5t-90.5 -45.5t-94 -17.5q-63 0 -102 40t-39 102q0 20 3 49t8 57.5t11.5 56t10.5 44.5l-15 2q-25 -72 -58.5 -135.5t-73.5 -111.5t-88 -76t-103 -28 q-61 0 -108.5 26t-80 72t-50 108.5t-17.5 138.5zM330 352q0 -31 5 -60.5t14 -53t24.5 -39t36.5 -15.5q57 0 129.5 125t130.5 340l8 35q6 35 13 84t11 78q-14 41 -53 67.5t-80 26.5q-51 0 -95 -58.5t-75.5 -146.5t-50 -191.5t-18.5 -191.5z" />
<glyph unicode="e" horiz-adv-x="917" d="M35 379q0 137 45 259t118.5 212t169 142t197.5 52q63 0 123 -13t104 -40.5t70.5 -70.5t26.5 -101q0 -72 -41 -124t-115 -88t-176 -55.5t-225 -23.5q-4 -23 -5 -43t-1 -30q0 -49 11 -92.5t33.5 -75t57.5 -51t82 -19.5q72 0 141.5 36t120.5 79l41 -66q-27 -59 -66.5 -111.5 t-93 -91t-117 -62.5t-135.5 -24q-88 0 -155.5 32t-114.5 86.5t-71.5 127t-24.5 156.5zM338 614q137 20 207.5 73.5t70.5 162.5q0 55 -22.5 83t-56.5 28q-63 0 -118.5 -94.5t-80.5 -252.5z" />
<glyph unicode="f" horiz-adv-x="671" d="M-264 -305q0 25 10 55.5t26.5 58t34 47t33.5 19.5q20 0 40 -17.5t39.5 -42t38.5 -50t38 -41.5q25 20 42 71t30.5 129t24.5 180.5t26 223.5l47 307q10 66 25.5 137.5t25.5 114.5h-135q4 23 11 46t11 40l121 26l8 7q37 115 82 196.5t101.5 135t127 79t163.5 25.5 q55 0 87.5 -18.5t32.5 -51.5q0 -27 -9 -59.5t-23.5 -61t-32 -48t-31.5 -19.5q-20 0 -39.5 16.5t-40 40t-41 50t-43.5 44.5q-23 -14 -33 -44.5t-16 -70.5t-8 -89.5t-8 -100.5l-2 -26l235 2l2 -25q-4 -16 -15 -49t-22 -49l-215 12q0 -10 -3 -33.5t-8 -54.5t-10 -65.5t-9 -65.5 l-9 -72q-4 -29 -13 -83t-20.5 -112.5t-22.5 -112.5t-17 -81q-37 -164 -87 -279.5t-115 -187.5t-143.5 -104.5t-172.5 -32.5q-51 0 -85 24.5t-34 59.5z" />
<glyph unicode="g" horiz-adv-x="1046" d="M-84 -186q0 39 25.5 75.5t66.5 66.5t89 52.5t96 34.5q-76 37 -76 107q0 51 49 102t123 88q-100 41 -156.5 119t-56.5 184q0 88 37 162t97 127t138 82.5t158 29.5q127 0 223 -57q104 55 184 77.5t115 22.5q20 -2 30.5 -18t10.5 -39q0 -18 -3 -43.5t-8 -52.5t-11.5 -53.5 t-12.5 -46.5q-84 25 -146.5 48t-90.5 38l-9 -11q27 -31 52.5 -83t25.5 -111q0 -90 -34.5 -163t-92 -123t-134.5 -77.5t-159 -27.5q-10 0 -35.5 1t-31.5 3q-8 -14 -15.5 -30.5t-7.5 -31.5q0 -16 13.5 -26.5t36.5 -14.5q37 -8 86 -15t96 -15q78 -14 142.5 -32t110.5 -44.5 t71.5 -64.5t25.5 -95q0 -78 -49 -141.5t-131 -109.5t-188.5 -71.5t-223.5 -25.5q-82 0 -158.5 10t-137 33.5t-97.5 62.5t-37 97zM141 -141q0 -39 21.5 -68t57.5 -48t83 -28.5t100 -9.5q51 0 99.5 9.5t87.5 28.5t62.5 47t23.5 65q0 41 -39 69.5t-139 46.5q-45 8 -104.5 20.5 t-112.5 24.5q-51 -20 -95.5 -64t-44.5 -93zM336 584q0 -76 23.5 -122t70.5 -46q39 0 70.5 34.5t55.5 88t36 120t12 127.5q0 78 -22.5 124t-71.5 46q-35 0 -66.5 -33.5t-55 -87t-38 -120t-14.5 -131.5z" />
<glyph unicode="h" horiz-adv-x="1146" d="M18 12l185 1020q14 78 21 124t9.5 70.5t0 34t-6.5 13.5h-121q2 20 9.5 43.5t11.5 40.5q117 35 219.5 56.5t155.5 25.5l63 -17q-29 -119 -50 -214t-32 -140l-98 -451h21q61 207 163.5 316.5t227.5 109.5q45 0 83 -16t64.5 -45t40.5 -65.5t14 -79.5q0 -27 -4 -62t-10 -70.5 t-12 -70.5t-12 -62l-43 -219q-6 -37 -13.5 -75.5t-7.5 -65.5q0 -39 33 -39q25 0 59.5 27.5t59.5 54.5l41 -80q-31 -39 -71 -74.5t-84 -63.5t-90 -44.5t-91 -16.5q-70 0 -111 39t-41 111q0 47 12.5 117.5t26.5 138.5l39 201q6 35 14 81t8 80q0 35 -14 56.5t-43 21.5 q-35 0 -72.5 -44t-77.5 -120.5t-78 -179t-69 -221.5l-49 -270q-139 0 -204.5 8t-76.5 16z" />
<glyph unicode="i" horiz-adv-x="663" d="M39 844q31 37 71 72.5t85 64.5t94 46t96 17q70 0 105.5 -38.5t35.5 -104.5q0 -23 -5 -57.5t-13 -75.5t-17.5 -87t-17.5 -89l-49 -234q-8 -37 -15.5 -78.5t-7.5 -66.5q0 -37 33 -37q27 0 62.5 27.5t58.5 54.5l43 -82q-31 -37 -71 -72.5t-85 -63.5t-92 -45.5t-92 -17.5 q-72 0 -109.5 42t-37.5 106q0 51 13 119.5t28 134.5l49 239q12 66 21 114t9 73q0 41 -32 41q-25 0 -59 -26.5t-58 -55.5zM272 1280q0 78 56.5 125t132.5 47q63 0 110 -37t47 -104q0 -78 -57 -123t-133 -45q-63 0 -109.5 37t-46.5 100z" />
<glyph unicode="j" horiz-adv-x="608" d="M-106 -307q49 29 82.5 62.5t58 82.5t44 118t38.5 169l94 500q12 61 18.5 108t6.5 72q0 41 -29 41q-25 0 -59.5 -26.5t-57.5 -55.5l-45 80q31 37 71 72.5t86 64.5t96 46t99 17q66 0 102 -37.5t36 -103.5q0 -23 -6.5 -58.5t-14.5 -77.5t-17.5 -88t-17.5 -89l-86 -481 q-18 -102 -52 -181.5t-90 -138.5t-138 -103t-195 -77zM281 1280q0 78 56 125t132 47q63 0 110.5 -37t47.5 -104q0 -80 -58.5 -124t-132.5 -44q-61 0 -108 35.5t-47 101.5z" />
<glyph unicode="k" horiz-adv-x="1097" d="M23 12l180 1018q14 76 21 121t9.5 69.5t0 35t-6.5 16.5h-129q2 20 9.5 44.5t13.5 41.5q57 18 113.5 31.5t106.5 24.5t91 17.5t70 8.5l65 -17q-35 -143 -56.5 -236t-27.5 -128l-90 -416h21q127 401 381 401q96 0 156.5 -62t60.5 -155q0 -106 -75 -188t-249 -162 q37 -92 62.5 -150.5t44 -93t34 -48t31.5 -13.5q29 0 70 25.5t65 52.5l41 -82q-31 -37 -69.5 -72t-81.5 -60.5t-87 -42t-87 -16.5t-74 15.5t-61.5 56.5t-64.5 116t-79 191q-6 0 -24.5 -5t-38.5 -9l-70 -354q-139 0 -203.5 8t-72.5 16zM393 424q45 18 86 38.5t64 35.5 q94 53 139 111.5t45 117.5q0 43 -20.5 69.5t-59.5 26.5q-31 0 -67.5 -34.5t-72.5 -91t-67 -128t-47 -145.5z" />
<glyph unicode="l" horiz-adv-x="610" d="M51 125q0 41 13.5 117.5t27.5 148.5l113 629q14 82 21 129t9.5 73.5t-1 36t-7.5 15.5h-125q2 20 9.5 43.5t11.5 40.5q113 37 216 57.5t159 24.5l67 -17q-35 -143 -55.5 -241.5t-26.5 -137.5l-121 -675q-10 -53 -15 -92t-5 -64q0 -37 29 -37t64.5 27.5t58.5 54.5l43 -82 q-33 -39 -72 -74.5t-83 -63.5t-91 -44.5t-92 -16.5q-72 0 -110 43t-38 105z" />
<glyph unicode="m" horiz-adv-x="1753" d="M41 840q31 39 72 75.5t85 64.5t89 44t88 16q68 0 103.5 -42t35.5 -111q0 -20 -7 -60.5t-17.5 -81t-19.5 -76.5t-11 -48h20q59 211 160.5 317t214.5 106q92 0 141 -59t49 -145q0 -39 -10 -103.5t-26 -115.5h20q57 207 152.5 315t222.5 108q49 0 87 -18t64.5 -49t40 -70 t13.5 -80q0 -31 -4.5 -65.5t-10.5 -68.5t-12 -62.5t-10 -44.5l-49 -230q-6 -35 -13.5 -74.5t-7.5 -66.5q0 -41 35 -41q25 0 58.5 28.5t58.5 53.5l43 -80q-33 -39 -73 -74.5t-83 -63.5t-89 -44.5t-91 -16.5q-70 0 -113 39t-43 111q0 27 4 59.5t10.5 66.5t12.5 66.5t12 57.5 l45 217q8 35 14.5 76t6.5 73q0 80 -58 80q-33 0 -69.5 -44t-74.5 -118.5t-74 -177t-66 -219.5l-49 -276q-139 0 -205 8t-76 16l106 557q4 16 8.5 40t8.5 48.5t6 47t2 40.5q0 78 -59 78q-33 0 -71 -44t-76 -119.5t-75.5 -177t-68.5 -218.5l-47 -276q-139 0 -206 8t-77 16 l111 578q4 23 10 53.5t11 61t9 57t4 39.5q0 18 -8 30.5t-24 12.5q-27 0 -61 -28t-58 -56z" />
<glyph unicode="n" horiz-adv-x="1216" d="M41 840q31 39 71 75.5t84 64.5t90 44t89 16q68 0 102.5 -41t34.5 -112q0 -20 -7 -59.5t-16.5 -81t-18.5 -77.5t-13 -51h20q61 209 163.5 317.5t229.5 108.5q47 0 84 -16t63.5 -45t40 -66.5t13.5 -80.5q0 -29 -4 -63t-9 -67.5t-11.5 -65.5t-12.5 -56l-49 -228 q-8 -37 -14 -75.5t-6 -67.5q0 -39 32 -39q25 0 60 28.5t59 53.5l41 -80q-31 -39 -70.5 -74.5t-84 -63.5t-90.5 -44.5t-91 -16.5q-70 0 -111.5 39t-41.5 111q0 53 12 118.5t25 125.5l47 221q6 29 13 75t7 81t-14.5 55t-42.5 20q-35 0 -74 -44t-78 -119.5t-76.5 -179 t-68.5 -222.5l-49 -270q-139 0 -205 8t-76 18l111 576q14 70 24 127t10 84q0 18 -9 30.5t-23 12.5q-25 0 -60 -28t-59 -56z" />
<glyph unicode="o" d="M35 397q0 137 47 255t124 205t174 137t200 50q90 0 164.5 -30.5t128 -86t83 -133t29.5 -173.5q0 -139 -45 -257t-118.5 -204t-170 -134.5t-198.5 -48.5q-98 0 -175 31t-131.5 86.5t-83 133t-28.5 169.5zM336 297q0 -98 26.5 -162.5t92.5 -64.5q51 0 95 70.5t74.5 174 t48 218t17.5 202.5q0 98 -25.5 158.5t-86.5 60.5q-49 0 -93.5 -68.5t-77 -170t-52 -215t-19.5 -203.5z" />
<glyph unicode="p" horiz-adv-x="1107" d="M-88 -369q2 23 6 49.5t8 43.5l76 12q18 23 32.5 61.5t31.5 134.5l81 471q27 147 38.5 226.5t15.5 109.5q-12 -2 -31.5 -9t-42.5 -15t-46.5 -18.5t-43.5 -18.5q0 20 3 45t7 41q74 49 133.5 83t87.5 48q23 33 53.5 76t62.5 84t58.5 73.5t38.5 45.5l80 -9q-29 -98 -41 -151 t-16 -66l8 -4q45 37 111.5 68.5t134.5 31.5t122 -27.5t91 -76.5t56.5 -116.5t19.5 -149.5q0 -139 -40 -265t-110 -221.5t-165 -151.5t-206 -56q-55 0 -102 12t-76 22l-12 -84q-13 -74 -13 -113q0 -9 1 -17q4 -38 30 -54l181 -20q-2 -31 -4.5 -56.5t-4.5 -38.5h-614zM381 143 q16 -25 47 -43t78 -18q43 0 87 52t78 135t55.5 185.5t21.5 202.5q0 92 -35 141.5t-92 49.5q-35 0 -73 -10.5t-67 -24.5l-59 -375q-16 -106 -26.5 -177t-14.5 -118z" />
<glyph unicode="q" horiz-adv-x="1073" d="M27 319q0 129 42 258.5t116.5 233.5t176 168.5t218.5 64.5q76 0 151.5 -22.5t134.5 -60.5q29 29 52.5 50t35.5 31l80 -22q-20 -66 -44.5 -172.5t-43.5 -212.5l-125 -682q-10 -61 -16 -100t-8 -62.5t0 -35t8 -17.5l92 -12q-2 -23 -5 -50.5t-7 -44.5h-553q0 27 6 52.5 l10 42.5l123 8q10 6 17.5 15t15.5 31.5t18 62.5t25 108l80 371h-17q-27 -74 -58.5 -137.5t-70.5 -109.5t-87 -72t-107 -26t-107.5 26t-82.5 72t-52 108.5t-18 135.5zM326 352q0 -66 21.5 -112.5t66.5 -46.5q33 0 67.5 37.5t69.5 102t66.5 151.5t60.5 186l10 57q6 33 12.5 70 t8.5 65q-16 41 -47 65.5t-72 24.5q-51 0 -98.5 -60.5t-84 -150.5t-59 -195.5t-22.5 -193.5z" />
<glyph unicode="r" horiz-adv-x="901" d="M41 840q31 39 71 75.5t84 64.5t90 44t89 16q68 0 102.5 -41t34.5 -108q0 -18 -5 -48t-12.5 -67t-17.5 -75.5t-20 -75.5h20q66 205 157 312t212 107q39 0 70.5 -25.5t31.5 -66.5q0 -37 -10 -77.5t-24.5 -76.5t-33 -63.5t-32.5 -36.5q-49 2 -101.5 23.5t-87.5 34.5 q-47 -6 -114.5 -130t-126.5 -362l-49 -276q-139 0 -205 8t-76 18l109 568q6 29 12 61.5t11 63t8 56t3 38.5q0 18 -8 30.5t-22 12.5q-25 0 -60 -28t-59 -56z" />
<glyph unicode="s" horiz-adv-x="888" d="M4 125q0 23 9.5 52.5t24.5 58t34.5 50t40.5 27.5q31 -8 67.5 -45t75.5 -80t77 -79.5t70 -42.5q53 4 93.5 38.5t40.5 88.5q0 31 -11.5 55t-36 47.5t-63.5 49.5t-94 61q-59 37 -105.5 69.5t-78 66t-48 71.5t-16.5 85q0 74 35 136.5t92 109.5t128.5 73.5t145.5 26.5 q70 0 134.5 -9t114.5 -27.5t80 -46t30 -64.5q0 -25 -7.5 -54.5t-20.5 -56t-30.5 -47t-35.5 -26.5q-29 8 -67 43t-79 74.5t-82 76.5t-76 49q-53 -6 -92 -42.5t-39 -90.5q0 -47 52.5 -90t160.5 -108q63 -37 110.5 -70t79.5 -67.5t47 -74.5t15 -91q0 -74 -32.5 -137.5 t-88 -109.5t-129 -72t-155.5 -26q-174 0 -272.5 42t-98.5 106z" />
<glyph unicode="t" horiz-adv-x="696" d="M80 143q0 39 10 107.5t25 140.5l53 295l39 203h-115q2 20 8 44.5t13 41.5l129 33l204 262l101 -6q-18 -90 -31.5 -160t-17.5 -103l211 7l6 -27q-4 -23 -14.5 -51.5t-20.5 -46.5l-197 14q-4 -18 -11 -61t-16.5 -94.5t-17.5 -101.5t-14 -83l-33 -195q-8 -43 -14 -83.5 t-6 -63.5q0 -41 39 -41q16 0 36.5 9.5t42 24.5t41 31.5t35.5 32.5l43 -82q-27 -35 -66.5 -71.5t-86.5 -68.5t-98.5 -52.5t-102.5 -20.5q-80 0 -127 47.5t-47 118.5z" />
<glyph unicode="u" horiz-adv-x="1220" d="M37 842q31 39 70.5 75.5t84 64.5t90.5 45t91 17q72 0 111.5 -35.5t39.5 -111.5q0 -47 -10 -109.5t-27 -136.5l-49 -235q-6 -29 -12 -70t-6 -72q0 -73 57 -73h2q33 0 71 44t78 119.5t77.5 178t68.5 219.5l49 272q143 0 209 -8t72 -18l-113 -576q-12 -68 -22.5 -126 t-10.5 -87q0 -16 9.5 -28.5t23.5 -12.5q25 0 59.5 29t59.5 55l41 -80q-31 -39 -71 -75.5t-85 -64.5t-91 -45t-89 -17q-66 0 -101.5 41.5t-35.5 109.5q0 23 7 62.5t17.5 81.5t18.5 79t12 52h-20q-59 -211 -161.5 -320t-229.5 -109q-92 0 -145.5 59.5t-53.5 145.5q0 51 11 119 t22 115l51 250q8 39 14 75.5t6 65.5q0 16 -8 28.5t-24 12.5q-25 0 -59 -30t-58 -56z" />
<glyph unicode="v" horiz-adv-x="1019" d="M35 844q31 39 71.5 75.5t86 64.5t92.5 44t90 16q68 0 107.5 -36.5t39.5 -108.5q0 -49 -12 -119.5t-27 -136.5q-6 -29 -16 -79t-20.5 -105.5t-17.5 -107.5t-7 -81q0 -41 21.5 -67.5t62.5 -26.5q45 0 92 40t88 102.5t70.5 138t42.5 147.5q-4 37 -20.5 79t-36 86t-36 88 t-20.5 85q10 41 52 71.5t91 30.5q37 0 67 -18t49.5 -49t29.5 -72t10 -84q0 -76 -24.5 -168t-67.5 -185t-102.5 -181t-128 -157t-145.5 -109.5t-152 -40.5q-98 0 -167 59t-69 162q0 47 8 104t21 117l47 246q8 35 14 72.5t6 64.5q0 41 -30 41q-25 0 -60 -26.5t-59 -53.5z" />
<glyph unicode="w" horiz-adv-x="1579" d="M35 844q31 39 71.5 75.5t85 64.5t91.5 44t92 16q66 0 106.5 -37.5t40.5 -107.5q0 -49 -12 -119.5t-27 -136.5q-6 -25 -16 -75t-20.5 -106t-17.5 -108.5t-7 -81.5q0 -41 18.5 -68.5t59.5 -27.5q45 0 92 45t87 115t69.5 154.5t37.5 162.5q0 92 -10 162t-10 131 q16 47 64.5 72.5t105.5 25.5q72 0 107.5 -46t35.5 -121q0 -51 -10 -114t-27 -136q-29 -129 -42 -209t-13 -139q0 -41 23.5 -72t64.5 -31q43 0 87 37t82 95.5t65.5 133t40.5 150.5q-2 39 -18.5 81t-36 87t-36 90t-20.5 92q14 45 56 73.5t96 28.5q35 0 63.5 -19t48 -50 t30.5 -70t11 -78q0 -78 -24.5 -170t-67.5 -186t-100.5 -183t-124 -158t-140 -109.5t-145.5 -40.5q-98 0 -160.5 50t-62.5 144q0 23 4 52.5t8 52.5h-10q-39 -82 -87 -139.5t-98.5 -92.5t-97.5 -51t-84 -16q-47 0 -88 16t-71.5 46t-48 70t-17.5 87t8 105t19 118l49 246 q8 35 14 72.5t6 64.5q0 41 -30 41q-25 0 -60 -26.5t-59 -53.5z" />
<glyph unicode="x" horiz-adv-x="1052" d="M-12 68q0 41 9 80.5t23.5 71.5t32 54.5t33.5 28.5q29 -2 81 -20.5t93 -34.5q23 10 48.5 43t60.5 102l20 37l-92 275q-25 78 -42 103.5t-40 25.5q-27 0 -60.5 -30t-56.5 -56l-43 81q29 41 67 80t80 69t86 48t87 18q66 0 102.5 -39.5t65.5 -138.5l53 -184l25 57 q66 156 129 230.5t157 74.5q20 0 43 -6t41.5 -18t29.5 -27.5t11 -34.5q0 -37 -8 -77.5t-22.5 -77.5t-32 -63.5t-37.5 -34.5q-27 2 -78 18t-92 33q-23 -8 -50.5 -43t-66.5 -105l-12 -22l88 -275q23 -68 40 -92t40 -24q12 0 28.5 9t33 22.5t32.5 29.5t27 29l47 -82 q-25 -41 -60 -81t-75.5 -72t-87 -52.5t-91.5 -20.5q-70 0 -106.5 44.5t-65.5 134.5l-55 178l-18 -53q-35 -86 -67 -144.5t-65.5 -93.5t-71.5 -50.5t-85 -15.5q-20 0 -44 7.5t-43.5 19.5t-32.5 29t-13 35z" />
<glyph unicode="y" horiz-adv-x="1007" d="M-104 -281q0 59 24.5 106.5t59.5 55.5q20 -2 48.5 -11t59.5 -21.5t59.5 -25.5t51.5 -26q35 18 88 76.5t94 128.5l-141 664q-12 51 -20.5 82.5t-16.5 49t-17.5 23.5t-19.5 6q-23 0 -55.5 -27.5t-55.5 -54.5l-43 80q33 45 73 85t81 70t83 47t83 17q70 0 109.5 -56 t62.5 -179l96 -545q16 25 47 69t61.5 97t57.5 108.5t37 102.5q-4 31 -22.5 69t-39 76.5t-39 77.5t-20.5 76q12 45 59 74.5t101 29.5q31 0 56.5 -18t44 -47t28.5 -67t10 -74q0 -78 -47 -190.5t-126 -242t-182 -265.5t-216 -265q-115 -133 -204 -198.5t-190 -65.5 q-61 0 -90.5 30.5t-29.5 77.5z" />
<glyph unicode="z" horiz-adv-x="1003" d="M-4 51l663 713q-39 -14 -68.5 -20.5t-43.5 -6.5q-29 0 -65 5.5t-73.5 12.5t-74.5 12t-66 5q-41 0 -70.5 -30.5t-70.5 -90.5l-72 31q51 182 116 260t159 78q43 0 107.5 -9.5t134 -21.5t135 -21.5t110.5 -9.5q25 4 61.5 28t63.5 46l59 -69l-690 -723q2 2 17.5 7t35 11 t40 10t34.5 4q27 0 58.5 -5t65.5 -10t65.5 -10t58.5 -5q43 0 77 30.5t75 89.5l75 -32q-51 -182 -117.5 -262t-150.5 -80q-47 0 -110.5 9t-129 21.5t-128 21.5t-105.5 9q-29 -6 -63.5 -26.5t-57.5 -36.5z" />
<glyph unicode="{" horiz-adv-x="710" d="M-4 485l14 86l25 2q51 6 86 16.5t57.5 29t35.5 47t19 71.5q8 43 13.5 108.5t9.5 137.5t10 140.5t15 115.5q10 61 47 112.5t102.5 89.5t164.5 62.5t234 32.5l-4 -90q-66 -14 -110.5 -35.5t-73.5 -51.5t-44 -68t-24 -87q-8 -47 -12 -106.5t-6 -121t-5 -120.5t-11 -102 q-20 -104 -112.5 -154.5t-276.5 -64.5l-3 -9q180 -16 255 -61t59 -150q-8 -43 -25.5 -103t-37 -124.5t-37 -127t-25.5 -107.5q-8 -49 -6 -87t19.5 -68t53 -51.5t97.5 -35.5l-21 -90q-252 16 -361.5 95t-86.5 202q8 47 26.5 115.5t39 140t39 137t24.5 108.5q8 43 5 72 t-19.5 47.5t-47 28.5t-80.5 16z" />
<glyph unicode="|" horiz-adv-x="546" d="M186 -512v2048h133v-2048h-133z" />
<glyph unicode="}" horiz-adv-x="714" d="M-137 -479l4 90q131 29 183 87t69 155q8 45 12 105t6 121.5t5 121t12 102.5q20 104 112 153.5t277 65.5l2 8q-180 16 -255 61.5t-59 149.5q8 43 25.5 103.5t37 125t37 126t25.5 108.5q8 49 6 87t-19 68t-53 51.5t-97 35.5l20 90q252 -16 361.5 -95t87.5 -202 q-8 -47 -27 -115.5t-39.5 -140.5t-38.5 -137.5t-25 -108.5q-16 -86 15 -118.5t127 -45.5l22 -2l-14 -86l-25 -2q-51 -6 -85.5 -16t-57 -28.5t-36 -47.5t-19.5 -72q-8 -43 -13.5 -108.5t-9.5 -137t-10 -140t-14 -115.5q-10 -61 -47 -112.5t-102.5 -89.5t-165 -62.5 t-234.5 -32.5z" />
<glyph unicode="~" horiz-adv-x="860" d="M45 467q29 59 57.5 97t57 59.5t57.5 30t59 8.5q33 0 73 -13.5t80 -31t76 -31t62 -13.5q41 0 71 24t58 62l101 -55q-29 -57 -54.5 -94t-51 -58.5t-52.5 -29.5t-57 -8q-31 0 -73 13t-83 30.5t-80 31t-63 13.5q-41 0 -72 -23.5t-66 -68.5z" />
<glyph unicode="&#xa1;" horiz-adv-x="573" d="M-33 -240q0 33 25.5 117t65.5 193.5t88.5 230.5t91.5 225h90q4 -340 5 -519t1 -218q-2 -70 -55.5 -123t-139.5 -53q-80 0 -126 38t-46 109zM150 813q0 35 14 70t39.5 61.5t58.5 43t70 16.5q72 0 114.5 -44.5t42.5 -115.5q0 -37 -14 -72t-38.5 -62.5t-57.5 -45t-70 -17.5 q-72 0 -115.5 47t-43.5 119z" />
<glyph unicode="&#xa2;" horiz-adv-x="888" d="M31 375q0 127 41 246.5t112.5 214t168 151.5t204.5 57l51 283h80l-51 -289q92 -12 154.5 -51t62.5 -94q0 -35 -13.5 -71t-33 -66.5t-43.5 -52t-47 -25.5q-29 6 -58.5 55t-58.5 103l-108 -617h2q72 0 135 35t116 78l33 -62q-43 -109 -130 -188.5t-199 -97.5l-52 -297h-78 l52 290q-160 8 -250 117t-90 281zM326 489q0 -80 21.5 -147.5t68.5 -99.5l123 694q-14 14 -27 20q-33 -18 -66.5 -62t-60.5 -106.5t-43 -138.5t-16 -160z" />
<glyph unicode="&#xa3;" horiz-adv-x="1060" d="M-37 -6l2 90l172 72q41 37 75 80t44 94q10 57 5 101t-21 91h-174l18 103h145q-6 31 -8 74.5t6 78.5q14 70 56.5 128.5t105 101.5t142 67.5t171.5 24.5q57 0 118 -8.5t108 -26.5t74.5 -46t21.5 -67q-6 -33 -20.5 -68.5t-35 -66.5t-44 -54.5t-45.5 -29.5q-37 14 -68 49 t-59.5 77t-60.5 82t-70 63q-43 -16 -70 -63.5t-37 -102.5q-8 -47 -7 -104.5t11 -108.5h285l-19 -103h-249q10 -37 13 -78t-3 -77q-12 -70 -73.5 -120t-168.5 -95l-2 -15l100 13q176 31 273.5 68.5t124.5 60.5l86 141l73 -4q-14 -66 -32.5 -130.5t-37 -122t-35.5 -104.5 t-32 -79q-70 2 -155.5 8t-174 13t-170 16.5t-145.5 17.5z" />
<glyph unicode="&#xa4;" horiz-adv-x="1261" d="M119 94l110 119q-47 59 -73.5 132t-26.5 157q0 88 28.5 164.5t82.5 138.5l-121 129l92 88l121 -133q59 43 132 66.5t150 23.5q78 0 150 -23.5t131 -66.5l133 139l92 -88l-131 -137q53 -61 82 -138t29 -163q0 -80 -25.5 -151.5t-70.5 -131.5l120 -119l-92 -90l-119 117 q-63 -47 -139 -73.5t-160 -26.5q-82 0 -156.5 24.5t-135.5 71.5l-111 -117zM293 502q0 -68 23.5 -127.5t65.5 -103.5t101.5 -70.5t130.5 -26.5q72 0 131.5 26.5t101.5 70.5t65.5 103.5t23.5 127.5q0 66 -23.5 126t-65.5 105t-101.5 71.5t-131.5 26.5t-131 -26.5t-101 -71.5 t-65.5 -105.5t-23.5 -125.5z" />
<glyph unicode="&#xa5;" horiz-adv-x="1236" d="M121 983l14 88h570l-15 -88l-84 -12q-20 -4 -26 -23q-2 -12 6 -33.5t24 -56.5l119 -262l168 227q23 31 37 58.5t16 44.5q6 29 -26 45l-80 12l14 88h397l-12 -88l-88 -12q-31 -12 -64.5 -47t-74.5 -86l-170 -224h221l-16 -100h-281l-8 -10l-27 -152h289l-16 -102h-291 q-10 -80 -8 -108.5t16 -39.5l147 -14l-14 -88h-643l12 88l152 14q16 10 27.5 38t23.5 110h-287l15 102h291l20 119l-20 43h-263l17 100h196l-110 230q-27 55 -50.5 84.5t-48.5 42.5z" />
<glyph unicode="&#xa6;" horiz-adv-x="544" d="M184 352h131v-864h-131v864zM184 664v872h131v-872h-131z" />
<glyph unicode="&#xa7;" horiz-adv-x="1036" d="M4 -131q0 27 14.5 58.5t35 61t44 53.5t43.5 30q33 -10 62.5 -45t60.5 -75t63.5 -75t73.5 -45q29 0 58.5 12.5t53.5 34t39 52t15 67.5q0 51 -62.5 89t-195.5 97q-84 39 -136 71t-81 62.5t-40 62.5t-11 73q0 47 19.5 95t53 91t79 82t94.5 67q-68 41 -90.5 80t-22.5 103 q0 68 43 136.5t110.5 122.5t150.5 89t163 35q170 0 269.5 -37t99.5 -86q0 -29 -13.5 -61.5t-34 -62.5t-44 -53.5t-44.5 -29.5q-33 10 -63.5 43t-61 71t-64.5 72.5t-71 49.5q-72 0 -124 -43t-52 -113q0 -29 15.5 -51.5t46 -44t80 -45t116.5 -52.5q158 -70 223.5 -128 t65.5 -132q0 -51 -20.5 -101t-56.5 -95t-83 -84t-102 -68q59 -39 87 -80t28 -100q0 -82 -44 -152.5t-113 -122t-150.5 -80t-157.5 -28.5q-72 0 -138.5 10t-117.5 27.5t-82 41t-31 50.5zM297 621q0 -27 9 -50.5t34 -48t65.5 -49t104.5 -55.5q43 -23 80 -40.5t69 -35.5 q23 31 38.5 64.5t15.5 60.5q0 63 -46 108.5t-169 104.5q-45 23 -83 40t-67 34q-23 -29 -37 -63t-14 -70z" />
<glyph unicode="&#xa8;" horiz-adv-x="819" d="M266 1325q0 82 53 131t125 49q66 0 104 -41t38 -94q0 -37 -14.5 -68.5t-39 -54t-57.5 -36t-69 -13.5q-59 0 -99.5 36t-40.5 91zM672 1325q0 84 53 132t125 48q66 0 103.5 -41t37.5 -94q0 -74 -54 -123t-128 -49q-57 0 -97 36t-40 91z" />
<glyph unicode="&#xa9;" horiz-adv-x="1601" d="M84 672q0 150 56.5 279.5t154.5 226t231 151.5t289 55t290 -55t232.5 -151.5t154.5 -226t56 -279.5t-56 -279t-154.5 -225t-232.5 -151.5t-290 -55.5t-289 55.5t-231 151.5t-154.5 225t-56.5 279zM199 670q0 -131 48 -242t131 -191.5t195.5 -125.5t241.5 -45t241.5 45 t196.5 125.5t132.5 191.5t48.5 242t-48.5 243.5t-132.5 193.5t-196.5 127t-241.5 46t-241.5 -46t-195.5 -128t-131 -193.5t-48 -242.5zM440 655q0 88 31 164t83 131.5t124 87t151 31.5q25 0 63 -4t78 -12.5t75.5 -17.5t58.5 -17q4 -66 6 -137.5t2 -114.5l-63 -4 q-23 66 -53.5 122t-51.5 85q-53 18 -119 18q-41 0 -70.5 -24.5t-48 -63.5t-27.5 -87t-9 -97q0 -63 16 -120.5t45 -100.5t68 -68t86 -25q100 0 200 88l45 -57q-59 -68 -138 -110.5t-171 -42.5q-80 0 -149.5 27.5t-120.5 76.5t-81 118.5t-30 153.5z" />
<glyph unicode="&#xaa;" horiz-adv-x="950" d="M111 791q0 117 35.5 220t97 179t142.5 120t173 44q55 0 118.5 -17.5t102.5 -46.5q14 18 34 34.5t32 27.5l69 -13q-18 -59 -37.5 -144t-39.5 -189l-33 -162q-2 -8 -5 -25.5t-5 -37t-4.5 -38t-2.5 -28.5q0 -33 21 -33q20 0 49 17.5t45 31.5l29 -63q-25 -29 -60.5 -57.5 t-76.5 -51t-85 -37t-87 -14.5q-37 0 -56.5 29.5t-19.5 76.5q0 33 7 77t17 79l-10 2q-45 -117 -100 -190.5t-148 -73.5q-47 0 -85 22.5t-64.5 61.5t-39.5 90.5t-13 108.5zM354 819q0 -53 16.5 -91t49.5 -40q37 2 90 96.5t108 276.5l25 143q-12 33 -38.5 48.5t-61.5 17.5 q-39 -2 -74 -47t-60.5 -112t-40 -145.5t-14.5 -146.5z" />
<glyph unicode="&#xab;" d="M-2 487l8 50l516 444l74 -35l-293 -432l139 -436l-82 -35zM502 487l8 52l461 389l71 -37l-247 -377l114 -381l-82 -35z" />
<glyph unicode="&#xac;" horiz-adv-x="1763" d="M18 428q0 135 46.5 254t121 209t169 142t188.5 52q96 0 158.5 -38.5t80.5 -108.5q68 55 122 116.5t83 119.5q4 39 -2 70.5t-15 59t-17.5 54t-6.5 55.5q4 16 20.5 34.5t41 33t56.5 23.5t64 9q47 0 85 -29.5t38 -76.5q0 -41 -13 -79t-43 -84t-79 -101.5t-123 -128.5 q-166 -166 -337 -294t-349 -222v-27q0 -61 25.5 -109.5t72 -83t107.5 -53t133 -18.5q131 0 238.5 38t187.5 114.5t129 192.5t60 269q-8 8 -22.5 20.5t-30 24t-31 19.5t-27.5 8q-31 0 -58.5 -22.5t-33.5 -49.5q0 -18 12 -37.5t25.5 -40t26 -42t14.5 -42.5q0 -18 -14.5 -37.5 t-36 -35t-48 -25.5t-55.5 -10q-51 0 -84 36t-33 85q0 55 43 122.5t108.5 128t142.5 101.5t142 41q35 0 70 -20.5t69 -51t64.5 -67.5t56 -68t45 -51.5t29.5 -20.5q16 0 26.5 24t10.5 46q-4 16 -19.5 35.5t-34 39t-32.5 40t-16 39.5q2 14 17.5 31.5t35.5 31.5t45 24.5t47 10.5 q23 0 43.5 -13.5t34.5 -35t22.5 -48t8.5 -50.5q0 -45 -22.5 -97.5t-58.5 -96.5t-80 -73.5t-85 -29.5q-49 0 -106.5 28.5t-122.5 75.5q-2 -170 -53.5 -314.5t-149.5 -249t-244 -163.5t-336 -59q-115 0 -214 26.5t-173 81.5t-117 139t-43 199zM311 598q51 27 102.5 62.5 t92.5 73.5t65.5 77t24.5 74q0 53 -19.5 82.5t-56.5 33.5q-35 -2 -68.5 -34.5t-63.5 -87t-50.5 -127t-26.5 -154.5z" />
<glyph unicode="&#xad;" horiz-adv-x="1150" d="M119 446v134h885v-134h-885z" />
<glyph unicode="&#xae;" horiz-adv-x="1601" d="M84 672q0 150 56.5 279.5t154.5 226t231 151.5t289 55t290 -55t232.5 -151.5t154.5 -226t56 -279.5t-56 -279t-154.5 -225t-232.5 -151.5t-290 -55.5t-289 55.5t-231 151.5t-154.5 225t-56.5 279zM199 670q0 -131 48 -242t131 -191.5t195.5 -125.5t241.5 -45t241.5 45 t196.5 125.5t132.5 191.5t48.5 242t-48.5 243.5t-132.5 193.5t-196.5 127t-241.5 46t-241.5 -46t-195.5 -128t-131 -193.5t-48 -242.5zM455 293v53l47 4q6 2 11 8.5t7 19.5t3 39.5t1 69.5v387q0 39 -1 63t-2 38t-5 21.5t-10 11.5l-47 6v55h344q172 0 262 -45t90 -150 q0 -49 -21.5 -84.5t-55.5 -59t-75.5 -38t-84.5 -22.5v-6q53 -18 87.5 -44t63.5 -79l70 -121q20 -31 44.5 -50.5t63.5 -33.5l-4 -51q-84 0 -138 4t-89 17t-58.5 37t-46.5 63q-39 61 -66.5 128.5t-62.5 108.5q-16 -2 -32.5 -2h-26.5v-149q0 -41 1 -65t4 -38t8 -20.5t12 -10.5 l67 -14v-51h-360zM723 709q16 -2 30.5 -3t22.5 -1q51 0 84 13t51.5 34.5t24.5 48t6 51.5q0 90 -50 122t-118 32q-31 0 -51 -5v-292z" />
<glyph unicode="&#xb0;" horiz-adv-x="669" d="M133 1059q0 55 21.5 105t59.5 87t89 58.5t109 21.5q57 0 108 -21.5t90 -58.5t61.5 -87t22.5 -105t-22.5 -105.5t-61.5 -88.5t-90 -60.5t-108 -22.5t-108.5 22.5t-89.5 60.5t-59.5 88.5t-21.5 105.5zM254 1059q0 -66 45 -115t113 -49t113.5 48t45.5 116t-46 114t-113 46 q-72 0 -115 -48.5t-43 -111.5z" />
<glyph unicode="&#xb1;" horiz-adv-x="1126" d="M88 612v133h377v316h147v-316h375v-133h-375v-313h-147v313h-377zM92 59v134h885v-134h-885z" />
<glyph unicode="&#xb2;" horiz-adv-x="784" d="M74 592q92 74 156.5 126t88.5 73q98 84 149.5 147t51.5 133q0 57 -42 88t-99 31q-51 0 -97 -16.5t-81 -38.5l-31 63q55 63 137 109.5t180 46.5q51 0 96.5 -15.5t79 -44t53 -70.5t19.5 -96q0 -47 -18.5 -89t-58.5 -86t-103 -94t-156 -114l-82 -59h236q31 4 58.5 30.5 t74.5 98.5l66 -8q-16 -80 -43 -159t-47 -122h-398q-41 0 -92 -2t-86 -6z" />
<glyph unicode="&#xb3;" horiz-adv-x="763" d="M88 592q0 18 7 41.5t18.5 46t24 40t24.5 23.5q31 -4 60.5 -24.5t57 -46t52 -50t43.5 -36.5q59 8 100 53t41 119q0 66 -54 95.5t-122 29.5q-37 0 -82 -6v73q57 18 106.5 34.5t86 36t58 42t21.5 51.5q0 43 -38.5 64.5t-90.5 21.5q-51 0 -105 -17.5t-101 -43.5l-29 59 q68 76 152.5 116t183.5 40q45 0 89 -10.5t79 -32t56.5 -53t21.5 -76.5q0 -72 -58.5 -118t-148.5 -67v-8q96 -23 146 -67.5t50 -130.5q0 -61 -33.5 -113.5t-86 -89.5t-118 -58.5t-128.5 -21.5q-123 0 -203 22.5t-80 61.5z" />
<glyph unicode="&#xb4;" horiz-adv-x="819" d="M426 1198l233 338q14 20 31 31.5t39 11.5q25 0 50.5 -15.5t47 -38t34.5 -48t13 -47.5q0 -23 -11 -37.5t-29 -26.5l-357 -217z" />
<glyph unicode="&#xb6;" horiz-adv-x="1183" d="M92 803q0 131 53.5 229t133 164t173 97.5t173.5 31.5h618l-20 -108h-127l-215 -1217h-123l213 1217h-242l-215 -1217h-123l84 481q-80 0 -149.5 25.5t-121.5 71t-82 102.5t-30 123z" />
<glyph unicode="&#xb7;" horiz-adv-x="505" d="M74 539q0 37 14 72.5t39 63t57.5 45t71.5 17.5q74 0 118 -47t44 -119q0 -37 -14.5 -71.5t-40 -62t-59.5 -44t-71 -16.5q-72 0 -115.5 45t-43.5 117z" />
<glyph unicode="&#xb8;" horiz-adv-x="1484" d="M334 -379q0 14 7 33.5t19.5 37t25.5 31t26 17.5q16 -2 37.5 -19.5t42 -38t39 -37t30.5 -18.5q39 6 70 32t31 62q0 41 -38 61.5t-112 29.5l-27 45l95 143h116l-75 -72q96 -8 151 -42.5t55 -108.5q0 -47 -28.5 -89t-74.5 -73t-101.5 -49.5t-108.5 -18.5q-86 0 -133 18.5 t-47 55.5z" />
<glyph unicode="&#xb9;" horiz-adv-x="595" d="M74 526q2 16 8 41t10 41l109 15q14 8 21 28.5t20 87.5l43 252q2 18 7 45t11 52.5t10 48t9 34.5q-12 -2 -31 -4t-39.5 -4t-39.5 -4t-32 -2l2 72q31 14 73 31.5t86 34t89 30.5t84 27l45 -6q-4 -20 -12 -62.5t-18.5 -88.5t-18.5 -88l-12 -63l-54 -307q-12 -66 -12 -86 t12 -28l93 -15q-4 -29 -7.5 -50t-5.5 -32h-450z" />
<glyph unicode="&#xba;" horiz-adv-x="892" d="M111 862q0 92 35.5 181.5t96 159t140.5 111.5t170 42q74 0 136.5 -24.5t108.5 -69.5t72.5 -112t26.5 -149q0 -104 -36 -195t-96 -157.5t-140 -104.5t-166 -38q-78 0 -142.5 27.5t-110.5 74.5t-70.5 112.5t-24.5 141.5zM358 799q0 -90 25 -146.5t78 -56.5q39 0 73.5 45 t60.5 115.5t41 157.5t15 173q0 92 -21.5 136.5t-74.5 44.5q-43 0 -79 -47t-62.5 -118t-41 -152.5t-14.5 -151.5z" />
<glyph unicode="&#xbb;" d="M-18 133l247 377l-114 381l82 35l325 -389l-8 -52l-461 -389zM428 78l293 432l-139 436l82 35l362 -444l-8 -50l-516 -444z" />
<glyph unicode="&#xbc;" horiz-adv-x="1671" d="M68 526q2 16 8 41t10 41l109 15q14 8 21 28.5t20 87.5l43 252q2 18 7 45t11 52.5t10 48t9 34.5q-12 -2 -31 -4t-39.5 -4t-39.5 -4t-32 -2l2 72q31 14 73 31.5t86 34t89 30.5t84 27l45 -6q-4 -20 -12 -62.5t-18.5 -88.5t-18.5 -88l-12 -63l-54 -307q-12 -66 -12 -86 t12 -28l93 -15q-4 -29 -7.5 -50t-5.5 -32h-450zM389 -74l326 652l82 -39l-293 -664zM842 793l292 667l113 -53l-323 -653zM891 250q123 211 208 333t126 173q29 37 66.5 53.5t115.5 16.5q43 0 87 -12.5t56 -24.5q-4 -8 -15 -20.5t-36 -28.5q-92 -70 -222 -183.5t-265 -275.5 h233l31 170q57 23 104 33t70 12l37 -4l-37 -211h119l-17 -94h-121l-4 -19q-12 -72 -2 -78l90 -10q0 -25 -2 -47t-6 -35h-452q2 18 7 42t9 40l121 8q10 4 18 18.5t15 61.5l4 19h-326z" />
<glyph unicode="&#xbd;" horiz-adv-x="1673" d="M70 526q2 16 8 41t10 41l109 15q14 8 21 28.5t20 87.5l43 252q2 18 7 45t11 52.5t10 48t9 34.5q-12 -2 -31 -4t-39.5 -4t-39.5 -4t-32 -2l2 72q31 14 73 31.5t86 34t89 30.5t84 27l45 -6q-4 -20 -12 -62.5t-18.5 -88.5t-18.5 -88l-12 -63l-54 -307q-12 -66 -12 -86 t12 -28l93 -15q-4 -29 -7.5 -50t-5.5 -32h-450zM377 -74l326 652l82 -39l-293 -664zM830 793l292 667l113 -53l-323 -653zM891 64q92 74 156.5 126t88.5 73q98 84 149.5 147t51.5 133q0 57 -42 88t-99 31q-51 0 -97 -16.5t-81 -38.5l-31 63q55 63 137 109.5t180 46.5 q51 0 96.5 -15.5t79 -44t53 -70.5t19.5 -96q0 -47 -18.5 -89t-58.5 -86t-103 -94t-156 -114l-82 -59h236q31 4 58.5 30.5t74.5 98.5l66 -8q-16 -80 -43 -159t-47 -122h-398q-41 0 -92 -2t-86 -6z" />
<glyph unicode="&#xbe;" horiz-adv-x="1785" d="M86 592q0 18 7 41.5t18.5 46t24 40t24.5 23.5q31 -4 60.5 -24.5t57 -46t52 -50t43.5 -36.5q59 8 100 53t41 119q0 66 -54 95.5t-122 29.5q-37 0 -82 -6v73q57 18 106.5 34.5t86 36t58 42t21.5 51.5q0 43 -38.5 64.5t-90.5 21.5q-51 0 -105 -17.5t-101 -43.5l-29 59 q68 76 152.5 116t183.5 40q45 0 89 -10.5t79 -32t56.5 -53t21.5 -76.5q0 -72 -58.5 -118t-148.5 -67v-8q96 -23 146 -67.5t50 -130.5q0 -61 -33.5 -113.5t-86 -89.5t-118 -58.5t-128.5 -21.5q-123 0 -203 22.5t-80 61.5zM502 -74l326 652l82 -39l-293 -664zM955 793l292 667 l113 -53l-323 -653zM1000 250q123 211 208 333t126 173q29 37 66.5 53.5t115.5 16.5q43 0 87 -12.5t56 -24.5q-4 -8 -15 -20.5t-36 -28.5q-92 -70 -222 -183.5t-265 -275.5h233l31 170q57 23 104 33t70 12l37 -4l-37 -211h119l-17 -94h-121l-4 -19q-12 -72 -2 -78l90 -10 q0 -25 -2 -47t-6 -35h-452q2 18 7 42t9 40l121 8q10 4 18 18.5t15 61.5l4 19h-326z" />
<glyph unicode="&#xbf;" horiz-adv-x="862" d="M-49 -10q0 57 14.5 99t52 78t104 69.5t169.5 76.5q100 43 133 80t33 80q0 12 -1 30.5t-3 33.5l84 8q57 -53 80.5 -120t23.5 -110q0 -129 -209 -225q-143 -63 -214 -108t-71 -111q0 -51 40 -96t100 -56q33 2 65.5 32t64.5 66t64.5 67.5t63.5 35.5q18 -8 36.5 -26.5t35 -41 t26.5 -48t10 -46.5q0 -66 -69.5 -105.5t-180.5 -39.5q-96 0 -179 32.5t-143.5 86t-95 121t-34.5 137.5zM348 811q0 35 14.5 69.5t40 61.5t58 43t69.5 16q70 0 113 -44t43 -115q0 -37 -14.5 -72t-38 -62.5t-56 -45t-69.5 -17.5q-72 0 -116 47t-44 119z" />
<glyph unicode="&#xc0;" horiz-adv-x="1296" d="M-104 0l16 90l84 14q20 12 50 52.5t81 136.5l461 893l41 117l241 47l207 -1059q8 -49 16.5 -82t14.5 -53.5t11 -30.5t11 -16l80 -19l-14 -90h-559l12 90l115 14q16 12 18 39q2 23 0 53.5t-12 82.5l-14 71h-467q-41 -88 -60.5 -136t-21.5 -58q-6 -35 12 -50l109 -16 l-15 -90h-417zM338 457h399l-102 604zM457 1638q0 20 18 52t43 62t52.5 51.5t45.5 21.5q14 0 33 -10.5t31 -28.5l213 -295l-53 -64l-328 152q-31 12 -43 27.5t-12 31.5z" />
<glyph unicode="&#xc1;" horiz-adv-x="1296" d="M-104 0l16 90l84 14q20 12 50 52.5t81 136.5l461 893l41 117l241 47l207 -1059q8 -49 16.5 -82t14.5 -53.5t11 -30.5t11 -16l80 -19l-14 -90h-559l12 90l115 14q16 12 18 39q2 23 0 53.5t-12 82.5l-14 71h-467q-41 -88 -60.5 -136t-21.5 -58q-6 -35 12 -50l109 -16 l-15 -90h-417zM338 457h399l-102 604zM590 1493l313 293q18 18 31.5 27.5t31.5 9.5t40 -21.5t38.5 -50.5t27.5 -58.5t11 -45.5q0 -23 -17.5 -37.5t-56.5 -26.5l-382 -153z" />
<glyph unicode="&#xc2;" horiz-adv-x="1296" d="M-104 0l16 90l84 14q20 12 50 52.5t81 136.5l461 893l41 117l241 47l207 -1059q8 -49 16.5 -82t14.5 -53.5t11 -30.5t11 -16l80 -19l-14 -90h-559l12 90l115 14q16 12 18 39q2 23 0 53.5t-12 82.5l-14 71h-467q-41 -88 -60.5 -136t-21.5 -58q-6 -35 12 -50l109 -16 l-15 -90h-417zM338 457h399l-102 604zM418 1503l354 262h96l244 -262l-39 -57l-285 123l-346 -123z" />
<glyph unicode="&#xc3;" horiz-adv-x="1296" d="M-104 0l16 90l84 14q20 12 50 52.5t81 136.5l461 893l41 117l241 47l207 -1059q8 -49 16.5 -82t14.5 -53.5t11 -30.5t11 -16l80 -19l-14 -90h-559l12 90l115 14q16 12 18 39q2 23 0 53.5t-12 82.5l-14 71h-467q-41 -88 -60.5 -136t-21.5 -58q-6 -35 12 -50l109 -16 l-15 -90h-417zM338 457h399l-102 604zM381 1499q76 141 139.5 204.5t135.5 63.5q37 0 84 -14t95 -30.5t93 -31t78 -14.5q37 0 69.5 24.5t77.5 72.5l64 -33q-76 -141 -140.5 -204.5t-133.5 -63.5q-37 0 -82 14t-91.5 30.5t-91.5 31t-82 14.5q-41 0 -73.5 -23.5t-79.5 -71.5z " />
<glyph unicode="&#xc4;" horiz-adv-x="1296" d="M-104 0l16 90l84 14q20 12 50 52.5t81 136.5l461 893l41 117l241 47l207 -1059q8 -49 16.5 -82t14.5 -53.5t11 -30.5t11 -16l80 -19l-14 -90h-559l12 90l115 14q16 12 18 39q2 23 0 53.5t-12 82.5l-14 71h-467q-41 -88 -60.5 -136t-21.5 -58q-6 -35 12 -50l109 -16 l-15 -90h-417zM338 457h399l-102 604zM420 1579q0 82 54 132t126 50q66 0 100.5 -37.5t34.5 -93.5q0 -37 -15 -68.5t-39.5 -55t-57.5 -37t-70 -13.5q-57 0 -95 34t-38 89zM891 1579q0 86 54 134t126 48q66 0 100.5 -37.5t34.5 -93.5q0 -37 -15 -68.5t-39.5 -55t-58.5 -37 t-71 -13.5q-57 0 -94 34t-37 89z" />
<glyph unicode="&#xc5;" horiz-adv-x="1296" d="M-104 0l16 90l84 14q20 12 50 52.5t81 136.5l461 893l33 94q-41 31 -67 78t-26 100q0 43 17.5 81t47.5 67.5t69.5 46t85.5 16.5q45 0 84.5 -16.5t70.5 -46t48.5 -67.5t17.5 -81q0 -51 -23.5 -96t-62.5 -74l194 -997q8 -49 16.5 -82t14.5 -53.5t11 -30.5t11 -16l80 -19 l-14 -90h-559l12 90l115 14q16 12 18 39q2 23 0 53.5t-12 82.5l-14 71h-467q-41 -88 -60.5 -136t-21.5 -58q-6 -35 12 -50l109 -16l-15 -90h-417zM338 457h399l-102 604zM629 1458q0 -49 34.5 -87t84.5 -38q49 0 83.5 38t34.5 87q0 45 -35.5 81t-82.5 36q-49 0 -84 -36 t-35 -81z" />
<glyph unicode="&#xc6;" horiz-adv-x="1820" d="M-106 0l16 96l84 13q23 14 49.5 45.5t44.5 56.5l549 788q100 145 102 177q0 31 -24 47l-137 14l16 88h1214l23 -20q-6 -37 -18.5 -85.5t-28 -99.5t-30.5 -101t-30 -89h-82q-8 66 -16 110.5t-17.5 76.5t-20.5 53.5t-25 39.5q-47 4 -98.5 7.5t-99.5 4.5t-91 2t-74 1 l-86 -508l131 4q53 2 82 10t51 37l70 129l86 -6q-16 -86 -26.5 -138.5t-14.5 -70.5q-2 -16 -6 -46t-9 -65.5t-10.5 -73.5t-9.5 -69l-94 -6l-16 135q-16 31 -42 40t-79 11l-131 4l-41 -256q-23 -133 -14.5 -189t73.5 -63h146q51 0 92 15.5t81 52.5t86 100.5t111 161.5l82 -16 q-10 -41 -23.5 -94.5t-30 -110.5t-32.5 -113.5t-29 -99.5h-1001l14 90l76 12q12 6 20.5 15.5t15.5 35t16.5 73.5t21.5 130h-424l-80 -120q-43 -63 -47 -93q-2 -10 3 -19t9 -13l148 -17l-15 -94h-460zM410 465h370l113 659l12 86z" />
<glyph unicode="&#xc7;" horiz-adv-x="1241" d="M74 518q0 180 60.5 333t162.5 264.5t240.5 175t296.5 63.5q57 0 116.5 -5.5t114.5 -12.5t102 -15t80 -16l15 -21q-10 -55 -23.5 -119.5t-27 -122t-22.5 -95.5l-9 -38l-86 -4q-23 123 -47.5 202t-40.5 107q-8 4 -62.5 16.5t-130.5 12.5q-106 0 -187 -69.5t-135.5 -181 t-82 -252t-27.5 -281.5q0 -174 72.5 -273.5t224.5 -99.5q31 0 65.5 4t57.5 10q25 23 57.5 65t68.5 91t70.5 102.5t63.5 96.5l82 -15q-23 -82 -44.5 -153.5t-39 -126t-29.5 -86.5l-12 -31q-92 -35 -184.5 -51.5t-155.5 -18.5l-47 -45q96 -8 151.5 -42.5t55.5 -108.5 q0 -47 -29 -89t-75 -73t-101 -49.5t-109 -18.5q-86 0 -133 18.5t-47 55.5q0 14 7 33.5t19.5 37t26 31t25.5 17.5q16 -2 37.5 -19.5t42 -38t39 -37t30.5 -18.5q39 6 70 32t31 62q0 41 -38 61.5t-112 29.5l-26 45l79 123q-231 20 -366 154t-135 384z" />
<glyph unicode="&#xc8;" horiz-adv-x="1241" d="M-6 0l14 90l103 21q6 6 12 19t13 39t15.5 66.5t20.5 104.5l115 657q12 66 17 106t6 62.5t-1 32.5t-6 16l-96 21l18 90h1002l20 -20q-6 -37 -18 -85.5t-26.5 -99.5t-29 -101t-26.5 -89h-84q-8 63 -16.5 109t-17.5 78t-21.5 54.5t-26.5 40.5q-45 2 -95 5.5t-98.5 4.5 t-92.5 2t-74 1l-86 -506l141 2q53 2 82.5 11t56.5 38l70 133l86 -4q-18 -86 -28.5 -140t-14.5 -73q-4 -16 -8.5 -46t-9.5 -66.5t-10 -74.5t-9 -69l-90 -6l-15 141q-16 31 -44.5 40t-82.5 11l-143 2l-47 -251q-23 -137 -15.5 -199t76.5 -68h123q55 0 99.5 15.5t88.5 53.5 t94 102.5t120 162.5l80 -16q-10 -45 -24.5 -100.5t-32 -113t-34 -110.5t-30.5 -94h-1020zM461 1638q0 20 18 52t43 62t52.5 51.5t45.5 21.5q14 0 33 -10.5t31 -28.5l213 -295l-53 -64l-328 152q-31 12 -43 27.5t-12 31.5z" />
<glyph unicode="&#xc9;" horiz-adv-x="1241" d="M-6 0l14 90l103 21q6 6 12 19t13 39t15.5 66.5t20.5 104.5l115 657q12 66 17 106t6 62.5t-1 32.5t-6 16l-96 21l18 90h1002l20 -20q-6 -37 -18 -85.5t-26.5 -99.5t-29 -101t-26.5 -89h-84q-8 63 -16.5 109t-17.5 78t-21.5 54.5t-26.5 40.5q-45 2 -95 5.5t-98.5 4.5 t-92.5 2t-74 1l-86 -506l141 2q53 2 82.5 11t56.5 38l70 133l86 -4q-18 -86 -28.5 -140t-14.5 -73q-4 -16 -8.5 -46t-9.5 -66.5t-10 -74.5t-9 -69l-90 -6l-15 141q-16 31 -44.5 40t-82.5 11l-143 2l-47 -251q-23 -137 -15.5 -199t76.5 -68h123q55 0 99.5 15.5t88.5 53.5 t94 102.5t120 162.5l80 -16q-10 -45 -24.5 -100.5t-32 -113t-34 -110.5t-30.5 -94h-1020zM615 1493l313 293q18 18 31.5 27.5t31.5 9.5t40 -21.5t38.5 -50.5t27.5 -58.5t11 -45.5q0 -23 -17.5 -37.5t-56.5 -26.5l-382 -153z" />
<glyph unicode="&#xca;" horiz-adv-x="1241" d="M-6 0l14 90l103 21q6 6 12 19t13 39t15.5 66.5t20.5 104.5l115 657q12 66 17 106t6 62.5t-1 32.5t-6 16l-96 21l18 90h1002l20 -20q-6 -37 -18 -85.5t-26.5 -99.5t-29 -101t-26.5 -89h-84q-8 63 -16.5 109t-17.5 78t-21.5 54.5t-26.5 40.5q-45 2 -95 5.5t-98.5 4.5 t-92.5 2t-74 1l-86 -506l141 2q53 2 82.5 11t56.5 38l70 133l86 -4q-18 -86 -28.5 -140t-14.5 -73q-4 -16 -8.5 -46t-9.5 -66.5t-10 -74.5t-9 -69l-90 -6l-15 141q-16 31 -44.5 40t-82.5 11l-143 2l-47 -251q-23 -137 -15.5 -199t76.5 -68h123q55 0 99.5 15.5t88.5 53.5 t94 102.5t120 162.5l80 -16q-10 -45 -24.5 -100.5t-32 -113t-34 -110.5t-30.5 -94h-1020zM433 1503l354 262h96l244 -262l-39 -57l-285 123l-346 -123z" />
<glyph unicode="&#xcb;" horiz-adv-x="1241" d="M-6 0l14 90l103 21q6 6 12 19t13 39t15.5 66.5t20.5 104.5l115 657q12 66 17 106t6 62.5t-1 32.5t-6 16l-96 21l18 90h1002l20 -20q-6 -37 -18 -85.5t-26.5 -99.5t-29 -101t-26.5 -89h-84q-8 63 -16.5 109t-17.5 78t-21.5 54.5t-26.5 40.5q-45 2 -95 5.5t-98.5 4.5 t-92.5 2t-74 1l-86 -506l141 2q53 2 82.5 11t56.5 38l70 133l86 -4q-18 -86 -28.5 -140t-14.5 -73q-4 -16 -8.5 -46t-9.5 -66.5t-10 -74.5t-9 -69l-90 -6l-15 141q-16 31 -44.5 40t-82.5 11l-143 2l-47 -251q-23 -137 -15.5 -199t76.5 -68h123q55 0 99.5 15.5t88.5 53.5 t94 102.5t120 162.5l80 -16q-10 -45 -24.5 -100.5t-32 -113t-34 -110.5t-30.5 -94h-1020zM416 1579q0 82 54 132t126 50q66 0 100.5 -37.5t34.5 -93.5q0 -37 -15 -68.5t-39.5 -55t-57.5 -37t-70 -13.5q-57 0 -95 34t-38 89zM887 1579q0 86 54 134t126 48q66 0 100.5 -37.5 t34.5 -93.5q0 -37 -15 -68.5t-39.5 -55t-58.5 -37t-71 -13.5q-57 0 -94 34t-37 89z" />
<glyph unicode="&#xcc;" horiz-adv-x="733" d="M-23 0l15 90l123 21q6 6 12 18t14.5 40t17.5 75t21 123l105 591q14 82 21 130.5t9 74t0 35.5t-6 16l-112 21l14 90h571l-14 -90l-123 -21q-6 -4 -12 -14t-13.5 -36.5t-16.5 -75t-23 -130.5l-105 -591q-12 -74 -20.5 -119t-11.5 -73t-1 -42t7 -22l114 -21l-14 -90h-572z M209 1638q0 20 18 52t43 62t52.5 51.5t45.5 21.5q14 0 33 -10.5t31 -28.5l213 -295l-53 -64l-328 152q-31 12 -43 27.5t-12 31.5z" />
<glyph unicode="&#xcd;" horiz-adv-x="733" d="M-23 0l15 90l123 21q6 6 12 18t14.5 40t17.5 75t21 123l105 591q14 82 21 130.5t9 74t0 35.5t-6 16l-112 21l14 90h571l-14 -90l-123 -21q-6 -4 -12 -14t-13.5 -36.5t-16.5 -75t-23 -130.5l-105 -591q-12 -74 -20.5 -119t-11.5 -73t-1 -42t7 -22l114 -21l-14 -90h-572z M369 1493l313 293q18 18 31.5 27.5t31.5 9.5t40 -21.5t38.5 -50.5t27.5 -58.5t11 -45.5q0 -23 -17.5 -37.5t-56.5 -26.5l-382 -153z" />
<glyph unicode="&#xce;" horiz-adv-x="733" d="M-23 0l15 90l123 21q6 6 12 18t14.5 40t17.5 75t21 123l105 591q14 82 21 130.5t9 74t0 35.5t-6 16l-112 21l14 90h571l-14 -90l-123 -21q-6 -4 -12 -14t-13.5 -36.5t-16.5 -75t-23 -130.5l-105 -591q-12 -74 -20.5 -119t-11.5 -73t-1 -42t7 -22l114 -21l-14 -90h-572z M170 1503l354 262h96l244 -262l-39 -57l-285 123l-346 -123z" />
<glyph unicode="&#xcf;" horiz-adv-x="733" d="M-23 0l15 90l123 21q6 6 12 18t14.5 40t17.5 75t21 123l105 591q14 82 21 130.5t9 74t0 35.5t-6 16l-112 21l14 90h571l-14 -90l-123 -21q-6 -4 -12 -14t-13.5 -36.5t-16.5 -75t-23 -130.5l-105 -591q-12 -74 -20.5 -119t-11.5 -73t-1 -42t7 -22l114 -21l-14 -90h-572z M151 1579q0 82 54 132t126 50q66 0 100.5 -37.5t34.5 -93.5q0 -37 -15 -68.5t-39.5 -55t-57.5 -37t-70 -13.5q-57 0 -95 34t-38 89zM622 1579q0 86 54 134t126 48q66 0 100.5 -37.5t34.5 -93.5q0 -37 -15 -68.5t-39.5 -55t-58.5 -37t-71 -13.5q-57 0 -94 34t-37 89z" />
<glyph unicode="&#xd1;" horiz-adv-x="1458" d="M-37 0l14 90l132 21q10 8 18 20t16.5 34.5t15.5 57.5t17 88l152 797q-16 33 -42 67.5t-48 45.5l-56 12l17 92h362l565 -969l86 596q10 72 13.5 118t2.5 76t-7.5 45t-16.5 26l-172 18l17 90h467l-17 -90l-96 -18q-8 -6 -16.5 -19.5t-16.5 -43.5t-18.5 -81t-24.5 -131 l-67 -379q-12 -63 -24.5 -139t-26 -151.5t-24.5 -146.5t-20 -124l-149 -18l-610 1015l-101 -688q-8 -53 -11 -88t-2 -57.5t5 -34.5t12 -20l185 -21l-15 -90h-516zM499 1499q76 141 139.5 204.5t135.5 63.5q37 0 84 -14t95 -30.5t93 -31t78 -14.5q37 0 69.5 24.5t77.5 72.5 l64 -33q-76 -141 -140.5 -204.5t-133.5 -63.5q-37 0 -82 14t-91.5 30.5t-91.5 31t-82 14.5q-41 0 -73.5 -23.5t-79.5 -71.5z" />
<glyph unicode="&#xd2;" horiz-adv-x="1441" d="M72 530q0 174 65.5 325t173 261.5t244.5 174t281 63.5q125 0 229 -38t178 -106.5t115 -167t41 -219.5q0 -186 -64.5 -342.5t-170 -269.5t-244 -175.5t-285.5 -62.5q-121 0 -224.5 39t-179 111t-117.5 175t-42 232zM377 475q0 -80 15.5 -151.5t48 -126t82.5 -86t120 -31.5 q92 0 174 66.5t143.5 176t97.5 250.5t36 293q0 80 -15.5 149.5t-48.5 121t-82 81t-119 29.5q-96 0 -179 -66.5t-143.5 -175t-95 -246.5t-34.5 -284zM562 1638q0 20 18 52t43 62t52.5 51.5t45.5 21.5q14 0 33 -10.5t31 -28.5l213 -295l-53 -64l-328 152q-31 12 -43 27.5 t-12 31.5z" />
<glyph unicode="&#xd3;" horiz-adv-x="1441" d="M72 530q0 174 65.5 325t173 261.5t244.5 174t281 63.5q125 0 229 -38t178 -106.5t115 -167t41 -219.5q0 -186 -64.5 -342.5t-170 -269.5t-244 -175.5t-285.5 -62.5q-121 0 -224.5 39t-179 111t-117.5 175t-42 232zM377 475q0 -80 15.5 -151.5t48 -126t82.5 -86t120 -31.5 q92 0 174 66.5t143.5 176t97.5 250.5t36 293q0 80 -15.5 149.5t-48.5 121t-82 81t-119 29.5q-96 0 -179 -66.5t-143.5 -175t-95 -246.5t-34.5 -284zM740 1493l313 293q18 18 31.5 27.5t31.5 9.5t40 -21.5t38.5 -50.5t27.5 -58.5t11 -45.5q0 -23 -17.5 -37.5t-56.5 -26.5 l-382 -153z" />
<glyph unicode="&#xd4;" horiz-adv-x="1441" d="M72 530q0 174 65.5 325t173 261.5t244.5 174t281 63.5q125 0 229 -38t178 -106.5t115 -167t41 -219.5q0 -186 -64.5 -342.5t-170 -269.5t-244 -175.5t-285.5 -62.5q-121 0 -224.5 39t-179 111t-117.5 175t-42 232zM377 475q0 -80 15.5 -151.5t48 -126t82.5 -86t120 -31.5 q92 0 174 66.5t143.5 176t97.5 250.5t36 293q0 80 -15.5 149.5t-48.5 121t-82 81t-119 29.5q-96 0 -179 -66.5t-143.5 -175t-95 -246.5t-34.5 -284zM537 1503l354 262h96l244 -262l-39 -57l-285 123l-346 -123z" />
<glyph unicode="&#xd5;" horiz-adv-x="1441" d="M72 530q0 174 65.5 325t173 261.5t244.5 174t281 63.5q125 0 229 -38t178 -106.5t115 -167t41 -219.5q0 -186 -64.5 -342.5t-170 -269.5t-244 -175.5t-285.5 -62.5q-121 0 -224.5 39t-179 111t-117.5 175t-42 232zM377 475q0 -80 15.5 -151.5t48 -126t82.5 -86t120 -31.5 q92 0 174 66.5t143.5 176t97.5 250.5t36 293q0 80 -15.5 149.5t-48.5 121t-82 81t-119 29.5q-96 0 -179 -66.5t-143.5 -175t-95 -246.5t-34.5 -284zM487 1499q76 141 139.5 204.5t135.5 63.5q37 0 84 -14t95 -30.5t93 -31t78 -14.5q37 0 69.5 24.5t77.5 72.5l64 -33 q-76 -141 -140.5 -204.5t-133.5 -63.5q-37 0 -82 14t-91.5 30.5t-91.5 31t-82 14.5q-41 0 -73.5 -23.5t-79.5 -71.5z" />
<glyph unicode="&#xd6;" horiz-adv-x="1441" d="M72 530q0 174 65.5 325t173 261.5t244.5 174t281 63.5q125 0 229 -38t178 -106.5t115 -167t41 -219.5q0 -186 -64.5 -342.5t-170 -269.5t-244 -175.5t-285.5 -62.5q-121 0 -224.5 39t-179 111t-117.5 175t-42 232zM377 475q0 -80 15.5 -151.5t48 -126t82.5 -86t120 -31.5 q92 0 174 66.5t143.5 176t97.5 250.5t36 293q0 80 -15.5 149.5t-48.5 121t-82 81t-119 29.5q-96 0 -179 -66.5t-143.5 -175t-95 -246.5t-34.5 -284zM518 1579q0 82 54 132t126 50q66 0 100.5 -37.5t34.5 -93.5q0 -37 -15 -68.5t-39.5 -55t-57.5 -37t-70 -13.5q-57 0 -95 34 t-38 89zM989 1579q0 86 54 134t126 48q66 0 100.5 -37.5t34.5 -93.5q0 -37 -15 -68.5t-39.5 -55t-58.5 -37t-71 -13.5q-57 0 -94 34t-37 89z" />
<glyph unicode="&#xd7;" horiz-adv-x="968" d="M68 201l307 307l-307 309l96 94l305 -309l317 318l95 -95l-318 -317l307 -305l-94 -94l-307 305l-307 -308z" />
<glyph unicode="&#xd8;" horiz-adv-x="1447" d="M51 -217l219 307q-92 72 -144 183.5t-52 256.5q0 174 65.5 325t173 261.5t244.5 174t281 63.5q164 0 290 -64l224 312l80 -50l-224 -311q92 -70 142.5 -176.5t50.5 -241.5q0 -186 -64.5 -342.5t-170 -269.5t-244 -175.5t-285.5 -62.5q-162 0 -289 66l-219 -307zM379 475 q0 -111 27 -196l620 868q-33 47 -81 73.5t-114 26.5q-96 0 -179 -66.5t-143 -175t-95 -247t-35 -283.5zM451 182q33 -47 81 -74.5t113 -27.5q92 0 174 66.5t143.5 176t97.5 250.5t36 293q0 102 -25 183z" />
<glyph unicode="&#xd9;" horiz-adv-x="1372" d="M149.5 257q-22.5 95 0.5 222l88 498q12 74 18 118t8 68.5t-1 34.5t-5 16l-88 21l16 90h566l-17 -90l-137 -18q-8 -6 -15.5 -20.5t-15.5 -44.5t-17 -77t-22 -114l-84 -467q-16 -88 -12 -162t30.5 -127t79 -83t136.5 -30q88 0 152.5 30t108.5 84t72.5 132t45.5 174l71 393 q23 131 27 214t-14 98l-144 18l17 90h436l-18 -90l-105 -21q-16 -16 -36.5 -101t-43.5 -208l-73 -418q-23 -119 -63 -214t-108.5 -161.5t-169 -102.5t-239.5 -36q-119 0 -211 32t-151.5 94.5t-82 157.5zM545 1638q0 20 18 52t43 62t52.5 51.5t45.5 21.5q14 0 33 -10.5 t31 -28.5l213 -295l-53 -64l-328 152q-31 12 -43 27.5t-12 31.5z" />
<glyph unicode="&#xda;" horiz-adv-x="1372" d="M149.5 257q-22.5 95 0.5 222l88 498q12 74 18 118t8 68.5t-1 34.5t-5 16l-88 21l16 90h566l-17 -90l-137 -18q-8 -6 -15.5 -20.5t-15.5 -44.5t-17 -77t-22 -114l-84 -467q-16 -88 -12 -162t30.5 -127t79 -83t136.5 -30q88 0 152.5 30t108.5 84t72.5 132t45.5 174l71 393 q23 131 27 214t-14 98l-144 18l17 90h436l-18 -90l-105 -21q-16 -16 -36.5 -101t-43.5 -208l-73 -418q-23 -119 -63 -214t-108.5 -161.5t-169 -102.5t-239.5 -36q-119 0 -211 32t-151.5 94.5t-82 157.5zM719 1493l313 293q18 18 31.5 27.5t31.5 9.5t40 -21.5t38.5 -50.5 t27.5 -58.5t11 -45.5q0 -23 -17.5 -37.5t-56.5 -26.5l-382 -153z" />
<glyph unicode="&#xdb;" horiz-adv-x="1372" d="M149.5 257q-22.5 95 0.5 222l88 498q12 74 18 118t8 68.5t-1 34.5t-5 16l-88 21l16 90h566l-17 -90l-137 -18q-8 -6 -15.5 -20.5t-15.5 -44.5t-17 -77t-22 -114l-84 -467q-16 -88 -12 -162t30.5 -127t79 -83t136.5 -30q88 0 152.5 30t108.5 84t72.5 132t45.5 174l71 393 q23 131 27 214t-14 98l-144 18l17 90h436l-18 -90l-105 -21q-16 -16 -36.5 -101t-43.5 -208l-73 -418q-23 -119 -63 -214t-108.5 -161.5t-169 -102.5t-239.5 -36q-119 0 -211 32t-151.5 94.5t-82 157.5zM521 1503l354 262h96l244 -262l-39 -57l-285 123l-346 -123z" />
<glyph unicode="&#xdc;" horiz-adv-x="1372" d="M149.5 257q-22.5 95 0.5 222l88 498q12 74 18 118t8 68.5t-1 34.5t-5 16l-88 21l16 90h566l-17 -90l-137 -18q-8 -6 -15.5 -20.5t-15.5 -44.5t-17 -77t-22 -114l-84 -467q-16 -88 -12 -162t30.5 -127t79 -83t136.5 -30q88 0 152.5 30t108.5 84t72.5 132t45.5 174l71 393 q23 131 27 214t-14 98l-144 18l17 90h436l-18 -90l-105 -21q-16 -16 -36.5 -101t-43.5 -208l-73 -418q-23 -119 -63 -214t-108.5 -161.5t-169 -102.5t-239.5 -36q-119 0 -211 32t-151.5 94.5t-82 157.5zM506 1577q0 82 54 132t126 50q66 0 100.5 -37.5t34.5 -93.5 q0 -37 -15 -68.5t-39.5 -55t-57.5 -37t-70 -13.5q-57 0 -95 34t-38 89zM977 1577q0 86 54 134t126 48q66 0 100.5 -37.5t34.5 -93.5q0 -37 -15 -68.5t-39.5 -55t-58.5 -37t-71 -13.5q-57 0 -94 34t-37 89z" />
<glyph unicode="&#xdd;" horiz-adv-x="1179" d="M100 1235l15 90h581l-14 -90l-113 -10q-23 -8 -22 -33q0 -16 6 -44t16 -58l148 -390l215 351q20 33 38.5 70.5t18.5 54.5q0 29 -20 45l-117 14l16 90h432l-12 -90l-88 -18q-33 -16 -68.5 -57.5t-78.5 -104.5l-312 -467l-41 -242q-12 -70 -19 -115t-9 -71.5t0 -40t8 -19.5 l147 -22l-10 -78h-647l14 78l158 22q8 6 14 18.5t13.5 38t15.5 70.5t21 119l45 244l-181 465q-29 74 -47 111.5t-39 52.5zM643 1493l313 293q18 18 31.5 27.5t31.5 9.5t40 -21.5t38.5 -50.5t27.5 -58.5t11 -45.5q0 -23 -17.5 -37.5t-56.5 -26.5l-382 -153z" />
<glyph unicode="&#xdf;" horiz-adv-x="1275" d="M-303 -307q0 25 10 56.5t25.5 59t33 47t33.5 19.5q20 0 40 -17.5t40.5 -42t40 -50t37.5 -41.5q25 20 44 95t34.5 168t26 187t18.5 154l53 315q27 162 84 307.5t143 254t199 173t252 64.5q68 0 136.5 -11.5t123.5 -38t90 -67.5t35 -100t-31.5 -101.5t-78 -75t-101.5 -57 t-101 -48t-78 -49.5t-32 -58q0 -41 38 -81t136 -106q125 -84 190.5 -152.5t65.5 -162.5q0 -72 -32.5 -136.5t-89 -113.5t-132.5 -78t-162 -29q-166 0 -254 48.5t-88 109.5q0 23 9.5 51.5t25 55t33.5 46t39 23.5q31 -6 66.5 -42t72.5 -76.5t73 -75.5t69 -41q51 6 90 36.5 t39 82.5q0 55 -49.5 102t-155.5 123q-115 82 -164 141.5t-49 124.5q0 51 26.5 93t66.5 79t87 74t87 78t66.5 90t26.5 112q0 70 -43 100.5t-102 30.5q-106 0 -186 -114.5t-121 -360.5l-45 -260q-6 -31 -15.5 -85t-21 -113.5t-21.5 -113.5t-16 -81q-41 -168 -92.5 -282.5 t-116 -186.5t-141 -103.5t-170.5 -31.5q-49 0 -83 23.5t-34 58.5z" />
<glyph unicode="&#xe0;" horiz-adv-x="1103" d="M31 334q0 135 43 263t117.5 227.5t174 159.5t214.5 60q68 0 147.5 -23.5t130.5 -57.5q18 23 44 45t42 34l76 -22q-23 -72 -49.5 -180.5t-50.5 -237.5l-41 -211q-4 -16 -7.5 -40.5t-7.5 -50.5t-6 -48.5t-2 -34.5q0 -18 7 -30.5t26 -12.5q12 0 27.5 8t32 21.5t31.5 29 t28 27.5l43 -82q-31 -37 -68 -73.5t-80 -64.5t-89 -45.5t-93 -17.5q-66 0 -103.5 40t-37.5 102q0 47 11 108.5t21 104.5h-14q-27 -76 -57.5 -140.5t-69.5 -112.5t-86 -75t-104 -27q-66 0 -113 30t-78 80t-45 114.5t-14 132.5zM330 356q0 -29 4 -58.5t13 -52t24.5 -36.5 t40.5 -14q51 0 118.5 115.5t133.5 367.5l34 188q-16 39 -53 62.5t-84 23.5q-49 0 -91 -62.5t-73.5 -152.5t-49 -194.5t-17.5 -186.5zM393 1419q0 27 19.5 55.5t48 51t59.5 38t53 15.5q39 0 60 -51l131 -336l-56 -39l-276 213q-39 29 -39 53z" />
<glyph unicode="&#xe1;" horiz-adv-x="1103" d="M31 334q0 135 43 263t117.5 227.5t174 159.5t214.5 60q68 0 147.5 -23.5t130.5 -57.5q18 23 44 45t42 34l76 -22q-23 -72 -49.5 -180.5t-50.5 -237.5l-41 -211q-4 -16 -7.5 -40.5t-7.5 -50.5t-6 -48.5t-2 -34.5q0 -18 7 -30.5t26 -12.5q12 0 27.5 8t32 21.5t31.5 29 t28 27.5l43 -82q-31 -37 -68 -73.5t-80 -64.5t-89 -45.5t-93 -17.5q-66 0 -103.5 40t-37.5 102q0 47 11 108.5t21 104.5h-14q-27 -76 -57.5 -140.5t-69.5 -112.5t-86 -75t-104 -27q-66 0 -113 30t-78 80t-45 114.5t-14 132.5zM330 356q0 -29 4 -58.5t13 -52t24.5 -36.5 t40.5 -14q51 0 118.5 115.5t133.5 367.5l34 188q-16 39 -53 62.5t-84 23.5q-49 0 -91 -62.5t-73.5 -152.5t-49 -194.5t-17.5 -186.5zM553 1198l233 338q14 20 31 31.5t39 11.5q25 0 50.5 -15.5t47 -38t34.5 -48t13 -47.5q0 -23 -11 -37.5t-29 -26.5l-357 -217z" />
<glyph unicode="&#xe2;" horiz-adv-x="1103" d="M31 334q0 135 43 263t117.5 227.5t174 159.5t214.5 60q68 0 147.5 -23.5t130.5 -57.5q18 23 44 45t42 34l76 -22q-23 -72 -49.5 -180.5t-50.5 -237.5l-41 -211q-4 -16 -7.5 -40.5t-7.5 -50.5t-6 -48.5t-2 -34.5q0 -18 7 -30.5t26 -12.5q12 0 27.5 8t32 21.5t31.5 29 t28 27.5l43 -82q-31 -37 -68 -73.5t-80 -64.5t-89 -45.5t-93 -17.5q-66 0 -103.5 40t-37.5 102q0 47 11 108.5t21 104.5h-14q-27 -76 -57.5 -140.5t-69.5 -112.5t-86 -75t-104 -27q-66 0 -113 30t-78 80t-45 114.5t-14 132.5zM330 356q0 -29 4 -58.5t13 -52t24.5 -36.5 t40.5 -14q51 0 118.5 115.5t133.5 367.5l34 188q-16 39 -53 62.5t-84 23.5q-49 0 -91 -62.5t-73.5 -152.5t-49 -194.5t-17.5 -186.5zM334 1239l332 283h96l229 -281l-37 -59l-268 147l-330 -147z" />
<glyph unicode="&#xe3;" horiz-adv-x="1103" d="M31 334q0 135 43 263t117.5 227.5t174 159.5t214.5 60q68 0 147.5 -23.5t130.5 -57.5q18 23 44 45t42 34l76 -22q-23 -72 -49.5 -180.5t-50.5 -237.5l-41 -211q-4 -16 -7.5 -40.5t-7.5 -50.5t-6 -48.5t-2 -34.5q0 -18 7 -30.5t26 -12.5q12 0 27.5 8t32 21.5t31.5 29 t28 27.5l43 -82q-31 -37 -68 -73.5t-80 -64.5t-89 -45.5t-93 -17.5q-66 0 -103.5 40t-37.5 102q0 47 11 108.5t21 104.5h-14q-27 -76 -57.5 -140.5t-69.5 -112.5t-86 -75t-104 -27q-66 0 -113 30t-78 80t-45 114.5t-14 132.5zM313 1255q68 131 127.5 196t128.5 65 q33 0 73 -13.5t80 -29t77.5 -28.5t68.5 -13q37 0 69 23.5t77 72.5l57 -35q-63 -131 -122.5 -194.5t-129.5 -63.5q-35 0 -74 13.5t-78.5 28.5t-77.5 28.5t-69 13.5q-41 0 -72.5 -25.5t-72.5 -72.5zM330 356q0 -29 4 -58.5t13 -52t24.5 -36.5t40.5 -14q51 0 118.5 115.5 t133.5 367.5l34 188q-16 39 -53 62.5t-84 23.5q-49 0 -91 -62.5t-73.5 -152.5t-49 -194.5t-17.5 -186.5z" />
<glyph unicode="&#xe4;" horiz-adv-x="1103" d="M31 334q0 135 43 263t117.5 227.5t174 159.5t214.5 60q68 0 147.5 -23.5t130.5 -57.5q18 23 44 45t42 34l76 -22q-23 -72 -49.5 -180.5t-50.5 -237.5l-41 -211q-4 -16 -7.5 -40.5t-7.5 -50.5t-6 -48.5t-2 -34.5q0 -18 7 -30.5t26 -12.5q12 0 27.5 8t32 21.5t31.5 29 t28 27.5l43 -82q-31 -37 -68 -73.5t-80 -64.5t-89 -45.5t-93 -17.5q-66 0 -103.5 40t-37.5 102q0 47 11 108.5t21 104.5h-14q-27 -76 -57.5 -140.5t-69.5 -112.5t-86 -75t-104 -27q-66 0 -113 30t-78 80t-45 114.5t-14 132.5zM330 356q0 -29 4 -58.5t13 -52t24.5 -36.5 t40.5 -14q51 0 118.5 115.5t133.5 367.5l34 188q-16 39 -53 62.5t-84 23.5q-49 0 -91 -62.5t-73.5 -152.5t-49 -194.5t-17.5 -186.5zM344 1325q0 82 53 131t125 49q66 0 104 -41t38 -94q0 -37 -14.5 -68.5t-39 -54t-57.5 -36t-69 -13.5q-59 0 -99.5 36t-40.5 91zM750 1325 q0 84 53 132t125 48q66 0 103.5 -41t37.5 -94q0 -74 -54 -123t-128 -49q-57 0 -97 36t-40 91z" />
<glyph unicode="&#xe5;" horiz-adv-x="1103" d="M31 334q0 135 43 263t117.5 227.5t174 159.5t214.5 60q68 0 147.5 -23.5t130.5 -57.5q18 23 44 45t42 34l76 -22q-23 -72 -49.5 -180.5t-50.5 -237.5l-41 -211q-4 -16 -7.5 -40.5t-7.5 -50.5t-6 -48.5t-2 -34.5q0 -18 7 -30.5t26 -12.5q12 0 27.5 8t32 21.5t31.5 29 t28 27.5l43 -82q-31 -37 -68 -73.5t-80 -64.5t-89 -45.5t-93 -17.5q-66 0 -103.5 40t-37.5 102q0 47 11 108.5t21 104.5h-14q-27 -76 -57.5 -140.5t-69.5 -112.5t-86 -75t-104 -27q-66 0 -113 30t-78 80t-45 114.5t-14 132.5zM330 356q0 -29 4 -58.5t13 -52t24.5 -36.5 t40.5 -14q51 0 118.5 115.5t133.5 367.5l34 188q-16 39 -53 62.5t-84 23.5q-49 0 -91 -62.5t-73.5 -152.5t-49 -194.5t-17.5 -186.5zM465 1335q0 41 15.5 77t43 62.5t64.5 42t80 15.5t80 -15.5t65.5 -42t45 -62.5t16.5 -77t-16.5 -76.5t-45 -63.5t-65.5 -44t-80 -16t-80 16 t-64.5 44t-43 63.5t-15.5 76.5zM551 1335q0 -47 32 -85t85 -38t87 38t34 85t-34 83t-87 36t-85 -36t-32 -83z" />
<glyph unicode="&#xe6;" horiz-adv-x="1415" d="M6 211q0 66 40 121t111.5 101t170 83t215.5 66q16 6 25.5 25.5t19.5 68.5l6 37q18 98 -4.5 151.5t-89.5 53.5q-31 0 -74 -7.5t-59 -13.5q-20 -35 -15.5 -68.5t-3.5 -76.5q-12 -18 -42 -36t-65.5 -31t-69.5 -21.5t-52 -8.5q-23 0 -33 21.5t-10 42.5q0 45 37 93t98 87 q117 72 232.5 110t213.5 38q66 0 115 -36t57 -81q47 47 109.5 79.5t148.5 32.5q55 0 109.5 -13t96.5 -40.5t67.5 -71t25.5 -100.5q0 -68 -39.5 -117t-112.5 -82.5t-174.5 -53t-223.5 -23.5q-4 -29 -5.5 -51.5t-1.5 -34.5q0 -49 10.5 -93.5t32 -78t54 -53t78.5 -19.5 q33 0 70.5 12.5t74.5 30.5t70.5 40.5t58.5 41.5l33 -70q-25 -57 -67 -108.5t-96 -91t-119.5 -63t-141.5 -23.5q-74 0 -129.5 22.5t-94 62t-63.5 93t-39 112.5q-53 -137 -132 -215t-196 -78q-47 0 -89 19.5t-72.5 51.5t-48 74t-17.5 89zM287 313q0 -59 24.5 -93t63.5 -34 q23 0 47 17.5t47 45t42 62.5t30 70q0 29 4 62.5t8 54.5q-41 -2 -82 -12.5t-65 -20.5q-49 -16 -84 -54.5t-35 -97.5zM842 616q139 20 205.5 73.5t66.5 158.5q0 47 -24.5 76.5t-59.5 29.5q-61 0 -112 -90t-76 -248z" />
<glyph unicode="&#xe7;" horiz-adv-x="870" d="M33 375q0 127 42 247.5t113.5 214t168 150.5t206.5 57q57 0 110.5 -11t94.5 -31.5t64.5 -48t23.5 -60.5q0 -35 -13.5 -71t-32.5 -66.5t-44 -52t-47 -25.5q-25 6 -51.5 47t-53 90t-52 91t-48.5 50q-33 -18 -66.5 -62t-60.5 -106.5t-43 -138.5t-16 -160q0 -53 10 -102 t30.5 -86t52.5 -59.5t75 -22.5q72 0 135 35t117 78l32 -62q-23 -55 -56.5 -104t-78.5 -88t-97 -64.5t-110 -31.5l-55 -54q96 -8 151.5 -42.5t55.5 -108.5q0 -47 -29 -89t-75 -73t-101 -49.5t-109 -18.5q-86 0 -133 18.5t-47 55.5q0 14 7.5 33.5t19.5 37t25.5 31t25.5 17.5 q16 -2 37.5 -19.5t42 -38t39 -37t31.5 -18.5q39 6 69.5 32t30.5 62q0 41 -38 61.5t-112 29.5l-26 45l82 127q-139 20 -218 125.5t-79 265.5z" />
<glyph unicode="&#xe8;" horiz-adv-x="917" d="M35 379q0 137 45 259t118.5 212t169 142t197.5 52q63 0 123 -13t104 -40.5t70.5 -70.5t26.5 -101q0 -72 -41 -124t-115 -88t-176 -55.5t-225 -23.5q-4 -23 -5 -43t-1 -30q0 -49 11 -92.5t33.5 -75t57.5 -51t82 -19.5q72 0 141.5 36t120.5 79l41 -66q-27 -59 -66.5 -111.5 t-93 -91t-117 -62.5t-135.5 -24q-88 0 -155.5 32t-114.5 86.5t-71.5 127t-24.5 156.5zM297 1419q0 27 19.5 55.5t48 51t59.5 38t53 15.5q39 0 60 -51l131 -336l-56 -39l-276 213q-39 29 -39 53zM338 614q137 20 207.5 73.5t70.5 162.5q0 55 -22.5 83t-56.5 28 q-63 0 -118.5 -94.5t-80.5 -252.5z" />
<glyph unicode="&#xe9;" horiz-adv-x="917" d="M35 379q0 137 45 259t118.5 212t169 142t197.5 52q63 0 123 -13t104 -40.5t70.5 -70.5t26.5 -101q0 -72 -41 -124t-115 -88t-176 -55.5t-225 -23.5q-4 -23 -5 -43t-1 -30q0 -49 11 -92.5t33.5 -75t57.5 -51t82 -19.5q72 0 141.5 36t120.5 79l41 -66q-27 -59 -66.5 -111.5 t-93 -91t-117 -62.5t-135.5 -24q-88 0 -155.5 32t-114.5 86.5t-71.5 127t-24.5 156.5zM338 614q137 20 207.5 73.5t70.5 162.5q0 55 -22.5 83t-56.5 28q-63 0 -118.5 -94.5t-80.5 -252.5zM467 1198l233 338q14 20 31 31.5t39 11.5q25 0 50.5 -15.5t47 -38t34.5 -48t13 -47.5 q0 -23 -11 -37.5t-29 -26.5l-357 -217z" />
<glyph unicode="&#xea;" horiz-adv-x="917" d="M35 379q0 137 45 259t118.5 212t169 142t197.5 52q63 0 123 -13t104 -40.5t70.5 -70.5t26.5 -101q0 -72 -41 -124t-115 -88t-176 -55.5t-225 -23.5q-4 -23 -5 -43t-1 -30q0 -49 11 -92.5t33.5 -75t57.5 -51t82 -19.5q72 0 141.5 36t120.5 79l41 -66q-27 -59 -66.5 -111.5 t-93 -91t-117 -62.5t-135.5 -24q-88 0 -155.5 32t-114.5 86.5t-71.5 127t-24.5 156.5zM250 1239l332 283h96l229 -281l-37 -59l-268 147l-330 -147zM338 614q137 20 207.5 73.5t70.5 162.5q0 55 -22.5 83t-56.5 28q-63 0 -118.5 -94.5t-80.5 -252.5z" />
<glyph unicode="&#xeb;" horiz-adv-x="917" d="M35 379q0 137 45 259t118.5 212t169 142t197.5 52q63 0 123 -13t104 -40.5t70.5 -70.5t26.5 -101q0 -72 -41 -124t-115 -88t-176 -55.5t-225 -23.5q-4 -23 -5 -43t-1 -30q0 -49 11 -92.5t33.5 -75t57.5 -51t82 -19.5q72 0 141.5 36t120.5 79l41 -66q-27 -59 -66.5 -111.5 t-93 -91t-117 -62.5t-135.5 -24q-88 0 -155.5 32t-114.5 86.5t-71.5 127t-24.5 156.5zM252 1325q0 82 53 131t125 49q66 0 104 -41t38 -94q0 -37 -14.5 -68.5t-39 -54t-57.5 -36t-69 -13.5q-59 0 -99.5 36t-40.5 91zM338 614q137 20 207.5 73.5t70.5 162.5q0 55 -22.5 83 t-56.5 28q-63 0 -118.5 -94.5t-80.5 -252.5zM658 1325q0 84 53 132t125 48q66 0 103.5 -41t37.5 -94q0 -74 -54 -123t-128 -49q-57 0 -97 36t-40 91z" />
<glyph unicode="&#xec;" horiz-adv-x="663" d="M39 844q31 37 71 72.5t85 64.5t94 46t96 17q70 0 105.5 -38.5t35.5 -104.5q0 -23 -5 -57.5t-13 -75.5t-17.5 -87t-17.5 -89l-49 -234q-8 -37 -15.5 -78.5t-7.5 -66.5q0 -37 33 -37q27 0 62.5 27.5t58.5 54.5l43 -82q-31 -37 -71 -72.5t-85 -63.5t-92 -45.5t-92 -17.5 q-72 0 -109.5 42t-37.5 106q0 51 13 119.5t28 134.5l49 239q12 66 21 114t9 73q0 41 -32 41q-25 0 -59 -26.5t-58 -55.5zM182 1419q0 27 19.5 55.5t48 51t59.5 38t53 15.5q39 0 60 -51l131 -336l-56 -39l-276 213q-39 29 -39 53z" />
<glyph unicode="&#xed;" horiz-adv-x="663" d="M39 844q31 37 71 72.5t85 64.5t94 46t96 17q70 0 105.5 -38.5t35.5 -104.5q0 -23 -5 -57.5t-13 -75.5t-17.5 -87t-17.5 -89l-49 -234q-8 -37 -15.5 -78.5t-7.5 -66.5q0 -37 33 -37q27 0 62.5 27.5t58.5 54.5l43 -82q-31 -37 -71 -72.5t-85 -63.5t-92 -45.5t-92 -17.5 q-72 0 -109.5 42t-37.5 106q0 51 13 119.5t28 134.5l49 239q12 66 21 114t9 73q0 41 -32 41q-25 0 -59 -26.5t-58 -55.5zM281 1198l233 338q14 20 31 31.5t39 11.5q25 0 50.5 -15.5t47 -38t34.5 -48t13 -47.5q0 -23 -11 -37.5t-29 -26.5l-357 -217z" />
<glyph unicode="&#xee;" horiz-adv-x="663" d="M39 844q31 37 71 72.5t85 64.5t94 46t96 17q70 0 105.5 -38.5t35.5 -104.5q0 -23 -5 -57.5t-13 -75.5t-17.5 -87t-17.5 -89l-49 -234q-8 -37 -15.5 -78.5t-7.5 -66.5q0 -37 33 -37q27 0 62.5 27.5t58.5 54.5l43 -82q-31 -37 -71 -72.5t-85 -63.5t-92 -45.5t-92 -17.5 q-72 0 -109.5 42t-37.5 106q0 51 13 119.5t28 134.5l49 239q12 66 21 114t9 73q0 41 -32 41q-25 0 -59 -26.5t-58 -55.5zM74 1239l332 283h96l229 -281l-37 -59l-268 147l-330 -147z" />
<glyph unicode="&#xef;" horiz-adv-x="663" d="M39 844q31 37 71 72.5t85 64.5t94 46t96 17q70 0 105.5 -38.5t35.5 -104.5q0 -23 -5 -57.5t-13 -75.5t-17.5 -87t-17.5 -89l-49 -234q-8 -37 -15.5 -78.5t-7.5 -66.5q0 -37 33 -37q27 0 62.5 27.5t58.5 54.5l43 -82q-31 -37 -71 -72.5t-85 -63.5t-92 -45.5t-92 -17.5 q-72 0 -109.5 42t-37.5 106q0 51 13 119.5t28 134.5l49 239q12 66 21 114t9 73q0 41 -32 41q-25 0 -59 -26.5t-58 -55.5zM63 1325q0 82 53 131t125 49q66 0 104 -41t38 -94q0 -37 -14.5 -68.5t-39 -54t-57.5 -36t-69 -13.5q-59 0 -99.5 36t-40.5 91zM469 1325q0 84 53 132 t125 48q66 0 103.5 -41t37.5 -94q0 -74 -54 -123t-128 -49q-57 0 -97 36t-40 91z" />
<glyph unicode="&#xf1;" horiz-adv-x="1216" d="M41 840q31 39 71 75.5t84 64.5t90 44t89 16q68 0 102.5 -41t34.5 -112q0 -20 -7 -59.5t-16.5 -81t-18.5 -77.5t-13 -51h20q61 209 163.5 317.5t229.5 108.5q47 0 84 -16t63.5 -45t40 -66.5t13.5 -80.5q0 -29 -4 -63t-9 -67.5t-11.5 -65.5t-12.5 -56l-49 -228 q-8 -37 -14 -75.5t-6 -67.5q0 -39 32 -39q25 0 60 28.5t59 53.5l41 -80q-31 -39 -70.5 -74.5t-84 -63.5t-90.5 -44.5t-91 -16.5q-70 0 -111.5 39t-41.5 111q0 53 12 118.5t25 125.5l47 221q6 29 13 75t7 81t-14.5 55t-42.5 20q-35 0 -74 -44t-78 -119.5t-76.5 -179 t-68.5 -222.5l-49 -270q-139 0 -205 8t-76 18l111 576q14 70 24 127t10 84q0 18 -9 30.5t-23 12.5q-25 0 -60 -28t-59 -56zM377 1255q68 131 127.5 196t128.5 65q33 0 73 -13.5t80 -29t77.5 -28.5t68.5 -13q37 0 69 23.5t77 72.5l57 -35q-63 -131 -122.5 -194.5 t-129.5 -63.5q-35 0 -74 13.5t-78.5 28.5t-77.5 28.5t-69 13.5q-41 0 -72.5 -25.5t-72.5 -72.5z" />
<glyph unicode="&#xf2;" d="M35 397q0 137 47 255t124 205t174 137t200 50q90 0 164.5 -30.5t128 -86t83 -133t29.5 -173.5q0 -139 -45 -257t-118.5 -204t-170 -134.5t-198.5 -48.5q-98 0 -175 31t-131.5 86.5t-83 133t-28.5 169.5zM336 297q0 -98 26.5 -162.5t92.5 -64.5q51 0 95 70.5t74.5 174 t48 218t17.5 202.5q0 98 -25.5 158.5t-86.5 60.5q-49 0 -93.5 -68.5t-77 -170t-52 -215t-19.5 -203.5zM348 1419q0 27 19.5 55.5t48 51t59.5 38t53 15.5q39 0 60 -51l131 -336l-56 -39l-276 213q-39 29 -39 53z" />
<glyph unicode="&#xf3;" d="M35 397q0 137 47 255t124 205t174 137t200 50q90 0 164.5 -30.5t128 -86t83 -133t29.5 -173.5q0 -139 -45 -257t-118.5 -204t-170 -134.5t-198.5 -48.5q-98 0 -175 31t-131.5 86.5t-83 133t-28.5 169.5zM336 297q0 -98 26.5 -162.5t92.5 -64.5q51 0 95 70.5t74.5 174 t48 218t17.5 202.5q0 98 -25.5 158.5t-86.5 60.5q-49 0 -93.5 -68.5t-77 -170t-52 -215t-19.5 -203.5zM498 1198l233 338q14 20 31 31.5t39 11.5q25 0 50.5 -15.5t47 -38t34.5 -48t13 -47.5q0 -23 -11 -37.5t-29 -26.5l-357 -217z" />
<glyph unicode="&#xf4;" d="M35 397q0 137 47 255t124 205t174 137t200 50q90 0 164.5 -30.5t128 -86t83 -133t29.5 -173.5q0 -139 -45 -257t-118.5 -204t-170 -134.5t-198.5 -48.5q-98 0 -175 31t-131.5 86.5t-83 133t-28.5 169.5zM273 1239l332 283h96l229 -281l-37 -59l-268 147l-330 -147z M336 297q0 -98 26.5 -162.5t92.5 -64.5q51 0 95 70.5t74.5 174t48 218t17.5 202.5q0 98 -25.5 158.5t-86.5 60.5q-49 0 -93.5 -68.5t-77 -170t-52 -215t-19.5 -203.5z" />
<glyph unicode="&#xf5;" d="M35 397q0 137 47 255t124 205t174 137t200 50q90 0 164.5 -30.5t128 -86t83 -133t29.5 -173.5q0 -139 -45 -257t-118.5 -204t-170 -134.5t-198.5 -48.5q-98 0 -175 31t-131.5 86.5t-83 133t-28.5 169.5zM264 1255q68 131 127.5 196t128.5 65q33 0 73 -13.5t80 -29 t77.5 -28.5t68.5 -13q37 0 69 23.5t77 72.5l57 -35q-63 -131 -122.5 -194.5t-129.5 -63.5q-35 0 -74 13.5t-78.5 28.5t-77.5 28.5t-69 13.5q-41 0 -72.5 -25.5t-72.5 -72.5zM336 297q0 -98 26.5 -162.5t92.5 -64.5q51 0 95 70.5t74.5 174t48 218t17.5 202.5 q0 98 -25.5 158.5t-86.5 60.5q-49 0 -93.5 -68.5t-77 -170t-52 -215t-19.5 -203.5z" />
<glyph unicode="&#xf6;" d="M35 397q0 137 47 255t124 205t174 137t200 50q90 0 164.5 -30.5t128 -86t83 -133t29.5 -173.5q0 -139 -45 -257t-118.5 -204t-170 -134.5t-198.5 -48.5q-98 0 -175 31t-131.5 86.5t-83 133t-28.5 169.5zM274 1325q0 82 53 131t125 49q66 0 104 -41t38 -94 q0 -37 -14.5 -68.5t-39 -54t-57.5 -36t-69 -13.5q-59 0 -99.5 36t-40.5 91zM336 297q0 -98 26.5 -162.5t92.5 -64.5q51 0 95 70.5t74.5 174t48 218t17.5 202.5q0 98 -25.5 158.5t-86.5 60.5q-49 0 -93.5 -68.5t-77 -170t-52 -215t-19.5 -203.5zM680 1325q0 84 53 132t125 48 q66 0 103.5 -41t37.5 -94q0 -74 -54 -123t-128 -49q-57 0 -97 36t-40 91z" />
<glyph unicode="&#xf7;" horiz-adv-x="1032" d="M59 446v134h885v-134h-885zM410 184q0 27 10 51.5t27.5 44t41 32t50.5 12.5q51 0 81.5 -33t30.5 -82q0 -51 -38 -94t-91 -43q-51 0 -81.5 30.5t-30.5 81.5zM410 811q0 27 10 51.5t27.5 44t41 31.5t50.5 12q51 0 81.5 -32.5t30.5 -81.5q0 -51 -38 -94.5t-91 -43.5 q-51 0 -81.5 31t-30.5 82z" />
<glyph unicode="&#xf8;" d="M35 397q0 137 47 255t124 205t174 137t200 50q37 0 71.5 -5t67.5 -15l115 246l65 -25l-117 -250q94 -51 148.5 -147t54.5 -227q0 -139 -45 -257t-118.5 -204t-170 -134.5t-198.5 -48.5q-74 0 -136 19l-120 -264l-68 28l121 260q-104 49 -159.5 147.5t-55.5 229.5z M336 297q0 -23 1 -43.5t3 -38.5l322 684v2q-29 53 -84 53q-49 0 -93.5 -68.5t-77 -170t-52 -215t-19.5 -203.5zM373 115q29 -45 82 -45q51 0 95 70.5t74.5 174t48 218t17.5 202.5q0 14 -1 28.5t-1 27.5z" />
<glyph unicode="&#xf9;" horiz-adv-x="1220" d="M37 842q31 39 70.5 75.5t84 64.5t90.5 45t91 17q72 0 111.5 -35.5t39.5 -111.5q0 -47 -10 -109.5t-27 -136.5l-49 -235q-6 -29 -12 -70t-6 -72q0 -74 59 -73q33 0 71 44t78 119.5t77.5 178t68.5 219.5l49 272q143 0 209 -8t72 -18l-113 -576q-12 -68 -22.5 -126 t-10.5 -87q0 -16 9.5 -28.5t23.5 -12.5q25 0 59.5 29t59.5 55l41 -80q-31 -39 -71 -75.5t-85 -64.5t-91 -45t-89 -17q-66 0 -101.5 41.5t-35.5 109.5q0 23 7 62.5t17.5 81.5t18.5 79t12 52h-20q-59 -211 -161.5 -320t-229.5 -109q-92 0 -145.5 59.5t-53.5 145.5q0 51 11 119 t22 115l51 250q8 39 14 75.5t6 65.5q0 16 -8 28.5t-24 12.5q-25 0 -59 -30t-58 -56zM389 1419q0 27 19.5 55.5t48 51t59.5 38t53 15.5q39 0 60 -51l131 -336l-56 -39l-276 213q-39 29 -39 53z" />
<glyph unicode="&#xfa;" horiz-adv-x="1220" d="M37 842q31 39 70.5 75.5t84 64.5t90.5 45t91 17q72 0 111.5 -35.5t39.5 -111.5q0 -47 -10 -109.5t-27 -136.5l-49 -235q-6 -29 -12 -70t-6 -72q0 -74 59 -73q33 0 71 44t78 119.5t77.5 178t68.5 219.5l49 272q143 0 209 -8t72 -18l-113 -576q-12 -68 -22.5 -126 t-10.5 -87q0 -16 9.5 -28.5t23.5 -12.5q25 0 59.5 29t59.5 55l41 -80q-31 -39 -71 -75.5t-85 -64.5t-91 -45t-89 -17q-66 0 -101.5 41.5t-35.5 109.5q0 23 7 62.5t17.5 81.5t18.5 79t12 52h-20q-59 -211 -161.5 -320t-229.5 -109q-92 0 -145.5 59.5t-53.5 145.5q0 51 11 119 t22 115l51 250q8 39 14 75.5t6 65.5q0 16 -8 28.5t-24 12.5q-25 0 -59 -30t-58 -56zM582 1198l233 338q14 20 31 31.5t39 11.5q25 0 50.5 -15.5t47 -38t34.5 -48t13 -47.5q0 -23 -11 -37.5t-29 -26.5l-357 -217z" />
<glyph unicode="&#xfb;" horiz-adv-x="1220" d="M37 842q31 39 70.5 75.5t84 64.5t90.5 45t91 17q72 0 111.5 -35.5t39.5 -111.5q0 -47 -10 -109.5t-27 -136.5l-49 -235q-6 -29 -12 -70t-6 -72q0 -74 59 -73q33 0 71 44t78 119.5t77.5 178t68.5 219.5l49 272q143 0 209 -8t72 -18l-113 -576q-12 -68 -22.5 -126 t-10.5 -87q0 -16 9.5 -28.5t23.5 -12.5q25 0 59.5 29t59.5 55l41 -80q-31 -39 -71 -75.5t-85 -64.5t-91 -45t-89 -17q-66 0 -101.5 41.5t-35.5 109.5q0 23 7 62.5t17.5 81.5t18.5 79t12 52h-20q-59 -211 -161.5 -320t-229.5 -109q-92 0 -145.5 59.5t-53.5 145.5q0 51 11 119 t22 115l51 250q8 39 14 75.5t6 65.5q0 16 -8 28.5t-24 12.5q-25 0 -59 -30t-58 -56zM361 1239l332 283h96l229 -281l-37 -59l-268 147l-330 -147z" />
<glyph unicode="&#xfc;" horiz-adv-x="1220" d="M37 842q31 39 70.5 75.5t84 64.5t90.5 45t91 17q72 0 111.5 -35.5t39.5 -111.5q0 -47 -10 -109.5t-27 -136.5l-49 -235q-6 -29 -12 -70t-6 -72q0 -74 59 -73q33 0 71 44t78 119.5t77.5 178t68.5 219.5l49 272q143 0 209 -8t72 -18l-113 -576q-12 -68 -22.5 -126 t-10.5 -87q0 -16 9.5 -28.5t23.5 -12.5q25 0 59.5 29t59.5 55l41 -80q-31 -39 -71 -75.5t-85 -64.5t-91 -45t-89 -17q-66 0 -101.5 41.5t-35.5 109.5q0 23 7 62.5t17.5 81.5t18.5 79t12 52h-20q-59 -211 -161.5 -320t-229.5 -109q-92 0 -145.5 59.5t-53.5 145.5q0 51 11 119 t22 115l51 250q8 39 14 75.5t6 65.5q0 16 -8 28.5t-24 12.5q-25 0 -59 -30t-58 -56zM352 1325q0 82 53 131t125 49q66 0 104 -41t38 -94q0 -37 -14.5 -68.5t-39 -54t-57.5 -36t-69 -13.5q-59 0 -99.5 36t-40.5 91zM758 1325q0 84 53 132t125 48q66 0 103.5 -41t37.5 -94 q0 -74 -54 -123t-128 -49q-57 0 -97 36t-40 91z" />
<glyph unicode="&#xfd;" horiz-adv-x="1007" d="M-104 -281q0 59 24.5 106.5t59.5 55.5q20 -2 48.5 -11t59.5 -21.5t59.5 -25.5t51.5 -26q35 18 88 76.5t94 128.5l-141 664q-12 51 -20.5 82.5t-16.5 49t-17.5 23.5t-19.5 6q-23 0 -55.5 -27.5t-55.5 -54.5l-43 80q33 45 73 85t81 70t83 47t83 17q70 0 109.5 -56 t62.5 -179l96 -545q16 25 47 69t61.5 97t57.5 108.5t37 102.5q-4 31 -22.5 69t-39 76.5t-39 77.5t-20.5 76q12 45 59 74.5t101 29.5q31 0 56.5 -18t44 -47t28.5 -67t10 -74q0 -78 -47 -190.5t-126 -242t-182 -265.5t-216 -265q-115 -133 -204 -198.5t-190 -65.5 q-61 0 -90.5 30.5t-29.5 77.5zM500 1198l233 338q14 20 31 31.5t39 11.5q25 0 50.5 -15.5t47 -38t34.5 -48t13 -47.5q0 -23 -11 -37.5t-29 -26.5l-357 -217z" />
<glyph unicode="&#xff;" horiz-adv-x="1007" d="M-104 -281q0 59 24.5 106.5t59.5 55.5q20 -2 48.5 -11t59.5 -21.5t59.5 -25.5t51.5 -26q35 18 88 76.5t94 128.5l-141 664q-12 51 -20.5 82.5t-16.5 49t-17.5 23.5t-19.5 6q-23 0 -55.5 -27.5t-55.5 -54.5l-43 80q33 45 73 85t81 70t83 47t83 17q70 0 109.5 -56 t62.5 -179l96 -545q16 25 47 69t61.5 97t57.5 108.5t37 102.5q-4 31 -22.5 69t-39 76.5t-39 77.5t-20.5 76q12 45 59 74.5t101 29.5q31 0 56.5 -18t44 -47t28.5 -67t10 -74q0 -78 -47 -190.5t-126 -242t-182 -265.5t-216 -265q-115 -133 -204 -198.5t-190 -65.5 q-61 0 -90.5 30.5t-29.5 77.5zM262 1325q0 82 53 131t125 49q66 0 104 -41t38 -94q0 -37 -14.5 -68.5t-39 -54t-57.5 -36t-69 -13.5q-59 0 -99.5 36t-40.5 91zM668 1325q0 84 53 132t125 48q66 0 103.5 -41t37.5 -94q0 -74 -54 -123t-128 -49q-57 0 -97 36t-40 91z" />
<glyph unicode="&#x152;" horiz-adv-x="1968" d="M83 386q-26 126 1 276t97.5 276.5t173 218.5t232.5 144.5t273 52.5q35 0 83 -4t98.5 -9.5t100.5 -9.5t87 -6h733l20 -20q-6 -37 -18 -85.5t-26.5 -100.5t-30 -103t-27.5 -90h-86q-10 66 -18.5 111.5t-19.5 78.5t-23.5 55.5t-28.5 40.5q-43 2 -91 5.5t-96.5 4.5t-91.5 2 t-75 1l-90 -510l129 4q55 2 85.5 10t55.5 37l69 129l89 -4q-18 -86 -28.5 -138.5t-14.5 -70.5q-4 -16 -8.5 -45t-9.5 -63.5t-10 -71.5t-9 -68l-92 -4l-17 139q-14 31 -43 39t-84 13l-129 4l-47 -258q-12 -76 -18.5 -125t0 -80t26 -45.5t53.5 -16.5h115q55 0 99.5 14.5 t87.5 50.5t93 97.5t120 159.5l86 -14q-10 -43 -23.5 -96.5t-30 -109t-33 -108.5t-28.5 -94h-760q-37 0 -84 -4t-98 -10t-98.5 -10.5t-84.5 -4.5q-147 0 -258.5 52.5t-181 144.5t-95.5 218zM378.5 450.5q2.5 -108.5 32 -191.5t87 -132t147.5 -49q18 0 44 4t53.5 10t55 15.5 t50.5 21.5q6 10 11 25.5t11.5 42t14.5 66.5t18 97l107 615q12 72 19 115t9 68.5t1 37.5t-5 21q-37 16 -90 24t-98 8q-86 0 -159 -45t-129 -121.5t-97 -181t-62 -223.5q-23 -119 -20.5 -227.5z" />
<glyph unicode="&#x153;" horiz-adv-x="1544" d="M35 408q0 131 47 247.5t124 202.5t174 136t200 50q106 0 172.5 -41.5t101.5 -119.5q72 76 159 118.5t179 42.5q63 0 122.5 -13t103.5 -40.5t71 -70.5t27 -101q0 -72 -41 -124t-115 -88t-176.5 -55.5t-225.5 -23.5q-4 -23 -5 -43t-1 -30q0 -49 11.5 -92.5t34 -75t57.5 -51 t82 -19.5q72 0 141.5 36t120.5 79l41 -66q-27 -59 -67 -111.5t-93 -91t-116.5 -62.5t-135.5 -24q-98 0 -170 37t-119 103q-53 -66 -123.5 -103t-156.5 -37q-98 0 -177 31t-133.5 88.5t-84 136.5t-29.5 175zM336 340q0 -53 7 -101.5t22.5 -86t40 -60t59.5 -22.5 q37 0 67.5 32.5t55 87t43 123t30 139t17.5 137t6 116.5q0 45 -5 90t-17.5 80.5t-33 57t-50.5 21.5q-37 0 -69 -31.5t-58.5 -83t-48 -116t-36 -133t-22.5 -134t-8 -116.5zM965 614q137 20 207.5 73.5t70.5 162.5q0 55 -22.5 83t-57.5 28q-63 0 -118 -94.5t-80 -252.5z" />
<glyph unicode="&#x178;" horiz-adv-x="1179" d="M100 1235l15 90h581l-14 -90l-113 -10q-23 -8 -22 -33q0 -16 6 -44t16 -58l148 -390l215 351q20 33 38.5 70.5t18.5 54.5q0 29 -20 45l-117 14l16 90h432l-12 -90l-88 -18q-33 -16 -68.5 -57.5t-78.5 -104.5l-312 -467l-41 -242q-12 -70 -19 -115t-9 -71.5t0 -40t8 -19.5 l147 -22l-10 -78h-647l14 78l158 22q8 6 14 18.5t13.5 38t15.5 70.5t21 119l45 244l-181 465q-29 74 -47 111.5t-39 52.5zM379 1579q0 82 54 132t126 50q66 0 100.5 -37.5t34.5 -93.5q0 -37 -15 -68.5t-39.5 -55t-57.5 -37t-70 -13.5q-57 0 -95 34t-38 89zM850 1579 q0 86 54 134t126 48q66 0 100.5 -37.5t34.5 -93.5q0 -37 -15 -68.5t-39.5 -55t-58.5 -37t-71 -13.5q-57 0 -94 34t-37 89z" />
<glyph unicode="&#x2c6;" horiz-adv-x="819" d="M291 1239l332 283h96l229 -281l-37 -59l-268 147l-330 -147z" />
<glyph unicode="&#x2dc;" horiz-adv-x="819" d="M264 1255q68 131 127.5 196t128.5 65q33 0 73 -13.5t80 -29t77.5 -28.5t68.5 -13q37 0 69 23.5t77 72.5l57 -35q-63 -131 -122.5 -194.5t-129.5 -63.5q-35 0 -74 13.5t-78.5 28.5t-77.5 28.5t-69 13.5q-41 0 -72.5 -25.5t-72.5 -72.5z" />
<glyph unicode="&#x2000;" horiz-adv-x="912" />
<glyph unicode="&#x2001;" horiz-adv-x="1825" />
<glyph unicode="&#x2002;" horiz-adv-x="912" />
<glyph unicode="&#x2003;" horiz-adv-x="1825" />
<glyph unicode="&#x2004;" horiz-adv-x="608" />
<glyph unicode="&#x2005;" horiz-adv-x="456" />
<glyph unicode="&#x2006;" horiz-adv-x="304" />
<glyph unicode="&#x2007;" horiz-adv-x="304" />
<glyph unicode="&#x2008;" horiz-adv-x="228" />
<glyph unicode="&#x2009;" horiz-adv-x="365" />
<glyph unicode="&#x200a;" horiz-adv-x="101" />
<glyph unicode="&#x2010;" horiz-adv-x="772" d="M84 625l569 28l11 -233l-568 -29z" />
<glyph unicode="&#x2011;" horiz-adv-x="772" d="M84 625l569 28l11 -233l-568 -29z" />
<glyph unicode="&#x2012;" horiz-adv-x="772" d="M84 625l569 28l11 -233l-568 -29z" />
<glyph unicode="&#x2013;" horiz-adv-x="1214" d="M74 467l22 135h1024l-22 -135h-1024z" />
<glyph unicode="&#x2014;" horiz-adv-x="2033" d="M74 467l22 135h1843l-22 -135h-1843z" />
<glyph unicode="&#x2018;" horiz-adv-x="468" d="M131 1004q0 117 94 223t260 186l35 -72q-68 -43 -120 -92t-52 -84q0 -23 11.5 -36t56.5 -31q63 -27 63 -72q0 -37 -15 -70.5t-41 -61.5t-57.5 -44t-62.5 -16q-33 0 -63.5 14t-55 36.5t-39 53.5t-14.5 66z" />
<glyph unicode="&#x2019;" horiz-adv-x="468" d="M135 870q68 43 120 92.5t52 84.5q0 23 -11 36t-56 31q-63 27 -64 72q0 37 15.5 70.5t41 61.5t57.5 44t62 16q33 0 63.5 -14t55.5 -36.5t39 -54.5t14 -65q0 -117 -94 -223t-260 -186z" />
<glyph unicode="&#x201a;" horiz-adv-x="487" d="M-55 -244q68 43 120 92.5t52 83.5q0 23 -11.5 36.5t-56.5 31.5q-63 27 -63 72q0 37 15 70.5t41 61t57.5 44t62.5 16.5q33 0 63.5 -14t55 -37t39 -54.5t14.5 -64.5q0 -117 -94.5 -223.5t-259.5 -185.5z" />
<glyph unicode="&#x201c;" horiz-adv-x="872" d="M131 1004q0 117 94 223t260 186l35 -72q-68 -43 -120 -92t-52 -84q0 -23 11.5 -36t56.5 -31q63 -27 63 -72q0 -37 -15 -70.5t-41 -61.5t-57.5 -44t-62.5 -16q-33 0 -63.5 14t-55 36.5t-39 53.5t-14.5 66zM535 1004q0 117 94 223t260 186l35 -72q-68 -43 -120 -92t-52 -84 q0 -23 11 -36t56 -31q63 -27 64 -72q0 -37 -15.5 -70.5t-41 -61.5t-57.5 -44t-62 -16q-33 0 -64 14t-55.5 36.5t-38.5 53.5t-14 66z" />
<glyph unicode="&#x201d;" horiz-adv-x="874" d="M135 870q68 43 120 92.5t52 84.5q0 23 -11 36t-56 31q-63 27 -64 72q0 37 15.5 70.5t41 61.5t57.5 44t62 16q33 0 63.5 -14t55.5 -36.5t39 -54.5t14 -65q0 -117 -94 -223t-260 -186zM541 870q68 43 120 92.5t52 84.5q0 23 -11.5 36t-56.5 31q-63 27 -63 72q0 37 15 70.5 t41 61.5t57.5 44t62.5 16q33 0 63.5 -14t55 -36.5t39 -54.5t14.5 -65q0 -117 -94.5 -223t-260.5 -186z" />
<glyph unicode="&#x201e;" horiz-adv-x="897" d="M-55 -244q68 43 120 92.5t52 83.5q0 23 -11.5 36.5t-56.5 31.5q-63 27 -63 72q0 37 15 70.5t41 61t57.5 44t62.5 16.5q33 0 63.5 -14t55 -37t39 -54.5t14.5 -64.5q0 -117 -94.5 -223.5t-259.5 -185.5zM354 -244q68 43 120 92.5t52 83.5q0 23 -11 36.5t-56 31.5 q-63 27 -64 72q0 37 15.5 70.5t41 61t57.5 44t62 16.5q33 0 64 -14t55.5 -37t38.5 -54.5t14 -64.5q0 -117 -94 -223.5t-260 -185.5z" />
<glyph unicode="&#x2022;" horiz-adv-x="1992" d="M61 629q0 135 52.5 253.5t143.5 208t212 140.5t260 51q133 0 248 -46t203 -124q143 -127 273 -217t237.5 -146.5t189.5 -83t131 -28.5v-19q-84 0 -192.5 -46t-222 -114.5t-222 -151.5t-194.5 -159q-90 -78 -204 -125t-247 -47q-139 0 -260 51.5t-212 140.5t-143.5 208 t-52.5 254z" />
<glyph unicode="&#x2026;" horiz-adv-x="1402" d="M-2 127q0 37 14.5 73t39 63.5t57 45t71.5 17.5q74 0 118 -47.5t44 -118.5q0 -37 -14.5 -72t-40 -62.5t-59 -44t-70.5 -16.5q-72 0 -116 45t-44 117zM453 127q0 37 14 73t38.5 63.5t57.5 45t72 17.5q74 0 118 -47.5t44 -118.5q0 -37 -14.5 -72t-40 -62.5t-59.5 -44 t-71 -16.5q-72 0 -115.5 45t-43.5 117zM913 127q0 37 14.5 73t39 63.5t57.5 45t72 17.5q74 0 117.5 -47.5t43.5 -118.5q0 -37 -14 -72t-39.5 -62.5t-59.5 -44t-71 -16.5q-72 0 -116 45t-44 117z" />
<glyph unicode="&#x202f;" horiz-adv-x="365" />
<glyph unicode="&#x2039;" horiz-adv-x="591" d="M-2 487l8 50l516 444l74 -35l-293 -432l139 -436l-82 -35z" />
<glyph unicode="&#x203a;" horiz-adv-x="591" d="M-31 78l293 432l-139 436l82 35l362 -444l-8 -50l-516 -444z" />
<glyph unicode="&#x205f;" horiz-adv-x="456" />
<glyph unicode="&#x20ac;" horiz-adv-x="1114" d="M12 340l17 100h108q0 27 3 53.5t7 55.5q2 16 5.5 30.5t7.5 30.5h-103l17 101h119q37 90 95 162.5t131 123t158 77t175 26.5q98 0 190 -14.5t148 -32.5l20 -21q-4 -27 -15.5 -66.5t-25.5 -82.5t-29.5 -87t-27.5 -79l-72 -4q-8 72 -23.5 146.5t-27.5 115.5q-35 14 -73 19 t-75 5q-94 0 -160.5 -82.5t-105.5 -205.5h350l-16 -101h-360l-7 -41q-6 -35 -10 -66.5t-6 -62.5h317l-18 -100h-301q6 -117 50 -191.5t138 -74.5q49 0 95 14q20 18 47.5 52t57.5 74t55.5 78t43.5 66l68 -14q-6 -29 -16.5 -68.5t-22.5 -85t-25.5 -89.5t-23.5 -78 q-78 -25 -165 -39.5t-185 -14.5q-86 0 -156 28t-120 77t-81.5 116.5t-42.5 149.5h-129z" />
<glyph unicode="&#x2122;" horiz-adv-x="1800" d="M162 1067q0 72 4 144.5t8 113.5h594q6 -72 8 -144.5t2 -113.5l-57 -2l-62 172q-25 23 -79 23h-23v-408q0 -59 4 -87t17 -38l75 -10v-72h-366v72l71 8q16 12 20.5 39t4.5 88v408h-29q-55 0 -78 -25l-51 -170zM823 645v72l62 6q14 12 18 40t4 93v277q0 55 -3 79.5t-15 34.5 l-62 10v68h308l159 -426l99 270q10 33 24.5 80t20.5 76h299v-70l-64 -12q-10 -10 -13 -35.5t-3 -77.5v-284q0 -53 2 -81t18 -38l62 -10v-72h-334v72l53 6q16 10 21.5 36.5t5.5 82.5v350l-199 -551h-67l-224 573v-358q0 -63 4.5 -92t16.5 -39l69 -8v-72h-262z" />
<glyph unicode="&#x25fc;" horiz-adv-x="1044" d="M0 0v1044h1044v-1044h-1044z" />
</font>
</defs>
</svg>
