<?xml version="1.0" encoding="UTF-8"?>
<svg width="217px" height="44px" viewBox="0 0 217 44" version="1.1" xmlns="http://www.w3.org/2000/svg" xmlns:xlink="http://www.w3.org/1999/xlink">
    <!-- Generator: Sketch Beta 40 (33734) - http://www.bohemiancoding.com/sketch -->
    <title>Facebook_logo</title>
    <desc>Created with Sketch Beta.</desc>
    <defs></defs>
    <g id="Page-1" stroke="none" stroke-width="1" fill="none" fill-rule="evenodd">
        <g id="Facebook_logo" fill="#FFFFFF">
            <g id="g8">
                <path d="M112.020508,21.5966797 C110.236328,21.5966797 108.950195,22.1816406 107.646484,22.777832 L107.646484,36.2636718 C108.895508,36.3828124 109.611328,36.3828124 110.796875,36.3828124 C115.079102,36.3828124 115.666016,34.4218749 115.666016,31.6835936 L115.666016,25.2421874 C115.666016,23.2207031 114.995117,21.5966797 112.020508,21.5966797 L112.020508,21.5966797 Z M83.5825195,20.8608398 C80.6118164,20.8608398 79.9331054,22.4921875 79.9331054,24.5117187 L79.9331054,25.6464843 L87.227539,25.6464843 L87.227539,24.5117187 C87.2275391,22.4921875 86.5498047,20.8608398 83.5825195,20.8608398 L83.5825195,20.8608398 Z M28.4926758,34.8984375 C28.4926758,36.4960937 29.246582,37.3261719 30.9106446,37.3261719 C32.6958008,37.3261719 33.7524415,36.7441407 35.0551758,36.1464844 L35.0551758,32.9472656 L31.1518555,32.9472656 C29.3046875,32.9472656 28.4926758,33.2910156 28.4926758,34.8984375 L28.4926758,34.8984375 Z M139.683594,21.5966797 C136.708008,21.5966797 135.676758,23.2207031 135.676758,25.2421875 L135.676758,32.6210937 C135.676758,34.6484375 136.708008,36.2773437 139.683594,36.2773437 C142.651367,36.2773437 143.69043,34.6484375 143.69043,32.6210937 L143.69043,25.2421875 C143.69043,23.2207031 142.651367,21.5966797 139.683594,21.5966797 L139.683594,21.5966797 Z M13.9091797,43.171875 L5.1616211,43.171875 L5.1616211,21.9975586 L0.7900391,21.9975586 L0.7900391,14.7011719 L5.1616211,14.7011719 L5.1616211,10.3203125 C5.1616211,4.3676758 7.6289063,0.828125 14.640625,0.828125 L20.4785156,0.828125 L20.4785156,8.1259766 L16.8295898,8.1259766 C14.0996093,8.1259766 13.9199218,9.1455078 13.9199218,11.0488282 L13.9091796,14.701172 L20.5195312,14.701172 L19.7460937,21.9975587 L13.9091796,21.9975587 L13.9091796,43.171875 L13.9091797,43.171875 Z M43.8061523,43.2265625 L36.515625,43.2265625 L36.199707,41.3828125 C32.8706054,43.2265625 29.899414,43.5253906 27.9394531,43.5253906 C22.5927734,43.5253906 19.7460937,39.953125 19.7460937,35.0136718 C19.7460937,29.1855468 23.0668945,27.1054687 29.0083007,27.1054687 L35.0551757,27.1054687 L35.0551757,25.8457031 C35.0551757,22.871582 34.7143554,21.9975586 30.1396484,21.9975586 L22.659668,21.9975586 L23.3911133,14.7011719 L31.5673828,14.7011719 C41.6054687,14.7011719 43.8061523,17.8720703 43.8061523,25.9042969 L43.8061523,43.2265625 L43.8061523,43.2265625 Z M68.5991211,22.5327148 C64.0620117,21.755371 62.7592773,21.5844726 60.5761719,21.5844726 C56.6547852,21.5844726 55.4697266,22.449707 55.4697266,25.7792968 L55.4697266,32.0781249 C55.4697266,35.408203 56.6547852,36.2773437 60.5761719,36.2773437 C62.7592774,36.2773437 64.0620117,36.1035156 68.5991211,35.3222656 L68.5991211,42.4394531 C64.625,43.3300781 62.0361328,43.5644531 59.8476563,43.5644531 C50.4555665,43.5644531 46.722168,38.625 46.722168,31.4902343 L46.722168,26.3789062 C46.722168,19.2377929 50.4555664,14.290039 59.8476563,14.290039 C62.0361329,14.290039 64.6250001,14.5253906 68.5991211,15.4199218 L68.5991211,22.5327148 L68.5991211,22.5327148 Z M95.9750977,31.4902344 L79.9331055,31.4902344 L79.9331055,32.078125 C79.9331055,35.4082031 81.1191407,36.2773438 85.0395508,36.2773438 C88.5639649,36.2773438 90.7148438,36.1035157 95.2436524,35.3222657 L95.2436524,42.4394532 C90.8759766,43.3300782 88.6000977,43.5644532 84.3144532,43.5644532 C74.9218751,43.5644532 71.1865235,38.6250001 71.1865235,31.4902344 L71.1865235,25.6464844 C71.1865235,19.4038086 73.9580079,14.2900391 83.5825196,14.2900391 C93.2070313,14.2900391 95.9750977,19.3442383 95.9750977,25.6464844 L95.9750977,31.4902344 L95.9750977,31.4902344 Z M124.412109,31.625 C124.412109,38.5214844 122.441406,43.5507812 110.500977,43.5507812 C106.189453,43.5507812 103.660156,43.171875 98.9013672,42.4394531 L98.9013672,3.019043 L107.646484,1.5595703 L107.646484,15.3486328 C109.536133,14.6464844 111.982422,14.290039 114.208984,14.290039 C122.955078,14.290039 124.412109,18.2109374 124.412109,24.5117187 L124.412109,31.625 L124.412109,31.625 Z M152.445312,31.7753906 C152.445312,37.7246094 149.989258,43.4941406 139.712891,43.4941406 C129.431641,43.4941406 126.929688,37.7246094 126.929688,31.7753906 L126.929688,26.03125 C126.929688,20.0791016 129.431641,14.3085938 139.712891,14.3085938 C149.989258,14.3085938 152.445312,20.0791016 152.445312,26.03125 L152.445312,31.7753906 L152.445312,31.7753906 Z M180.458984,31.7753906 C180.458984,37.7246094 178,43.4941406 167.725586,43.4941406 C157.444336,43.4941406 154.942383,37.7246094 154.942383,31.7753906 L154.942383,26.03125 C154.942383,20.0791016 157.444336,14.3085938 167.725586,14.3085938 C178,14.3085938 180.458984,20.0791016 180.458984,26.03125 L180.458984,31.7753906 L180.458984,31.7753906 Z M209.208008,43.171875 L199.728516,43.171875 L191.711914,29.7890625 L191.711914,43.171875 L182.963867,43.171875 L182.963867,3.019043 L191.711914,1.5595703 L191.711914,27.4082031 L199.728516,14.7011719 L209.208008,14.7011719 L200.456055,28.5683594 L209.208008,43.171875 L209.208008,43.171875 Z M167.696289,21.5966797 C164.725586,21.5966797 163.694336,23.2207031 163.694336,25.2421875 L163.694336,32.6210937 C163.694336,34.6484375 164.725586,36.2773437 167.696289,36.2773437 C170.663086,36.2773437 171.712891,34.6484375 171.712891,32.6210937 L171.712891,25.2421875 C171.712891,23.2207031 170.663086,21.5966797 167.696289,21.5966797 L167.696289,21.5966797 Z" id="path10"></path>
                <path d="M214.201172,38.1777344 C215.673828,38.1777344 216.847656,39.3789063 216.847656,40.8789063 C216.847656,42.4023438 215.673828,43.5898438 214.19043,43.5898438 C212.714844,43.5898438 211.517578,42.4023438 211.517578,40.8789063 C211.517578,39.3789063 212.714844,38.1777344 214.19043,38.1777344 L214.201172,38.1777344 L214.201172,38.1777344 Z M214.19043,38.5976562 C213.003906,38.5976562 212.032227,39.6191406 212.032227,40.8789062 C212.032227,42.1621093 213.003906,43.1699218 214.201172,43.1699218 C215.399414,43.1816406 216.356445,42.1621093 216.356445,40.8906249 C216.356445,39.6191405 215.399414,38.5976561 214.201172,38.5976561 L214.19043,38.5976561 L214.19043,38.5976562 Z M213.686523,42.4511719 L213.206055,42.4511719 L213.206055,39.4375 C213.458008,39.4023438 213.698242,39.3671875 214.057617,39.3671875 C214.513672,39.3671875 214.811523,39.4628906 214.99414,39.59375 C215.170898,39.7265625 215.266601,39.9296875 215.266601,40.2167969 C215.266601,40.6152344 215.004883,40.8535157 214.68164,40.9511719 L214.68164,40.9746094 C214.944336,41.0234375 215.124023,41.2617188 215.18457,41.7050782 C215.254883,42.1738282 215.327148,42.3535157 215.375,42.451172 L214.87207,42.451172 C214.800781,42.3535158 214.728515,42.0781251 214.667969,41.6816408 C214.597656,41.2988283 214.404297,41.154297 214.019531,41.154297 L213.686523,41.154297 L213.686523,42.4511719 L213.686523,42.4511719 Z M213.686523,40.7832031 L214.03418,40.7832031 C214.427734,40.7832031 214.762695,40.6386719 214.762695,40.265625 C214.762695,40.0019531 214.572265,39.7382812 214.03418,39.7382812 C213.876953,39.7382812 213.768555,39.75 213.686523,39.7617187 L213.686523,40.7832031 L213.686523,40.7832031 Z" id="path12"></path>
            </g>
        </g>
    </g>
</svg>