<?xml version="1.0" encoding="UTF-8"?>
<svg width="550px" height="291px" viewBox="0 0 550 291" version="1.1" xmlns="http://www.w3.org/2000/svg" xmlns:xlink="http://www.w3.org/1999/xlink">
    <!-- Generator: Sketch Beta 40 (33734) - http://www.bohemiancoding.com/sketch -->
    <title>logo_r24_positivoNoclaim</title>
    <desc>Created with Sketch Beta.</desc>
    <defs>
        <polygon id="path-1" points="0.06 0.358 0.06 86.495 55.842 86.495 55.842 0.358 0.06 0.358"></polygon>
    </defs>
    <g id="Page-1" stroke="none" stroke-width="1" fill="none" fill-rule="evenodd">
        <g id="logo_r24_positivoNoclaim">
            <g id="Group-3" transform="translate(0.000000, 71.000000)">
                <mask id="mask-2" fill="white">
                    <use xlink:href="#path-1"></use>
                </mask>
                <g id="Clip-2"></g>
                <path d="M13.013,39.934 L17.136,39.934 C29.419,39.934 35.56,35.222 35.56,25.817 C35.56,17.006 29.591,12.616 17.642,12.616 L13.013,12.616 L13.013,39.934 L13.013,39.934 Z M29.185,49.8 L55.842,86.495 L39.949,86.495 L15.359,51.246 L13.013,51.246 L13.013,86.495 L0,86.495 L0,0.358 L15.234,0.358 C26.608,0.358 34.827,2.501 39.889,6.785 C45.469,11.541 48.251,17.835 48.251,25.641 C48.251,31.722 46.504,36.975 43.013,41.362 C39.518,45.75 34.907,48.576 29.185,49.8 L29.185,49.8 Z" id="Fill-1" fill="#2F312F" mask="url(#mask-2)"></path>
            </g>
            <path d="M108.349,124.381 L95.582,95.099 L82.198,124.381 L108.349,124.381 L108.349,124.381 Z M113.649,136.616 L76.788,136.616 L67.2,157.495 L53.2,157.495 L95.807,65.971 L136.908,157.495 L122.682,157.495 L113.649,136.616 L113.649,136.616 Z" id="Fill-4" fill="#2F312F"></path>
            <path d="M154.965,145.25 L160.826,145.25 C166.667,145.25 171.527,144.638 175.388,143.425 C179.262,142.116 182.759,140.043 185.888,137.219 C192.282,131.397 195.488,123.793 195.488,114.426 C195.488,104.986 192.327,97.341 186,91.459 C180.304,86.236 171.912,83.616 160.826,83.616 L154.965,83.616 L154.965,145.25 L154.965,145.25 Z M141.952,157.495 L141.952,71.358 L160.022,71.358 C168.69,71.358 175.538,72.228 180.558,73.928 C185.954,75.596 190.839,78.445 195.233,82.474 C204.122,90.577 208.56,101.225 208.56,114.426 C208.56,127.66 203.932,138.375 194.668,146.586 C190.027,150.647 185.153,153.496 180.059,155.091 C175.296,156.696 168.542,157.495 159.807,157.495 L141.952,157.495 L141.952,157.495 Z" id="Fill-5" fill="#2F312F"></path>
            <polygon id="Fill-6" fill="#2F312F" points="211.98 157.495 224.989 157.495 224.989 71.358 211.98 71.358"></polygon>
            <path d="M241.587,114.21 C241.587,123.721 244.778,131.534 251.186,137.671 C257.538,143.801 264.883,146.859 273.227,146.859 C282.262,146.859 289.895,143.755 296.098,137.501 C302.315,131.184 305.426,123.493 305.426,114.426 C305.426,105.254 302.355,97.554 296.209,91.361 C290.107,85.122 282.569,81.993 273.555,81.993 C264.591,81.993 257.018,85.122 250.849,91.361 C244.667,97.519 241.587,105.146 241.587,114.21 L241.587,114.21 Z M228.507,114.03 C228.507,101.921 232.942,91.498 241.839,82.811 C250.679,74.104 261.311,69.759 273.723,69.759 C285.991,69.759 296.516,74.145 305.285,82.918 C314.084,91.688 318.5,102.223 318.5,114.526 C318.5,126.92 314.074,137.419 305.236,146.049 C296.354,154.704 285.623,159.046 273.051,159.046 C261.937,159.046 251.956,155.185 243.11,147.486 C233.377,138.981 228.507,127.822 228.507,114.03 L228.507,114.03 Z" id="Fill-7" fill="#2F312F"></path>
            <path d="M442.773,145.25 L474.865,145.25 L474.865,157.495 L416.994,157.495 L446.889,121.317 C449.828,117.702 452.291,114.607 454.281,111.957 C456.272,109.312 457.783,107.105 458.826,105.325 C460.941,101.826 462.004,98.677 462.004,95.9 C462.004,91.889 460.586,88.513 457.766,85.818 C454.934,83.097 451.441,81.746 447.279,81.746 C438.584,81.746 433.604,86.87 432.326,97.137 L419.396,97.137 C421.48,79.003 430.646,69.959 446.889,69.959 C454.74,69.959 461.318,72.438 466.639,77.43 C472.014,82.4 474.703,88.558 474.703,95.929 C474.703,100.603 473.447,105.195 470.953,109.687 C469.686,112.032 467.83,114.812 465.389,118.015 C462.941,121.243 459.875,125.048 456.152,129.421 L442.773,145.25" id="Fill-8" fill="#2F312F"></path>
            <path d="M527.209,133.457 L527.209,104.641 L507.363,133.457 L527.209,133.457 L527.209,133.457 Z M540.223,133.457 L549.375,133.457 L549.375,145.317 L540.223,145.317 L540.223,157.495 L527.209,157.495 L527.209,145.317 L484.936,145.317 L540.223,64.986 L540.223,133.457 L540.223,133.457 Z" id="Fill-9" fill="#2F312F"></path>
            <g id="Group-13" transform="translate(240.000000, 0.000000)" fill="#98C866">
                <path d="M0.674,114.456 C0.674,96.168 15.495,81.363 33.768,81.363 C52.061,81.363 66.883,96.168 66.883,114.456 C66.883,132.722 52.061,147.544 33.768,147.544 C15.495,147.544 0.674,132.722 0.674,114.456" id="Fill-10"></path>
                <path d="M106.988,87.673 C108.07,88.61 108.33,87.797 108.879,89.552 C109.41,91.298 110.086,93.185 109.682,96.398 C109.279,99.639 109.279,97.342 111.02,98.951 C112.766,100.574 113.307,100.435 113.045,103.124 C112.766,105.812 112.1,106.759 112.908,109.173 C113.717,111.59 115.195,110.645 113.438,112.267 C111.703,113.873 111.828,114.014 111.424,117.114 C111.02,120.198 112.1,119.521 110.217,121.405 C108.33,123.283 107.787,120.726 108.465,125.03 C109.143,129.337 108.07,127.992 107.4,130.136 C106.721,132.285 104.971,131.341 104.701,133.639 C104.432,135.931 102.562,133.913 101.879,137.132 C101.201,140.354 101.201,138.335 99.996,140.233 C98.797,142.097 95.971,140.62 95.703,142.378 C95.428,144.116 95.299,143.317 92.336,145.858 C89.385,148.427 86.691,146.003 86.561,147.886 C86.43,149.766 85.219,148.011 84.547,149.36 C83.865,150.712 78.23,148.288 78.484,150.439 C78.772,152.579 76.48,150.712 75.139,153.804 C73.788,156.901 70.022,155.006 68.141,156.359 C66.256,157.688 64.382,161.186 61.152,162.798 C57.928,164.424 57.928,165.231 55.244,166.296 C52.555,167.379 50.26,168.055 49.055,170.73 C47.842,173.425 46.498,170.73 46.1,172.083 C45.689,173.425 43.275,176.776 42.865,178.813 C42.455,180.816 40.854,182.158 40.171,183.639 C39.512,185.125 36.957,184.179 35.748,184.712 C34.535,185.252 33.993,186.463 33.729,188.886 C33.465,191.299 34.272,193.181 31.976,195.206 C29.699,197.211 29.428,192.518 28.217,192.775 C27.006,193.06 23.371,190.899 22.84,191.973 C22.296,193.06 19.34,191.153 18.404,192.378 C17.464,193.583 16.386,193.851 14.101,194.389 C11.816,194.927 9.798,194.126 9.269,197.08 C8.723,200.036 9.269,197.887 9.938,203.931 C10.6,209.978 8.452,208.897 7.777,211.46 C7.108,214.018 8.992,215.492 7.512,218.585 C6.033,221.681 8.452,221.939 7.512,227.193 C6.574,232.438 6.706,234.044 5.095,241.031 C3.485,248.026 5.095,250.186 6.168,254.748 C7.249,259.323 10.745,258.378 10.066,261.605 C9.399,264.82 13.162,263.885 13.558,266.57 C13.967,269.264 14.369,269.68 15.311,272.902 C16.258,276.116 17.861,275.722 21.624,278.941 C25.391,282.165 27.135,280.963 29.826,284.322 C32.527,287.685 35.615,287.023 35.748,288.626 C35.875,290.23 39.1,286.862 40.055,289.291 C40.992,291.709 43.01,289.291 44.346,290.638 C45.689,291.989 46.363,289.014 47.713,290.511 C49.055,291.989 51.076,284.988 53.216,287.142 C55.377,289.291 58.871,287.406 59.941,289.014 C61.027,290.638 62.227,283.246 63.848,283.101 C65.455,282.98 71.906,281.753 74.059,280.553 C76.214,279.349 77.419,278.551 78.35,276.912 C79.295,275.31 81.584,271.14 82.93,270.204 C84.273,269.264 87.09,265.777 88.711,266.17 C90.322,266.57 93.818,260 92.473,257.844 C91.129,255.682 93.545,252.729 94.488,252.463 C95.428,252.196 99.188,250.715 99.062,247.894 C98.922,245.065 96.23,240.63 96.646,237.946 C97.037,235.266 97.584,229.345 98.389,229.753 C99.188,230.156 100.275,225.175 99.062,224.9 C97.848,224.632 99.457,222.617 101.201,220.737 C102.957,218.856 104.303,216.97 103.488,215.229 C102.68,213.475 104.844,212.148 105.781,211.18 C106.721,210.262 110.217,206.093 110.086,205.015 C109.945,203.931 109.279,199.905 110.486,199.628 C111.703,199.349 113.975,197.362 112.365,196.541 C110.752,195.736 112.629,193.583 113.975,192.775 C115.326,191.973 115.996,187.407 116.93,187.93 C117.875,188.472 120.557,187.544 121.768,187.809 C122.988,188.074 120.84,180.54 122.717,181.622 C124.592,182.697 124.869,180.276 126.488,179.614 C128.104,178.94 127.02,176.919 131.191,176.651 C135.354,176.381 134.68,174.635 135.492,174.635 C136.291,174.635 138.717,171.139 140.066,171.405 C141.41,171.685 143.023,168.723 144.365,166.973 C145.709,165.231 145.84,161.468 146.904,160.104 C147.998,158.775 148.803,152.048 151.217,149.897 C153.637,147.746 153.906,145.059 155.242,144.518 C156.598,143.983 156.855,141.178 156.322,140.233 C155.789,139.29 157.26,138.335 158.879,138.208 C160.496,138.069 161.022,136.324 160.627,135.389 C160.225,134.448 161.432,133.37 163.18,132.961 C164.922,132.561 163.898,128.634 164.592,127.391 C165.324,126.038 163.18,125.309 163.447,123.693 C163.721,122.071 163.049,121 163.992,120.198 C164.922,119.389 166.131,118.177 165.602,117.502 C165.066,116.836 165.066,114.82 165.873,114.157 C166.678,113.476 166.408,113.211 166.277,112.267 C166.131,111.313 167.35,110.522 168.145,109.441 C168.951,108.366 168.145,107.558 167.881,106.759 C167.615,105.949 168.564,104.739 169.092,103.402 C169.631,102.047 168.424,101.65 168.018,100.161 C167.615,98.683 168.018,97.873 168.018,96.528 C168.018,95.179 167.076,94.664 167.211,93.846 C167.35,93.039 167.211,93.439 167.881,91.695 C168.564,89.941 168.951,89.685 168.145,89.013 C167.35,88.327 166.678,88.327 166.408,87.93 C166.131,87.531 166.541,85.534 166.678,84.711 C166.797,83.901 164.787,78.536 163.312,77.725 C161.834,76.916 163.18,74.492 163.588,73.555 C163.992,72.618 164.525,70.73 163.721,69.383 C162.916,68.035 162.506,68.035 161.967,66.838 C161.432,65.618 162.506,64.146 160.768,63.354 C159.012,62.539 159.418,62.126 157.938,60.777 C156.463,59.43 157.938,60.116 155.654,59.031 C153.361,57.953 152.156,58.228 152.83,56.478 C153.504,54.74 154.711,55.271 153.637,53.797 C152.561,52.324 152.156,53.529 150.82,52.452 C149.463,51.378 150.945,51.774 149.463,50.029 C147.998,48.277 149.873,49.087 147.576,47.467 C145.295,45.867 145.709,48.13 145.709,45.055 C145.709,41.965 147.855,43.441 145.438,41.687 C143.023,39.944 145.295,40.88 142.607,39.405 C139.922,37.929 141.41,39.671 139.523,37.25 C137.633,34.835 137.912,33.756 136.424,35.11 C134.943,36.457 136.291,36.994 134.006,36.053 C131.732,35.11 132.936,36.33 131.453,34.426 C129.98,32.552 129.701,33.505 129.312,30.801 C128.9,28.132 131.191,28.939 128.768,27.315 C126.348,25.715 127.961,25.574 125.807,24.634 C123.658,23.68 126.348,26.112 123.123,22.891 C119.895,19.656 120.977,19.656 119.082,17.766 C117.207,15.879 120.158,17.502 117.207,15.483 C114.25,13.465 116.533,13.342 113.834,13.342 C111.152,13.342 112.24,14.01 110.217,13.07 C108.195,12.135 109.143,11.847 107.787,12.381 C106.455,12.934 108.738,11.718 106.047,13.07 C103.355,14.417 106.455,14.956 103.223,14.417 C99.996,13.877 100.965,14.653 99.188,12.792 C96.369,9.851 97.584,12.26 96.369,9.974 C95.166,7.691 96.098,6.61 93.818,6.201 C91.533,5.805 94.219,7.024 90.721,5.263 C87.232,3.522 87.906,2.581 86.43,3.657 C84.938,4.723 86.691,4.723 84.131,4.723 C81.584,4.723 82.523,5.671 80.105,4.327 C77.685,2.998 78.627,3.378 76.879,2.441 C75.139,1.503 78.084,1.634 74.467,1.634 C70.826,1.634 72.85,2.043 70.296,1.377 C67.74,0.695 69.621,-0.65 67.473,0.959 C65.322,2.581 67.874,2.313 65.043,2.725 C62.227,3.119 64.915,2.313 61.963,3.378 C59.008,4.459 61.559,4.459 58.46,4.997 C55.377,5.541 58.193,6.744 55.103,5.541 C52.016,4.327 55.377,4.206 51.332,3.918 C47.312,3.657 49.453,1.634 46.77,4.061 C44.082,6.482 45.553,3.657 43.949,6.482 C42.332,9.308 43.676,7.423 41.386,9.851 C39.1,12.26 39.777,12.26 37.213,13.07 C34.665,13.877 36.144,14.543 33.729,13.199 C31.308,11.847 33.055,9.452 29.97,11.847 C26.877,14.279 27.944,13.199 25.523,14.543 C23.105,15.879 23.371,16.436 21.755,16.703 C20.147,16.958 21.497,15.749 19.618,17.646 C17.729,19.524 18.804,19.113 17.196,19.243 C15.588,19.388 15.987,18.582 14.772,19.784 C13.558,20.986 14.508,20.195 12.883,20.856 L11.275,21.543 C11.275,21.543 11.683,24.763 10.745,27.047 C9.798,29.331 7.694,32.331 8.367,33.678 C9.038,35.011 8.367,38.511 7.289,40.675 C6.215,42.828 8.324,46.884 7.649,48.364 C5.566,52.97 13.701,61.261 13.917,59.121 C13.659,61.822 17.29,58.498 17.68,60.38 C18.086,62.256 22.772,59.304 22.772,61.328 C22.772,63.744 29.566,63.943 30.298,61.992 C29.436,64.251 33.59,61.052 35.073,62.256 C36.556,63.48 37.894,63.732 42.332,62.814 C46.77,61.872 51.076,59.843 52.555,60.918 C54.033,61.992 56.984,58.888 58.323,59.843 C59.67,60.777 64.107,59.031 66.662,60.777 C69.215,62.539 72.572,60.918 74.18,63.602 C73.484,62.44 78.411,63.835 78.35,63.872 C80.242,62.388 79.828,61.448 81.173,64.146 C82.523,66.838 84.002,62.388 85.346,63.071 C86.691,63.732 87.09,64.953 90.184,64.953 C93.277,64.953 94.355,65.618 94.756,66.558 C95.166,67.506 95.83,66.702 97.18,66.972 C98.522,67.236 99.332,68.59 99.188,70.6 C99.062,72.618 99.73,73.014 101.201,74.899 C102.68,76.794 102.957,77.582 102.562,79.456 C102.158,81.356 102.68,80.82 103.762,82.293 C104.844,83.772 102.828,83.808 103.223,85.657 L106.988,87.673" id="Fill-12"></path>
            </g>
        </g>
    </g>
</svg>